<?xml version="1.0" encoding="UTF-8"?><svg xmlns="http://www.w3.org/2000/svg" viewBox="0 0 197.05 43.64"><g id="a"/><g id="b"/><g id="c"/><g id="d"/><g id="e"/><g id="f"/><g id="g"/><g id="h"/><g id="i"/><g id="j"/><g id="k"/><g id="l"/><g id="m"/><g id="n"/><g id="o"/><g id="p"/><g id="q"/><g id="r"/><g id="s"/><g id="t"/><g id="u"/><g id="v"/><g id="w"/><g id="x"/><g id="y"/><g id="a`"/><g id="aa"/><g id="ab"/><g id="ac"/><g id="ad"/><g id="ae"/><g id="af"/><g id="ag"/><g id="ah"/><g id="ai"/><g id="aj"/><g id="ak"/><g id="al"/><g id="am"/><g id="an"/><g id="ao"/><g id="ap"/><g id="aq"/><g id="ar"/><g id="as"/><g id="at"/><g id="au"/><g id="av"/><g id="aw"/><g id="ax"/><g id="ay"/><g id="b`"/><g id="ba"/><g id="bb"/><g id="bc"/><g id="bd"/><g id="be"/><g id="bf"/><g id="bg"/><g id="bh"/><g id="bi"/><g id="bj"/><g id="bk"/><g id="bl"/><g id="bm"/><g id="bn"/><g id="bo"/><g id="bp"/><g id="bq"/><g id="br"/><g id="bs"/><g id="bt"/><g id="bu"/><g id="bv"/><g id="bw"/><g id="bx"/><g id="by"/><g id="c`"/><g id="ca"/><g id="cb"/><g id="cc"/><g id="cd"/><g id="ce"/><g id="cf"/><g id="cg"/><g id="ch"/><g id="ci"/><g id="cj"/><g id="ck"/><g id="cl"/><g id="cm"/><g id="cn"/><g id="co"/><g id="cp"/><g id="cq"/><g id="cr"/><g id="cs"/><g id="ct"/><g id="cu"/><g id="cv"/><g id="cw"/><g id="cx"/><g id="cy"/><g id="d`"/><g id="da"/><g id="db"/><g id="dc"/><g id="dd"/><g id="de"/><g id="df"/><g id="dg"/><g id="dh"/><g id="di"/><g id="dj"/><g id="dk"/><g id="dl"/><g id="dm"/><g id="dn"/><g id="do"/><g id="dp"/><g id="dq"/><g id="dr"/><g id="ds"/><g id="dt"/><g id="du"/><g id="dv"/><g id="dw"/><g id="dx"/><g id="dy"><path d="M40.3,30.78l-3.17-3.22-9.3,9.4,3.17,3.22,2.72-2.75,5.98,6.05,3.86-3.92-5.98-6.05,2.72-2.74ZM15.91,7.67L8.49,.18H.73v7.86l7.41,7.49,7.77-7.86Zm6.35,30.18l15.75-15.91L22.26,6.02,6.53,21.93l15.73,15.91Zm3.11-9.64c-.29,1.49-1.6,2.56-3.11,2.56-1.74,0-3.17-1.43-3.17-3.2,0-.87,.32-1.68,.92-2.28,.6-.61,1.4-.93,2.23-.93,1.74,0,3.17,1.43,3.17,3.2,.02,.23,0,.45-.05,.65Zm-6.26-11.2c0-.85,.32-1.66,.92-2.25,.6-.61,1.38-.93,2.23-.93,1.74,0,3.17,1.43,3.17,3.2,0,.22-.02,.44-.06,.64-.29,1.49-1.6,2.56-3.11,2.56-1.74,0-3.17-1.43-3.17-3.2v-.02h.02ZM28.62,7.65l7.78,7.86,7.41-7.49V.16h-7.78l-7.41,7.49ZM10.8,37.43l2.72,2.75,3.17-3.22L7.39,27.56l-3.17,3.22,2.71,2.74L.98,39.54l3.86,3.92,5.97-6.03Z" style="fill:#62bd74;"/><path d="M77.08,27.82c.71-1.73,1.08-3.78,1.08-6.11s-.37-4.54-1.08-6.26c-.71-1.73-1.75-3.15-3.08-4.27-1.32-1.1-2.94-1.93-4.78-2.44-1.86-.51-3.95-.78-6.23-.78-1.08,0-2.38,.05-3.89,.14-1.48,.09-2.91,.26-4.26,.51v26.26c1.35,.28,2.75,.47,4.17,.54,1.45,.09,2.72,.14,3.78,.14,2.35,0,4.51-.3,6.4-.85,1.89-.56,3.51-1.43,4.83-2.56,1.32-1.15,2.35-2.6,3.06-4.32Zm-7.18,.34c-1.48,1.55-3.75,2.33-6.78,2.33-.54,0-.97,0-1.34-.02-.37-.02-.71-.03-1-.06l-.09-.02V13.09l.08-.02c.38-.05,.82-.08,1.25-.09,.45-.02,.88-.02,1.28-.02,3.03,0,5.29,.75,6.69,2.22,1.4,1.48,2.12,3.67,2.12,6.53,.02,2.72-.72,4.9-2.2,6.45Zm13.1,4.86c.66,.82,1.57,1.49,2.69,1.94,1.14,.47,2.57,.7,4.28,.7s3.32-.12,4.86-.37c1.51-.23,2.75-.5,3.72-.78V14.8h-5.58v15.88l-.08,.02c-.35,.05-.77,.09-1.25,.14-.46,.05-.91,.06-1.32,.06-1.37,0-2.32-.44-2.83-1.31-.49-.84-.75-2.24-.75-4.12V14.8h-5.58v11.38c0,1.4,.14,2.69,.43,3.85,.28,1.15,.75,2.16,1.41,3Zm27.91-18.77c-1.21,0-2.43,.23-3.58,.7-1.15,.47-2.2,1.15-3.09,2.05-.89,.9-1.61,2.04-2.17,3.39-.55,1.35-.83,2.95-.83,4.76,0,1.49,.22,2.91,.63,4.2,.42,1.29,1.08,2.41,1.95,3.36,.88,.93,2,1.69,3.34,2.22,1.34,.54,2.94,.81,4.75,.81,.72,0,1.45-.05,2.15-.12,.72-.08,1.4-.17,2.03-.3,.63-.11,1.2-.25,1.71-.4,.48-.14,.86-.3,1.15-.44l-.74-4.54c-.63,.26-1.45,.5-2.4,.68-1.01,.2-2.08,.3-3.14,.3-1.66,0-3.01-.36-4-1.07-1-.71-1.57-1.71-1.71-2.92l-.02-.11h13.1c.03-.3,.05-.62,.08-.98,.03-.4,.03-.78,.03-1.1,0-3.43-.83-6.06-2.49-7.82-1.63-1.76-3.92-2.66-6.77-2.66Zm-3.94,8.77l.02-.11c.08-.5,.2-.99,.37-1.49,.17-.5,.42-.93,.74-1.31,.32-.37,.72-.68,1.2-.9,.48-.23,1.05-.34,1.71-.34s1.26,.12,1.72,.36c.46,.23,.85,.54,1.15,.92,.31,.37,.54,.81,.68,1.29,.14,.48,.23,.96,.26,1.48v.11h-7.84Zm53.85-8.22h-5.58v20.39h5.58V14.8Zm-32-7.43h-5.58v27.82h5.58V7.37Zm36.48,23.12c.25,1.07,.68,2,1.28,2.77,.6,.75,1.43,1.35,2.45,1.77,1.01,.42,2.32,.64,3.88,.64,1.23,0,2.28-.11,3.11-.31,.82-.2,1.57-.44,2.25-.72l-.78-4.35c-.52,.19-1.09,.34-1.71,.45-.66,.12-1.31,.17-1.94,.17-1.32,0-2.21-.39-2.66-1.15-.43-.75-.65-1.74-.65-2.98v-7.01h6.94v-4.97h-6.94V7.37h-5.58V26.88c0,1.32,.12,2.55,.37,3.62Zm22.44,5.25c2.74,0,4.88-.51,6.35-1.54,1.48-1.01,2.23-2.55,2.23-4.52,0-.84-.09-1.6-.29-2.24-.18-.64-.52-1.21-.98-1.74-.48-.53-1.12-1.03-1.94-1.48-.81-.45-1.88-.93-3.12-1.4-.62-.23-1.14-.45-1.54-.65-.4-.2-.72-.39-.97-.56-.25-.19-.42-.37-.49-.58-.08-.19-.12-.42-.12-.67,0-1.07,.94-1.62,2.8-1.62,.98,0,1.88,.09,2.68,.28,.75,.17,1.46,.37,2.09,.59l.97-4.35c-.66-.25-1.54-.48-2.61-.68-1.12-.22-2.32-.33-3.55-.33-2.44,0-4.4,.56-5.78,1.66-1.38,1.1-2.09,2.61-2.09,4.51,0,.98,.14,1.82,.42,2.5,.28,.68,.68,1.29,1.18,1.79,.51,.5,1.12,.93,1.86,1.29,.74,.36,1.55,.72,2.45,1.06,1.17,.45,2.04,.85,2.61,1.2,.6,.37,.89,.81,.89,1.32,0,.64-.25,1.07-.71,1.31-.46,.22-1.2,.33-2.29,.33-1.01,0-2.05-.11-3.08-.34-1-.22-1.98-.51-2.94-.89l-.92,4.55c.46,.2,1.28,.45,2.42,.75,1.2,.3,2.71,.45,4.49,.45Zm-50.99-.39c.74,.11,1.49,.19,2.25,.25,.75,.06,1.49,.09,2.18,.09,1.66,0,3.15-.25,4.46-.76,1.29-.5,2.4-1.23,3.29-2.14,.89-.92,1.58-2.05,2.05-3.37,.48-1.32,.71-2.8,.71-4.43s-.2-3.08-.58-4.38c-.38-1.31-.95-2.42-1.69-3.36-.74-.92-1.66-1.65-2.75-2.14-1.09-.5-2.37-.76-3.8-.76-.78,0-1.54,.08-2.23,.23-.69,.16-1.35,.37-2,.65l-.14,.06V7.34h-5.55v27.18c.49,.16,1.08,.3,1.71,.44,.66,.17,1.37,.3,2.11,.4Zm1.77-15.39l.05-.03c.37-.23,.85-.44,1.45-.61,.58-.16,1.18-.23,1.78-.23,2.78,0,4.2,1.93,4.2,5.73,0,1.82-.42,3.29-1.21,4.4-.82,1.12-2.05,1.68-3.64,1.68-.52,0-1-.02-1.45-.06-.45-.05-.82-.09-1.09-.14l-.08-.02v-10.72h0Zm22.31-12.6h-5.61v4.9h5.61V7.37Z" style="fill:#fff;"/></g></svg>