<?xml version="1.0" encoding="UTF-8"?><svg xmlns="http://www.w3.org/2000/svg" viewBox="0 0 319.54 54.05"><g id="a"/><g id="b"/><g id="c"/><g id="d"/><g id="e"/><g id="f"/><g id="g"/><g id="h"/><g id="i"/><g id="j"/><g id="k"/><g id="l"/><g id="m"/><g id="n"/><g id="o"/><g id="p"/><g id="q"/><g id="r"/><g id="s"/><g id="t"/><g id="u"/><g id="v"/><g id="w"/><g id="x"/><g id="y"/><g id="a`"/><g id="aa"/><g id="ab"/><g id="ac"/><g id="ad"/><g id="ae"/><g id="af"/><g id="ag"/><g id="ah"/><g id="ai"/><g id="aj"/><g id="ak"/><g id="al"/><g id="am"/><g id="an"/><g id="ao"/><g id="ap"/><g id="aq"/><g id="ar"/><g id="as"/><g id="at"/><g id="au"/><g id="av"/><g id="aw"/><g id="ax"/><g id="ay"/><g id="b`"/><g id="ba"/><g id="bb"/><g id="bc"/><g id="bd"/><g id="be"/><g id="bf"/><g id="bg"/><g id="bh"/><g id="bi"/><g id="bj"/><g id="bk"/><g id="bl"/><g id="bm"/><g id="bn"/><g id="bo"/><g id="bp"/><g id="bq"/><g id="br"/><g id="bs"/><g id="bt"/><g id="bu"/><g id="bv"/><g id="bw"/><g id="bx"/><g id="by"/><g id="c`"/><g id="ca"/><g id="cb"/><g id="cc"/><g id="cd"/><g id="ce"/><g id="cf"/><g id="cg"/><g id="ch"/><g id="ci"/><g id="cj"/><g id="ck"/><g id="cl"/><g id="cm"/><g id="cn"/><g id="co"/><g id="cp"/><g id="cq"/><g id="cr"/><g id="cs"/><g id="ct"/><g id="cu"/><g id="cv"/><g id="cw"/><g id="cx"/><g id="cy"/><g id="d`"/><g id="da"/><g id="db"/><g id="dc"/><g id="dd"/><g id="de"/><g id="df"/><g id="dg"/><g id="dh"/><g id="di"/><g id="dj"/><g id="dk"/><g id="dl"/><g id="dm"/><g id="dn"/><g id="do"/><g id="dp"/><g id="dq"/><g id="dr"/><g id="ds"/><g id="dt"/><g id="du"/><g id="dv"/><g id="dw"/><g id="dx"/><g id="dy"/><g id="e`"/><g id="ea"/><g id="eb"/><g id="ec"/><g id="ed"/><g id="ee"/><g id="ef"/><g id="eg"/><g id="eh"/><g id="ei"/><g id="ej"/><g id="ek"/><g id="el"/><g id="em"/><g id="en"/><g id="eo"/><g id="ep"/><g id="eq"/><g id="er"/><g id="es"/><g id="et"><path d="M83.85,1.06c14.78,.02,27.21,12.02,26.89,27.48-.3,14.36-11.85,26.42-27.14,26.46-15.21,.04-27.24-12.33-26.98-27.39,.26-14.6,12.29-26.62,27.23-26.54Zm12.27,44.07c.03-.13,.07-.2,.05-.26-.99-4.2-1.98-8.39-3-12.58-.12-.48-.11-.84,.3-1.19,1.69-1.45,3.36-2.91,5.04-4.38,1.7-1.48,3.39-2.97,5.09-4.46-.26-.22-.5-.24-.76-.26-4.16-.32-8.32-.67-12.48-.97-.6-.04-.91-.25-1.13-.79-.74-1.79-1.52-3.56-2.29-5.33-.97-2.22-1.95-4.44-2.97-6.76-.17,.3-.29,.48-.38,.68-1.64,3.85-3.27,7.7-4.89,11.56-.16,.39-.33,.62-.8,.66-2.98,.24-5.97,.5-8.95,.76-1.51,.13-3.01,.27-4.65,.41,.24,.27,.37,.45,.53,.59,3.17,2.75,6.33,5.52,9.54,8.23,.53,.45,.55,.85,.42,1.4-.58,2.44-1.16,4.88-1.74,7.32-.42,1.77-.85,3.55-1.31,5.49,.44-.25,.72-.41,.99-.57,3.49-2.1,6.98-4.2,10.47-6.3,.3-.18,.56-.45,1.02-.15,1.18,.75,2.41,1.41,3.62,2.11,2.75,1.59,5.5,3.18,8.27,4.78Z" style="fill:#fa4d01;"/><path d="M.34,47.26c1.52-7.75,3.05-15.55,4.56-23.36,.75-3.87,1.46-7.76,2.17-11.64,.11-.59,.3-.88,1.02-.87,3.52,.06,7.04,.06,10.56,.04,.62,0,.9,.2,1.08,.78,1.44,4.66,2.9,9.32,4.36,13.98,.43,1.38,.85,2.76,1.34,4.35,.84-1.15,1.61-2.16,2.35-3.2,3.69-5.17,7.39-10.34,11.07-15.51,.31-.44,.67-.59,1.2-.58,3.55,.02,7.11,.03,10.66,0,.66,0,.83,.19,.71,.8-1.2,6.1-2.4,12.19-3.58,18.3-1.05,5.42-2.08,10.84-3.08,16.28-.1,.56-.32,.61-.79,.61-3.52,0-7.04-.01-10.56,.03-.75,0-.62-.33-.53-.81,.93-4.9,1.85-9.79,2.77-14.69,.02-.11,0-.23,0-.54-1.17,1.6-2.25,3.07-3.32,4.54-2.63,3.64-5.27,7.27-7.88,10.92-.31,.43-.63,.63-1.17,.59-.95-.08-2.14,.36-2.8-.17-.6-.48-.64-1.65-.91-2.51-1.39-4.34-2.78-8.68-4.32-13.03-.29,1.49-.59,2.97-.87,4.46-.65,3.47-1.29,6.95-1.96,10.42-.06,.33,.04,.85-.64,.84-3.77-.02-7.54-.01-11.42-.01ZM228.81,27.87c1.23-.82,2.64-1.43,3.66-2.53,1.92-2.06,2.36-4.6,1.97-7.26-.37-2.46-1.59-4.42-3.98-5.51-2.97-1.37-6.16-1.71-9.35-1.86-5.84-.27-11.69,0-17.53,.15-.56,.01-.75,.17-.86,.73-.61,3.22-1.26,6.43-1.92,9.65-1.68,8.28-3.37,16.57-5.08,24.85-.1,.49,.02,.61,.5,.6,.99-.02,1.97,.1,2.95,.1,5.72,0,11.43,.28,17.15-.11,3.27-.22,6.48-.68,9.59-1.76,3.73-1.3,6.26-3.68,6.92-7.67,.39-2.33,.2-4.61-1.22-6.64-.81-1.16-1.93-1.88-3.38-2.4,.3-.19,.44-.26,.56-.35Zm-19.05,9.95c-.51,.02-.69-.12-.57-.64,.26-1.17,.49-2.34,.71-3.52,.06-.31,.18-.38,.47-.45,.54-.13,1.07-.12,1.61-.12,1.58,0,3.15-.17,4.73-.07,1.42,.09,2.21,.59,2.38,1.69,.18,1.15-.56,2.34-1.74,2.73-1.25,.42-2.55,.46-3.86,.42-.32-.01-.64,0-.96,0v-.05c-.92,0-1.85-.03-2.77,.01Zm2.62-13.56c-.47,0-.57-.11-.46-.61,.23-1.01,.34-2.05,.51-3.08,.07-.4,.1-.81,.66-.89,2.03-.29,4.04-.25,6.02,.36,.86,.27,1.72,.56,1.7,1.72-.02,1.07-.49,1.67-1.69,2.1-1.38,.5-2.82,.4-4.25,.39-.83,0-1.66-.01-2.49,0Zm49.01-13.6c-4.31,0-8.63,.03-12.94-.02-.75,0-.96,.24-1.07,.9-.45,2.52-.92,5.03-1.42,7.54-1.76,8.91-3.53,17.83-5.3,26.74-.13,.67,.05,.86,.74,.84,2.3-.05,4.59-.09,6.89-.13,4.8-.09,9.6-.03,14.4-.03,2.34,0,4.67-.01,7.01,0,.49,0,.68-.09,.77-.64,.45-2.58,.96-5.15,1.51-7.7,.13-.62-.09-.69-.59-.68-1.18,.02-2.36,.1-3.53,.12-4.26,.06-8.51,0-12.77,.04-.77,0-.95-.23-.79-.92,.2-.89,.42-1.78,.53-2.69,.08-.73,.32-.99,1.11-.98,4.67,.04,9.34,0,14.01,.03,.71,0,.91-.26,1.03-.87,.44-2.42,.86-4.85,1.41-7.25,.2-.88-.08-.9-.78-.9-4.64,.03-9.28,0-13.91,.04-.65,0-.84-.17-.71-.8,.19-.89,.41-1.8,.46-2.7,.06-1,.55-1.11,1.41-1.1,5.22,.04,10.43,.02,15.65,.01,.36,0,.81,.21,.94-.47,.47-2.64,.99-5.27,1.51-7.9,.1-.52-.08-.69-.59-.64-.73,.07-1.46,.13-2.18,.14-4.26,.01-8.51,0-12.77,0v.03Zm-118.47,33.96c4.11-2.33,6.62-5.6,6.12-10.58-.28-2.8-1.49-5.03-3.93-6.58-1.96-1.24-4.15-1.84-6.34-2.46-1.79-.51-3.64-.81-5.38-1.5-.97-.39-1.69-1.27-1.63-2.02,.07-.83,.8-1.52,1.85-1.8,.65-.18,1.31-.22,1.98-.21,3.69,.08,7.21,.97,10.62,2.29,.69,.27,.97,.12,1.27-.53,.92-2.01,1.92-3.99,2.88-5.98,.31-.65,1-1.44,.82-1.92-.22-.61-1.29-.6-1.99-.85-5.52-1.95-11.18-2.92-17.01-1.79-5.35,1.04-9.33,3.99-11.75,8.88-2.11,4.27-.44,9.31,3.74,11.58,2.44,1.33,5.13,1.91,7.76,2.69,1.3,.39,2.65,.65,3.84,1.35,.62,.36,1.14,.84,1.09,1.65-.05,.79-.48,1.36-1.16,1.72-.74,.39-1.54,.57-2.37,.59-4.56,.08-8.74-1.26-12.68-3.45-.5-.28-.69-.3-.97,.24-1.28,2.47-2.58,4.93-3.91,7.37-.32,.6-.34,1.02,.34,1.31,.17,.08,.34,.18,.51,.27,4.19,2.08,8.72,2.51,12.44,2.76,5.28,0,10.15-.92,13.86-3.03ZM177.13,10.88c-5.22,0-10.43,.02-15.65-.02-.74,0-1.03,.2-1.16,.94-.43,2.42-.91,4.84-1.45,7.24-.16,.74,.03,.85,.7,.84,2.94-.03,5.88,0,8.83-.04,.7-.01,.88,.16,.72,.85-.34,1.51-.61,3.03-.91,4.55-1.08,5.51-2.15,11.02-3.23,16.54-.28,1.43-.56,2.85-.81,4.28-.05,.31-.29,.79,.41,.79,3.65-.01,7.3-.01,10.94-.01,.35,0,.48-.15,.55-.5,.76-4.06,1.53-8.12,2.31-12.18,.87-4.52,1.77-9.04,2.61-13.57,.11-.61,.33-.75,.91-.74,3.04,.03,6.08-.02,9.12,.04,.82,.02,1.08-.24,1.2-1,.39-2.4,.83-4.78,1.31-7.17,.15-.76-.07-.9-.8-.89-5.2,.03-10.41,.02-15.61,.02v.05Zm112.57,34.91c-.13,.67,.08,.66,.57,.66,3.46-.01,6.91-.01,10.37,0,.55,0,.82-.07,.94-.74,.59-3.35,1.26-6.69,1.91-10.03,.93-4.73,1.89-9.46,2.8-14.2,.37-1.95,.34-1.92,2.35-1.99,2.81-.1,5.61,.13,8.42-.15,.45-.04,.56-.17,.64-.59,.46-2.48,.94-4.95,1.46-7.42,.15-.74-.04-.91-.79-.9-2.62,.05-5.24,.03-7.86,.03-7.86,.01-15.72,.03-23.58,.02-.66,0-.94,.14-1.06,.84-.43,2.45-.94,4.89-1.45,7.33-.15,.7,.1,.84,.77,.83,3.23-.03,6.45-.01,9.71-.01-1.73,8.81-3.44,17.56-5.19,26.31Zm-193.52-.91c-.99-4.2-1.98-8.39-3-12.58-.12-.48-.11-.84,.3-1.19,1.69-1.45,3.36-2.91,5.04-4.38,1.7-1.48,3.39-2.97,5.09-4.46-.26-.22-.5-.24-.76-.26-4.16-.32-8.32-.67-12.48-.97-.6-.04-.91-.25-1.13-.79-.74-1.79-1.52-3.56-2.29-5.33-.97-2.22-1.95-4.44-2.97-6.76-.17,.3-.29,.48-.38,.68-1.64,3.85-3.27,7.7-4.89,11.56-.16,.39-.33,.62-.8,.66-2.98,.24-5.97,.5-8.95,.76-1.51,.13-3.01,.27-4.65,.41,.24,.27,.37,.45,.53,.59,3.17,2.75,6.33,5.52,9.54,8.23,.53,.45,.55,.85,.42,1.4-.58,2.44-1.16,4.88-1.74,7.32-.42,1.77-.85,3.55-1.31,5.49,.44-.25,.72-.41,.99-.57,3.49-2.1,6.98-4.2,10.47-6.3,.3-.18,.56-.45,1.02-.15,1.18,.75,2.41,1.41,3.62,2.11,2.75,1.59,5.5,3.18,8.27,4.78,.03-.13,.07-.2,.05-.26Z" style="fill:#fdfdfd;"/></g></svg>