<?xml version="1.0" encoding="UTF-8"?><svg xmlns="http://www.w3.org/2000/svg" viewBox="0 0 90 42.83"><g id="a"/><g id="b"/><g id="c"/><g id="d"/><g id="e"/><g id="f"/><g id="g"><circle cx="28.23" cy="25.24" r="17.49" style="fill:#084e56; isolation:isolate; opacity:.2;"/><circle cx="27.28" cy="24.29" r="16.54" style="fill:#247a38; isolation:isolate; opacity:.6;"/><circle cx="26.31" cy="24.3" r="15.57" style="fill:#247a38; isolation:isolate; opacity:.8;"/><path d="M20.26,.78C9.56,.78,.89,9.46,.89,20.16s8.67,19.37,19.37,19.37,19.37-8.67,19.37-19.37c0-10.7-8.67-19.37-19.37-19.37Zm0,37.01c-9.74,0-17.63-7.89-17.63-17.63C2.63,10.42,10.53,2.52,20.26,2.52c9.74,0,17.63,7.89,17.63,17.63s-7.89,17.63-17.63,17.63h0Z" style="fill:#2faa42; isolation:isolate; opacity:.6;"/><path d="M20.26,.1C9.19,.1,.21,9.08,.21,20.16c0,2.24,.38,4.47,1.11,6.59l1.58-1.01C-.16,16.13,5.15,5.86,14.76,2.8c7.34-2.34,15.36,.18,20.04,6.3l1.9-.44C32.95,3.29,26.81,.09,20.26,.1Z" style="fill:#2faa42; isolation:isolate; opacity:.6;"/><path d="M17.95,19.3h-6.59s.07-9,9.79-9,6.31,8.99,6.31,8.99c0,0-1.14,3.71-7.2,7.76h6.47l-2.1,8.05-15.15-1.85,.82-6.01s6.05-3.26,8.47-6.59,1.51-4.24,.93-4.21c-1.26,.02-1.75,2.86-1.75,2.86Z" style="fill:#084e56; isolation:isolate; opacity:.6;"/><path d="M39.5,13.24c-9.85-.13-12.83,9.6-11.41,17.13,1.42,7.52,10,5.93,10,5.93,0,0,7.7-.44,8.89-12.04s-7.48-11.02-7.48-11.02Zm.77,11.37c-.35,4.56-2.63,4.74-2.63,4.74,0,0-2.56,.63-2.98-2.33s.46-6.78,3.4-6.73c-.02,.01,2.57-.24,2.22,4.33Z" style="fill:#084e56; isolation:isolate; opacity:.6;"/><path d="M54.71,14.91h5.88c.59,0,1.18,.03,1.76,.11,.48,.07,.93,.25,1.33,.53,.43,.29,.77,.69,1,1.15,.24,.49,.36,1.03,.36,1.58,0,.73-.2,1.44-.57,2.06-.41,.67-1.06,1.17-1.82,1.4v.04c1.36,.46,2.04,1.48,2.05,3.04,0,1.16-.46,2.27-1.26,3.11-.94,.97-2.25,1.48-3.6,1.39h-7.83l2.7-14.42Zm1.82,11.34h2.1c1.48,0,2.22-.56,2.22-1.67,.02-.34-.1-.68-.32-.93-.38-.28-.85-.4-1.31-.34h-2.14l-.55,2.95Zm1.05-5.69h1.34c.45,.01,.91-.03,1.35-.14,.32-.09,.59-.3,.76-.58,.18-.26,.28-.57,.29-.88,.02-.31-.1-.61-.32-.83-.37-.24-.81-.34-1.25-.29h-1.68l-.49,2.72Zm19.2-5.65l-.53,3.1h-5.96l-.41,2.28h5.73l-.53,2.93h-5.73l-.48,2.86h6.46l-.57,3.29h-10.07l2.5-14.44,9.58-.03Zm12.53,0l-.63,3.55h-3.99l-2,10.9h-3.81l1.99-10.9h-3.81l.64-3.55h11.61Z" style="fill:#000208;"/><path d="M17.95,18.81h-6.59s.07-8.99,9.79-8.99,6.31,8.99,6.31,8.99c0,0-1.14,3.71-7.2,7.76h6.47l-.89,6.19H9.51l.8-6.01s6.05-3.3,8.47-6.59,1.51-4.24,.93-4.21c-1.26,.02-1.75,2.86-1.75,2.86Zm30.25,2.01c-1.18,11.58-8.88,12.03-8.88,12.03,0,0-8.59,1.58-10-5.93s1.58-17.25,11.41-17.12c-.01,.02,8.64-.56,7.47,11.02Zm-8.94-3.98c-2.93-.05-3.82,3.77-3.4,6.73s2.99,2.35,2.99,2.35c0,0,2.29-.17,2.63-4.74,.34-4.56-2.22-4.33-2.22-4.33v-.02Zm13.21,11.78h7.85c1.35,.09,2.66-.42,3.6-1.39,.8-.83,1.26-1.95,1.26-3.1,0-1.56-.68-2.58-2.05-3.05v-.04c.76-.23,1.4-.73,1.82-1.4,.37-.62,.57-1.34,.57-2.06,0-.55-.12-1.09-.36-1.58-.23-.46-.57-.86-1-1.16-.4-.27-.85-.45-1.33-.53-.58-.08-1.17-.11-1.76-.11h-5.88l-2.72,14.42Zm5.09-6.05h2.14c.46-.06,.93,.06,1.31,.34,.23,.26,.34,.59,.32,.93,0,1.12-.74,1.67-2.23,1.67h-2.1l.56-2.94Zm1.01-5.47h1.68c.44-.05,.88,.05,1.25,.29,.22,.22,.34,.52,.32,.83,0,.32-.11,.63-.29,.88-.18,.28-.45,.48-.76,.57-.44,.11-.89,.15-1.35,.14h-1.34l.49-2.72Zm9.11-2.93l-2.5,14.44h10.07l.57-3.29h-6.47l.5-2.83h5.72l.53-2.93h-5.7l.39-2.3h5.92l.53-3.1h-9.57Zm10.52,0l-.64,3.55h3.81l-2.03,10.89h3.81l2-10.89h3.99l.63-3.55h-11.58Z" style="fill:#fff;"/></g><g id="h"/><g id="i"/><g id="j"/><g id="k"/><g id="l"/><g id="m"/><g id="n"/><g id="o"/><g id="p"/><g id="q"/><g id="r"/><g id="s"/><g id="t"/><g id="u"/><g id="v"/><g id="w"/><g id="x"/><g id="y"/><g id="a`"/><g id="aa"/><g id="ab"/><g id="ac"/><g id="ad"/><g id="ae"/><g id="af"/><g id="ag"/><g id="ah"/><g id="ai"/></svg>