<svg width="101" height="62" viewBox="0 0 101 62" fill="none" xmlns="http://www.w3.org/2000/svg">
<path d="M23.5655 1.01044C23.5494 1.20105 23.5173 1.39166 23.515 1.58456C23.5127 6.7402 23.5127 11.8958 23.515 17.0515C23.515 17.2191 23.5356 17.3891 23.5517 17.6623C23.7951 17.5452 23.9766 17.4534 24.1603 17.3684C29.9612 14.6976 35.5348 15.1178 40.5251 19.1091C45.481 23.0729 47.2676 28.4191 45.6899 34.5577C44.1122 40.6916 39.9556 44.451 33.7275 45.6521C24.3027 47.4709 15.7069 39.9958 15.8447 30.424C15.9756 21.3597 15.8906 12.2931 15.8653 3.22656C15.8653 2.48249 16.0628 2.0186 16.7311 1.70857C17.1376 1.52026 17.5027 1.24698 17.8862 1.01273C19.7786 1.01273 21.6709 1.01273 23.5632 1.01273L23.5655 1.01044ZM39.7879 30.8029C39.7788 26.0078 35.8334 22.1153 30.9946 22.1267C26.2019 22.1382 22.2771 26.0515 22.2771 30.8144C22.2771 35.6026 26.2271 39.5342 31.0383 39.5365C35.8494 39.5365 39.7971 35.598 39.7879 30.8029Z" fill="#FEFEFE"/>
<path d="M57.5076 32.6539C57.5398 33.8067 57.797 34.8126 58.2563 35.7679C60.3369 40.106 66.7235 41.0683 69.8031 37.5087C69.9432 37.3456 70.12 37.1895 70.1912 36.9989C70.4943 36.1974 71.08 36.0711 71.8699 36.0986C73.652 36.1583 75.4387 36.117 77.2231 36.117H77.9855C77.9143 36.3811 77.8799 36.5625 77.8202 36.7371C76.0955 41.6722 71.5094 45.117 66.1792 45.466C63.4372 45.6452 60.7664 45.342 58.2425 44.1754C54.6898 42.5357 52.2739 39.8465 51.1004 36.1308C49.9246 32.4059 49.9866 28.635 51.4656 25.0157C53.7758 19.3595 58.2127 16.6542 64.2157 16.3694C67.0381 16.2362 69.7687 16.707 72.2167 18.1859C76.8947 21.0175 78.9776 25.2683 78.8628 30.6651C78.8513 31.1795 78.8031 31.6939 78.7985 32.2107C78.7962 32.5459 78.6515 32.6723 78.33 32.6585C78.0292 32.6447 77.7283 32.6539 77.4275 32.6539C71.0616 32.6539 64.698 32.6539 58.3321 32.6539C58.0795 32.6539 57.8269 32.6539 57.5076 32.6539ZM71.5002 28.1665C71.6036 26.4212 70.5701 24.4829 68.9741 23.3691C66.0851 21.3528 61.5104 21.9246 59.2139 24.5955C58.3413 25.6105 57.8544 26.7955 57.611 28.1665H71.5002Z" fill="#FEFEFE"/>
<path d="M92.4626 9.61542C92.4626 10.0173 92.4626 10.3756 92.4626 10.7361C92.4626 12.6055 92.4787 14.4748 92.4512 16.3419C92.4443 16.8678 92.5866 17.0446 93.1332 17.0377C95.1748 17.0079 97.2187 17.0262 99.2626 17.0262C99.4945 17.0262 99.7265 17.0262 100.004 17.0262V22.981C99.7701 22.9925 99.5404 23.0132 99.3131 23.0132C97.2485 23.0155 95.184 23.027 93.1194 23.0063C92.6257 23.0017 92.4489 23.128 92.4512 23.6539C92.4718 27.4983 92.4512 31.3449 92.4695 35.1892C92.4833 37.7958 93.3353 38.6546 95.9533 38.7419C97.0487 38.7787 98.1465 38.7695 99.2419 38.7442C99.6989 38.7327 99.8941 38.843 99.8849 39.3459C99.8574 40.9787 99.8757 42.6115 99.8734 44.2443C99.8734 44.513 99.9446 44.846 99.4968 44.8322C96.9661 44.761 94.4147 45.0779 91.9092 44.5291C91.0985 44.3523 90.297 44.0629 89.5369 43.723C86.7719 42.4806 85.6489 40.1198 85.4147 37.2836C85.2562 35.3615 85.2907 33.4232 85.2746 31.4896C85.2539 28.8899 85.2562 26.2903 85.2815 23.693C85.2861 23.1556 85.1276 22.9879 84.5902 23.004C83.4075 23.0408 82.2248 23.0155 81.0422 23.0155C80.7551 23.0155 80.4772 23.0408 80.4795 22.6067C80.491 20.7833 80.4841 18.9599 80.4841 17.063C80.7551 17.0492 80.9824 17.0285 81.2098 17.0285C82.3282 17.0239 83.4489 16.9849 84.5627 17.0446C85.1804 17.0767 85.3182 16.8241 85.3733 16.2868C85.5777 14.2566 85.8372 12.2334 86.037 10.2033C86.0853 9.71188 86.2368 9.54883 86.7375 9.55801C88.4369 9.58557 90.134 9.5672 91.8334 9.57179C92.0217 9.57179 92.21 9.59935 92.4649 9.61772L92.4626 9.61542Z" fill="#FEFEFE"/>
<path d="M12.3792 6.58176C12.3792 10.1069 12.3563 13.4001 12.393 16.6932C12.4022 17.5475 12.0393 18.186 11.6237 18.8726C2.45606 34.0019 12.6135 52.8401 30.2804 53.3729C35.9551 53.5451 41.0579 51.7171 45.3638 47.9738C46.4018 47.0713 46.9943 47.0392 47.9083 48.0496C48.9647 49.2185 50.1359 50.3071 51.3692 51.2877C52.4692 52.1626 52.2579 52.7551 51.3278 53.5681C44.459 59.5803 36.435 62.3844 27.4167 61.2453C12.5629 59.3759 2.4262 49.1221 0.249123 34.3648C-1.2413 24.2717 4.23355 11.5445 12.3792 6.58176Z" fill="#00BE7C"/>
<path d="M27.1319 4.42993C27.1319 1.50725 28.6017 0.103325 31.5412 0.21815C38.9107 0.518992 45.4006 3.0681 51.0293 7.83793C52.0145 8.67386 52.2855 9.0413 51.1671 10.3664C49.8719 11.8981 48.494 13.7928 46.8198 14.2543C45.1893 14.7045 43.878 12.3138 42.2429 11.4182C38.27 9.24339 34.0743 7.99639 29.5548 8.42583C27.4489 8.62563 27.047 8.12499 27.1182 6.01451C27.1365 5.49321 27.1297 4.96042 27.1297 4.43452L27.1319 4.42993Z" fill="#00BE7C"/>
</svg>
