<svg width="201" height="47" viewBox="0 0 201 47" fill="none" xmlns="http://www.w3.org/2000/svg">
<path d="M0.675781 45.6297L8.13178 2.27927L21.8307 2.30905C27.2353 2.32889 31.269 3.36104 33.9318 5.40552C36.5948 7.45 37.8077 10.3183 37.5712 14.0101C37.2752 18.5753 34.7899 21.8108 30.1151 23.7163C31.7918 24.3118 33.0936 25.3935 34.0205 26.9617C34.9674 28.5099 35.3719 30.3757 35.2337 32.559C34.9576 36.7473 33.3105 39.9727 30.2926 42.2354C27.2945 44.4983 23.1818 45.6297 17.9547 45.6297H0.675781ZM13.9901 27.1998L12.1853 37.5908L18.2505 37.6205C20.1442 37.6205 21.7222 37.1542 22.9846 36.2213C24.2469 35.2685 24.9965 34.0081 25.2333 32.4399C25.7856 29.1252 24.5232 27.3883 21.4461 27.2296L13.9901 27.1998ZM15.1439 20.3519L19.9075 20.3817C24.3062 20.2823 26.7717 18.5853 27.3043 15.2904C27.7778 12.035 26.1011 10.3976 22.2745 10.3777L16.8896 10.348L15.1439 20.3519Z" fill="#FDD60F"/>
<path d="M54.3769 46.2251C51.5168 46.2053 48.9623 45.5305 46.7138 44.2005C44.4848 42.8508 42.7983 40.985 41.6542 38.6031C40.5103 36.2013 40.0565 33.5615 40.2933 30.6832L40.3821 29.8497C40.9146 24.55 42.7391 20.3617 45.8557 17.2852C48.992 14.1888 52.8284 12.7 57.3652 12.8191C60.1068 12.8588 62.454 13.5635 64.407 14.933C66.3597 16.2827 67.7896 18.1585 68.697 20.5602C69.6043 22.9422 69.9003 25.6217 69.5846 28.5991L69.0225 32.6783H49.9684C50.0077 34.3653 50.4812 35.735 51.3885 36.787C52.2959 37.8389 53.6173 38.3946 55.3532 38.4543C58.1738 38.5336 60.7086 37.442 62.9571 35.1791L67.0401 40.6278C65.8369 42.3545 64.1505 43.7142 61.9807 44.7068C59.8307 45.6793 57.4735 46.1854 54.9094 46.2251H54.3769ZM56.7439 20.5305C55.363 20.4908 54.1598 20.9274 53.1342 21.8405C52.1281 22.7537 51.2503 24.2819 50.5009 26.4257H60.235L60.4126 25.5623C60.531 24.8676 60.5506 24.2125 60.4718 23.5972C60.1365 21.6123 58.8939 20.5901 56.7439 20.5305Z" fill="#FDD60F"/>
<path d="M89.0233 5.40552L87.6326 13.4147H92.7512L91.5383 20.3817H86.4197L83.9342 35.1791C83.7962 36.1914 83.8554 36.9557 84.1118 37.4717C84.388 37.9877 85.0586 38.2658 86.1237 38.3054C86.538 38.3252 87.3861 38.2755 88.6683 38.1564L87.9582 45.4212C86.321 45.9572 84.5753 46.2053 82.7213 46.1656C79.7033 46.1259 77.4448 45.2327 75.9458 43.4861C74.4467 41.7392 73.8351 39.3674 74.1114 36.3701L76.7149 20.3817H72.7502L73.9339 13.4147H77.8985L79.2892 5.40552H89.0233Z" fill="#FDD60F"/>
<path d="M108.6 45.6297L116.056 2.27927L129.755 2.30905C135.16 2.32889 139.193 3.36104 141.856 5.40552C144.519 7.45 145.732 10.3181 145.495 14.0101C145.2 18.5753 142.714 21.8108 138.039 23.7163C139.716 24.3118 141.018 25.3935 141.945 26.9617C142.892 28.5099 143.296 30.3757 143.158 32.559C142.882 36.7473 141.235 39.9727 138.217 42.2354C135.219 44.4983 131.106 45.6297 125.879 45.6297H108.6ZM121.914 27.1998L120.11 37.5908L126.175 37.6205C128.069 37.6205 129.646 37.1542 130.909 36.2213C132.171 35.2685 132.921 34.0081 133.158 32.4399C133.71 29.1252 132.447 27.3883 129.37 27.2296L121.914 27.1998ZM123.068 20.3519L127.832 20.3817C132.23 20.2823 134.696 18.5853 135.229 15.2904C135.702 12.035 134.025 10.3976 130.199 10.3777L124.814 10.348L123.068 20.3519Z" fill="white"/>
<path d="M162.301 46.2251C159.441 46.2053 156.887 45.5305 154.638 44.2005C152.409 42.8508 150.723 40.985 149.579 38.6031C148.435 36.2013 147.981 33.5615 148.218 30.6832L148.306 29.8497C148.839 24.55 150.663 20.3617 153.78 17.2852C156.916 14.1888 160.753 12.7 165.29 12.8191C168.031 12.8588 170.378 13.5635 172.331 14.933C174.284 16.2827 175.714 18.1585 176.621 20.5602C177.529 22.9422 177.825 25.6217 177.509 28.5991L176.947 32.6781H157.893C157.932 34.3653 158.406 35.735 159.313 36.787C160.22 37.8389 161.542 38.3946 163.278 38.4543C166.098 38.5336 168.633 37.442 170.881 35.1791L174.965 40.6278C173.761 42.3545 172.075 43.7142 169.905 44.7068C167.755 45.6793 165.398 46.1854 162.834 46.2251H162.301ZM164.668 20.5305C163.287 20.4908 162.084 20.9274 161.059 21.8405C160.052 22.7537 159.175 24.2819 158.425 26.4257H168.159L168.337 25.5623C168.455 24.8676 168.475 24.2125 168.396 23.5972C168.061 21.6123 166.818 20.5901 164.668 20.5305Z" fill="white"/>
<path d="M196.948 5.40552L195.558 13.4147H200.676L199.463 20.3817H194.343L191.858 35.1791C191.72 36.1914 191.78 36.9557 192.035 37.4717C192.312 37.9877 192.982 38.2658 194.048 38.3054C194.462 38.3252 195.31 38.2755 196.593 38.1564L195.883 45.4212C194.245 45.9572 192.5 46.2053 190.645 46.1656C187.627 46.1259 185.369 45.2327 183.87 43.4861C182.371 41.7392 181.759 39.3674 182.035 36.3701L184.639 20.3817H180.674L181.858 13.4147H185.823L187.213 5.40552H196.948Z" fill="white"/>
<path d="M103.707 46.225H94.2607L99.5439 13.2657H109.355L103.707 46.225Z" fill="white"/>
<path d="M109.355 13.2657H99.5435L103.694 46.225L109.355 13.2657Z" fill="#FDD60F"/>
<path d="M100.3 5.50286C100.262 3.93844 100.756 2.63123 101.784 1.58119C102.832 0.531125 104.093 0.00610352 105.567 0.00610352C107.061 0.00610352 108.302 0.47757 109.291 1.42046C110.3 2.36336 110.824 3.59557 110.862 5.1171C110.901 6.70281 110.407 8.02085 109.379 9.07082C108.35 10.0994 107.09 10.6136 105.596 10.6136C104.141 10.6136 102.9 10.1531 101.872 9.23158C100.863 8.28853 100.339 7.04569 100.3 5.50286Z" fill="#FFDA44"/>
<path fill-rule="evenodd" clip-rule="evenodd" d="M104.616 0.0840149C103.543 0.265485 102.599 0.764597 101.784 1.58131C100.756 2.63135 100.262 3.93856 100.3 5.50284C100.339 7.04587 100.863 8.28871 101.872 9.23157C102.9 10.1531 104.141 10.6138 105.596 10.6138C105.71 10.6138 105.822 10.6108 105.933 10.6049L104.616 0.0840149Z" fill="white"/>
</svg>
