<svg width="99" height="82" viewBox="0 0 99 82" fill="none" xmlns="http://www.w3.org/2000/svg">
<path fill-rule="evenodd" clip-rule="evenodd" d="M24.1 81.1001C25.9 81.1001 26.8 80.3001 26.8 78.7001V69.8001L33.7 60.9001C34 60.5001 34.2 59.9001 34.2 59.4001C34.2 59.1001 34.1 58.8001 34 58.5001C33.9 58.2001 33.7 57.9001 33.4 57.7001C32.8 57.2001 32.1 57.0001 31.3 57.0001C30.5 57.1001 29.8 57.4001 29.3 58.0001L24.1 65.0001L18.9 58.0001C18.6 57.7001 18.3 57.4001 17.9 57.2001C17.5 57.0001 17.1 57.0001 16.7 57.0001C16.4 57.0001 16 57.0001 15.7 57.2001C15.4 57.3001 15.1 57.5001 14.8 57.7001C14.6 57.9001 14.4 58.2001 14.2 58.5001C14.1 58.8001 14 59.1001 14 59.4001C14 59.9001 14.2 60.5001 14.5 60.9001L21.3 69.8001V78.7001C21.4 80.3001 22.3 81.1001 24.1 81.1001ZM41.8 74.4001C40.6 72.9001 40 71.0001 40.1 69.0001C40 67.1001 40.6 65.3001 41.7 63.8001C42.3 63.0001 43.1 62.4001 44 62.0001C44.9 61.6001 45.9 61.4001 46.9 61.4001C47.9 61.4001 48.9 61.6001 49.9 62.0001C52.5 63.3001 53.7 65.6001 53.7 69.0001C53.8 70.9001 53.2 72.7001 52.1 74.3001C51.5 75.0001 50.7 75.7001 49.8 76.1001C48.9 76.5001 47.9 76.7001 47 76.7001C46 76.7001 45 76.5001 44.2 76.1001C43.2 75.7001 42.4 75.1001 41.8 74.4001ZM55.9 77.7001C57 76.5001 57.9 75.2001 58.5 73.7001C59.1 72.2001 59.4 70.6001 59.3 69.0001C59.3 67.4001 59.1 65.8001 58.5 64.3001C57.9 62.8001 57 61.5001 55.9 60.3001C53.5 58.0001 50.3 56.7001 46.9 56.6001C43.5 56.6001 40.3 57.8001 37.9 60.1001C36.8 61.3001 35.9 62.6001 35.3 64.2001C34.7 65.7001 34.4 67.3001 34.5 68.9001C34.5 70.5001 34.7 72.1001 35.3 73.5001C35.9 75.0001 36.7 76.3001 37.9 77.5001C40.3 79.8001 43.5 81.2001 46.9 81.2001C50.2 81.3001 53.5 80.1001 55.9 77.7001ZM65.6 78.5001C67.8 80.3001 70.5 81.3001 73.4 81.3001C76.3 81.3001 79 80.3001 81.2 78.5001C82.2 77.6001 83 76.6001 83.6 75.3001C84.2 74.1001 84.4 72.8001 84.4 71.4001V59.5001C84.4 57.8001 83.5 56.9001 81.7 56.9001C79.9 56.9001 79 57.8001 79 59.5001V71.2001C79 71.9001 78.9 72.6001 78.6 73.3001C78.3 74.0001 77.9 74.6001 77.4 75.1001C76.3 76.1001 74.9 76.7001 73.4 76.7001C71.9 76.7001 70.4 76.1001 69.3 75.1001C68.8 74.6001 68.4 74.0001 68.2 73.3001C67.9 72.6001 67.8 71.9001 67.9 71.2001V59.5001C67.9 57.8001 67 56.9001 65.2 56.9001C63.4 56.9001 62.5 57.8001 62.5 59.5001V71.4001C62.5 72.7001 62.7 74.1001 63.3 75.3001C63.8 76.6001 64.6 77.7001 65.6 78.5001Z" fill="#FFE300"/>
<path fill-rule="evenodd" clip-rule="evenodd" d="M13 50.2001C13 50.5001 13.1 50.8001 13.2 51.1001C13.3 51.4001 13.5 51.6001 13.8 51.8001C14.3 52.2001 15 52.5001 15.7 52.5001C16.3 52.5001 16.8 52.4001 17.3 52.1001C17.8 51.8001 18.1 51.3001 18.3 50.8001L19.4 47.7001H29.5L30.6 50.8001C30.8 51.3001 31.1 51.8001 31.6 52.1001C32.1 52.4001 32.7 52.6001 33.2 52.5001C33.8 52.5001 34.5 52.3001 35 51.9001C35.2 51.7001 35.4 51.5001 35.6 51.2001C35.7 50.9001 35.8 50.6001 35.8 50.3001C35.8 49.9001 35.7 49.5001 35.5 49.1001L28.2 30.9001C27.9 30.1001 27.4 29.4001 26.7 28.9001C26 28.4001 25.2 28.1001 24.3 28.1001C23.4 28.1001 22.7 28.4001 22 28.9001C21.3 29.4001 20.8 30.1001 20.5 30.9001L13.2 49.1001C13.1 49.4001 13 49.8001 13 50.2001ZM24.4 33.3001L27.8 43.0001H20.9L24.4 33.3001ZM38.9 51.8001C39.5 52.3001 40.2 52.5001 40.9 52.5001C41.6 52.5001 42.3 52.2001 42.9 51.8001C43.1 51.6001 43.3 51.3001 43.5 50.9001C43.6 50.6001 43.7 50.2001 43.7 49.9001V37.5001H43.8L55.3 51.5001C55.6 51.8001 56 52.1001 56.4 52.2001C56.8 52.4001 57.2 52.5001 57.6 52.6001C58 52.6001 58.3 52.6001 58.7 52.4001C59 52.3001 59.4 52.1001 59.6 51.8001C59.8 51.6001 60 51.3001 60.2 50.9001C60.3 50.6001 60.4 50.2001 60.4 49.9001V30.9001C60.4 29.2001 59.5 28.3001 57.7 28.3001C55.9 28.3001 55 29.2001 55 30.9001V43.5001H54.9L43.1 29.4001C42.8 29.1001 42.5 28.8001 42.1 28.6001C41.7 28.4001 41.3 28.3001 40.8 28.3001C39 28.3001 38.1 29.2001 38.1 30.9001V49.9001C38.1 50.2001 38.1 50.6001 38.3 50.9001C38.4 51.3001 38.6 51.6001 38.9 51.8001ZM65 51.6001C65.6 52.1001 66.3 52.3001 67.1 52.3001H73.4C75 52.4001 76.7 52.1001 78.2 51.6001C79.7 51.1001 81.2 50.2001 82.4 49.1001C83.5 48.0001 84.4 46.7001 85 45.3001C85.6 43.9001 85.8 42.3001 85.8 40.7001C85.9 39.1001 85.6 37.5001 85.1 35.9001C84.5 34.4001 83.6 33.0001 82.5 31.8001C80.2 29.6001 77.1 28.5001 73.1 28.5001H67.1C66.4 28.5001 65.6 28.7001 65.1 29.2001C64.8 29.4001 64.6 29.7001 64.5 30.1001C64.4 30.4001 64.3 30.8001 64.3 31.1001V49.8001C64.3 50.1001 64.4 50.5001 64.5 50.8001C64.5 51.1001 64.7 51.4001 65 51.6001ZM72.9 33.1001C73.9 33.0001 74.9 33.2001 75.9 33.5001C76.8 33.9001 77.7 34.4001 78.4 35.1001C79.6 36.6001 80.2 38.5001 80.1 40.4001C80.2 42.2001 79.6 44.0001 78.5 45.5001C77.9 46.2001 77.1 46.8001 76.2 47.1001C75.3 47.5001 74.3 47.6001 73.4 47.6001H69.7V33.1001H72.9Z" fill="white"/>
<path fill-rule="evenodd" clip-rule="evenodd" d="M21.9 23.2C22.5 23.7 23.2 23.9 24 23.9H31.5C33.7 24 35.8 23.4 37.5 22.1C38.3 21.4 38.9 20.6 39.3 19.7C39.7 18.8 39.9 17.7 39.8 16.7C39.8 16 39.7 15.3 39.4 14.7C39.1 14 38.7 13.5 38.2 13C37.1 11.9 35.8 11.3 34.3 11.1V11C35.3 10.6 36.2 10 36.8 9.1C37.4 8.2 37.7 7.2 37.7 6.1C37.7 5.3 37.5 4.4 37.2 3.7C36 1.4 33.9 0.3 30.9 0.3H23.9C23.2 0.3 22.4 0.5 21.8 1C21.6 1 21.4 1.3 21.2 1.6C21.1 1.9 21 2.3 21 2.6V21.3C21 21.6 21.1 22 21.2 22.3C21.4 22.7 21.6 23 21.9 23.2ZM29.3 4.5C31.3 4.5 32.2 5.3 32.2 6.9C32.2 7.3 32.2 7.6 32 7.9C31.9 8.2 31.7 8.5 31.4 8.8C30.8 9.3 30 9.5 29.3 9.5H26.5V4.5H29.3ZM30.3 14C32.9 14 34.2 14.9 34.2 16.6C34.2 17 34.1 17.4 34 17.8C33.8 18.2 33.6 18.5 33.3 18.8C32.6 19.3 31.7 19.6 30.8 19.6H26.5V14.1H30.3V14ZM42.6 23.2C43.2 23.7 43.9 23.9 44.6 23.9H53.9C54.6 23.9 55.2 23.7 55.7 23.3C55.9 23.1 56.1 22.8 56.3 22.6C56.4 22.3 56.5 22 56.5 21.7C56.5 21.4 56.5 21.1 56.3 20.8C56.2 20.5 56 20.2 55.7 20C55.2 19.6 54.5 19.3 53.8 19.4H47.1V14.3H53C53.7 14.3 54.4 14.1 54.9 13.7C55.1 13.5 55.3 13.2 55.5 13C55.6 12.7 55.7 12.4 55.7 12.1C55.7 11.8 55.7 11.5 55.5 11.2C55.4 10.9 55.2 10.6 54.9 10.4C54.4 10 53.7 9.8 53 9.8H47.1V4.7H53.5C54.2 4.7 54.8 4.5 55.3 4C55.5 3.8 55.7 3.5 55.9 3.3C56 3 56.1 2.7 56.1 2.4C56.1 2.1 56.1 1.8 55.9 1.5C55.8 1.2 55.6 1 55.3 0.7C54.8 0.3 54.1 2.23517e-08 53.5 0.1H44.5C42.6 0.1 41.7 1.1 41.7 3V21.4C41.7 21.7 41.8 22.1 41.9 22.4C42.2 22.7 42.4 23 42.6 23.2ZM65.7 23.4C66.3 23.9 67 24.1 67.7 24.1C68.4 24.1 69.1 23.8 69.7 23.4C69.9 23.2 70.1 22.9 70.3 22.5C70.4 22.2 70.5 21.8 70.5 21.5V4.7H74.4C75.1 4.7 75.7 4.5 76.2 4.1C76.4 3.9 76.6 3.6 76.7 3.3C76.8 3 76.9 2.7 76.8 2.4C76.8 2.1 76.8 1.8 76.6 1.5C76.5 1.2 76.3 1 76.1 0.7C75.9 0.5 75.6 0.3 75.3 0.2C75 0.1 74.7 0 74.3 0H61C60.7 0 60.4 4.47035e-08 60.1 0.2C59.8 0.4 59.5 0.6 59.3 0.8C59.1 1 58.9 1.3 58.8 1.5C58.7 1.8 58.6 2.1 58.6 2.4C58.6 2.7 58.6 3 58.8 3.3C58.9 3.6 59.1 3.8 59.3 4.1C59.8 4.5 60.4 4.8 61.1 4.7H65V21.5C65 21.8 65 22.2 65.2 22.5C65.3 22.9 65.5 23.2 65.7 23.4Z" fill="#FEBB12"/>
</svg>
