<svg width="139" height="97" viewBox="0 0 139 97" fill="none" xmlns="http://www.w3.org/2000/svg">
<path d="M69.2998 17.8C68.1998 14.8 65.6998 12.8 64.3998 10.1C63.7998 8.89997 63.9998 7.59997 65.0998 6.79997C65.8998 6.19997 67.1998 6.09997 68.0998 6.69997C68.6998 7.09997 68.8998 7.69997 69.2998 8.39997C69.5998 7.99997 69.7998 7.59997 69.9998 7.29997C70.6998 6.29997 71.7998 5.99997 72.9998 6.49997C73.9998 6.89997 74.5998 8.09997 74.3998 9.19997C74.1998 10.4 73.3998 11.4 72.6998 12.4C72.0998 13.3 71.3998 14.2 70.7998 15.1C70.2998 15.8 69.7998 16.8 69.2998 17.8Z" fill="#FEFEFE"/>
<path d="M69.4 34.1C69.1 34.1 69 33.9 68.9 33.8C67.6 32.1 66.4 30.3 65.1 28.6C64.8 28.2 64.8 27.9 65.1 27.5C66.4 25.8 67.6 24.1 68.9 22.3C69.3 21.8 69.5 22 69.7 22.3C71 24 72.2 25.8 73.5 27.5C73.8 27.9 73.8 28.1 73.5 28.5C72.2 30.2 70.9 32 69.7 33.8C69.6 33.9 69.5 34 69.4 34.1Z" fill="#FEFEFE"/>
<path d="M60.9 18.6C60.6 18.4 60.2 18.3 59.9 18.1C55.6 15.4 55.4 9.49999 57.5 6.29999C58.3 5.09999 58.2 4.89999 57.1 3.99999C55.3 2.49999 53.1 1.69999 50.8 1.29999C50.1 1.19999 49.4 1.19999 48.7 0.999987C47.2 0.899987 45.7 1.09999 44.2 1.29999C43.9 1.39999 43.6 1.39999 43.3 1.49999C38.5 2.49999 35.5 5.49999 34.9 9.89999C34.4 13.4 35.8 16.9 39.6 18.6C39.8 18.7 40.2 18.7 40.2 19.1C40.2 19.4 39.9 19.4 39.7 19.5C35.9 21.3 34 24.2 34 28.5C34 32.1 35.4 35 38.3 37.2C40.9 39 43.9 39.5 47 39.6C50.7 39.7 54.1 39.1 57.2 36.9C58.3 36.1 58.3 35.9 57.5 34.9C55.4 32.1 54.9 29 55.6 25.7C56.3 22.8 58.2 20.8 60.9 19.5C61.1 19.4 61.5 19.3 61.5 19C61.5 18.7 61.1 18.7 60.9 18.6ZM44.9 7.39999C47.5 6.49999 50 6.49999 52.1 8.39999C53.8 9.99999 53.8 12.1 53 14.2C52.4 15.9 50.8 16.8 49.1 17C48.7 17.1 48.2 17 47.8 17.1C45.7 17.2 43.9 16.5 42.7 14.7C41 12.5 42.2 8.39999 44.9 7.39999ZM51 33.1C48.1 34.3 45.3 34.1 42.8 32C41 30.5 40.7 28.4 41.2 26.3C41.7 24.1 43.3 23 45.4 22.4C46.2 22.2 47 22.1 47.6 22.1C49.8 22.1 51.8 22.5 53.2 24.2C55.6 27.3 54.6 31.6 51 33.1Z" fill="#CB0000"/>
<path d="M104.1 25.9C103.5 22.9 101.6 20.9 98.9004 19.6C98.6004 19.5 98.3004 19.4 98.2004 19.1C98.2004 18.8 98.5004 18.7 98.8004 18.6C104.1 16.3 104.8 9.2 101.5 5.3C99.5004 3 96.9004 1.8 94.0004 1.3C91.8004 0.9 89.6004 0.9 87.4004 1.3C84.8004 1.8 82.5004 2.7 80.6004 4.5C80.2004 4.9 80.0004 5.2 80.4004 5.7C81.4004 7.1 82.0004 8.6 82.1004 10.4C82.3004 13.8 81.0004 16.9 77.7004 18.5C77.4004 18.6 77.0004 18.7 76.9004 19.1C76.9004 19.5 77.3004 19.5 77.6004 19.7C79.6004 20.7 81.2004 22 82.1004 24.1C83.7004 28.1 83.3004 31.8 80.6004 35.3C80.1004 35.9 80.1004 36.3 80.7004 36.8C81.5004 37.4 82.3004 38 83.2004 38.4C87.7004 40.2 92.2004 40.3 96.7004 38.8C102.7 36.7 105.2 31.4 104.1 25.9ZM85.1004 10.1C85.8004 8.1 87.4004 7.1 89.4004 6.9C91.4004 6.7 93.4004 6.8 94.9004 8.4C96.6004 10.1 96.7004 12.2 95.8004 14.3C95.0004 16.1 93.4004 17 91.4004 17.1C91.1004 17.1 90.8004 17.1 90.8004 17.1C88.7004 17.2 87.1004 16.7 85.9004 15.3C84.6004 13.8 84.5004 12 85.1004 10.1ZM97.1004 29.4C97.0004 29.9 96.8004 30.4 96.5004 30.8C95.5004 32.7 93.7004 33.5 91.6004 33.7C88.9004 34 86.3004 33.6 84.8004 31.1C82.8004 28 83.6004 22.9 89.3004 22.2C90.8004 22 92.3004 22 93.7004 22.6C96.6004 23.8 97.8004 26.2 97.1004 29.4Z" fill="#CB0000"/>
<path d="M12.036 72.7446C13.036 72.7446 14.136 72.7446 15.136 72.7446C15.636 72.7446 15.836 72.8446 15.836 73.3446C16.136 76.7446 19.036 77.4446 21.336 76.6446C23.536 75.8446 23.936 72.7446 22.036 70.8446C20.536 69.3446 18.736 68.3446 17.036 67.2446C14.836 65.8446 12.636 64.3446 10.936 62.2446C8.13599 58.6446 7.836 52.8446 10.836 49.3446C13.136 46.6446 16.236 45.8446 19.536 45.8446C22.436 45.8446 25.136 46.4446 27.336 48.5446C29.536 50.6446 30.236 53.2446 30.436 56.1446C30.436 56.6446 30.236 56.7446 29.836 56.7446C27.636 56.7446 25.436 56.7446 23.336 56.7446C22.736 56.7446 22.736 56.3446 22.736 55.9446C22.436 53.7446 20.736 52.5446 18.536 53.1446C16.736 53.6446 16.036 55.1446 16.636 56.8446C17.136 58.0446 18.036 58.8446 19.136 59.5446C21.136 60.8446 23.136 61.9446 25.036 63.2446C28.736 65.7446 31.136 69.0446 31.136 73.6446C31.136 78.7446 28.236 82.4446 23.236 83.7446C20.336 84.4446 17.336 84.4446 14.536 83.3446C10.336 81.7446 8.436 78.5446 8.036 74.2446C7.936 72.6446 7.936 72.6446 9.536 72.6446C10.536 72.7446 11.236 72.7446 12.036 72.7446Z" fill="#FEFEFE"/>
<path d="M121.135 53.6446C117.735 53.6446 114.535 53.6446 111.335 53.6446C110.635 53.6446 110.235 53.5446 110.335 52.6446C110.435 50.8446 110.335 48.9446 110.335 47.1446C110.335 46.5446 110.435 46.4446 111.035 46.4446C117.235 46.4446 123.535 46.4446 129.735 46.4446C130.335 46.4446 130.435 46.6446 130.435 47.1446C130.435 48.4446 130.435 49.7446 130.435 51.0446C130.335 52.4446 129.535 53.5446 128.935 54.7446C125.735 61.6446 122.435 68.4446 119.235 75.2446C118.835 76.1446 118.835 76.2446 119.935 76.2446C123.235 76.2446 126.535 76.2446 129.735 76.2446C130.435 76.2446 130.735 76.3446 130.735 77.1446C130.635 78.9446 130.735 80.7446 130.735 82.5446C130.735 83.1446 130.535 83.3446 129.935 83.3446C123.335 83.3446 116.735 83.3446 110.135 83.3446C109.535 83.3446 109.335 83.1446 109.335 82.6446C109.335 81.3446 109.235 80.1446 109.335 78.8446C109.435 77.6446 110.235 76.6446 110.635 75.5446C112.635 71.2446 114.635 67.0446 116.635 62.7446C118.235 59.8446 119.635 56.8446 121.135 53.6446Z" fill="#FEFEFE"/>
<path d="M48.4359 68.7446C48.4359 73.3446 48.4359 77.9446 48.4359 82.5446C48.4359 83.4446 48.1359 83.6446 47.3359 83.5446C45.5359 83.4446 43.7359 83.5446 41.9359 83.5446C40.5359 83.5446 40.6359 83.7446 40.6359 82.2446C40.6359 73.1446 40.6359 64.0446 40.6359 54.9446C40.6359 53.8446 40.3359 53.6446 39.3359 53.7446C37.6359 53.8446 35.8359 53.7446 34.1359 53.7446C33.5359 53.7446 33.3359 53.5446 33.3359 52.9446C33.3359 51.0446 33.3359 49.1446 33.3359 47.2446C33.3359 46.6446 33.5359 46.5446 34.0359 46.5446C40.9359 46.5446 47.9359 46.5446 54.8359 46.5446C55.4359 46.5446 55.6359 46.6446 55.5359 47.2446C55.5359 49.1446 55.5359 51.0446 55.5359 52.9446C55.5359 53.5446 55.3359 53.7446 54.7359 53.7446C52.9359 53.7446 51.0359 53.7446 49.2359 53.7446C48.4359 53.7446 48.3359 53.9446 48.3359 54.7446C48.4359 59.3446 48.4359 64.0446 48.4359 68.7446Z" fill="#FEFEFE"/>
<path d="M61.8363 50.9446C61.9363 51.7446 61.7363 52.5446 61.2363 53.1446C61.3363 52.3446 61.5363 51.6446 61.8363 50.9446Z" fill="#C3C3C3"/>
<path d="M104.836 78.3446C103.536 75.7446 102.236 73.1446 100.836 70.4446C100.536 69.8446 100.536 69.3446 101.236 68.8446C102.736 67.8446 103.736 66.3446 104.436 64.6446C105.636 61.6446 105.736 58.5446 105.236 55.4446C104.236 49.9446 100.736 46.8446 95.1361 46.4446C91.3361 46.2446 87.5361 46.4446 83.7361 46.3446C83.1361 46.3446 83.0361 46.5446 83.0361 47.0446C83.0361 58.8446 83.0361 70.6446 83.0361 82.5446C83.0361 83.2446 83.3361 83.3446 83.9361 83.3446C85.8361 83.3446 87.7361 83.2446 89.6361 83.3446C90.4361 83.3446 90.6361 83.1446 90.6361 82.3446C90.6361 78.8446 90.6361 75.3446 90.6361 71.9446C90.6361 71.2446 90.7361 71.0446 91.5361 70.9446C92.8361 70.8446 93.6361 71.1446 93.9361 72.5446C94.0361 72.8446 94.2361 73.1446 94.4361 73.5446C95.9361 76.6446 97.3361 79.7446 98.8361 82.7446C99.0361 83.0446 99.1361 83.4446 99.6361 83.4446C102.136 83.4446 104.736 83.4446 107.436 83.4446C106.436 81.6446 105.636 80.0446 104.836 78.3446ZM97.2361 61.7446C96.7361 63.0446 95.7361 63.7446 94.4361 63.8446C93.3361 63.9446 92.2361 63.8446 91.1361 63.9446C90.5361 63.9446 90.6361 63.5446 90.6361 63.1446C90.6361 61.6446 90.6361 60.2446 90.6361 58.7446C90.6361 57.4446 90.6361 56.0446 90.6361 54.7446C90.6361 54.0446 90.7361 53.6446 91.6361 53.7446C92.2361 53.8446 92.8361 53.8446 93.4361 53.7446C95.5361 53.5446 97.1361 54.8446 97.6361 57.0446C97.8361 58.6446 97.8361 60.1446 97.2361 61.7446Z" fill="#FEFEFE"/>
<path d="M79.6361 82.3446C78.3361 77.0446 77.0361 71.7446 75.8361 66.4446C74.2361 59.9446 72.7361 53.5446 71.1361 47.0446C71.0361 46.5446 70.8361 46.4446 70.4361 46.4446C68.1361 46.4446 65.8361 46.4446 63.5361 46.4446C63.0361 46.4446 62.9361 46.5446 62.8361 47.0446C62.5361 48.3446 62.2361 49.5446 62.0361 50.8446C61.8361 51.6446 61.7361 52.3446 61.4361 53.0446C60.5361 56.9446 59.6361 60.8446 58.6361 64.7446C57.2361 70.7446 55.7361 76.6446 54.2361 82.6446C54.0361 83.3446 54.2361 83.4446 54.8361 83.4446C56.9361 83.4446 59.0361 83.4446 61.1361 83.4446C61.7361 83.4446 61.9361 83.2446 62.0361 82.6446C62.3361 81.1446 62.6361 79.5446 62.9361 78.0446C63.0361 77.4446 63.2361 77.3446 63.8361 77.3446C65.9361 77.3446 68.1361 77.3446 70.2361 77.3446C70.7361 77.3446 70.9361 77.5446 71.0361 78.0446C71.3361 79.5446 71.7361 81.1446 71.9361 82.6446C72.0361 83.3446 72.2361 83.4446 72.8361 83.4446C74.8361 83.4446 76.8361 83.4446 78.7361 83.4446C79.9361 83.4446 79.9361 83.4446 79.6361 82.3446ZM68.5361 70.2446C67.4361 70.2446 66.4361 70.1446 65.3361 70.2446C64.6361 70.2446 64.5361 69.9446 64.6361 69.4446C64.9361 67.8446 65.3361 66.2446 65.6361 64.6446C66.0361 61.9446 66.4361 59.2446 66.8361 56.6446C66.8361 56.4446 66.9361 56.3446 66.9361 56.1446C67.6361 60.6446 68.2361 65.1446 69.2361 69.5446C69.3361 70.1446 69.1361 70.2446 68.5361 70.2446Z" fill="#FEFEFE"/>
</svg>
