<svg width="218" height="192" viewBox="0 0 218 192" fill="none" xmlns="http://www.w3.org/2000/svg">
<path d="M35.5002 95.6002H20.2002V158.3H35.5002V133L53.8002 158.2H71.4002L47.5002 125.5L71.0002 95.5002H53.8002L35.5002 119.7V95.6002ZM91.2002 111.3H76.2002V158.3H91.2002V111.3ZM83.6002 108.4C88.3002 108.4 92.0002 105 92.0002 100.3C92.0002 95.6002 88.3002 92.2002 83.6002 92.2002C78.9002 92.2002 75.3002 95.6002 75.3002 100.3C75.2002 105 78.8002 108.4 83.6002 108.4ZM127.4 158.3H142.4V132.2C142.4 122.6 141 110.1 126.3 110.1C120.4 110.1 116.3 113.3 114.5 116.1V111.3H99.8002V158.3H114.8V130.3C114.8 126.5 117.1 123.6 121.2 123.6C124.8 123.6 127.4 125.9 127.4 130.3C127.4 130.2 127.4 158.3 127.4 158.3ZM182.9 155.8C182.9 161.5 177.3 162.8 171.8 162.8C165.4 162.8 160.2 160.6 158.8 159.9L154.4 171.4C158.6 173.5 165.1 175.4 171.8 175.4C185.8 175.4 197.9 169.9 197.9 152.6V111.2H183.9V114.9C182.6 113.4 178.1 110.1 171.2 110.1C157.7 110.1 148.2 120.3 148.2 134.7C148.2 149.3 156.8 159.4 170.4 159.4C177.6 159.4 182 155.8 182.9 154.7V155.8ZM183.3 134.6C183.3 142 179.1 146.2 173.2 146.2C167.1 146.2 163.1 141.5 163.1 134.6C163.1 127.6 167.1 123.2 173.1 123.2C179.6 123.3 183.3 128.4 183.3 134.6Z" fill="#EDE9F2"/>
<path fill-rule="evenodd" clip-rule="evenodd" d="M152.501 22.4001C152.301 22.9001 152.601 22.5001 152.201 23.0001L145.701 29.5001C143.401 31.9001 141.001 34.1001 136.501 34.1001C129.701 34.1001 127.301 29.5001 124.201 25.5001C123.101 24.0001 122.301 22.9001 121.301 21.5001C119.201 18.8001 117.301 16.2001 115.301 13.5001C114.901 13.0001 113.901 11.7001 113.801 11.4001C113.801 11.3001 113.801 11.1001 113.801 11.0001C116.101 8.30009 115.901 4.30009 113.201 2.00009C110.501 -0.299914 106.501 -0.0999138 104.201 2.60009C103.001 4.00009 102.401 5.90009 102.701 7.80009C102.801 8.60009 103.001 9.10009 103.301 9.60009C103.601 10.1001 103.901 10.6001 104.301 11.1001C104.401 11.2001 104.401 11.3001 104.501 11.4001C104.601 11.7001 97.1007 21.3001 96.7007 22.0001L90.8007 29.9001C86.5007 34.9001 80.0007 35.6001 74.7007 31.7001L67.8007 24.8001C67.2007 24.3001 66.0007 23.2001 65.6007 22.5001C65.6007 22.4001 65.7007 22.3001 65.8007 22.2001C68.4007 19.8001 68.5007 15.7001 66.1007 13.2001C63.7007 10.6001 59.6007 10.5001 57.1007 12.9001C54.6007 15.3001 54.4007 19.4001 56.8007 21.9001L56.9007 22.0001C57.1007 22.2001 57.3007 22.4001 57.5007 22.6001C58.1007 23.1001 58.7007 23.4001 59.4007 23.6001L59.5007 23.7001C59.7007 25.6001 63.7007 41.4001 64.5007 44.0001C66.3007 50.7001 66.0007 52.9001 68.5007 53.5001H142.001H143.101H144.101H149.401C151.101 53.3001 152.001 52.5001 152.601 50.4001L155.101 40.2001C156.001 37.2001 158.201 28.4001 158.901 25.0001C159.101 24.0001 159.001 23.8001 159.201 23.5001C162.501 22.3001 164.301 18.7001 163.101 15.3001C162.201 12.8001 159.801 11.1001 157.101 11.0001C154.801 11.0001 152.601 12.3001 151.501 14.3001C150.401 16.2001 150.401 18.6001 151.501 20.5001C151.701 20.9001 151.901 21.2001 152.201 21.5001L152.501 22.4001ZM70.0007 60.1001H148.201C150.001 60.1001 151.401 61.5001 151.401 63.3001V70.4001C151.401 72.2001 150.001 73.6001 148.201 73.6001H70.0007C68.2007 73.6001 66.8007 72.2001 66.8007 70.4001V63.4001C66.8007 61.6001 68.3007 60.1001 70.0007 60.1001Z" fill="url(#paint0_linear_729_258)"/>
<defs>
<linearGradient id="paint0_linear_729_258" x1="72.418" y1="6.72558" x2="144.608" y2="68.563" gradientUnits="userSpaceOnUse">
<stop stop-color="#FCE224"/>
<stop offset="0.451" stop-color="#FDDC27"/>
<stop offset="0.6" stop-color="#FFD62A"/>
<stop offset="1" stop-color="#FF6B01"/>
</linearGradient>
</defs>
</svg>
