<?xml version="1.0" encoding="UTF-8"?>
<svg xmlns="http://www.w3.org/2000/svg" width="200" height="52" version="1.1" viewBox="0 0 200 52">
  <defs>
    <style>
      .cls-1 {
        fill: #fff;
        fill-rule: evenodd;
      }

      .cls-2 {
        fill: #ef013d;
      }
    </style>
  </defs>
  <!-- Generator: Adobe Illustrator 28.7.0, SVG Export Plug-In . SVG Version: 1.2.0 Build 136)  -->
  <g>
    <g id="Layer_1">
      <g id="Frame_1948757390">
        <rect id="Rectangle_240648455" x="6.9" y="7.1" width="35.1" height="35.1"/>
        <path id="Vector" class="cls-2" d="M43,1.2H5.8C3.2,1.2,1,3.4,1,6.1v37.2c0,2.7,2.2,4.8,4.8,4.8h37.2c2.7,0,4.8-2.2,4.8-4.8V6.1c0-2.7-2.2-4.8-4.8-4.8ZM38.4,18.1c0,1-.8,1.9-1.9,1.9h-5.6c-1,0-1.9.9-1.9,1.9v5.6c0,1-.9,1.9-1.9,1.9h-5.6c-1,0-1.9.8-1.9,1.9v5.6c0,1-.8,1.9-1.9,1.9h-5.6c-1,0-1.9-.9-1.9-1.9v-5.6c0-1,.9-1.9,1.9-1.9h5.6c1,0,1.9-.8,1.9-1.9v-5.6c0-1,.8-1.9,1.9-1.9h5.6c1,0,1.9-.8,1.9-1.9v-5.6c0-1,.8-1.9,1.9-1.9h5.6c1,0,1.9.8,1.9,1.9v5.6Z"/>
        <path id="Union" class="cls-1" d="M93.3,1.2h6v15.3h.7c1.5-2.3,3.9-4.8,8.9-4.8s12.5,5.9,12.5,14.2-5.6,14.3-12.5,14.3-7.4-2.4-8.9-4.8h-.8v4h-5.9V1.2ZM107.2,17.1c-4.8,0-8,3.3-8,8.8s3.2,8.9,8,8.9,8.1-3.2,8.1-8.9-3.4-8.8-8.1-8.8ZM158.2,12.5h-7.2v5.2h7.2v16.8c0,2.9,2.1,4.9,4.9,4.9h7.2v-5.2h-4.6c-1,0-1.5-.5-1.5-1.6v-15h7.6v-5.2h-5.5c-1.8,0-3.3.3-4.1.5l-.2-.3c1-1.2,1.5-1.8,1.8-2.6.3-.8.3-1.7.3-3.5v-2.9h-6v8.8ZM175,19.9c0-5,4.7-8.1,10.5-8.1s9.3,2.3,13.2,6.6l-4.4,3.3c-2.5-3.2-5.5-5-8.9-5s-4.6,1.2-4.6,3.2,2.3,2.7,5.2,3.1l1.6.2c7.4.9,11.4,2.8,11.4,8.1s-5,9-12,9-11.7-4.1-14-8l5-2.9c1.7,3.8,5.2,6,9.2,6s6-1.5,6-3.8-2.9-2.7-5.7-3.1h-.3s-1.6-.3-1.6-.3c-6.8-.9-10.5-3.1-10.5-8.1ZM137.2,11.7c-7.9,0-13.5,6-13.5,14s5.8,14.5,14,14.5,10.1-3.7,12.1-6.8l-5-2.8c-1.2,2.3-3.3,4.4-7.2,4.4s-7.4-2.9-7.6-7.1h20.4v-2.6c0-8-5.2-13.6-13.1-13.6ZM144.2,23.5h-14.2c.5-4,2.9-6.6,7.2-6.6s6.7,2.5,7,6.6ZM90.2,12.5h-6.5l-7.5,24.8h-.7l-7.6-24.8h-6.5l8.7,26.9h5.2l-3.9,11.3h6.5l12.3-38.2Z"/>
      </g>
    </g>
  </g>
</svg>