<?xml version="1.0" encoding="utf-8"?>
<!-- Generator: Adobe Illustrator 16.0.0, SVG Export Plug-In . SVG Version: 6.00 Build 0)  -->
<!DOCTYPE svg PUBLIC "-//W3C//DTD SVG 1.1//EN" "http://www.w3.org/Graphics/SVG/1.1/DTD/svg11.dtd">
<svg version="1.1" id="Layer_1" xmlns="http://www.w3.org/2000/svg" xmlns:xlink="http://www.w3.org/1999/xlink" x="0px" y="0px"
	 width="275.333px" height="69.333px" viewBox="0 0 275.333 69.333" enable-background="new 0 0 275.333 69.333"
	 xml:space="preserve">
<g>
	<path fill-rule="evenodd" clip-rule="evenodd" fill="#FA5401" d="M3.694,67.215c-0.108-9.619-0.108-9.618,9.593-9.619
		c84.764-0.003,169.527,0.046,254.291-0.138c5.149-0.012,6.316,1.357,6.293,6.322c-0.021,4.733-3.031,3.199-5.242,3.722
		c-1.619,0.583-3.301,0.312-4.951,0.312c-84.883,0.015-169.767,0.018-254.651-0.017C7.253,67.797,5.362,68.379,3.694,67.215z"/>
	<path fill-rule="evenodd" clip-rule="evenodd" fill="#FDFDFD" d="M63.8,47.321c-2.699,1.926-5.743,0.502-8.605,0.867
		c-1.579,0.201-1.906-0.915-1.905-2.229c0.004-12.818-0.003-25.638,0.002-38.457c0-0.806-0.109-1.653,0.734-2.213
		c2.055-1.36,10.811,0.274,12.334,2.393c5.183,7.204,10.328,14.436,16.178,22.622c0-4.498,0-7.74,0-10.982
		c-0.447-4.645-0.86-9.289,0.156-13.917c10.483-1.009,10.484-1.009,10.483,9.374c0,9.326,0.094,18.655-0.084,27.979
		c-0.035,1.815,1.606,5.162-1.656,5.254c-3.31,0.093-7.311,2.124-10.063-1.89c-5.545-8.085-11.198-16.095-17.535-25.18
		c0,2.491,0,3.949,0,5.407C64.35,33.339,64.414,40.331,63.8,47.321z"/>
	<path fill-rule="evenodd" clip-rule="evenodd" fill="#FDFDFD" d="M106.782,22.305c0,7.271-0.239,14.553,0.097,21.809
		c0.179,3.868-1.443,4.565-4.636,4.109c-2.558-0.364-6.066,1.583-5.909-3.843c0.347-11.989,0.185-23.996,0.049-35.993
		c-0.03-2.641,0.808-3.114,3.341-3.403c5.561-0.636,9.254,1.056,12.261,5.988c3.863,6.339,8.567,12.166,13.839,19.508
		c0-8.129,0.305-14.845-0.102-21.517c-0.299-4.905,2.799-3.832,5.438-3.846c2.678-0.014,5.668-0.931,5.39,3.906
		c-0.411,7.143,0.18,14.341-0.195,21.487c-0.331,6.308-4.166,11.491-7.095,16.787c-1.434,2.591-3.606,0.443-4.945-1.491
		c-5.488-7.926-11.028-15.816-16.549-23.72C107.438,22.16,107.109,22.232,106.782,22.305z"/>
	<path fill-rule="evenodd" clip-rule="evenodd" fill="#FDFDFD" d="M250.676,48.429c-4.361,0.579-5.416-1.343-5.291-5.591
		c0.336-11.295,0.224-22.608,0.045-33.91c-0.049-3.021,0.666-4.015,3.821-3.9c6.974,0.253,13.976,0.333,20.94-0.015
		c4.674-0.233,3.287,2.798,3.473,5.152c0.209,2.648,0.321,4.923-3.656,4.477c-3.447-0.386-6.979,0.05-10.463-0.117
		c-2.609-0.124-3.899,0.395-3.869,3.47c0.028,2.835,0.842,3.776,3.658,3.62c3.813-0.212,7.645-0.029,11.468-0.072
		c4.994-0.056,2.347,3.723,2.771,5.786c0.416,2.018,0.698,4.369-2.954,4.054c-3.796-0.327-7.646,0.034-11.464-0.117
		c-2.438-0.097-3.657,0.438-3.447,3.247c0.171,2.282-0.147,4.266,3.25,3.993c3.469-0.277,6.978-0.034,10.469-0.068
		c2.344-0.023,4.887-0.45,4.249,3.348c-0.465,2.773,1.779,7.121-4.021,6.648C263.329,49.083,257.002,49.087,250.676,48.429z"/>
	<path fill-rule="evenodd" clip-rule="evenodd" fill="#FDFDFD" d="M212.567,15.014c-1.557,1.035-3.094,2.001-4.571,3.052
		c-2.542,1.809-4.333,3.094-7.239-0.446c-3.889-4.734-11.787-3.948-16.023,0.62c-4.39,4.734-4.158,12.779,0.492,17.132
		c4.721,4.418,12.064,3.996,16.554-0.783c0.915-0.974,0.949-3.715,3.458-2.335c2.599,1.429,5.159,2.933,7.641,4.551
		c0.104,0.067-0.671,1.685-1.192,2.477c-6.206,9.417-21.345,12.415-30.677,6.166c-1.32-0.884-2.138-1.994-2.774-3.387
		c-1.241-2.713-2.28-5.578-3.918-8.037c-4.646-6.976-4.174-13.732,0.507-20.317c5.085-7.154,12.352-9.964,20.861-9.148
		C202.801,5.24,208.583,8.607,212.567,15.014z"/>
	<path fill-rule="evenodd" clip-rule="evenodd" fill="#FDFDFD" d="M219.678,48.428c-2.829,0.116-4.355-0.546-4.278-4.074
		c0.259-11.805,0.34-23.626-0.015-35.425c-0.146-4.85,2.721-3.771,5.355-3.825c2.774-0.057,5.475-0.752,5.214,3.985
		c-0.446,8.126,0.136,16.307-0.229,24.441c-0.188,4.15,1.288,5.234,5.041,4.775c1.967-0.24,3.986-0.043,5.983-0.043
		c5.774,0,7.895,2.907,5.94,8.485c-1.114,3.182-4.167,0.545-6.033,1.677C230.998,49.084,225.337,49.08,219.678,48.428z"/>
	<path fill-rule="evenodd" clip-rule="evenodd" fill="#FBFBFB" d="M39.631,26.33c0.002-5.826,0.287-11.672-0.098-17.473
		c-0.253-3.818,1.653-4.24,4.38-3.703c2.363,0.466,6.399-2.233,6.324,3.385c-0.163,12.149-0.12,24.304,0.003,36.455
		c0.027,2.684-0.894,3.281-3.446,3.3c-7.167,0.051-7.166,0.183-7.165-6.982C39.628,36.318,39.628,31.324,39.631,26.33z"/>
	<path fill-rule="evenodd" clip-rule="evenodd" fill="#FDFEFE" d="M155.132,1.481c-7.705,16.021-14.942,31.071-22.792,47.396
		c5.616-2.141,11.805,2.821,14.604-4.8c0.385-1.047,1.75-0.684,2.705-0.698c2.331-0.038,4.664-0.045,6.995-0.004
		c3.31,0.059,7.154-1.113,8.347,3.793c0.275,1.134,1.557,1.048,2.561,1.049c3.109,0.002,6.219,0.001,10.102,0.001
		C170.077,32.494,162.803,17.401,155.132,1.481z M151.354,34.29c1.354-2.861,2.469-5.219,3.801-8.032
		c1.322,2.822,2.43,5.184,3.602,7.681C156.381,34.795,154.281,34.368,151.354,34.29z"/>
	<path fill-rule="evenodd" clip-rule="evenodd" fill="#FEFEFE" d="M21.814,5.225c-4.981-0.244-9.99,0.067-14.971-0.18
		C4.056,4.906,3.559,6.03,3.619,8.483c0.146,5.988,0.047,11.981,0.047,17.973c0,6.157,0.247,12.328-0.083,18.468
		c-0.236,4.402,2.645,3.396,4.864,3.229c2.326-0.176,5.851,1.833,5.814-3.376c-0.052-7.378,0.236-7.38,7.638-8.13
		c0.332-0.033,0.661-0.078,0.992-0.12c8.733-1.118,14.258-7.621,13.965-16.436C36.579,11.743,30.543,5.654,21.814,5.225z
		 M17.55,27.21c-7.025-0.633-2.256-6.103-3.287-9.194c-1.223-3.669,1.477-4.009,3.757-3.641c5.387,0.135,8.371,2.582,8.385,6.464
		C26.421,24.988,23.029,27.704,17.55,27.21z"/>
</g>
</svg>
