<svg width="74" height="46" viewBox="0 0 74 46" fill="none" xmlns="http://www.w3.org/2000/svg">
<path d="M11.132 25.1523C11.042 24.5583 10.612 24.2073 9.982 24.2073H9.282C8.732 24.2073 8.363 24.4483 8.154 24.9433L6.191 29.8913L4.231 24.9503C4.021 24.4493 3.652 24.2073 3.101 24.2073H2.402C1.771 24.2073 1.341 24.5593 1.252 25.1463L0.0179996 34.3313C-3.50177e-07 34.4453 0 34.5263 0 34.5753C0 35.1333 0.43 35.5383 1.021 35.5383H1.48C2.054 35.5383 2.478 35.1823 2.558 34.6263L3.267 29.3043L4.88 33.4283C4.972 33.6723 5.236 34.0983 5.968 34.0983H6.414C7.146 34.0983 7.411 33.6723 7.503 33.4193L9.116 29.3033L9.823 34.6223C9.907 35.1823 10.33 35.5383 10.901 35.5383H11.362C11.954 35.5383 12.383 35.1333 12.383 34.5753C12.383 34.5263 12.383 34.4453 12.364 34.3313L11.132 25.1523Z" fill="#FDB913"/>
<path d="M18.9433 24.0002C17.1663 24.0002 15.6793 24.6102 14.6463 25.7642C13.7103 26.8092 13.1973 28.2662 13.1973 29.8652C13.1973 31.4492 13.7113 32.8992 14.6463 33.9502C15.6833 35.1162 17.1693 35.7332 18.9433 35.7332C20.7293 35.7332 22.2183 35.1162 23.2543 33.9492C24.1823 32.9032 24.6923 31.4532 24.6923 29.8652C24.6923 28.2612 24.1793 26.8062 23.2543 25.7652C22.2223 24.6102 20.7343 24.0002 18.9433 24.0002ZM18.9433 33.4652C17.0763 33.4652 15.8203 32.0182 15.8203 29.8642C15.8203 27.7302 17.0763 26.2962 18.9433 26.2962C20.8413 26.2962 22.0683 27.6962 22.0683 29.8642C22.0683 32.0532 20.8423 33.4652 18.9433 33.4652Z" fill="#FDB913"/>
<path d="M32.7976 33.2413H28.5706L33.5316 26.1133C33.6906 25.8793 33.7606 25.6803 33.7606 25.4673C33.7606 25.3703 33.7406 25.1743 33.6146 24.9413L33.5106 24.7513L33.5046 24.7413L33.4986 24.7323C33.2106 24.2683 32.8296 24.2083 32.5296 24.2083H26.5706C25.9666 24.2083 25.5646 24.6023 25.5646 25.1873V25.5283C25.5646 26.1223 25.9596 26.5063 26.5706 26.5063H30.2346L25.2856 33.6323C25.1276 33.8673 25.0586 34.0693 25.0586 34.2793C25.0586 34.3743 25.0766 34.5683 25.2046 34.8013L25.3086 34.9933L25.3146 35.0043L25.3186 35.0123C25.6076 35.4773 25.9886 35.5353 26.2886 35.5353H32.7976C33.4086 35.5353 33.8036 35.1513 33.8036 34.5583V34.2163C33.8036 33.6353 33.3986 33.2413 32.7976 33.2413Z" fill="#FDB913"/>
<path d="M42.3533 33.2413H38.1273L43.0903 26.1133C43.2473 25.8773 43.3193 25.6793 43.3193 25.4673C43.3193 25.3703 43.2983 25.1743 43.1713 24.9413L43.0673 24.7513L43.0603 24.7423L43.0543 24.7323C42.7693 24.2673 42.3863 24.2073 42.0843 24.2073H36.1283C35.5243 24.2073 35.1193 24.6013 35.1193 25.1863V25.5273C35.1193 26.1213 35.5153 26.5053 36.1283 26.5053H39.7893L34.8413 33.6323C34.6833 33.8653 34.6133 34.0663 34.6133 34.2783C34.6133 34.3733 34.6343 34.5683 34.7593 34.8013L34.8633 34.9923L34.8693 35.0023L34.8753 35.0123C35.1623 35.4753 35.5433 35.5343 35.8433 35.5343H42.3533C42.9643 35.5343 43.3613 35.1503 43.3613 34.5563V34.2143C43.3603 33.6353 42.9553 33.2413 42.3533 33.2413Z" fill="#FDB913"/>
<path d="M54.0124 34.2193L54.0084 34.2113L50.4284 24.9243C50.2364 24.4533 49.8544 24.2073 49.3244 24.2073H48.7904C48.1204 24.2073 47.8224 24.5943 47.6894 24.9183L44.1064 34.2113L44.1034 34.2213L44.0994 34.2323L44.0954 34.2423C44.0644 34.3453 44.0234 34.4703 44.0234 34.6383C44.0234 35.1773 44.4104 35.5393 44.9864 35.5393H45.5354C46.0514 35.5393 46.3904 35.3003 46.5784 34.8063L47.2494 33.0583H50.8524L51.5394 34.8103C51.7274 35.3023 52.0694 35.5393 52.5834 35.5393H53.1344C53.7084 35.5393 54.0974 35.1773 54.0974 34.6383C54.0974 34.4563 54.0524 34.3253 54.0194 34.2263L54.0124 34.2193ZM48.1464 30.7603L49.0564 28.4273L49.9664 30.7603H48.1464Z" fill="#FDB913"/>
<path d="M61.5532 31.3661L61.5492 31.3611L61.5472 31.3551C61.5182 31.3151 61.4862 31.2731 61.4532 31.2281C62.7152 30.5651 63.4532 29.3591 63.4532 27.9151C63.4532 25.4521 61.8852 24.2041 58.7912 24.2041H56.3692C55.7052 24.2041 55.2422 24.6611 55.2422 25.3151V34.5431C55.2422 35.1271 55.6622 35.5351 56.2632 35.5351H56.7842C57.3872 35.5351 57.8052 35.1271 57.8052 34.5431V31.7461H58.7642C58.8972 31.8681 59.0362 32.0461 59.2412 32.3331L60.9732 34.9891C61.2062 35.3501 61.5532 35.5351 61.9972 35.5351H62.5182C63.0832 35.5351 63.4972 35.1491 63.4972 34.6171C63.4972 34.4361 63.4132 34.2081 63.2742 34.0051L61.5532 31.3661ZM59.1462 29.4671H57.8062V26.5041H58.7302C60.8592 26.5041 60.8592 27.5241 60.8592 27.8581C60.8592 29.3501 59.5492 29.4671 59.1462 29.4671Z" fill="#FDB913"/>
<path d="M72.1503 24.2073H64.9293C64.3283 24.2073 63.8633 24.6433 63.8633 25.1993V25.5123C63.8633 26.0593 64.3423 26.5043 64.9293 26.5043H67.2483V34.5463C67.2483 35.1303 67.6713 35.5363 68.2693 35.5363H68.7903C69.3943 35.5363 69.8113 35.1303 69.8113 34.5463V26.5043H72.1483C72.7563 26.5043 73.2133 26.0773 73.2133 25.5123V25.1993C73.2173 24.6343 72.7603 24.2073 72.1503 24.2073Z" fill="#FDB913"/>
<path d="M38.2429 6.20077C38.1012 6.55577 36.7146 10.0408 36.7146 10.0408C36.7146 10.0408 35.3296 6.55494 35.1879 6.20077C34.9962 5.7266 34.5321 5.3916 33.9896 5.3916C33.3546 5.3916 32.827 5.85077 32.7187 6.45494C32.6454 7.00161 31.7404 13.5216 31.7412 13.78C31.7412 14.375 32.2237 14.8558 32.8179 14.8558C33.3487 14.8558 33.8046 14.4508 33.8771 13.9658C33.9521 13.4816 34.4112 9.95162 34.4112 9.95162C34.4112 9.95162 35.6387 13.0816 35.7237 13.3C35.8662 13.6641 36.2696 13.9558 36.7137 13.9558C37.1596 13.9558 37.5637 13.6633 37.7046 13.3C37.7912 13.0816 39.0162 9.95162 39.0162 9.95162C39.0162 9.95162 39.4771 13.4816 39.5521 13.9658C39.6254 14.4508 40.0796 14.8558 40.6112 14.8558C41.2054 14.8558 41.6871 14.375 41.6871 13.78C41.6888 13.5216 40.7837 7.00161 40.7096 6.45494C40.6012 5.84994 40.0737 5.3916 39.4396 5.3916C38.8971 5.3916 38.4329 5.7266 38.2429 6.20077Z" fill="#FDB913"/>
<path d="M37.7051 13.2992L37.7326 13.2317C37.7184 13.2675 37.7051 13.2992 37.7051 13.2992Z" fill="#FDB913"/>
<path d="M35.723 13.2992L35.6963 13.2317C35.7096 13.2675 35.723 13.2992 35.723 13.2992Z" fill="#FDB913"/>
<path d="M44.9951 6.74833C44.4001 6.74833 43.9176 7.23083 43.9176 7.82583C43.9176 7.9475 43.9392 8.06416 43.9759 8.17416C44.1709 8.84583 44.2784 9.55334 44.2784 10.2867C44.2784 14.465 40.8917 17.85 36.7134 17.85C32.5367 17.85 29.15 14.4642 29.15 10.2867C29.15 6.10916 32.5367 2.72248 36.7134 2.72248C37.4509 2.72248 38.1609 2.82914 38.8342 3.02581C38.93 3.05414 39.0317 3.06998 39.1367 3.06998C39.7317 3.06998 40.2142 2.58748 40.2142 1.99247C40.2142 1.46747 39.8384 1.03164 39.34 0.934969C38.5042 0.700801 37.6242 0.570801 36.7134 0.570801C31.3484 0.570801 27 4.92082 27 10.2858C27 15.6509 31.3492 20 36.7142 20C42.0801 20 46.4292 15.6517 46.4292 10.2867C46.4292 9.33334 46.2892 8.41416 46.0334 7.54499C45.9101 7.08583 45.4926 6.74833 44.9951 6.74833Z" fill="#FDB913"/>
<path d="M45.7163 3.15335C45.6205 3.05835 45.6205 2.90335 45.7163 2.80834L46.6846 1.83917C47.1063 1.41751 47.1046 0.735836 46.6846 0.315835C46.2646 -0.104167 45.583 -0.105 45.163 0.315001L44.193 1.28417C44.098 1.38001 43.943 1.38001 43.848 1.28501L42.878 0.315001C42.458 -0.105 41.7763 -0.105 41.3563 0.315001C40.9346 0.735836 40.9346 1.41751 41.3563 1.83834L42.3246 2.80751C42.4196 2.90251 42.4196 3.05751 42.3246 3.15335L41.3563 4.12252C40.9346 4.54252 40.9363 5.22419 41.3563 5.64419C41.7763 6.06502 42.458 6.06586 42.878 5.64502L43.848 4.67585C43.9421 4.58085 44.098 4.58085 44.193 4.67585L45.163 5.64502C45.583 6.06586 46.2646 6.06586 46.6846 5.64502C47.1055 5.22502 47.1055 4.54335 46.6846 4.12252L45.7163 3.15335Z" fill="#FDB913"/>
</svg>
