<?xml version="1.0" encoding="UTF-8"?><svg xmlns="http://www.w3.org/2000/svg" viewBox="0 0 276.98 82.26"><g id="a"/><g id="b"/><g id="c"/><g id="d"/><g id="e"/><g id="f"/><g id="g"/><g id="h"/><g id="i"/><g id="j"/><g id="k"/><g id="l"/><g id="m"/><g id="n"/><g id="o"/><g id="p"/><g id="q"/><g id="r"/><g id="s"/><g id="t"/><g id="u"/><g id="v"/><g id="w"/><g id="x"/><g id="y"/><g id="a`"/><g id="aa"/><g id="ab"/><g id="ac"/><g id="ad"/><g id="ae"/><g id="af"/><g id="ag"/><g id="ah"/><g id="ai"/><g id="aj"/><g id="ak"/><g id="al"/><g id="am"/><g id="an"/><g id="ao"/><g id="ap"/><g id="aq"/><g id="ar"/><g id="as"/><g id="at"/><g id="au"/><g id="av"/><g id="aw"/><g id="ax"/><g id="ay"/><g id="b`"/><g id="ba"/><g id="bb"/><g id="bc"/><g id="bd"/><g id="be"/><g id="bf"/><g id="bg"/><g id="bh"/><g id="bi"/><g id="bj"/><g id="bk"/><g id="bl"/><g id="bm"/><g id="bn"/><g id="bo"/><g id="bp"/><g id="bq"/><g id="br"/><g id="bs"/><g id="bt"/><g id="bu"/><g id="bv"/><g id="bw"/><g id="bx"/><g id="by"/><g id="c`"/><g id="ca"/><g id="cb"/><g id="cc"/><g id="cd"/><g id="ce"/><g id="cf"/><g id="cg"/><g id="ch"/><g id="ci"/><g id="cj"/><g id="ck"/><g id="cl"/><g id="cm"/><g id="cn"/><g id="co"/><g id="cp"/><g id="cq"/><g id="cr"/><g id="cs"/><g id="ct"/><g id="cu"/><g id="cv"/><g id="cw"/><g id="cx"/><g id="cy"/><g id="d`"/><g id="da"><path d="M216.64,46.96l-15.91-13.82L274.31,1.17l-24.35,21.15-40.59,7.93,10.13,15.26-2.86,1.44Zm20.51-10.22l10.14,15.28-39.7,7.12-25.26,21.94,73.59-31.96-15.85-13.77-2.93,1.38Z" style="fill:#9afa4e;"/><path d="M3.81,43l1.08-4.5c-.56-.14-1.06-.28-1.5-.41-.36-.14-.68-.31-.96-.52-.28-.21-.38-.47-.3-.78,.08-.31,.4-.48,.96-.52s1.18-.03,1.86,0h1.98c.64-.03,1.04-.17,1.2-.41,.16-.24,.12-.43-.12-.57-.2-.17-.46-.29-.78-.36-.4-.1-.86-.17-1.38-.21l.9-3.72,8.29-5.33h17.3l5.16,4.91v1.09l-3.6,4.65h-9.01l1.26-1.65h-9.91l-1.38,5.69h13.87l5.64,5.33-3,12-8.23,5.33H5.79l-4.5-4.29-.48-1.6,.9-3.47,1.44-1.24,10.15-.05-1.26,1.65h8.59l1.5-.93,.84-3.41-1.08-1.34H9.4l-5.58-5.33ZM69.29,25.67h-24.68l.66,3-1.98,8.07c-.96,.17-1.82,.36-2.58,.57-.68,.17-1.3,.38-1.86,.62-.52,.21-.82,.43-.9,.67-.04,.17,.28,.26,.96,.26s1.4,.02,2.16,.05c.8,.03,1.52,.1,2.16,.21,.64,.1,.92,.33,.84,.67-.08,.34-.24,.66-.48,.93-.2,.28-.42,.52-.66,.72-.28,.24-.6,.47-.96,.67l-1.62,6.62c-.64,0-1.18,.02-1.62,.05-.4,.03-.78,.09-1.14,.16-.32,.03-.48,.14-.48,.31,0,.14,.22,.24,.66,.31,.48,.07,1,.14,1.56,.21,.6,.03,1.12,.1,1.56,.21,.44,.07,.64,.19,.6,.36-.08,.17-.22,.31-.42,.41-.2,.07-.4,.14-.6,.21-.24,.07-.5,.1-.78,.1l-2.16,8.9-2.1,3.05h8.23l2.04-.52,1.86-1.34,.96-1.19,2.04-8.22h12.31l8.41-7.76,2.88-11.64-4.86-6.67Zm-8.05,14.69l-.9,1.09-1.8,.67h-5.58l1.56-6.52h5.7l1.5,.62,.24,1.19-.72,2.95Zm24.58,11.22l3.54-14.43,2.22-2.02,5.95-.05,1.2,1.97-3.48,14.43-2.28,2.12-5.83,.05-1.32-2.07Zm-6.13-19.34c-.08,.34-.16,.67-.24,.98-.08,.31-.14,.53-.18,.67-.04,.14-.22,.19-.54,.16s-.68-.03-1.08,0c-.4,0-.76,.07-1.08,.21-.28,.1-.42,.38-.42,.83,0,.38,.24,.53,.72,.47,.48-.07,1-.17,1.56-.31,.56-.17,1.06-.31,1.5-.41,.44-.1,.64-.03,.6,.21-.08,.28-.24,.5-.48,.67-.2,.17-.4,.33-.6,.47-.28,.14-.56,.26-.84,.36l-3.78,15.41,1.5,.57c-.04,.28-.28,.47-.72,.57-.4,.07-.86,.14-1.38,.21-.52,.03-1,.09-1.44,.16-.4,.07-.62,.21-.66,.41-.08,.28-.02,.43,.18,.47,.24,.03,.52,.02,.84-.05,.36-.07,.76-.17,1.2-.31l-.9,3.72,3.06,2.64,2.04,2.69h18.26l3.54-3.05,4.32-2.28,6.55-26.69-3.12-2.43-2.76-2.9h-16.93l-4.02,3.05-4.38,2.28c-.08,.45-.18,.86-.3,1.24Zm62.87,29.84l-.9-.93-.66-1.19-4.68-11.27,6.91-4.71,2.94-11.9-4.14-6.41h-25.1l.6,3-.84,3.57c-.48-.24-.9-.43-1.26-.57-.32-.1-.62-.14-.9-.1-.24,.03-.4,.19-.48,.47-.04,.31,.14,.55,.54,.72,.44,.14,.9,.26,1.38,.36,.52,.1,.98,.22,1.38,.36,.44,.1,.62,.26,.54,.47-.08,.24-.22,.43-.42,.57-.2,.1-.4,.19-.6,.26-.24,.1-.52,.17-.84,.21l-1.32,5.22c-.36-.07-.68-.1-.96-.1-.24,0-.46,.02-.66,.05-.2,.03-.34,.14-.42,.31-.08,.17,.06,.33,.42,.47,.4,.14,.82,.28,1.26,.41,.48,.14,.9,.29,1.26,.47,.36,.14,.52,.31,.48,.52-.08,.21-.36,.33-.84,.36-.48,.03-1,.05-1.56,.05s-1.1,.03-1.62,.1c-.48,.03-.74,.17-.78,.41-.08,.28,0,.48,.24,.62,.24,.14,.52,.24,.84,.31,.36,.1,.8,.16,1.32,.16l-3.84,15.62-2.16,3.05,13.75-.05-.6-3.05,2.16-8.84h1.92l3.42,8.84,.54,1.55,1.14,.88,2.7,.67h9.97l.48-.41-.6-.52Zm-9.13-22.34l-.9,1.09-1.8,.67h-5.59l1.56-6.52h5.7l1.5,.62,.24,1.19-.72,2.95Zm29.79,23.27l-.6-3.05,6.13-24.93h6.61l3.36,1.19,1.86-7.65,.36-1.5-.18-.98-1.02-.41h-28.4l-1.14,.52-.66,1.03-.3,1.34-1.92,7.65,3.96-1.19h6.61l-1.44,5.79,2.28,1.24c-1.24,.03-2.36,.12-3.36,.26-.84,.1-1.6,.28-2.28,.52-.68,.21-1,.5-.96,.88,0,.38,.18,.64,.54,.78,.36,.14,.76,.21,1.2,.21,.48,0,1.04-.05,1.68-.16l-3.84,15.41-2.1,3.05h13.63Zm-7.75-22.29c.2,.17,.24,.34,.12,.52-.12,.17-.36,.29-.72,.36-.36,.03-.74,0-1.14-.1-.4-.07-.7-.19-.9-.36-.16-.21-.18-.4-.06-.57,.12-.17,.36-.28,.72-.31,.36-.07,.74-.05,1.14,.05,.4,.07,.68,.21,.84,.41Zm93.37,1.14c-.24,.28-.16,.45,.24,.52,.44,.07,.76-.02,.96-.26,.24-.28,.14-.45-.3-.52-.4-.07-.7,.02-.9,.26Zm26.84-16.19h-16.21l-.18,3-1.02,2.02-3.78,.21c-.52,.07-.96,.16-1.32,.26-.32,.07-.6,.17-.84,.31-.2,.14-.24,.29-.12,.47,.08,.17,.38,.33,.9,.47,.56,.14,1.14,.26,1.74,.36,.72,.14,1.48,.24,2.28,.31l1.2,.05c.16,.03,.32,.09,.48,.16,.24,.1,.34,.24,.3,.41-.08,.17-.26,.31-.54,.41-.28,.1-.58,.19-.9,.26-.4,.1-.84,.17-1.32,.21l-3.3,6.52c-.52,.07-.98,.17-1.38,.31-.32,.1-.64,.22-.96,.36-.28,.1-.38,.21-.3,.31,.04,.07,.32,.17,.84,.31,.2,.07,.46,.12,.78,.16,.24,.03,.46,.07,.66,.1,.2,.03,.38,.09,.54,.16,.16,.03,.28,.09,.36,.16,.08,.07,.02,.16-.18,.26-.2,.1-.44,.22-.72,.36-.36,.14-.76,.29-1.2,.47-.84,1.69-1.6,3.22-2.28,4.6-.32,.59-.62,1.17-.9,1.76-.28,.59-.54,1.12-.78,1.6-.24,.48-.44,.9-.6,1.24-.16,.31-.26,.52-.3,.62,.36-.03,.72,0,1.08,.1,.4,.07,.5,.24,.3,.52-1.28,.1-2.44,.22-3.48,.36-.88,.14-1.68,.31-2.4,.52-.68,.17-.98,.4-.9,.67,.04,.41,.28,.67,.72,.78,.48,.07,.96,.07,1.44,0,.52-.1,.98-.22,1.38-.36,.44-.17,.66-.26,.66-.26l-1.92,3.83-2.94,3h15.61v-3l.78-1.65,.12-.31,1.62-.47,1.2-.1,1.2,.16,.96,.41v.31l-.06,1.65-1.38,3h15.55l-1.5-3-.3-31.34,1.32-3Zm-12.13,26.38l-.9-.41-1.14-.21-1.26,.16-1.38,.47,5.52-13.6-.84,13.6Zm8.94-33.11l-59.8,12.7,9.72,14.65-31.44,14.72,52.98-10.42-9.71-14.63,38.26-17.03Zm-92.82,23.18c.24-.28,.14-.45-.3-.52-.4-.07-.7,.02-.9,.26-.24,.28-.16,.45,.24,.52,.44,.07,.76-.02,.96-.26Zm24.62,17.62l-13.58,2.44-.03-.1-.43,.94h15.55l-1.5-3v-.28Zm-13.57-2.1l-1.2-.16-1.2,.1-1.62,.47-.12,.31-.78,1.65v3h-15.61l2.94-3,1.92-3.83s-.22,.09-.66,.26c-.4,.14-.86,.26-1.38,.36-.48,.07-.96,.07-1.44,0-.44-.1-.68-.36-.72-.78-.08-.28,.22-.5,.9-.67,.72-.21,1.52-.38,2.4-.52,1.04-.14,2.2-.26,3.48-.36,.2-.28,.1-.45-.3-.52-.36-.1-.72-.14-1.08-.1,.04-.1,.14-.31,.3-.62,.16-.34,.36-.76,.6-1.24,.24-.48,.5-1.02,.78-1.6,.28-.59,.58-1.17,.9-1.76,.68-1.38,1.44-2.91,2.28-4.6,.44-.17,.84-.33,1.2-.47,.28-.14,.52-.26,.72-.36,.2-.1,.26-.19,.18-.26s-.2-.12-.36-.16c-.16-.07-.34-.12-.54-.16-.2-.03-.42-.07-.66-.1-.32-.03-.58-.09-.78-.16-.52-.14-.8-.24-.84-.31-.08-.1,.02-.21,.3-.31,.32-.14,.64-.26,.96-.36,.4-.14,.86-.24,1.38-.31l3.3-6.52c.48-.03,.92-.1,1.32-.21,.32-.07,.62-.16,.9-.26,.28-.1,.46-.24,.54-.41,.04-.17-.06-.31-.3-.41-.16-.07-.32-.12-.48-.16l-1.2-.05c-.8-.07-1.56-.17-2.28-.31-.6-.1-1.18-.22-1.74-.36-.52-.14-.82-.29-.9-.47-.12-.17-.08-.33,.12-.47,.24-.14,.52-.24,.84-.31,.36-.1,.8-.19,1.32-.26l3.78-.21,1.02-2.02,.18-3h16.21l-1.32,3,.24,23.76-12.59,7.08,.04-1.16v-.31l-.96-.41Zm-.84-6.05l1.26-.16,1.14,.21,.9,.41,.84-13.6-5.53,13.6,1.38-.47Z" style="fill:#fff;"/></g><g id="db"/><g id="dc"/><g id="dd"/><g id="de"/><g id="df"/><g id="dg"/><g id="dh"/><g id="di"/><g id="dj"/><g id="dk"/></svg>