<?xml version="1.0" encoding="utf-8"?>
<!-- Generator: Adobe Illustrator 23.0.6, SVG Export Plug-In . SVG Version: 6.00 Build 0)  -->
<svg version="1.1" id="Layer_1" xmlns="http://www.w3.org/2000/svg" xmlns:xlink="http://www.w3.org/1999/xlink" x="0px" y="0px"
	 width="200px" height="77px" viewBox="0 0 200 77" style="enable-background:new 0 0 200 77;" xml:space="preserve">
<style type="text/css">
	.st0{fill:#FEFEFE;}
	.st1{fill:#1A87F2;}
	.st2{fill:#6A4CAD;}
</style>
<g>
	<path class="st0" d="M164.7,33.8c3.9-4.2,8.4-7.3,14.1-8.3c3.8-0.7,7.6-0.5,11.3,0.8c4.9,1.7,7.6,5.2,8.4,10.3
		c0.1,0.4,0.2,0.8,0.2,1.1c0.3,0.6,0.1,1.2,0.1,1.7c0.1,0.7-0.1,1.4,0.1,2.1c0,0.1,0,0.2,0,0.3c-0.3,0.5,0,1-0.2,1.5
		c-0.2,0.5-0.1,0.9-0.1,1.4c-0.4,5.6-1.7,11-2.6,16.5c-0.5,3.2-1.2,6.4-1.7,9.6c-0.3,2-1.5,3.4-3,4.7c-0.8,0.7-1.9,0.4-2.8,0.8
		c-0.3,0-0.5,0-0.8,0c-2.6-0.2-5.2-0.2-7.7,0c-0.1,0-0.2,0-0.3,0c-1.4-0.4-2.8-0.4-3.9-1.6c-1.8-1.8-2.3-3.9-1.9-6.2
		c1-6.1,2.1-12.1,3.1-18.1c0.3-1.8,0.7-3.7,0.1-5.6c-0.6-2.2-1.8-3.2-4.1-3.4c-4.6-0.3-7.2,1.7-8.6,6.3c-0.9,3-1.3,6.1-1.9,9.2
		c-0.9,4.7-1.6,9.4-2.5,14.1c-0.6,2.8-2,4.8-5.1,5.2c-0.2,0-0.3,0.1-0.5,0.2c-0.3,0-0.5,0-0.8,0c-2.7-0.2-5.3-0.2-8,0
		c-0.1,0-0.2,0-0.3,0c-0.1-0.4-0.5-0.3-0.7-0.4c-3.4-1.1-5.2-3.9-4.6-7.4c1-6,2.1-12,3.1-18c1.1-6.1,2.2-12.2,3.2-18.2
		c0.7-3.8,3-5.8,6.8-5.8c1.5,0,2.9,0,4.4,0c3.9,0.1,6.5,2.6,6.6,6.6C164.4,33.3,164.1,33.7,164.7,33.8z"/>
	<path class="st1" d="M1,38.7c0.3-0.1,0.3-0.5,0.4-0.8c0.8-2.2,2.2-3.8,4.3-4.7c5.3-2.4,10.6-4.8,15.9-7.1c3.5-1.6,6.9-1.3,9.9,1.1
		c3.1,2.4,4.1,5.7,3.4,9.5C33,47,31.2,57.3,29.3,67.6c-0.9,4.9-3.9,7.8-8.7,8.5c-0.5,0.2-1,0-1.5,0.1c-5.1-0.1-8.6-3.2-9.2-8.2
		c-0.2-1.4-0.1-2.7,0.2-4.1c0.9-4.8,1.9-9.7,2.8-14.5c0.3-1.6,0.2-1.7-1.3-1.2c-3.6,1.2-7.4,0-9.6-3c-0.7-0.9-0.6-2.1-1-3.2
		C1,40.9,1,39.8,1,38.7z"/>
	<path class="st0" d="M119.6,76.3c-0.1-0.4-0.6-0.3-0.9-0.4c-3.2-1-5-3.9-4.4-7.2c2.4-12.8,4.7-25.6,7.2-38.4
		c0.6-3.4,2.9-5.2,6.4-5.3c2.1,0,4.3,0,6.4,0c4.6,0,7.3,3.3,6.5,7.7c-2,10.6-4,21.2-6,31.8c-0.4,2.1-0.8,4.1-1.2,6.2
		c-0.6,3.1-2.5,4.9-5.7,5.3c-2.2,0.2-4.4,0-6.6,0.1c-0.5,0-0.9-0.1-1.4,0.1C119.8,76.3,119.7,76.3,119.6,76.3z"/>
	<path class="st2" d="M135.3,1c0,0.1,0,0.2,0,0.2c-1,0.8-1.9,0.8-2.9,0c0-0.1,0-0.1,0-0.2C133.4,1,134.4,1,135.3,1z"/>
	<path class="st0" d="M90,76.1c-3.5,0-7.1,0-10.6,0c-3.6-0.5-5.6-2.7-5.8-6.5c-0.3-5.4-0.6-10.7-0.9-16.1c-0.1-2.1-0.2-4.2-0.3-6.3
		c0-0.4,0-0.8-0.3-1.2c-1.7,4-3.4,8-5,11.9c-2,4.7-4,9.3-5.9,14c-1,2.4-2.8,3.9-5.4,4.2c-3.5,0-7.1,0-10.6,0
		c-3.2-0.4-5.2-2.2-5.8-5.3c-0.7-4.1-1.4-8.3-1.9-12.5c-0.2-2.1,0.6-4.1,1-6.2c0.9-4.8,1.8-9.6,2.8-14.4c0.8-4.1,0.2-7.9-2-11.4
		c-0.5-0.8-0.4-1.1,0.5-1.1c2.7-0.1,5.4-0.3,8.1,0.1c3,0.4,4.9,2.8,5,6c0.3,8.2,0.6,16.5,0.9,24.7c0,0.3,0,0.7,0.1,1.1
		c0.5-0.4,0.6-0.9,0.8-1.3c3.8-8.8,7.6-17.5,11.3-26.3c1.3-3.1,3.5-4.4,6.7-4.4c2,0,4,0,5.9,0c4,0.1,6.1,2,6.3,6.1
		c0.4,7.9,0.6,15.8,1,23.7c0,0.5,0.1,1.1,0.1,1.8c0.6-0.4,0.6-0.9,0.8-1.2c3.7-8.5,7.4-17,11-25.6c1.4-3.4,3.7-5,7.4-4.8
		c1.2,0.1,2.4,0,3.6,0c4.7,0.2,7.5,4.6,5.4,8.9c-6.3,12.8-12.7,25.6-19,38.5C94,74.6,92.3,75.8,90,76.1z"/>
	<path class="st1" d="M132.5,1.3c1,0,1.9,0,2.9,0c4.8,0.8,8.1,5,7.7,9.7c-0.4,4.8-4.4,8.5-9.2,8.5c-4.7-0.1-8.7-3.7-9-8.2
		C124.4,6.3,127.6,2.1,132.5,1.3z"/>
</g>
</svg>
