<svg width="138" height="84" viewBox="0 0 138 84" fill="none" xmlns="http://www.w3.org/2000/svg">
<path d="M9 7.19995H17V18.3C19.9 15.3 23.7 15.3 24.8 15.3C30.4 15.3 38 19.2999 38 29.4C38 39.5 31.3 43.9 24.5 43.9C17.7 43.9 17.8 42.0999 16.8 40.0999H16.7V43H9V7.19995ZM23.3 36.2999C27.4 36.2999 30 32.9999 30 29.4C30 25.8 27.4 22.6 23.4 22.6C19.4 22.6 16.7 25.9999 16.7 29.4C16.7 32.8 19.2 36.2999 23.2 36.2999H23.3Z" fill="white"/>
<path d="M38.6006 7.19995H46.6006V43H38.6006V7.19995Z" fill="white"/>
<path d="M61.8004 15.2C71.6004 15.2 76.2004 22.9 76.2004 29.4C76.2004 35.9 71.5004 43.5999 61.8004 43.5999C52.1004 43.5999 47.4004 35.9 47.4004 29.4C47.4004 22.9 52.1004 15.2 61.8004 15.2ZM61.8004 36.2C65.3004 36.2 68.2004 33.3 68.2004 29.4C68.2004 25.5 65.3004 22.6 61.8004 22.6C58.3004 22.6 55.4004 25.5 55.4004 29.4C55.4004 33.3 58.3004 36.2 61.8004 36.2Z" fill="white"/>
<path d="M104 32.7C102.6 38.8 97.2 43.7999 89.9 43.7999C82.6 43.7999 75.5 37.4 75.5 29.4C75.5 21.4 81.6 15.2 89.6 15.2C97.6 15.2 102.4 19.9 103.8 26.5H95.7C94.8 24.7 93.2 22.7 89.9 22.7C86.1 22.5 83.5 25.6 83.5 29.5C83.5 33.4 86.1 36.2999 89.9 36.2999C93.7 36.2999 94.8 34.4 95.7 32.7H103.9H104Z" fill="white"/>
<path d="M104.1 7.19995H112.1V25.7999H112.2L119.6 16.1H129.1L119 27.9L128.8 42.9H119.7L112.1 30H112V42.9H104V7.19995H104.1Z" fill="white"/>
<path d="M30 47H38V58.1C40.9 55.1 44.7 55.1 45.8 55.1C51.4 55.1 59 59.1 59 69.2C59 79.3 52.3 83.7 45.5 83.7C38.7 83.7 38.8 81.9 37.8 79.9H37.7V82.8H30V47ZM44.3 76.1C48.4 76.1 51 72.8 51 69.2C51 65.6 48.4 62.4 44.4 62.4C40.4 62.4 37.7 65.8 37.7 69.2C37.7 72.6 40.2 76.1 44.2 76.1H44.3Z" fill="#03FF00"/>
<path d="M85.5002 74.3C84.2002 77.3 82.3002 79.6 80.0002 81.2C77.8002 82.8 75.1002 83.6 72.4002 83.6C64.7002 83.6 58.2002 77.4 58.2002 69.4C58.2002 61.4 64.1002 55 72.3002 55C80.5002 55 86.4002 61.5 86.4002 69.6C86.4002 77.7 86.3002 71.1 86.2002 71.7H66.1002C66.6002 74.9 69.2002 76.8 72.4002 76.8C75.6002 76.8 76.2002 75.7 77.3002 74.3H85.5002ZM78.4002 66.3C78.1002 64.7 76.5002 61.7 72.3002 61.7C68.1002 61.7 66.6002 64.7 66.2002 66.3H78.4002Z" fill="#03FF00"/>
<path d="M96.5996 55.9H100.5V62H96.5996V82.7H88.5996V62H84.5996V55.9H88.5996V47H96.5996V55.9Z" fill="#03FF00"/>
<path d="M107.7 82.7H99.2998V74.5H107.7V82.7Z" fill="white"/>
</svg>
