<svg width="150" height="66" viewBox="0 0 150 66" fill="none" xmlns="http://www.w3.org/2000/svg">
<path d="M43.8275 61.8446C42.6852 61.8446 41.9219 62.6089 41.9219 63.6765C41.9219 64.82 42.6852 65.5357 43.8275 65.5357C44.8968 65.5357 45.6572 64.8229 45.6572 63.6765C45.6572 62.6058 44.8937 61.8446 43.8275 61.8446Z" fill="white"/>
<path d="M57.4519 62.2935C53.959 62.2935 51.4474 59.9551 51.4474 56.628C51.4474 53.3009 53.9316 50.9109 57.4519 50.9109C59.9633 50.9109 61.9052 52.0452 62.8414 53.9408H66.4828C65.4013 50.0707 61.881 47.608 57.4519 47.608C52.0382 47.608 48.0029 51.4265 48.0029 56.6249C48.0029 61.8235 52.0625 65.5935 57.4519 65.5935C61.881 65.5935 65.4255 63.1308 66.4828 59.2637H62.8414C61.8841 61.135 59.9361 62.2935 57.4519 62.2935Z" fill="white"/>
<path d="M77.027 47.6687C71.6497 47.6687 67.6387 51.463 67.6387 56.625C67.6387 61.7871 71.674 65.5329 77.027 65.5329C82.3801 65.5329 86.3912 61.9115 86.3912 56.625C86.3912 51.3386 82.3832 47.6687 77.027 47.6687ZM77.027 62.2572C73.5553 62.2572 71.062 59.9339 71.062 56.6281C71.062 53.3222 73.5311 50.9504 77.027 50.9504C80.5231 50.9504 82.9679 53.2525 82.9679 56.6281C82.9679 60.0038 80.5716 62.2572 77.027 62.2572Z" fill="white"/>
<path d="M103.55 47.6901L97.8278 61.2595L92.0807 47.6901H87.5547V65.5147H91.1144V54.0289L96.0252 65.5147H99.609L104.52 54.0805V65.5147H108.079V47.6901H103.553H103.55Z" fill="white"/>
<path d="M33.0215 41.979L24.6086 30.9208C29.0378 28.8311 32.3005 24.6487 32.3005 19.6504C32.3005 12.0468 25.9839 7 18.3406 7H0V42.7039H7.13143V32.2979H16.8106L24.7085 42.7039H33.5729L33.0184 41.979H33.0215ZM18.3406 25.6163H7.13143V13.5785H18.3406C22.3153 13.5785 25.169 16.1292 25.169 19.6504C25.169 23.1717 22.2668 25.6163 18.3406 25.6163Z" fill="white"/>
<path d="M61.7251 7H53.7756L36.256 41.979L35.8926 42.7039H43.7874L48.0196 34.2844L51.2794 27.7545L57.7473 14.9008L64.2183 27.7545L67.5266 34.2844L71.7588 42.7039H79.7081L61.7251 7Z" fill="white"/>
<path d="M99.9906 24.852L116.904 7H107.225L93.3136 21.5885H89.2389V7H82.1074V42.7039H89.2389V28.1155H93.1652L108.294 42.7039H118.231L99.9906 24.852Z" fill="white"/>
<path d="M150 13.5785V7H120.55V42.7039H150V36.0739H127.684V28.1155H149.185V21.5339H127.684V13.5785H150Z" fill="white"/>
<path d="M53.5215 42.7676H62.0919L57.8053 38.479L53.5215 42.7676Z" fill="white"/>
<path d="M62.0916 31.6245L57.8048 27.3329L53.521 31.6245L49.2344 35.9131L53.521 40.2047L57.8048 35.9131L62.0916 40.2047L66.3752 35.9131L62.0916 31.6245Z" fill="white"/>
</svg>
