<?xml version="1.0" encoding="UTF-8"?><svg id="betwinner" xmlns="http://www.w3.org/2000/svg" viewBox="0 0 540.47 191.44"><path d="M206.76,.49c2.29,.4,4.61,.72,6.88,1.21,4.51,.98,8.7,2.65,12.14,5.86,4.24,3.96,5.64,8.96,5.22,14.55-.64,8.48-5.42,14.12-12.69,17.98-.57,.3-1.15,.6-1.72,.9-.04,.02-.07,.07-.15,.18,3.02,1.46,5.71,3.32,7.72,6.03,3.62,4.89,3.73,10.4,2.59,16.03-1.5,7.38-6.22,12.2-12.75,15.52-6.82,3.47-14.15,4.84-21.71,5.24-1.2,.06-2.4,.1-3.6,.1-15.93,0-31.87,0-47.8,0-.4,0-.8,.03-1.2,.05,0-.2,0-.4,0-.6,.1-.22,.23-.44,.28-.67,3.63-18.08,7.25-36.16,10.88-54.25,1.88-9.38,3.79-18.76,5.69-28.14,16.75,0,33.49,0,50.24,0Zm-35.19,63.78c6.64,0,13.16,.13,19.66-.09,1.79-.06,3.7-.91,5.29-1.85,2.24-1.32,3.2-4.37,2.59-6.86-.54-2.21-2.38-3.65-5.21-4.07-.54-.08-1.09-.17-1.64-.18-5.66-.01-11.33,0-16.99-.02-.79,0-1.15,.22-1.31,1.04-.75,3.97-1.57,7.93-2.39,12.03Zm6.34-31.76c5.48,0,10.83,.07,16.18-.05,1.35-.03,2.76-.52,4.01-1.08,2.51-1.14,3.73-3.78,3.35-6.75-.28-2.21-1.74-3.65-4.67-4.1-1.91-.3-3.88-.25-5.83-.27-3.49-.04-6.99-.01-10.55-.01-.84,4.12-1.65,8.12-2.5,12.27ZM248.88,.49c-.05,.54-.04,1.09-.14,1.62-.53,2.74-1.1,5.48-1.65,8.21-4.17,20.78-8.34,41.56-12.51,62.34-.75,3.76-1.5,7.51-2.26,11.36h69.77c1.43-7.06,2.85-14.07,4.31-21.26h-42.01c.63-3.25,1.3-6.32,1.8-9.41,.2-1.26,.68-1.58,1.93-1.57,10.73,.05,21.45,.03,32.18,.03h1.8c1.36-6.8,2.69-13.44,4.07-20.33h-35.45c.67-3.39,1.3-6.54,1.94-9.77h40.32c.69-3.33,1.37-6.55,2.01-9.78,.75-3.81,1.46-7.63,2.18-11.45-22.76,0-45.52,0-68.28,0Zm74.3,0c-.02,.35,0,.7-.07,1.04-.93,4.59-1.88,9.18-2.81,13.78-.47,2.31-.92,4.63-1.42,7.1h24.53c-4.11,20.59-8.2,41.05-12.3,61.59h28.32c.15-.68,.3-1.26,.41-1.85,3.91-19.56,7.83-39.12,11.69-58.69,.21-1.05,.71-1.09,1.53-1.09,5.71,.02,11.42,0,17.14,0,2,0,4,0,6.1,0,1.5-7.34,2.99-14.62,4.48-21.89-25.87,0-51.74,0-77.61,0Z" style="fill:#f7cf47;"/><path d="M143.36,107.31c-1.33,2.67-2.61,5.36-3.99,8.01-12.9,24.75-25.82,49.48-38.7,74.24-.53,1.02-1.1,1.4-2.28,1.4-9.07-.06-18.15-.03-27.22-.03h-1.61c-1.58-14.5-3.16-28.96-4.79-43.89-1.22,2.33-2.25,4.29-3.27,6.24-6.36,12.17-12.73,24.33-19.04,36.51-.47,.9-.99,1.16-1.96,1.16-9.17-.04-18.35-.04-27.52,0-1.22,0-1.58-.34-1.72-1.56-1.52-12.99-3.12-25.97-4.68-38.96-1.56-12.94-3.1-25.87-4.65-38.81-.17-1.44-.38-2.87-.56-4.31,9.33,0,18.65,0,27.98,0,1.5,13.14,3.01,26.29,4.51,39.43,.29,2.5,.57,5,.91,7.91,.41-.72,.61-1.05,.79-1.39,6.36-12.17,12.73-24.33,19.08-36.5,1.63-3.13,3.2-6.3,4.8-9.46,8.72,0,17.45,0,26.17,0,.13,1.14,.29,2.27,.4,3.41,1.18,11.86,2.35,23.72,3.53,35.59,.29,2.89,.6,5.77,.93,9,.38-.62,.58-.9,.73-1.2,2.56-4.91,5.11-9.82,7.68-14.72,5.6-10.69,11.2-21.38,16.8-32.07,9.22,0,18.45,0,27.67,0Zm201.24,0c-.6,3.28-1.18,6.56-1.82,9.83-1.81,9.19-3.65,18.37-5.49,27.56-.07,.34-.19,.67-.37,1.3-8.05-13.02-15.98-25.85-23.91-38.68-7.82,0-15.64,0-23.46,0-.5,2.64-.97,5.29-1.49,7.93-4.48,22.34-8.96,44.68-13.44,67.02-.57,2.82-1.11,5.65-1.67,8.51,.35,.07,.54,.13,.73,.13,8.62,0,17.24,0,25.86,.02,.86,0,1.06-.37,1.21-1.13,1.66-8.41,3.36-16.82,5.05-25.23,.81-4.03,1.62-8.07,2.49-12.37,.46,.68,.77,1.11,1.05,1.57,7.41,11.98,14.83,23.95,22.21,35.94,.53,.86,1.06,1.24,2.11,1.23,6.82-.05,13.63-.03,20.45-.03,.49,0,.98,0,1.5,0,.66-3.29,1.29-6.41,1.92-9.54,4.06-20.24,8.13-40.48,12.18-60.72,.89-4.45,1.72-8.9,2.57-13.36-9.22,0-18.45,0-27.67,0Zm-96.26,0c-.69,3.62-1.36,7.25-2.07,10.86-1.73,8.76-3.48,17.53-5.23,26.29-.08,.42-.21,.83-.4,1.55-8.06-13.06-15.97-25.88-23.88-38.7-7.82,0-15.64,0-23.46,0-.35,1.86-.67,3.73-1.04,5.59-5.14,25.6-10.28,51.2-15.41,76.8-.07,.36,0,.75,0,1.1,.18,.05,.27,.1,.37,.1,8.67,.01,17.35,0,26.02,.04,.82,0,1.1-.29,1.25-1.08,1.66-8.47,3.37-16.94,5.07-25.41,.8-3.99,1.6-7.99,2.46-12.25,.43,.65,.71,1.04,.97,1.46,7.41,11.98,14.84,23.96,22.22,35.96,.59,.96,1.19,1.36,2.37,1.35,6.52-.07,13.03-.01,19.55-.04,2.68-.01,2.13,.45,2.67-2.24,4.28-21.24,8.54-42.48,12.79-63.73,1.18-5.87,2.31-11.75,3.46-17.63-9.22,0-18.45,0-27.67,0Zm218.09,0c-.5,2.64-.97,5.29-1.49,7.93-4.48,22.34-8.96,44.68-13.44,67.02-.57,2.82-1.11,5.65-1.69,8.58h28.32c1.4-6.96,2.79-13.88,4.2-20.91,1.96,0,3.81,.06,5.66-.02,.94-.04,1.42,.32,1.87,1.11,3.45,6.19,6.97,12.35,10.4,18.55,.55,.99,1.13,1.39,2.31,1.38,8.72-.06,17.44-.03,26.16-.03h1.78c-4.75-8.26-9.35-16.27-13.99-24.34,.56-.23,.93-.38,1.29-.54,12.97-5.61,20.41-15.19,21.22-29.47,.35-6.23-.74-12.15-4.53-17.32-4.13-5.63-9.9-8.75-16.55-10.39-2.7-.66-5.46-1.04-8.2-1.54-14.44,0-28.88,0-43.32,0Zm23.29,25.42c.76-3.69,.79-3.7,4.54-3.68,2.6,.02,5.21,0,7.81,.15,6.07,.38,9.19,4.39,8.19,10.38-.82,4.92-4.04,8.3-9.12,8.69-4.77,.36-9.59,.08-14.55,.08,1.04-5.18,2.07-10.41,3.14-15.62Zm-103.91-25.42c-.03,.4-.01,.8-.09,1.18-5.05,25.16-10.11,50.32-15.16,75.47-.46,2.27-.88,4.54-1.33,6.87h69.75c1.43-7.06,2.85-14.07,4.31-21.26h-42.01c.63-3.26,1.28-6.32,1.79-9.41,.2-1.24,.69-1.58,1.94-1.57,10.73,.06,21.46,.03,32.19,.03h1.78c1.36-6.81,2.7-13.44,4.07-20.32h-35.45c.67-3.39,1.29-6.54,1.93-9.77h40.32c.38-1.82,.75-3.52,1.09-5.24,1.06-5.33,2.1-10.67,3.15-16-22.76,0-45.52,0-68.28,0Zm-234.33,0c-.09,.39-.19,.78-.27,1.17-5,24.91-10,49.81-14.99,74.72-.51,2.52-.98,5.05-1.51,7.72h1.85c7.57,0,15.13,0,22.7,0,3.84,0,3.79,0,4.55-3.81,4.04-20.24,8.12-40.48,12.17-60.72,1.27-6.35,2.51-12.71,3.77-19.07-9.43,0-18.85,0-28.28,0Z" style="fill:#fff;"/></svg>