<svg width="179" height="95" viewBox="0 0 179 95" fill="none" xmlns="http://www.w3.org/2000/svg">
<path d="M110.5 48.1H119.4L110.9 15.7H98.4L89.9 48.1H98.4L99.6 42.8H109.2L110.5 48.1ZM107.7 36.3H101L102.7 29L104.1 22.4H104.5L106 29L107.7 36.3ZM134.3 14.4C126.3 14.4 121 19.1 121 26V37.7C121 44.6 126.3 49.3 134.3 49.3C142.3 49.3 147.6 44.9 147.6 38.3V36.9H139C139.1 38.4 138.6 40 137.6 41.1C135.6 42.9 132.5 42.7 130.7 40.7C129.9 39.9 129.5 38.8 129.5 37.6V26.1C129.6 23.4 131.9 21.3 134.6 21.4C135.7 21.4 136.8 21.9 137.7 22.6C138.7 23.8 139.2 25.3 139.1 26.8H147.7V25.4C147.6 18.9 142.3 14.4 134.3 14.4ZM168.4 48.1H178.4L169.8 35.5V35.3H169.9C174.3 34.2 177.3 30.3 177.3 25.8C177.3 19.9 172.9 15.7 166.9 15.7H151.3V48.1H159.5V35.6H160.8V35.7L168.4 48.1ZM165.2 29.1H159.5V22.6H165.2C167.3 22.6 168.8 23.9 168.8 25.8C168.8 27.6 167.4 29.1 165.6 29.1C165.5 29.1 165.4 29.1 165.2 29.1ZM89.7 76.8H93.5V68.2H98.7C102.3 68.3 105.3 65.4 105.4 61.8C105.5 58.2 102.6 55.2 99 55.1C98.9 55.1 98.8 55.1 98.7 55.1H89.7V76.8ZM97.9 64.9H93.6V58.2H97.9C99.7 58.1 101.2 59.4 101.4 61.1C101.4 61.2 101.4 61.3 101.4 61.5C101.5 63.3 100 64.8 98.2 64.8C98.1 65 98 65 97.9 64.9ZM115.3 54.4C113.3 54.3 111.3 55 109.7 56.2C108.2 57.5 107.3 59.4 107.4 61.4V70.4C107.3 72.4 108.2 74.3 109.7 75.6C111.3 76.8 113.3 77.5 115.3 77.4C120.1 77.4 123.3 74.6 123.3 70.3V61.3C123.3 57.2 120.1 54.4 115.3 54.4ZM115.3 74.2C113.2 74.3 111.4 72.7 111.3 70.6C111.3 70.5 111.3 70.3 111.3 70.2V61.6C111.3 59.4 113.1 57.6 115.3 57.6C117.5 57.6 119.3 59.4 119.3 61.6V70.2C119.4 72.3 117.8 74.1 115.7 74.2C115.6 74.3 115.5 74.3 115.3 74.2ZM138 76.8H142.9L134.6 65.5L142.4 55.2H137.9L131.4 64.2H130V55.2H126.2V76.9H130V67.4H131.4L138 76.8ZM144.9 76.8H159.2V73.6H148.7V66.8H157.4V63.6H148.7V58.4H159.2V55.2H144.9V76.8ZM173.6 76.8H178.5L171.8 67.7V67.6H171.9C175.1 67.3 177.5 64.6 177.5 61.4C177.5 57.8 174.7 55.1 170.8 55.1H161.8V76.8H165.6V67.6H167.4L173.6 76.8ZM169.9 64.5H165.6V58.3H169.9C172 58.3 173.4 59.5 173.4 61.4C173.3 63.2 171.9 64.5 169.9 64.5ZM65.9 81.6L78.8 89.8L66.5 57L58.8 62.6L65.9 81.6ZM24.5 52.9L8.3 94.2L83.1 39.4H0L14.3 48.6H55.2L54.2 49.3L28.3 68.2L34.3 52.9H24.5ZM48.5 35H58.3L45.2 0L31.5 35H41.3L44.9 25.7L48.5 35Z" fill="white"/>
</svg>
