<svg width="253" height="112" viewBox="0 0 253 112" fill="none" xmlns="http://www.w3.org/2000/svg">
<path d="M85.74 18.77V0H78V43.25H85.27V29.48L123.67 0H110.94L85.74 18.77Z" fill="#FEFEFE"/>
<path d="M97.3906 26.69L113.041 43.25H123.671L103.261 22.03L97.3906 26.69Z" fill="#FEFEFE"/>
<path d="M161.53 0L136.33 18.77V0H128.59V43.25H135.86V29.48L174.26 0H161.53Z" fill="#FEFEFE"/>
<path d="M147.98 26.69L163.63 43.25H174.26L153.85 22.03L147.98 26.69Z" fill="#FEFEFE"/>
<path d="M114.89 72.02V53.25H107.15V96.5H114.43V82.73L152.82 53.25H140.09L114.89 72.02Z" fill="#FEFEFE"/>
<path d="M126.54 79.94L142.19 96.5H152.82L132.41 75.28L126.54 79.94Z" fill="#FEFEFE"/>
<path d="M30.17 53.25H0V96.5H8.01V81.8H30.16C38.04 81.8 44.43 75.41 44.43 67.53C44.43 59.65 38.04 53.26 30.16 53.26L30.17 53.25ZM31.3 73.6H7.73V60.93H31.3C34.8 60.93 37.64 63.77 37.64 67.27C37.64 70.77 34.8 73.61 31.3 73.61V73.6Z" fill="#FEFEFE"/>
<path d="M91.4098 53.25H60.6498C55.5098 53.25 51.3398 57.42 51.3398 62.56V87.19C51.3398 92.33 55.5098 96.5 60.6498 96.5H91.4098C96.5498 96.5 100.72 92.33 100.72 87.19V62.56C100.72 57.42 96.5498 53.25 91.4098 53.25ZM92.9898 84.72C92.9898 86.85 91.2598 88.58 89.1298 88.58H62.9098C60.7798 88.58 59.0498 86.85 59.0498 84.72V65.03C59.0498 62.9 60.7798 61.17 62.9098 61.17H89.1298C91.2598 61.17 92.9898 62.9 92.9898 65.03V84.72Z" fill="#FEFEFE"/>
<path d="M158.55 96.5H201.38V88.55H166.37V78.73H196.51V71.26H166.28V61.01L201.38 60.83V53.25H158.55V96.5Z" fill="#FEFEFE"/>
<path d="M252.41 67.53C252.41 59.65 246.02 53.26 238.14 53.26H207.97V96.51H215.98V81.81H228.36L242.06 96.51H252.41L239.09 81.76C246.53 81.27 252.41 75.1 252.41 67.53ZM215.71 73.6V60.93H239.28C242.78 60.93 245.62 63.77 245.62 67.27C245.62 70.77 242.78 73.61 239.28 73.61H215.71V73.6Z" fill="#FEFEFE"/>
</svg>
