<svg xmlns="http://www.w3.org/2000/svg" viewBox="0 0 300 86.24"><g id="natural-8"><path d="M11.81,67.18V28.82h6.26L36.48,51.89V28.82h8.81V67.18H39.07L20.41,43.12V67.18ZM70.68,28.82H65L47.76,67.18h8.69L67.84,41.5,79.22,67.18h8.69Zm4.13,0,2.85,7.55H91V67.18h7.69V36.37h8.39v15a15.8,15.8,0,0,0,15.8,15.8h0a15.8,15.8,0,0,0,15.81-15.8V28.82H131V50.75A8.26,8.26,0,0,1,122.78,59h0a8.25,8.25,0,0,1-8.25-8.26V28.82Zm108.61,46.7H173L148.69,53.88v13.3h-7.12V28.82h15.52a11,11,0,0,1,11,11v.44a11,11,0,0,1-11,11ZM148.83,44.2h8.26a4.13,4.13,0,1,0,0-8.25h-8.26Zm37.44-15.38h-5.69L167.8,57.26l6.33,5.19,9.29-21,11.39,25.68h8.68Zm22.1,0V67.18h23.09L229.65,59H215.77V28.82ZM282,57.19C282,67,271,75,257.43,75s-24.57-8-24.57-17.8c0-6,4.17-11.38,10.53-14.59-5-3.27-8.15-8.23-8.15-13.78C235.24,19,245.18,11,257.43,11s22.18,8,22.18,17.79c0,5.55-3.18,10.51-8.15,13.78C277.82,45.81,282,51.15,282,57.19Zm-11.4,0c0-6.27-5.89-11.36-13.16-11.36s-13.17,5.09-13.17,11.36,5.9,11.37,13.17,11.37S270.59,63.47,270.59,57.19Zm0-28.37c0-6.28-5.89-11.36-13.16-11.36s-13.17,5.08-13.17,11.36,5.9,11.36,13.17,11.36S270.59,35.09,270.59,28.82Z" style="fill:#eceeee"/><path d="M179,11s-6.9,4.25-6.1,8.31c.87,4.45,5,2.33,5,2.33a3.52,3.52,0,0,1-1.44,2.79h5A3.52,3.52,0,0,1,180,21.67s4.16,2.12,5-2.33C185.87,15.28,179,11,179,11Z" style="fill:#95048a"/><polygon points="194.44 11.31 189.27 17.74 194.44 24.46 199.62 17.74 194.44 11.31" style="fill:#641d8c"/><path d="M235.1,13.91c-2.29-4.15-6.21-.44-6.21-.44s-3.92-3.71-6.21.44,6.21,9.69,6.21,9.69S237.39,18.06,235.1,13.91Z" style="fill:#ea0050"/><path d="M215.17,14.67a3.35,3.35,0,0,0,.07-.71A3.62,3.62,0,0,0,208,14a3.36,3.36,0,0,0,.08.71,3.61,3.61,0,0,0,.29,7.2,3.48,3.48,0,0,0,1.48-.32,4.17,4.17,0,0,1-1.48,2.65h6.5a4.19,4.19,0,0,1-1.47-2.65,3.47,3.47,0,0,0,1.47.32,3.61,3.61,0,0,0,.3-7.2Z" style="fill:#a4005a"/></g></svg>