<svg width="104" height="82" viewBox="0 0 104 82" fill="none" xmlns="http://www.w3.org/2000/svg">
<path d="M9.72942 18.9043C8.81242 14.1818 11.5634 11.1556 14.6354 8.31293C17.1113 6.02042 20.1374 4.69077 23.3928 3.72791C25.8229 3.04016 28.1154 2.99431 30.4079 4.14056C31.1415 4.50736 31.9209 4.46151 32.7004 4.32396C37.1937 3.54451 41.0451 5.14927 44.7132 7.44178C45.7219 8.08368 46.4555 8.17538 47.4183 7.44178C49.2982 5.92872 51.4531 4.82832 53.6539 3.81961C54.9378 3.26941 56.2674 2.76506 57.6888 2.90261C58.2848 2.94846 58.835 2.81091 59.3852 2.5358C60.4856 2.03145 61.6319 1.93975 62.7781 2.03145C64.4288 2.12315 65.5292 3.49866 65.2082 5.10342C64.8873 6.79988 64.5205 8.49633 64.062 10.1928C63.8327 11.0181 64.062 11.3849 64.7956 11.6142C66.2169 12.1644 67.5466 11.7976 68.8304 11.1556C70.6644 10.2386 72.4984 9.64259 74.5158 10.6054C76.3957 11.5225 77.4044 12.9897 77.4961 15.0071C77.5878 16.3826 77.4961 17.8039 77.4961 19.2253C77.4961 20.1881 77.7712 20.6466 78.8716 20.3715C81.7601 19.6838 84.6946 19.0419 87.6748 18.6751C89.4171 18.4458 91.1594 18.4 92.8559 18.5834C95.0109 18.8126 96.8907 21.2427 96.8907 23.7645C96.8907 29.7708 96.8907 35.7314 96.8907 41.7378C96.5239 41.9212 96.4322 42.3338 96.2488 42.6548C95.9737 43.1591 95.6069 43.5718 95.0109 43.5259C94.3231 43.4801 94.0022 42.9299 93.8646 42.3797C93.6354 41.4627 93.6354 40.4998 93.5895 39.5369C93.3602 35.5938 93.4519 31.6507 93.4519 27.7076C93.4519 32.2468 93.3603 36.7401 93.7271 41.2793C93.7729 42.1046 94.1397 43.205 92.8559 43.5718C92.7184 43.4801 92.6266 43.2967 92.5349 43.1591C92.3057 39.5828 92.4891 35.9606 92.4432 32.3843C92.4432 29.8625 92.4432 27.2949 92.4432 24.7732C92.4432 24.1771 92.5349 23.5352 91.9847 23.0767C91.893 23.0309 91.7555 22.9392 91.6179 22.9392C89.5547 23.2143 87.5373 23.7186 85.6574 24.5898C85.5657 24.6815 85.474 24.7732 85.4282 24.8649C85.0614 25.6443 86.0242 26.1945 85.7491 26.974C85.7491 29.6333 86.4369 32.2926 86.2076 34.9519C86.1159 36.0523 86.0701 37.1527 85.1989 37.978C83.319 38.8492 82.2186 38.3907 81.485 36.465C81.2099 35.7772 81.2099 35.0436 81.2099 34.31C81.2099 32.0634 81.1182 29.7708 81.3016 27.5242C81.1641 26.5155 81.3016 25.5068 81.2099 24.4981C81.2099 23.9937 81.2558 23.3977 80.7056 23.0767C80.568 22.985 80.4305 22.8475 80.3388 22.8475C78.3672 23.2143 76.304 23.306 74.6075 24.6356C74.3783 25.2317 74.6534 25.7819 74.6992 26.3321C74.6992 26.7906 74.6992 27.2949 74.2407 27.6159C73.7364 27.7076 73.3695 27.5242 73.0944 27.1115C72.7735 24.3147 73.0486 21.5637 72.9569 18.7668C72.9569 17.5288 73.0945 16.2909 72.6818 15.0529C72.5901 14.8237 72.4984 14.5944 72.2691 14.4569C71.6272 14.1818 71.0312 14.5027 70.481 14.732C69.1972 15.2363 67.9134 15.8324 66.492 15.7865C66.2628 15.7865 66.0335 15.9241 65.896 16.1533C65.8043 16.3826 65.7584 16.6577 65.7584 16.9328C66.1711 18.5834 66.0335 20.2798 66.0335 21.9305C66.1252 25.8736 65.896 29.8167 66.1711 33.7598C66.0335 35.548 65.9418 37.3361 66.1711 39.1701C66.2628 40.0871 66.0794 40.9583 65.2082 41.5544C64.9331 41.6919 64.658 41.6919 64.3829 41.6461C63.2366 41.0959 62.9157 40.0871 63.0532 38.895C63.2366 37.4737 63.1449 36.0523 63.1449 34.631C62.8698 30.0918 63.1449 25.5526 63.1449 21.0135C63.0074 18.996 63.42 16.9328 62.824 14.9154C62.7323 14.732 62.6406 14.5486 62.503 14.411C61.9528 14.0442 61.4943 14.411 61.0358 14.5944C59.9354 15.0071 58.8809 15.5573 57.6429 15.649C57.5054 15.649 57.3678 15.5573 57.2303 15.5114C57.1386 15.4197 57.0469 15.2822 57.001 15.1446C57.1844 13.9984 58.1014 13.3106 58.7433 12.4395C59.4311 11.5225 60.0271 10.5596 59.5686 9.36749C58.8809 9.18409 58.5599 9.73429 58.1014 10.0552C57.6429 10.3303 57.1844 10.6971 56.5425 10.6513C55.5797 10.3303 55.9006 9.64259 56.084 8.95484C56.405 7.99198 57.322 7.62518 58.0097 7.07498C58.1014 7.02913 58.239 6.93743 58.3765 6.89158C58.1931 6.98328 58.0556 7.07498 57.8722 7.12083C56.7718 8.35878 54.9836 8.26708 53.6998 9.27579C53.1954 9.45919 52.8286 9.32164 52.7369 8.77144C52.6911 8.03783 53.333 7.85443 53.6539 7.39593C53.8832 7.21253 54.1583 7.16668 54.3417 6.93743C54.1124 7.21253 53.7456 7.21253 53.5622 7.53348C52.6452 8.26708 51.9116 9.27579 50.8112 9.78014C50.4444 9.87184 50.0776 9.78014 49.7567 9.96354C48.5646 11.1098 47.51 12.3478 46.7764 13.815C46.4555 14.1359 46.3179 14.6861 45.8136 14.8695C45.5843 14.8695 45.4009 14.732 45.3092 14.5486C45.1717 14.2735 45.1717 13.9984 45.3092 13.7233C45.5843 13.2648 45.9511 12.898 46.1345 12.3936C45.997 12.7604 45.7677 13.0814 45.4926 13.3565C45.4009 13.4482 45.2634 13.494 45.1258 13.494C44.2088 13.2189 43.842 12.3936 43.2918 11.7059C42.604 10.8347 41.7787 10.2386 40.7242 9.96354C39.7155 9.45919 38.6609 9.04654 37.6522 8.58804C35.2221 7.99198 32.7921 8.26708 30.362 8.54219C28.3905 7.80858 26.5106 6.84573 24.3098 7.76273C23.6679 7.80858 23.1177 7.99198 22.5675 8.31293C21.5588 8.67974 20.7335 9.36749 19.7248 9.73429C18.3034 10.422 17.3406 11.7059 16.0568 12.6229C15.4149 13.2648 15.048 14.1359 14.5437 14.8695C13.6267 16.1992 14.0852 17.6664 14.0852 19.1336C14.0852 19.5004 13.8559 19.8213 13.8101 20.1423C13.535 20.7842 12.9848 21.2886 12.9848 22.0222C12.9848 22.2514 12.8931 22.4348 12.8014 22.6641C11.701 24.7273 11.6551 26.974 11.7468 29.2206C11.7468 29.725 11.7927 30.1835 11.4259 30.5503C10.3713 30.7337 9.95867 30.0001 9.54602 29.3123C8.39976 27.3866 8.72072 25.3234 8.94997 23.2601C9.13337 21.7929 10.1421 20.5091 9.68357 18.9502L9.72942 18.9043Z" fill="#751421"/>
<path d="M96.9365 65.2589C96.9365 67.1846 97.1658 69.1103 96.7531 71.036C95.3318 77.5009 89.4171 81.444 82.8605 80.2519C81.3933 79.9768 79.9261 79.7475 78.5506 79.1515C77.9545 78.8764 77.4502 78.9681 76.9 79.1515C73.5988 80.2519 70.5268 79.7476 67.6841 77.8218C66.7671 77.1799 66.171 77.2258 65.254 77.8218C59.7061 81.4899 53.1954 80.9397 48.2436 76.4005C47.8768 76.0337 47.5558 75.5293 46.9139 76.0795C44.3463 78.2345 41.1368 78.6471 38.019 79.1973C33.6174 79.9768 29.1699 79.8393 24.7683 79.7476C21.3753 79.6559 19.633 78.0052 19.5413 74.8874C19.3579 74.5665 19.4038 74.2455 19.4038 73.8787C19.4038 65.2589 19.4038 56.639 19.4038 47.9733C19.4038 47.6524 19.3579 47.2856 19.5413 46.9646V44.6721C20.5042 44.7638 20.55 45.5891 20.6876 46.2769C20.871 47.148 20.9627 48.1109 21.2836 48.9362C21.5587 49.7156 21.9714 50.1283 22.9342 49.6239C24.2181 48.9362 24.5849 49.2113 24.5849 50.7702C24.5849 57.3726 24.5849 63.9751 24.5849 70.5775C24.5849 71.0819 24.3556 71.5404 24.1722 71.9989C23.4386 73.8329 23.8971 74.5206 25.8228 74.5206C30.5454 74.5206 35.268 74.7499 39.8988 73.6495C42.604 73.0076 44.9882 71.8613 46.1803 69.0644C46.4554 68.3767 46.6847 67.7348 46.6847 67.0012C47.0973 66.2676 46.593 65.213 47.4641 64.6628C48.2436 64.8004 48.0143 65.4423 48.106 65.9466C48.7021 68.9269 49.8025 71.6779 52.4618 73.4661C56.9093 76.4922 63.1449 75.3459 65.4833 70.0273C65.8501 69.1561 65.9418 68.3767 65.2999 67.5972C64.4746 67.0929 64.0619 67.8723 63.5576 68.1933C62.0445 69.202 60.4397 69.6605 58.6516 69.202C57.7804 68.9727 56.9093 68.6518 56.6342 67.5972C56.68 66.7261 57.3678 66.5885 58.0555 66.4051C59.5686 66.0383 61.0358 65.6257 62.4113 64.8921C65.1623 63.379 66.4003 61.0865 66.0335 57.9687C66.0335 57.5102 66.2627 57.1434 66.3544 56.7307C66.492 56.1347 66.7671 55.722 67.409 55.7679C68.1426 55.8137 68.326 56.3639 68.326 57.0058C68.326 57.4643 68.326 57.9687 68.326 58.4272C68.4177 62.2328 68.1426 66.0383 68.4635 69.8439C69.0596 73.1451 70.6644 74.6123 73.5988 74.5665C74.6533 74.5665 75.5703 74.4289 75.8454 73.0534C76.0288 72.0447 76.6249 71.9072 77.4043 72.6408C80.2012 75.3918 83.5941 75.5293 87.1246 74.7957C90.4717 74.108 92.7642 70.5775 92.2598 67.3221C92.1223 66.0842 92.6266 64.8004 91.8472 63.6541C91.4804 62.9664 91.1136 62.3245 91.1594 61.4992C91.297 60.8573 91.6179 60.3071 92.1681 59.9402C92.8559 58.9315 93.5436 57.9687 94.8274 57.5102C95.3318 57.3268 95.3318 56.5473 95.4693 55.9513C95.6527 55.2635 95.7444 54.5299 96.7073 54.1631C96.9365 57.9228 96.6156 61.6367 96.8907 65.2589H96.9365Z" fill="#560813"/>
<path d="M24.264 70.8531C24.264 63.838 24.1723 56.7771 24.1265 49.762C24.1265 49.762 24.0806 49.7161 23.9889 49.6244C23.8972 49.6244 23.7138 49.6703 23.6221 49.762C21.8798 51.3209 21.0087 50.9541 20.4126 48.5699C20.0917 47.2861 20.1834 45.8647 19.4956 44.6726C19.4956 43.1596 19.4956 41.6924 19.4956 40.1793C19.4956 39.2623 19.083 38.8496 18.2118 38.8955C16.6988 38.8955 15.2316 38.6662 13.8102 38.2994C8.99592 37.1073 6.29075 32.7974 7.16191 27.8914C7.71211 24.8195 8.62912 21.8392 9.68367 18.9048C10.5548 19.5925 10.2797 20.4637 10.0505 21.289C9.54612 23.0772 9.22517 24.8653 9.36272 26.6993C9.50027 28.2582 10.0505 29.5879 11.426 30.459C11.5635 30.4132 11.7011 30.459 11.8386 30.459C12.6181 32.4306 13.9936 33.531 16.1486 33.7144C16.4237 33.7144 16.6988 33.852 16.928 34.0812C17.0197 34.1729 17.0656 34.3105 17.1114 34.448C17.1114 34.8607 17.4324 34.9982 17.7533 35.0441C19.2205 35.1816 20.6419 35.686 22.1549 35.686C23.0719 35.686 23.9889 35.7777 24.4933 36.7405C24.6309 37.9326 24.5391 39.1706 24.5391 40.3627C24.5391 40.867 24.3557 41.2797 24.1265 41.6924C23.4846 42.6094 23.8972 43.6181 23.8972 44.6268C23.8972 44.7643 23.8972 44.9477 23.8972 45.0853C23.3012 46.5983 24.0348 47.8821 24.7684 49.1201C24.8143 50.4497 24.8143 51.8253 24.7684 53.1549C24.6309 58.3818 25.0435 63.5629 24.9518 68.744C24.9518 69.5234 25.1352 70.4405 24.0806 70.8073L24.264 70.8531Z" fill="#6D111D"/>
<path d="M96.9363 65.259C96.4778 64.5254 96.7071 63.6542 96.7071 62.8748C96.7071 60.1696 96.7071 57.4186 96.7071 54.4383C96.0652 55.447 96.1569 56.364 95.8818 57.2352C95.7442 57.602 95.6984 58.198 95.3774 58.198C93.7727 58.0146 93.4059 59.3901 92.6264 60.2155C92.5806 60.2613 92.443 60.3072 92.3513 60.353C91.526 59.8487 92.0762 58.9775 91.8011 58.3356C91.8928 55.3553 90.609 53.2921 87.8121 52.1458C87.4453 52.0083 87.1244 51.779 86.941 51.4122C86.8034 50.7245 87.2619 50.4494 87.7663 50.266C90.609 49.3948 92.0304 47.3315 92.443 44.4888C92.4889 44.122 92.4889 43.7094 92.9474 43.5718C93.2683 42.9758 93.1308 42.3339 93.1308 41.7378C93.1308 36.6943 93.1308 31.6508 93.1308 26.4238C93.7727 26.8823 93.681 27.4325 93.681 27.9369C93.681 31.6966 93.5434 35.4563 94.0019 39.1702C94.1395 40.3164 94.3229 41.4627 94.5063 42.5631C94.5521 42.8841 94.598 43.2967 95.0565 43.2967C95.3774 43.2967 95.4233 42.9299 95.6067 42.7007C95.9276 42.288 95.9276 41.3252 96.8905 41.8295C96.8905 49.6699 96.8905 57.4644 96.8905 65.3048L96.9363 65.259Z" fill="#640E19"/>
<path d="M19.5414 46.9646C19.5414 56.2722 19.5414 65.5339 19.5414 74.8415C19.2205 74.4289 19.3122 73.9245 19.3122 73.4202C19.3122 65.0754 19.3122 56.6849 19.3122 48.3401C19.3122 47.8816 19.2205 47.3773 19.5873 46.9646H19.5414Z" fill="#6D111D"/>
<path d="M47.648 64.7086C47.1436 65.3963 47.6939 66.3133 47.1437 67.0011C46.8227 66.8635 46.731 66.4967 46.5934 66.2216C46.41 65.5797 46.5934 64.9837 46.5934 64.3418C46.4559 62.0951 45.7681 60.1694 43.6132 59.069C43.2464 58.9773 42.9254 58.7939 42.7879 58.4271C42.5586 57.6476 42.9254 57.0057 43.3839 56.4555C43.7966 55.997 44.0258 55.5385 44.0258 54.9425C44.4385 54.0255 44.3468 53.0168 44.3468 52.0539C44.4385 51.3662 44.2092 50.7701 43.98 50.174C43.2922 47.5606 41.229 46.5977 38.8906 45.8641C38.0653 45.589 37.0107 45.7266 36.5522 44.7179C36.6439 44.0301 37.1941 43.9384 37.6985 43.8467C40.4037 43.3424 42.8337 42.242 44.6219 40.087C45.0804 39.9036 45.493 39.6743 45.9515 40.0411C46.3642 40.5913 46.1349 41.0957 45.9515 41.6459C45.7681 42.1044 45.5847 42.6088 45.6306 43.1131C45.814 43.9384 46.4559 44.1218 47.1437 44.1218C49.0235 44.1677 50.9034 44.1218 52.7832 44.1218C53.8378 44.1218 54.2046 43.0673 55.0299 43.0214C55.7635 43.0214 56.0844 44.2135 57.0473 44.1218C59.4774 43.9384 61.9533 44.4886 64.3833 43.755C65.1169 43.5258 65.7588 44.1218 66.4925 44.1218C68.464 44.1218 70.4356 44.1677 72.4071 44.1218C73.6909 44.1218 73.8743 43.7092 73.6451 42.3337C72.4988 39.8577 73.1866 37.2443 73.049 34.7225C72.9573 33.1636 73.049 31.5588 73.049 29.9999C73.1866 29.1288 72.6822 28.1659 73.5075 27.3865C73.7826 27.4782 74.0119 27.5699 74.287 27.6616C74.6996 27.8908 74.7455 28.2576 74.7455 28.6703C74.7455 31.6047 74.6538 34.5391 75.2498 37.3818C74.7455 40.4079 75.9834 42.5629 78.5511 44.1218C78.872 44.3052 79.2388 44.4886 79.3305 44.9013C79.3305 45.0388 79.2847 45.1764 79.193 45.2681C78.6428 45.7266 77.6799 45.7724 77.5424 46.7353C77.359 48.1108 77.7716 48.8444 79.1471 49.6238C79.789 49.9906 80.4768 50.1282 81.1645 50.3116C81.7606 50.4491 82.4483 50.5867 82.54 51.3662C81.3021 52.3749 79.9266 53.1085 78.4135 53.6128C77.7716 53.4753 77.6341 52.8334 77.2214 52.5124C74.8372 51.9622 74.3328 50.3116 74.6079 48.1566C74.6079 47.8815 74.6079 47.5606 74.6079 47.2855C74.5162 46.6894 74.1953 46.5519 73.6909 46.9187C73.5075 47.0562 73.3241 47.2396 73.1866 47.423C71.5818 49.2112 69.702 50.6325 67.547 51.6871C67.1802 51.8705 66.7676 52.0998 66.5383 52.4666C66.1256 52.8334 65.9881 53.5211 65.3462 53.6128C63.8331 53.3377 62.6869 52.1915 61.128 51.8705C56.8639 51.091 51.3619 52.1915 49.2069 56.8682C48.565 58.7022 48.1524 60.6279 48.2441 62.5995C48.2441 63.1038 48.3358 63.654 48.0607 64.1584C47.969 64.3876 47.8314 64.6169 47.5563 64.7086H47.648Z" fill="#650E1A"/>
<path d="M74.6534 37.657C74.5159 34.31 74.4242 30.917 74.2866 27.57C74.2866 27.0656 74.2866 26.5613 74.2866 26.0569C74.8368 25.9652 74.9744 26.332 75.1119 26.7447C75.0202 28.8538 75.3412 30.9629 75.2953 33.0262C75.8455 33.1179 76.0289 32.7969 76.3499 32.6594C78.0922 31.7424 79.7428 32.4301 80.3847 34.31C80.6598 35.1811 80.7974 36.0981 81.1642 36.9234C81.8519 38.5282 83.961 38.9408 85.1531 37.7029C85.795 36.9234 85.6116 35.9606 85.6116 35.0436C85.6116 32.155 85.5199 29.2664 85.4741 26.3779C85.7492 26.332 85.9784 26.4696 86.0701 26.6988C86.3911 28.0285 87.1705 27.8909 88.0875 27.3866C88.3626 27.249 88.6836 27.1115 89.0045 27.0198C91.0678 26.332 92.2599 27.0198 92.856 29.1289C92.856 33.7139 92.856 38.2989 92.856 42.884C92.6726 44.1678 92.856 45.5433 91.8014 46.552C90.9303 46.7812 90.701 46.231 90.6552 45.5433C90.5635 44.6721 90.5176 43.8468 90.1967 43.0215C89.784 42.0128 89.1421 41.5543 88.0875 42.0587C87.2164 42.4255 86.3452 42.563 85.4282 42.3796C83.4567 43.3883 81.531 44.2136 79.2384 43.5259C76.5333 42.7006 75.6621 41.5543 74.9744 38.4823C74.9285 38.2072 74.9744 37.8863 74.8368 37.657H74.6534Z" fill="#F6C11D"/>
<path d="M63.6036 20.922C63.6036 25.5529 63.6036 30.1837 63.6036 34.8146C63.3285 35.7775 63.5119 36.7403 63.5119 37.7032C63.5119 38.4368 63.0993 38.7577 62.5032 38.5743C61.1277 38.1158 59.9356 38.7577 58.6977 39.0328C56.3134 39.5372 55.6257 39.0328 55.6715 36.6945C55.6715 33.6684 55.5798 30.6422 55.7174 27.5703C56.1759 26.8367 56.6802 26.1489 57.1388 25.4612C58.2392 23.8106 59.7981 23.4896 61.6779 24.4983C62.5032 24.9568 62.7783 24.8651 62.7325 23.9023C62.7325 23.077 62.6408 22.2517 62.87 21.4722C62.87 21.243 63.0076 21.0595 63.1451 20.8761C63.2827 20.7844 63.4202 20.7844 63.5578 20.8761L63.6036 20.922Z" fill="#F8D021"/>
<path d="M12.5265 22.3432C12.5265 22.1598 12.6182 21.9764 12.664 21.793C13.2142 20.6926 14.1771 20.4633 15.2775 20.4633C16.0569 20.8301 16.653 21.1511 16.9739 19.8214C17.2032 18.8586 17.8909 19.8214 18.3494 19.8214C18.6704 19.4546 18.3036 19.1795 18.3494 18.8586C18.3494 18.6293 18.3494 18.4459 18.487 18.2625C19.083 17.4372 19.9542 17.6206 20.7336 17.7123C21.7424 17.8499 22.155 17.6206 21.6048 16.6119C21.5131 16.4285 21.559 16.2451 21.6965 16.0617C22.0175 15.7866 22.3843 15.649 22.7511 15.6949C24.2641 15.8324 25.5021 15.2822 26.6483 14.3652C27.7487 14.4569 27.3361 15.4198 27.6112 16.0158C27.5195 17.6206 27.1527 17.9874 25.3187 18.2167C24.2641 19.0878 22.9803 19.5463 21.7424 20.1424C21.3297 20.3258 21.238 20.6926 21.1463 21.0594C21.0546 21.6096 20.7795 22.1598 20.321 22.3432C19.3123 22.7558 19.1747 23.6728 18.8538 24.4523C18.7621 25.5068 18.3494 26.2863 17.3407 26.7906C16.6071 27.1575 17.0198 28.3954 16.1945 28.8081C16.0569 28.8539 15.9194 28.8539 15.7818 28.8539C15.0941 28.6247 14.6356 27.9828 13.6727 28.212C12.9391 28.3954 12.3431 27.616 12.1138 26.9282C11.7929 26.057 11.3343 25.0942 12.1597 24.223C12.7557 23.627 13.1225 23.0309 12.5265 22.2515V22.3432Z" fill="#CE6B15"/>
<path d="M74.3783 42.38C74.4089 43.9083 73.6906 44.6725 72.2234 44.6725C70.5728 44.6725 68.9221 44.8559 67.3174 44.6725C63.7869 44.2598 60.3023 44.9934 56.8177 44.7183C55.9007 44.6725 55.1212 44.6266 55.1671 43.297C54.7086 44.5349 53.8374 44.7642 52.6912 44.7183C50.7655 44.6266 48.8397 44.7183 46.914 44.7183C45.6302 44.7183 45.0342 44.1681 45.1717 42.8843C45.6302 42.38 46.2721 42.38 46.8682 42.38C48.6563 42.38 50.4904 42.38 52.2785 42.38C53.2414 42.38 54.0667 42.1507 54.7544 41.5088C54.892 41.4171 55.0754 41.4171 55.2129 41.463C55.9924 42.2883 56.9552 42.5175 58.1015 42.4258C59.1561 42.38 60.2106 42.38 61.2652 42.4258C62.4573 42.4717 63.5577 42.38 64.5205 41.5547C64.6581 41.5547 64.8415 41.5547 64.979 41.5547C65.9419 42.38 67.134 42.38 68.3261 42.4258C70.3435 42.4258 72.3151 42.2424 74.3325 42.4258L74.3783 42.38Z" fill="#952708"/>
<path d="M25.0896 17.7124C26.2359 17.7124 27.3822 17.6207 27.1071 15.9701C27.8407 15.2823 28.8952 15.1906 29.6747 14.6404C29.9956 14.4112 30.2707 14.1819 30.4541 13.8609C31.1419 12.9439 32.0589 12.4396 33.2051 12.8522C34.4431 13.3107 34.9474 12.0269 35.9562 11.8435C37.3317 11.706 38.0653 12.7605 39.074 13.54C39.074 13.1732 39.074 12.8064 39.3949 12.5771C40.0827 12.1645 39.8993 11.6601 39.6242 11.1099C39.3949 10.6973 38.8447 10.1471 39.4866 9.73443C39.991 9.41347 40.4495 9.87198 40.8621 10.2388C40.9997 10.3763 41.1372 10.5139 41.2748 10.6514C41.0914 10.2846 40.8163 9.96368 41.0455 9.55103C43.1546 10.0095 44.2092 11.706 45.3096 13.3107C45.6764 13.9526 45.1262 14.4112 44.9428 14.9155C44.6677 15.374 44.5301 15.9242 44.1633 16.3827C44.0258 16.5203 43.8424 16.612 43.6131 16.6578C42.5586 16.5661 41.5499 16.3369 40.4953 16.1076C36.1396 15.1448 32.013 15.8784 28.1616 18.2167C27.1529 18.8586 26.1442 19.5464 24.9062 19.6839C23.6224 18.9045 24.8145 18.3084 25.0896 17.6665V17.7124Z" fill="#BF5A0C"/>
<path d="M85.1074 37.703C85.4742 38.1615 85.1074 38.4366 84.8323 38.6659C83.5944 39.4912 81.1643 38.7576 80.6141 37.3821C80.2473 36.4651 80.0639 35.5481 79.8346 34.5852C79.6054 33.7599 79.3303 33.0263 78.3216 32.8429C77.4046 32.7054 76.5793 32.8429 76.0291 33.6224C75.8457 33.8975 75.7081 34.4018 75.2038 34.2643C74.6536 34.1267 74.6994 33.6224 74.6994 33.1639C74.6994 31.1006 74.6994 28.9915 74.6994 26.9282C74.9287 26.9282 75.1579 26.9282 75.2038 27.1575C75.6164 28.8998 76.7168 28.3496 77.8172 27.9828C79.1469 27.5243 80.4307 26.7448 81.9438 27.2492C81.9438 29.4958 81.9438 31.7425 81.9438 34.035C81.9438 34.4935 81.9438 34.9979 81.9896 35.4564C82.2189 37.5196 83.09 38.1157 85.1074 37.703Z" fill="#F9D021"/>
<path d="M64.5208 41.5086C64.6125 42.5173 64.1081 42.93 63.1452 42.93C60.9444 42.93 58.6978 42.93 56.497 42.93C55.4883 42.93 55.1215 42.4256 55.1673 41.5086C54.8464 40.4541 55.1673 39.3995 55.1673 38.345C55.1673 32.3844 55.1673 26.378 55.1673 20.4175C55.1673 19.5922 55.1215 18.7669 55.3049 17.9874C55.7634 17.2997 55.6717 16.0617 57.0472 16.3368C57.3223 16.7036 57.3223 17.1621 57.1847 17.5748C56.497 19.363 56.8179 21.2887 56.6345 23.1227C56.7262 24.544 57.093 26.0112 56.2219 27.3409C56.2219 30.688 56.2219 34.0809 56.176 37.4279C56.176 38.5742 56.6804 38.8952 57.6891 38.6659C58.6061 38.4367 59.5689 38.2074 60.4859 37.9323C61.1737 37.7031 61.7697 37.4738 62.4575 38.0699C63.1452 38.6659 63.3286 38.0698 63.3745 37.4279C63.4662 36.6026 63.1452 35.6856 63.6496 34.9062C63.6496 36.2817 63.6496 37.7031 63.6496 39.0786C63.6496 40.0414 63.8788 40.8667 64.5666 41.5545L64.5208 41.5086Z" fill="#EAAA21"/>
<path d="M74.3785 42.3795C73.92 42.7922 73.4156 42.9756 72.8196 42.9756C70.7105 42.9756 68.6014 42.9756 66.4922 42.9756C65.4835 42.9756 64.9333 42.6088 65.025 41.5542C65.5752 40.9123 65.7586 40.1329 65.7586 39.3076C65.7586 37.5653 65.7586 35.7771 65.7586 34.0348C66.859 34.3558 66.4922 35.3186 66.5839 36.0522C66.6756 37.4736 66.6756 37.4736 67.9136 36.7858C69.2433 36.0522 70.2061 36.1898 71.3065 37.1985C71.6275 37.4736 71.8567 37.8404 72.4069 38.2072C73.0488 35.8688 72.4069 33.5763 72.8196 31.3296C72.7737 30.8711 72.7737 30.4126 73.0947 30C73.2322 29.8624 73.3698 29.8624 73.5073 29.9083C73.5073 32.4759 73.6449 35.0435 73.4615 37.5653C73.3239 39.3076 74.0117 40.8206 74.4243 42.3795H74.3785Z" fill="#ECA519"/>
<path d="M73.1401 31.3297C73.1401 33.6222 73.3694 35.9605 72.9567 38.2531C72.9109 38.6199 72.9567 39.1242 72.4982 39.2159C72.0856 39.3076 71.8563 38.8491 71.6271 38.574C71.3978 38.2989 71.2603 38.0238 71.031 37.7487C69.8848 36.4649 68.9678 36.419 67.684 37.5653C67.3172 37.8863 67.0421 38.3906 66.4919 38.1614C65.85 37.9321 65.9875 37.2902 65.9417 36.7858C65.85 35.823 66.1709 34.8601 65.7124 33.9431C65.7124 29.8625 65.7124 25.8276 65.7124 21.747C65.8958 21.6553 66.0334 21.747 66.1251 21.8387C66.446 22.2513 66.3085 22.7557 66.4919 23.2142C66.5377 25.7818 66.4919 28.3494 66.4919 30.8712C66.4919 32.2467 66.5836 32.2467 67.7757 31.6506C69.518 30.7795 71.2603 30.1834 73.0943 31.238L73.1401 31.3297Z" fill="#F3BB1E"/>
<path d="M16.1028 28.7163C16.2862 28.3495 16.4696 27.9827 16.332 27.6159C16.0111 26.7906 16.6071 26.4238 17.1573 26.2404C17.9368 25.9194 18.6245 25.6902 18.0285 24.6815C18.0285 24.6815 18.3036 24.4981 18.4411 24.3605C19.404 23.6727 19.9542 22.6182 20.8254 21.8387C21.6048 21.151 22.2926 20.4174 23.4847 20.8759C23.6681 21.151 23.7139 21.4719 23.4847 21.7012C22.0175 23.5352 21.238 25.7819 19.8167 27.6617C18.8996 28.8538 17.7534 29.8167 17.2949 31.4214C16.8364 32.8886 13.6269 32.8428 12.3889 31.4673C12.1138 31.1922 11.9763 30.8254 11.7929 30.5044C11.7012 30.5044 11.6095 30.5044 11.5636 30.5044C10.9676 27.7076 11.1051 24.9566 12.6182 22.4348C12.985 22.664 13.4435 22.5723 13.902 22.6182C13.4435 23.4435 13.3976 24.3605 12.4348 24.9107C11.6553 25.3692 12.3431 26.1945 12.5723 26.8364C12.7557 27.3866 13.1225 28.0285 13.8561 28.0285C14.3146 28.0285 14.1312 27.3866 14.5439 27.1115C15.0024 27.6617 15.415 28.2119 15.8735 28.7163C15.8735 28.9914 15.736 29.2665 15.5067 29.4499C15.736 29.2665 15.8735 28.9455 16.1028 28.7163Z" fill="#AA420B"/>
<path d="M56.13 22.939C56.0383 20.6465 55.9007 18.3999 56.9094 16.2449C56.7719 15.8781 56.9094 15.6489 57.2304 15.5113C57.3221 15.5113 57.4138 15.5113 57.4596 15.5113C58.6976 15.603 59.798 15.0069 60.8984 14.5484C61.5861 14.2733 62.3197 14.0441 63.0533 13.9524C63.145 14.0441 63.2367 14.1816 63.3284 14.2733C63.5118 16.4742 63.5118 18.675 63.3284 20.8758C63.3284 21.0592 63.3284 21.2426 63.3284 21.4718C62.4114 21.9762 62.0905 21.1967 61.7695 20.6924C61.1276 19.7754 60.4857 19.8671 59.7063 20.4173C58.881 21.0133 58.3766 21.9303 57.643 22.6181C57.2762 22.9849 56.8636 23.8102 56.1758 22.8932L56.13 22.939Z" fill="#FCF551"/>
<path d="M81.8977 27.2949C80.1095 27.891 78.2755 28.5329 76.4874 29.1289C75.5245 29.4499 75.0201 29.1289 74.9743 28.0744C74.9743 27.7076 74.9743 27.2949 74.6992 26.974C74.6992 26.6072 74.6533 26.2862 74.2865 26.1028C73.9656 25.6902 73.7363 25.2317 73.9656 24.6815C75.0201 23.7645 76.3957 23.6728 77.6795 23.306C78.8257 22.985 79.972 22.7099 81.1182 22.4348C81.8977 22.4807 81.9894 23.0767 81.9894 23.6728C81.9894 24.9107 81.9894 26.1487 81.9435 27.3408L81.8977 27.2949Z" fill="#FBF353"/>
<path d="M65.9879 23.2145C65.9879 22.756 65.9879 22.2516 65.9879 21.7931C65.7587 21.3805 65.8504 20.9678 65.8504 20.5552C65.8962 19.1797 65.8504 17.85 65.1626 16.612C65.1626 16.3828 65.1626 16.1994 65.346 16.0618C67.9595 15.7867 70.3895 14.6863 72.9113 14.0444C73.1864 14.1361 73.2781 14.3195 73.2781 14.5946C73.4156 15.9243 73.2781 17.2539 73.3698 18.5836C73.3698 19.7757 73.3698 20.922 73.3698 22.1141C73.1405 22.8935 72.682 22.5726 72.3152 22.2516C71.9484 21.9307 71.8109 21.4263 71.6733 20.9678C71.3982 20.1884 71.169 19.3172 70.1144 19.3172C68.9682 19.3172 68.097 19.8216 67.501 20.8303C67.2259 21.2888 67.18 21.839 66.9966 22.3433C66.8591 22.8477 66.6757 23.3979 65.9421 23.2603L65.9879 23.2145Z" fill="#FCF653"/>
<path d="M57.2305 15.4654C57.1388 15.6947 57.0012 15.9698 56.9095 16.1991C56.2676 16.52 56.1759 17.2078 55.8091 17.7121C55.1672 17.758 54.7087 18.354 54.0209 18.354C52.462 18.5833 50.8573 18.5833 49.2984 18.9501C50.4905 19.5461 51.545 18.354 52.7371 18.6291C53.2873 19.0876 52.9205 19.5003 52.5996 19.8212C52.2328 20.188 51.866 20.6007 51.7284 21.105C51.6826 21.2426 51.5909 21.3343 51.4992 21.426C51.0865 21.7928 50.5363 21.9303 49.9861 22.1137C49.115 22.2513 48.2897 22.3888 47.4644 22.6639C47.281 22.7098 47.0976 22.8015 46.9142 22.8473C46.7766 22.8932 46.6391 22.939 46.5474 22.939C46.4098 22.939 46.2723 22.939 46.1347 22.939C44.4841 23.3517 44.2548 23.2141 43.7505 21.9762C43.9797 21.4718 44.3465 21.4718 44.8509 21.5635C45.5845 21.7011 45.9054 21.2884 46.043 20.6465C46.1347 20.0963 45.9055 19.6378 45.7221 19.1335C45.5386 18.354 45.2177 17.6204 44.9426 16.8868C44.7133 15.924 44.1173 14.8235 45.6303 14.2733C45.722 14.365 45.8137 14.5026 45.9054 14.5943C46.8683 15.0986 46.6849 16.2908 47.5102 17.1619C47.7395 15.6947 48.198 14.5026 49.7569 14.3192C49.9403 14.2275 50.1695 14.1816 50.3529 14.3192C50.5363 14.4567 50.628 14.6401 50.628 14.8694C50.5363 16.2449 50.7197 16.52 52.0494 16.1532C53.0581 15.8781 54.1126 15.6947 54.8462 14.7777C55.1213 14.4109 55.4882 14.0441 56.0842 14.2275C56.5886 14.9152 56.0842 15.282 55.6716 15.603C56.1301 15.3737 56.4969 14.5943 57.2763 15.0528C57.2763 15.0986 57.2763 15.1903 57.2763 15.2362L57.2305 15.4654Z" fill="#A74C0C"/>
<path d="M91.4347 46.4146C92.2141 45.4976 92.1683 44.3055 92.6268 43.251C92.6268 43.1134 92.7185 43.0676 92.856 43.1593C92.856 43.2968 92.9477 43.3885 92.9936 43.5261C92.7185 46.5522 91.8932 49.2574 88.6837 50.5412C88.1335 50.7704 87.354 50.5412 87.0331 51.2748C85.52 51.9625 84.0069 51.8708 82.4939 51.2748C81.4852 50.9997 80.4306 50.7704 79.4678 50.4036C77.3587 49.6242 76.9002 48.7989 76.9919 46.4146C77.4962 46.2771 77.8172 46.6439 78.1381 46.919C81.2101 49.3949 86.8038 49.5325 90.0592 47.24C90.5177 46.919 91.022 46.7815 91.4347 46.4605V46.4146Z" fill="#952C09"/>
<path d="M36.0934 12.1643C35.0388 13.0813 34.076 14.1817 32.3795 13.173C31.6917 12.7604 31.3249 13.7691 30.8664 14.1817C29.766 15.0529 29.17 14.411 28.7573 13.4023C29.0324 12.4853 29.5826 11.8892 30.5913 12.0726C31.5083 12.256 31.7376 11.7058 31.9668 11.0181C32.1502 10.6971 32.4253 10.4679 32.7463 10.3303C33.1589 10.1928 33.5716 10.3303 33.9843 10.1469C33.0214 8.86309 31.8293 8.63384 30.087 9.3216C29.6743 9.3216 29.3075 9.3216 29.0324 9.00065C28.8949 8.03779 29.5826 7.99194 30.2704 8.03779C32.8838 7.80854 35.4973 6.98323 38.0649 8.17534C38.5693 8.35874 37.2855 8.40459 38.0649 8.77139C39.257 9.36745 39.257 10.1928 38.2025 11.0639C37.5606 11.5683 36.827 11.8892 36.0934 12.1643Z" fill="#E49836"/>
<path d="M92.5806 28.7161C91.2051 26.7446 89.5545 27.2489 87.7663 28.1201C85.9323 28.9913 85.9323 28.9454 85.6114 26.928C85.6114 26.7446 85.4738 26.607 85.3821 26.4236C85.0153 25.8276 84.511 25.2315 85.0612 24.4979C87.3995 25.9651 89.3252 24.2687 91.3885 23.6268C92.0304 23.4434 91.847 22.6639 92.3972 22.5264C92.9474 22.939 93.0391 23.4892 92.9016 24.1311C92.4889 25.6442 93.0391 27.2489 92.5806 28.7161Z" fill="#F9DD2D"/>
<path d="M36.0933 12.1643C36.4601 11.5224 37.102 11.1556 37.6522 10.743C37.9731 10.5137 38.615 10.5596 38.5692 9.9635C38.5692 9.3216 38.019 9.1382 37.4688 8.9548C37.2854 8.90895 37.1478 8.77139 36.8269 8.63384C37.3312 8.45044 37.698 8.35874 38.0648 8.22119C39.0735 8.58799 40.0822 8.9548 40.9992 9.55085C41.4119 10.1011 41.8245 10.6054 42.2372 11.1556C42.4206 11.3849 42.4664 11.7058 42.1455 11.8892C41.8704 12.0268 41.687 11.7975 41.5494 11.66C40.9534 11.0639 40.3573 10.5137 39.6696 9.9635C40.6783 11.8434 41.366 12.9896 39.4403 13.0813C39.4403 13.173 39.4403 13.2647 39.532 13.3564C39.7154 13.8149 40.6324 14.0442 40.1281 14.5944C39.7613 15.007 39.3486 14.2734 38.936 14.0442C37.9273 13.494 37.3771 12.3019 36.0933 12.1185V12.1643Z" fill="#DB851A"/>
<path d="M18.6702 18.8588C19.1745 19.4549 20.1374 20.0051 18.5785 20.6011C17.6615 20.9679 17.4781 20.6011 17.4781 19.8217C16.8362 20.326 17.7532 20.9679 17.0654 21.5181C15.7816 22.5268 15.7816 21.0138 15.1856 20.647C14.7729 19.8675 13.9476 20.326 13.3516 20.0968C13.4891 19.8217 13.6267 19.5007 13.7642 19.2256C14.131 17.2082 15.7816 16.7956 17.4322 16.4746C18.2117 17.0707 17.8449 18.2628 18.6243 18.8588H18.6702Z" fill="#E18E26"/>
<path d="M57.2765 15.2822C56.3595 15.5573 55.7176 16.2909 54.8464 16.7953C54.9381 15.7407 56.0844 15.4198 56.0844 14.5028C55.8551 13.1731 57.1848 12.9897 57.735 12.2561C57.5975 12.3478 57.4141 12.3936 57.2307 12.3936C57.0014 12.3478 56.8638 12.2102 56.818 11.981C57.2765 10.4679 58.4686 9.68848 59.7524 9.00073C60.5777 8.86318 60.807 8.81733 60.5777 9.96358C60.1651 12.2561 58.5145 13.6316 57.2765 15.2822Z" fill="#71171D"/>
<path d="M30.3165 8.12938C29.9039 8.40448 29.3995 8.54203 29.0786 9.00053C29.0327 9.22978 28.8952 9.36733 28.6659 9.45903C28.3908 9.55073 28.1616 9.68829 27.9323 9.82584C26.9236 10.2843 25.8232 10.4677 24.8145 10.9262C23.4848 10.6053 23.2097 10.1468 24.035 9.13808C24.5394 8.49618 24.5394 7.99183 24.1267 7.34992C26.3276 6.47877 28.3908 6.84557 30.2707 8.22108L30.3165 8.12938Z" fill="#CC6E22"/>
<path d="M14.2685 14.5027C14.6353 13.6774 15.0938 12.8979 15.8274 12.3019C17.2946 12.3936 18.7618 12.4853 19.8164 11.1098C20.1832 10.6513 20.6417 10.3303 21.2836 10.3762C22.2006 10.8805 22.2464 11.4766 21.4211 12.1185C20.9626 12.4853 20.55 12.8521 20.1832 13.3106C19.9539 13.5398 19.7247 13.7691 19.5413 14.0442C19.1745 14.411 18.5784 14.5027 18.2116 14.8695C17.2487 15.5573 16.0108 15.4197 15.0479 16.1075C13.3973 16.245 14.4519 15.0529 14.2685 14.5027Z" fill="#CA6A1F"/>
<path d="M49.9861 14.8237C48.5189 15.2822 48.1063 16.4743 47.7853 17.804C47.6936 18.2166 47.0059 18.5376 46.8683 17.8957C46.5932 16.8411 45.8138 15.9241 45.8596 14.7778C45.9972 14.3193 46.0889 13.8608 46.4557 13.5399C47.3268 13.7691 47.281 14.5486 47.5102 15.1905C47.0059 13.1272 47.7853 11.6142 49.3901 10.3762C49.5276 10.4679 49.6193 10.5596 49.6652 10.6972C49.7569 11.5225 49.8027 12.3936 49.8486 13.2189C49.8486 13.4023 49.8486 13.6316 49.8486 13.815C49.8486 14.1359 49.7569 14.5027 49.9861 14.7778V14.8237Z" fill="#E6AD1D"/>
<path d="M19.8167 13.0354C20.1835 12.6686 20.4586 12.1643 20.8712 11.935C21.6965 11.5224 21.6048 11.018 21.2839 10.3761C20.9629 9.78006 21.4214 9.55081 21.7882 9.41326C22.6135 9.09231 22.7511 8.58796 22.4301 7.85435C22.9345 7.48755 23.5305 7.35 24.1266 7.2583C24.5392 7.39585 25.2728 7.12075 25.3645 7.7168C25.4562 8.26701 25.0894 8.81721 24.5851 9.18401C23.8515 9.73421 23.3471 10.2386 24.7685 10.5137C24.7685 11.018 24.4017 11.1097 24.0349 11.1556C23.5764 11.1556 23.2096 11.339 22.9345 11.7058C22.5218 12.1643 21.7882 12.256 21.559 12.8979C21.0088 13.2188 20.4127 13.5856 19.8167 13.0354Z" fill="#E29B4A"/>
<path d="M92.3976 22.4806C92.6727 23.581 92.0767 24.0395 91.1597 24.3605C90.2426 24.6356 89.3256 24.9107 88.5003 25.3692C87.0331 26.1486 85.9327 25.8735 85.1074 24.498V24.4063H85.1991C87.4916 23.6269 89.9217 23.3059 92.1684 22.3889C92.2601 22.3889 92.3518 22.4348 92.4435 22.4806H92.3976Z" fill="#FBF363"/>
<path d="M22.476 7.8544C22.9345 7.9461 23.5764 7.90025 23.5306 8.54215C23.4847 9.09235 22.9804 9.505 22.476 9.78011C22.1092 10.0094 21.4673 9.64256 21.3298 10.3303C20.9171 10.6513 20.5503 10.9264 20.1377 11.2473C19.5416 11.7517 19.0831 11.5224 18.7163 10.9264C18.3954 10.422 18.5788 10.0094 19.0831 9.73426C19.3124 9.64255 19.4499 9.45915 19.5875 9.2299C20.5045 8.63385 21.4215 8.08365 22.476 7.7627V7.8544Z" fill="#F6C97F"/>
<path d="M49.4357 13.4023C49.3899 12.5312 49.0231 11.66 49.4357 10.7889C49.5733 10.0553 50.1693 9.78016 50.8112 9.59676C51.5448 8.67976 52.5994 8.03785 53.5164 7.3501C53.8832 7.12085 54.1124 7.12085 54.0666 7.6252C53.7915 7.992 53.5164 8.40465 53.1954 8.77146C53.012 9.73431 53.5164 10.6513 53.333 11.6142C53.333 12.2102 53.012 12.6687 52.5077 12.9897C51.8658 13.2189 51.3614 12.898 51.3614 12.3019C51.3614 11.3391 50.8112 12.1644 50.582 12.0268C50.2152 11.7517 50.1693 12.0268 50.1235 12.3478C50.1235 12.8063 50.2152 13.4482 49.4357 13.4482V13.4023Z" fill="#F4D330"/>
<path d="M14.2687 14.5027C14.498 14.8236 14.5438 15.1446 14.4521 15.5114C14.3604 15.8782 14.5438 16.0157 14.9106 15.7865C15.6901 15.3738 16.5154 15.6031 17.2948 15.6489C17.7992 15.6489 18.2118 16.0616 17.5241 16.5659C17.2031 16.8869 16.8363 17.2078 16.332 17.2995C15.1399 17.5288 14.4521 18.3541 13.8102 19.2253C13.4434 17.6205 13.1683 15.9699 14.2687 14.5027Z" fill="#B3480B"/>
<path d="M19.5876 9.32153C19.5876 9.50493 19.6335 9.78004 19.5876 9.82589C18.3038 10.8804 19.0833 11.1555 20.1379 11.2931C19.3584 12.9437 16.8366 13.4939 15.8738 12.2559C16.9742 11.0638 18.1663 10.0551 19.6335 9.32153H19.5876Z" fill="#E19743"/>
<path d="M49.39 10.5137C48.2438 11.66 47.7394 13.0813 47.9228 14.6861C48.0145 15.5573 47.8311 16.3826 47.4185 17.483C46.8683 16.0616 47.0975 14.6861 46.5015 13.5857C47.3268 12.0726 48.473 10.7888 49.711 9.64258C50.1695 9.91768 50.1236 10.0094 49.39 10.5596V10.5137Z" fill="#F5E755"/>
<path d="M92.5807 28.7164C92.7182 27.2033 92.3055 25.5986 92.9016 24.1313C92.9016 30.5045 92.9016 36.8319 92.9016 43.205C92.8099 43.205 92.7641 43.2967 92.6724 43.2967C92.6724 38.4366 92.6724 33.5765 92.6265 28.7164H92.5807Z" fill="#EBA521"/>
<path d="M59.7518 9.00066C58.6514 9.82596 57.872 10.9722 56.955 11.9351C56.4965 12.8062 54.3873 13.9525 53.4703 13.7232C52.4158 13.494 52.4616 12.8521 53.1035 12.1643C54.3873 11.66 55.9463 11.9809 56.8633 10.6513C56.8633 10.6054 56.8633 10.5137 56.9091 10.4679C57.6886 9.91766 58.468 9.36746 59.2475 8.81726C59.4767 8.67971 59.7977 8.40461 59.7518 9.00066Z" fill="#E5AA1A"/>
<path d="M53.7456 8.95494C55.0294 7.85453 56.7717 7.80868 58.1013 6.93753C58.3764 6.89168 58.4681 6.98338 58.4223 7.25848C57.7804 7.76283 57.1843 8.31304 56.7258 9.00079C56.4049 9.32174 56.2215 9.68854 56.0381 10.1012C55.763 10.8348 55.2586 11.2016 54.4792 10.9265C53.9748 10.5138 54.6626 9.50514 53.6997 9.27589C53.6997 9.13834 53.6997 9.00079 53.7456 8.90909V8.95494Z" fill="#F1D83B"/>
<path d="M92.1226 22.3888C90.0593 23.9935 87.5834 24.0852 85.1533 24.3603C85.3826 23.7643 85.9328 23.7184 86.4371 23.6267C88.317 23.1682 90.1051 22.2971 92.1226 22.3888Z" fill="#F7EDC7"/>
<path d="M53.7456 8.95484C53.7456 9.09239 53.7456 9.18409 53.7456 9.32164C54.3875 9.64259 53.9748 10.3762 54.3416 10.7888C55.6713 10.9264 55.763 9.36749 56.7258 9.04654C57.0009 9.50504 55.5796 10.1928 56.9551 10.4679C56.9551 10.4679 57.0009 10.5596 57.0468 10.6054C56.2673 11.7976 54.8918 11.7517 53.6997 12.1185C53.4246 12.1185 53.1954 11.9351 52.9661 11.7059C53.012 10.6971 52.6452 9.68844 53.2412 8.72559C53.2412 9.13824 53.5163 9.04654 53.7456 8.95484Z" fill="#E5AA1A"/>
<path d="M72.8651 13.9984C70.435 15.0988 68.0508 16.2451 65.2998 16.0158C65.3915 15.8783 65.4374 15.6948 65.5291 15.6948C67.9133 15.4197 70.0682 14.3652 72.3607 13.8608C72.4983 13.8608 72.7275 13.9525 72.9109 13.9984H72.8651Z" fill="#F5E7CB"/>
<path d="M81.118 22.3433C79.8801 23.2603 78.2753 23.2603 76.8998 23.7188C75.9369 24.0397 74.9741 24.3148 74.0112 24.6358C74.0112 24.269 74.2863 23.9939 74.6073 23.8563C76.7622 23.1686 78.8255 22.2516 81.1639 22.3433H81.118Z" fill="#F4E7CC"/>
<path d="M13.3974 20.0965C13.4891 20.0506 13.5808 20.0048 13.6267 19.9589C14.0852 19.6838 14.4061 18.9502 14.9105 19.1795C15.4607 19.4087 15.048 20.1423 15.1856 20.6008C15.1856 20.7384 15.1856 20.8759 15.1397 21.0135C14.0852 20.6008 13.4891 21.5178 12.6638 21.7929C12.6638 21.151 12.9389 20.555 13.3974 20.0506V20.0965Z" fill="#AA420B"/>
<path d="M73.1859 22.3431C73.1859 21.1051 73.1859 19.8213 73.1859 18.5834C73.2318 18.4 73.3235 18.4 73.3694 18.5834C73.3694 21.4719 73.4611 24.3605 73.4611 27.249C73.4611 28.1202 73.4152 28.9914 73.3694 29.8625C73.3235 29.8625 73.2318 29.8625 73.1859 29.8625C73.0942 29.8167 72.9567 29.7708 72.9567 29.6791C72.3148 27.2032 72.0855 24.7273 73.1401 22.2972L73.1859 22.3431Z" fill="#F3BB1E"/>
<path d="M63.0991 13.9525C61.7236 14.5027 60.3939 15.0071 59.0184 15.5115C58.5141 15.6949 58.0097 15.7866 57.5054 15.5115C58.8809 15.0071 60.2564 14.4569 61.6319 13.9984C62.0904 13.815 62.6406 13.6316 63.0991 13.9984V13.9525Z" fill="#F1E1B3"/>
<path d="M45.5847 14.4571C44.6677 15.2824 45.172 16.1994 45.3554 17.1164C45.2179 17.2081 45.0803 17.254 44.8969 17.2081C44.0258 16.5662 44.3009 15.6951 44.4384 14.8239C44.7135 14.3195 44.9428 13.861 45.2179 13.3567H45.3096C45.5847 13.3567 45.7681 13.4025 45.6764 13.7235C45.6764 13.9527 45.6305 14.2278 45.5847 14.4571Z" fill="#F4E662"/>
<path d="M63.3283 20.9218C63.3283 18.721 63.3283 16.5201 63.3283 14.3193C63.9244 16.5201 63.5117 18.721 63.5576 20.9218H63.42H63.2825H63.3283Z" fill="#FAE32F"/>
<path d="M65.1167 16.5659C66.4464 18.1248 65.8044 20.0047 65.942 21.747H65.8503H65.7586C65.7586 20.0047 65.7127 18.2624 65.1625 16.5659H65.1167Z" fill="#F8E232"/>
<path d="M73.4153 18.5834H73.3236H73.2319C73.2319 17.2078 73.2319 15.8782 73.2319 14.5027C73.6446 15.8323 73.3695 17.2078 73.3695 18.5375L73.4153 18.5834Z" fill="#F8E232"/>
<path d="M45.6759 13.6772C45.5383 13.5397 45.4466 13.448 45.3091 13.3104C45.7217 12.6227 46.1802 11.9808 47.0055 11.5681C46.547 12.2559 46.1344 12.9436 45.6759 13.6772Z" fill="#C39444"/>
<path d="M49.3899 10.5136C49.5274 10.2385 49.8484 10.0093 49.7108 9.59663C50.0318 8.67963 50.3986 9.04643 50.8112 9.59663C50.5361 10.1927 49.8942 10.3761 49.4357 10.7887C49.4357 10.697 49.4357 10.6053 49.4357 10.5136H49.3899Z" fill="#934328"/>
<path d="M54.0666 7.57926C53.8832 7.48756 53.6998 7.39586 53.5164 7.30416C54.1124 6.79981 54.8002 6.57056 55.5796 6.57056C55.0753 6.89151 54.5709 7.21246 54.0666 7.57926Z" fill="#BC842A"/>
<path d="M58.4223 7.25846C58.3306 7.16676 58.2389 7.02921 58.1013 6.93751C58.514 6.57071 59.0183 6.29561 59.7061 6.24976C59.3851 6.84581 58.8808 7.07506 58.3764 7.30431L58.4223 7.25846Z" fill="#B67A28"/>
<path d="M47.1433 64.1126C47.1433 64.8004 47.1433 65.4423 47.1433 66.13C46.7765 70.2107 43.7504 71.632 40.4034 72.4573C35.3598 73.6953 30.1788 73.4661 24.9977 73.4202C23.8514 73.4202 23.2554 72.9158 23.5763 71.7237C23.8056 71.4486 24.0348 71.1735 24.2641 70.8984C24.585 70.6692 24.5392 70.3024 24.5392 69.9814C24.5392 62.9205 24.4933 55.8596 24.4475 48.8445C23.989 47.8816 23.5763 46.9188 24.0348 45.8184C24.8601 45.6808 25.1352 46.1852 25.2269 46.8729C25.2269 49.8073 25.5937 52.7417 25.3645 55.722C25.3186 57.2809 25.3645 58.8857 25.4103 60.4446C25.4103 61.4533 26.1439 61.9118 27.0151 62.2327C30.1329 63.2873 30.1329 63.3331 31.1416 64.7087C31.1416 63.5165 31.0499 62.3244 31.1416 61.1782C31.2333 60.4904 31.325 59.6651 32.3796 59.8485C32.9298 60.6738 32.3796 61.4991 32.5171 62.3703C32.6547 64.0668 32.5171 65.7174 32.563 67.4138C32.563 68.3767 32.8839 68.8352 33.9385 68.6518C35.1306 68.4225 36.2768 68.2391 37.3772 67.6431C38.065 67.2763 38.4776 66.7261 38.661 65.9925C39.0737 65.213 38.8903 64.2502 39.4863 63.5624C41.6872 63.9751 43.9338 63.9751 46.1805 63.8834C46.5473 63.8834 46.8224 64.0209 47.0975 64.2502L47.1433 64.1126Z" fill="#E3C9A8"/>
<path d="M92.3514 63.1956C93.2226 64.4335 93.0392 65.809 92.9016 67.1845C92.0305 71.7237 89.6921 73.6036 84.9696 73.6494C83.0438 73.6494 81.1181 73.7411 79.2841 72.87C77.6794 72.0905 76.5331 70.9443 75.9829 69.2478C75.9829 68.8351 75.9829 68.3766 75.9829 67.964C75.9829 66.13 77.0375 65.3047 79.1007 65.3964C79.7885 65.4881 80.2928 65.8549 80.7513 66.3592C82.3561 69.0185 84.0525 69.798 86.5743 69.0644C87.6747 68.1932 87.6747 67.964 86.4826 67.2762C85.4281 66.6343 84.236 66.2217 83.0897 65.7173C82.6312 65.4881 81.7142 65.3505 82.3561 64.4335C82.9063 64.1126 83.5023 64.2501 84.0525 64.3877C86.9411 64.9837 89.6921 64.296 92.3514 63.1956Z" fill="#E3C9A9"/>
<path d="M56.9097 67.5513C59.1563 69.2936 61.1279 69.2019 63.558 67.3679C64.2457 66.8635 64.9793 65.5797 65.988 67.0011C66.1714 68.4224 65.7129 69.6145 64.7042 70.6691C60.5777 74.8873 53.8377 74.7039 49.9863 70.2565C49.0693 69.2019 48.3357 68.0098 48.3357 66.5426C50.399 65.0295 52.5998 64.2501 55.1674 65.3046C56.3136 65.6256 56.5429 66.6343 56.9097 67.5971V67.5513Z" fill="#E2C7A7"/>
<path d="M92.3519 63.1954C92.2143 64.5709 91.0681 64.3875 90.1969 64.6168C87.5376 65.4421 84.8324 65.2128 82.1273 64.6626C81.4395 65.2587 80.7976 64.8002 80.1557 64.4792C78.0466 63.5163 77.2671 61.5448 76.4877 59.6191C76.4877 58.7479 75.7999 57.7392 76.8545 57.0056C77.7256 57.1432 77.7715 58.1977 78.5509 58.427C79.7889 58.8396 81.0727 59.1147 82.3565 58.8396C83.5028 58.6104 84.6949 58.3811 85.8411 58.1519C85.9787 58.1519 86.1621 58.1519 86.2996 58.1519C87.7669 58.4728 89.0507 59.1147 90.3345 59.8942C90.9305 60.261 91.4349 60.6278 91.4349 61.4072C91.7558 61.9574 92.0309 62.5535 92.3519 63.1037V63.1954Z" fill="#F0DFBF"/>
<path d="M76.3959 69.294C77.2212 71.2655 78.8718 72.3201 80.8433 72.7786C82.9983 73.2829 85.1991 73.4205 87.3999 72.8244C90.3802 72.045 91.8933 69.9359 92.8561 67.2307C93.3605 72.5493 89.2339 76.4008 82.8149 75.6213C80.3848 75.3462 78.0923 74.6585 76.671 72.4576C76.5334 72.5493 76.3959 72.5952 76.3959 72.6869C76.1666 74.8419 75.8915 75.1628 73.6449 75.117C72.1318 75.117 70.7104 74.7502 69.5183 73.6956C68.4179 72.7327 68.0511 71.5865 68.2345 70.211C68.0053 69.89 68.097 69.6608 68.4179 69.5232C69.1974 69.5691 69.5183 70.2568 69.9768 70.7153C71.3065 72.045 73.003 72.045 74.6994 71.9074C75.2038 71.9074 75.433 71.4948 75.6623 71.128C76.0749 70.6236 75.6623 69.7525 76.35 69.3398L76.3959 69.294Z" fill="#90421F"/>
<path d="M23.5303 71.6782C23.5303 72.5494 24.0347 72.8245 24.8141 72.8245C29.6284 72.8245 34.4427 72.962 39.2111 72.045C42.8333 71.3573 45.8136 69.89 47.0515 66.0845C47.0515 66.4054 47.0515 66.6805 47.0515 67.0015C46.8223 70.4402 44.9883 72.5494 41.8246 73.6956C38.936 74.7502 35.9099 74.8877 32.8838 75.0711C30.4079 75.2087 27.8861 75.0711 25.3644 75.0711C23.2552 75.0711 23.2094 75.0253 23.2094 72.8703C23.2094 72.4577 23.1177 71.9992 23.4386 71.6324L23.5303 71.6782Z" fill="#934420"/>
<path d="M48.5649 66.4055C49.8029 70.1193 52.3246 72.4118 56.176 73.0079C60.1192 73.6039 63.237 72.0909 65.4378 68.7897C65.8046 68.2395 65.988 67.6893 65.988 67.0474C66.905 70.1193 65.1168 72.7786 62.4117 74.3834C57.0013 77.5929 49.9404 74.6585 48.244 68.5604C47.8772 67.3225 47.6021 66.0387 47.6021 64.709C47.6021 64.4797 47.6937 64.2505 47.6937 64.0212C48.7942 64.5256 48.8859 65.3967 48.5191 66.4055H48.5649Z" fill="#90411E"/>
<path d="M56.9091 67.5512C56.0838 67.0469 55.8545 66.1757 55.2585 65.488C54.8458 64.3876 55.8087 64.2959 56.4047 64.1583C57.7344 63.8374 59.0182 63.6081 60.302 63.1954C62.5945 62.416 64.6119 61.3156 65.5748 58.8855C65.6665 58.6104 65.8957 58.3812 66.1708 58.2895C66.3084 58.2436 66.4459 58.2895 66.5835 58.3812C66.9961 64.0666 62.5945 65.9923 58.2387 66.9552C57.7344 67.0469 57.1383 66.8635 56.9091 67.5512Z" fill="#8F411E"/>
<path d="M91.3884 61.499C89.9212 60.0776 88.1331 59.2523 86.2532 58.6104C84.9694 56.7305 84.6026 56.593 81.8516 57.2349C80.7053 56.3179 80.6595 55.9969 81.4389 54.8965C81.6682 54.8048 81.9433 54.7131 82.1267 54.8048C83.4564 55.4926 84.9236 55.3092 86.3449 55.3092C87.2619 55.5843 87.6746 56.3179 88.1331 57.0515C89.3252 59.0231 89.7378 59.1148 91.7553 58.0143C91.9387 57.9226 92.1221 57.8768 92.3055 57.9226C92.3055 58.7021 92.3055 59.5274 92.3513 60.3069C92.0304 60.7195 91.7553 61.0863 91.4343 61.499H91.3884Z" fill="#853517"/>
<path d="M68.4634 69.615C68.4176 69.7984 68.3259 69.9818 68.28 70.1652C67.8215 69.4316 67.9591 68.5604 67.9591 67.781C67.9591 64.3422 67.9591 60.9493 67.9591 57.5105C67.9591 57.0062 68.28 56.135 67.5006 56.0892C66.5836 55.9975 66.9962 56.9145 66.9045 57.4188C66.8128 57.7398 66.767 58.0607 66.6753 58.3817C66.6753 58.3817 66.5836 58.3358 66.5836 58.29C65.7583 57.6022 66.4002 56.5018 65.85 55.7224C65.8041 54.9429 65.1164 54.2552 65.4373 53.4299C65.8958 53.0631 65.4373 52.3294 65.9875 51.9626C66.5836 52.8797 67.684 53.0631 68.4176 53.7967C69.3346 55.539 68.8761 57.4188 68.8761 59.2528C69.0136 60.9493 68.9678 62.6916 68.9678 64.3881C68.7844 65.626 69.0595 66.864 68.9678 68.0561C68.9678 68.6063 69.0595 69.2023 68.5551 69.6608L68.4634 69.615Z" fill="#8E4123"/>
<path d="M24.8142 46.6894C24.7225 46.185 24.4474 45.8182 23.8513 45.8641C23.2553 45.7265 23.4845 45.3597 23.5762 44.9929C23.5762 44.9012 23.6679 44.8095 23.7138 44.7178C24.0347 44.1676 24.5391 44.0759 25.0893 44.0759C28.4822 44.03 31.8751 44.03 35.268 44.0759C35.8182 44.0759 36.3226 44.1676 36.6435 44.6719C37.9273 45.1304 39.257 45.2221 40.495 45.7724C42.3748 46.5977 43.9796 47.6522 44.4839 49.853C44.759 52.0997 44.2088 52.8333 42.008 53.1084C40.4491 53.2918 38.936 53.7044 37.3313 53.3835C36.6894 53.0625 36.7811 52.4206 36.7352 51.8704C36.7352 50.6325 36.1392 49.6238 35.0846 48.9819C34.2135 48.4317 33.2048 48.6609 32.4712 49.5321C32.3795 49.7613 32.2878 49.9906 32.2419 50.2198C31.6917 52.1914 31.2332 52.4206 29.3075 51.8704C28.849 51.7329 28.3905 51.5495 27.932 51.4119C26.1897 50.8617 24.9059 49.9447 24.9976 47.8815C24.9976 47.5147 24.9059 47.102 24.7683 46.7811L24.8142 46.6894Z" fill="#FEF2DF"/>
<path d="M25.0894 19.4549C27.4277 17.8502 29.8578 16.1079 32.6547 15.6494C35.4515 15.1909 38.3859 14.549 41.2287 15.9245C41.6413 16.1079 42.054 16.2454 42.4666 16.0162C43.2002 15.5577 43.3378 16.1537 43.6129 16.6122C44.1631 17.2541 43.9338 17.9877 43.8421 18.6755C43.8421 19.3174 44.0255 20.0051 43.2461 20.4178C42.7417 20.4178 42.5583 20.0968 42.4666 19.6842C42.65 17.5751 40.4034 16.0162 37.9733 16.6581C37.6982 16.7498 37.4689 16.8873 37.1938 16.979C33.8926 17.8043 30.9123 19.2257 28.574 21.7933C27.4277 23.0771 25.8688 23.9941 25.2269 25.6906C24.5392 27.8914 24.906 30.1839 24.906 32.4305C24.906 34.3563 24.9518 36.282 24.906 38.1618C24.8601 38.9413 25.0894 39.7666 24.6767 40.5002C24.5392 40.6377 24.4016 40.6836 24.2182 40.6377C24.2182 39.2622 24.2182 37.8867 24.1724 36.5571C23.668 35.1816 22.8427 34.7231 21.3296 35.0899C20.3668 35.3191 19.3122 35.1357 18.3494 35.0899C17.7992 35.0899 17.2948 35.044 16.9739 34.4938C16.9739 34.4021 16.9739 34.3104 16.9739 34.2187C17.4324 33.3934 18.2577 33.4393 18.9913 33.3934C19.679 33.3934 20.3668 33.4851 21.0087 33.3017C21.4672 33.1641 22.155 33.3017 22.3384 32.6598C22.5218 32.0179 22.2467 31.4677 21.7423 31.0092C21.2838 30.5965 20.5502 30.1839 21.2379 29.3586C23.668 28.9918 23.7139 28.9918 23.6222 26.3783C23.5763 24.6819 24.0807 23.0771 23.9431 21.3806C23.8056 20.7846 24.0348 20.3261 24.4016 19.9134C24.585 19.6842 24.906 19.5925 25.1352 19.4549H25.0894Z" fill="#8F3408"/>
<path d="M36.6435 44.6724C32.838 44.6724 29.0782 44.6265 25.2727 44.5807C24.7683 44.5807 24.2181 44.6724 23.7138 44.7182C23.0719 43.6637 23.2553 42.6091 23.4845 41.5087C24.264 41.8755 25.0893 42.1506 25.9604 42.1506C26.098 42.1506 26.2355 42.2423 26.3731 42.2882C27.3359 42.655 28.2988 42.5174 29.2158 42.2882C29.8577 42.2423 30.4996 42.2882 31.1415 42.2882C32.2419 42.2882 33.3423 42.2882 34.3969 41.9672C36.5518 41.7838 38.6609 41.3712 40.6783 40.5917C42.6041 39.904 43.9337 38.6202 44.5756 36.6945C44.759 36.1442 44.9424 35.5482 45.7219 35.7774C46.4096 37.5198 46.0428 39.2621 44.759 40.4083C43.246 43.2052 40.4491 43.8471 37.6981 44.4431C37.3313 44.5348 36.9186 44.4431 36.6435 44.7641V44.6724Z" fill="#992C09"/>
<path d="M24.7688 20.0509C24.5854 20.4177 24.402 20.7845 24.1727 21.1513C24.1727 21.7932 23.7601 22.2975 23.3933 22.8477C22.0178 24.911 20.8715 27.066 21.0091 29.6336C21.2842 29.9545 21.5593 30.4589 21.8802 30.5506C23.4391 30.8715 22.7055 32.2929 23.1182 33.1182C23.3474 33.5308 22.568 33.5767 22.2012 33.7142C20.5047 34.2644 18.6707 33.7601 16.9284 34.3103C16.0572 34.3103 15.2319 34.3103 14.4066 33.9893C12.6643 33.4391 11.8849 32.247 11.7473 30.5047C12.3892 30.9174 13.077 31.2842 13.673 31.7427C14.7276 32.5221 15.5987 31.2842 16.5616 31.7427C16.6074 31.7427 17.0659 31.2383 17.0201 31.1008C16.3323 29.5419 17.8454 29.0375 18.4873 28.3498C20.6423 26.2406 21.5134 23.3062 23.3016 20.9679C22.9806 20.4635 23.1182 20.0509 23.5308 19.7758C24.0352 19.4548 24.402 19.7758 24.7229 20.0967L24.7688 20.0509Z" fill="#983009"/>
<path d="M25.9149 42.6547C24.9979 42.5171 23.6224 43.2966 23.4849 41.5084C23.7141 41.2333 23.9434 40.9582 24.2185 40.6373C24.3102 40.6373 24.356 40.6373 24.4477 40.6373C25.1355 39.6744 25.0896 38.4365 25.594 37.4278C26.2359 36.0523 27.1529 35.227 28.2533 35.3645C29.6288 35.5021 30.2248 36.5108 30.4999 37.657C30.7292 38.574 31.1419 39.3535 31.8296 39.9954C32.7925 40.9124 32.6091 41.7377 31.2794 42.1503C29.9039 42.6088 28.4367 42.6088 27.0153 42.5171C26.6485 42.5171 26.2359 42.3796 25.9149 42.6547Z" fill="#EFA817"/>
<path d="M16.9737 34.4934C18.8994 34.4934 20.8251 34.7686 22.705 34.2642C23.8971 33.9432 24.4014 34.2642 24.218 35.548C24.1722 35.869 24.218 36.2358 24.218 36.5567C22.2465 36.1441 20.2291 36.2816 18.3034 35.7314C17.5239 35.5022 16.7444 35.3646 16.1025 34.9061C16.3776 34.4017 16.7444 34.631 17.0195 34.5393L16.9737 34.4934Z" fill="#500911"/>
<path d="M23.5761 44.9929C23.5761 45.3139 23.5761 45.6348 23.8512 45.8641C24.8141 46.6894 24.4473 47.7439 24.4014 48.7526C23.2093 47.9273 22.9801 46.8269 23.5303 44.9929H23.5761Z" fill="#A66144"/>
<path d="M81.5311 55.0803C81.0268 55.9973 81.5311 56.5933 82.173 57.1435C83.6861 57.0518 84.924 57.602 85.9327 58.7024C83.9153 59.0234 81.9896 60.0321 79.7888 59.5277C78.3675 59.2068 77.0378 58.9317 76.9461 57.1435C76.5793 56.8684 76.5334 56.5016 76.5334 56.089C76.671 54.851 77.0837 53.8423 78.3675 53.4297C79.5596 52.3293 80.9809 51.6874 82.5398 51.2747C84.0529 50.9996 85.5659 51.0913 87.079 51.2747C88.6379 51.7332 90.151 52.3751 91.2055 53.7506C92.1684 54.9886 92.4893 56.4099 92.3059 57.923C91.0221 59.9862 89.4174 59.9862 88.0419 58.0147C87.5375 57.2811 87.079 56.5016 86.5746 55.7222C85.0616 54.3008 83.411 53.7965 81.577 55.0803H81.5311Z" fill="#FCF0DB"/>
<path d="M37.194 53.0627C39.1656 52.8334 41.183 52.7417 43.1545 52.3291C44.3467 52.0998 44.4384 50.8619 44.5301 49.8073C44.9886 50.4492 44.6676 51.1828 44.7593 51.8706C44.6676 53.567 44.1174 55.0801 42.7877 56.2264C42.3751 56.6849 41.779 56.8683 41.183 57.2351C41.9166 57.4185 42.6043 57.6019 43.0628 58.2438C43.1545 58.794 43.6589 58.473 43.934 58.6564C44.2091 59.5276 43.5214 59.6193 43.017 59.711C42.3292 59.8485 41.5956 59.8027 40.862 59.6193C40.2201 59.4817 39.4407 59.2983 38.8905 59.6193C37.6525 60.2153 36.5063 59.9402 35.2683 59.711C32.4256 59.5734 29.7204 58.9315 27.0611 57.877C26.0983 57.4643 25.273 56.96 24.8145 55.9971C24.8145 52.9251 24.8145 49.8532 24.8145 46.7354C25.2271 47.1022 25.3188 47.6524 25.5022 48.1567C26.0066 49.8532 29.3078 51.8706 31.0501 51.6413C31.6461 51.5496 31.692 51.1828 31.7378 50.7243C31.7378 50.1741 31.6003 49.5781 32.0129 49.0737C32.9758 49.6239 32.3339 50.6326 32.609 51.3662C32.7007 52.2374 32.609 53.1085 32.609 53.9338C32.609 54.8967 33.0675 55.1718 33.9387 55.1259C35.3142 55.0342 36.0019 54.0255 36.7355 53.1085C36.8731 53.0168 37.0106 53.0168 37.1482 53.1085L37.194 53.0627Z" fill="#F9EBCD"/>
<path d="M66.309 55.3093C66.7675 56.2722 66.4924 57.2809 66.4924 58.2896C65.4378 61.8659 62.5951 63.3331 59.2939 64.1584C58.331 64.4335 57.3223 64.5252 56.3136 64.7545C55.8551 64.8462 55.3049 64.7545 55.2591 65.4881C55.0298 65.7173 54.8005 65.9007 54.4796 65.7173C52.829 64.8003 51.3618 65.4881 49.8946 66.2217C49.4819 66.4509 49.0234 66.5885 48.5191 66.4051C48.244 65.6256 47.9689 64.8003 47.6938 64.0209C47.6021 61.4533 47.4645 58.8856 48.7942 56.5473C51.1325 56.5473 53.425 56.5473 55.3966 58.1062C55.7176 59.1607 55.0298 60.2612 55.5342 61.3157C55.8551 61.8201 56.1761 61.4991 56.497 61.3157C57.5057 60.6738 58.331 59.8485 58.8812 58.7481C59.1105 58.2437 59.2939 57.6935 59.7982 57.3267C59.9358 57.2809 60.0733 57.235 60.2109 57.235C62.5034 57.4184 64.7042 57.3267 66.2631 55.3552L66.309 55.3093Z" fill="#F4E3C4"/>
<path d="M55.2128 58.0149C54.9377 58.1524 54.7084 58.7485 54.3875 58.3358C53.2412 56.9603 51.6365 57.2813 50.1234 57.1437C49.6191 57.1437 49.023 57.2354 48.8396 56.5477C49.8942 53.6591 52.2325 52.1919 54.9835 51.5042C58.6974 50.5413 62.3196 50.6788 65.3915 53.4299C65.7583 54.0718 66.3085 54.5761 66.3085 55.3556C66.3085 56.6852 65.6208 57.3271 64.2911 57.5105C63.3741 57.6022 62.503 57.8315 61.6318 58.0149C61.0358 58.1524 60.4856 58.0607 60.1646 57.4647C59.8437 57.1896 59.7978 56.8228 59.752 56.456C59.6603 55.6765 59.431 54.8971 58.5599 54.7137C57.597 54.5303 56.9551 55.1263 56.5883 55.9975C56.2215 56.7769 55.9922 57.6022 55.2586 58.1066L55.2128 58.0149Z" fill="#FDF1DD"/>
<path d="M91.4347 46.4146C90.5636 48.0652 89.0964 48.753 87.3541 49.0739C84.8781 49.5783 82.3564 49.5783 79.9263 48.7071C78.6884 48.2486 77.5879 47.6067 76.946 46.3688C76.946 45.0391 78.0006 45.0849 78.9176 44.9932C79.8805 44.8557 80.8433 44.9015 81.8062 45.0849C83.5943 45.4059 84.5113 44.6723 84.6947 43.0675C84.7406 42.5173 85.0615 42.0588 85.2908 41.5545C85.8868 42.1505 86.4829 42.1047 87.2623 41.7379C89.4173 40.7292 90.4719 41.3711 90.8845 43.7094C91.0679 44.6264 90.7011 45.6352 91.4347 46.4605V46.4146Z" fill="#EBA521"/>
<path d="M67.9593 53.659C66.8589 53.6132 65.6209 53.659 65.896 51.9167C67.4549 50.8163 69.3348 50.2203 70.7562 48.8447C71.5356 48.0653 72.3151 47.2858 73.0487 46.4605C73.4613 46.0479 73.874 45.5894 74.5159 45.7728C75.2495 46.002 75.2036 46.6439 75.2036 47.1941C75.2036 48.1111 75.2036 49.0281 75.2036 49.9452C75.1578 50.908 75.2953 51.5041 76.4874 51.4124C76.9459 51.4124 77.4503 51.5041 77.8171 51.8709C77.9699 53.0935 77.1905 53.9494 75.4787 54.4385C74.2408 55.2638 72.9111 55.8598 71.3522 55.5847C69.9309 55.3555 68.6929 54.897 67.9134 53.5673L67.9593 53.659Z" fill="#FDF1E0"/>
<path d="M35.2226 59.161C36.3689 59.3903 37.4234 59.7571 38.6155 58.9776C39.2574 58.565 40.2661 58.8859 41.1373 58.9776C42.0543 59.1152 43.1089 59.5737 43.9342 58.6108C46.3184 59.6654 47.1437 61.2243 47.1437 64.067C45.1263 64.6172 43.063 64.2963 41.0456 64.3421C40.4037 64.3421 39.991 63.9295 39.6242 63.471C39.4867 63.471 39.3033 63.3793 39.2574 63.2876C38.478 61.5911 37.1025 60.5366 35.406 59.8488C35.2685 59.8029 35.2226 59.6195 35.1768 59.482C35.1768 59.3444 35.1768 59.2069 35.2685 59.1152L35.2226 59.161Z" fill="#EFDCBB"/>
<path d="M54.8463 41.5547C54.8463 42.8385 53.9751 42.9302 53.0581 42.9302C50.3988 42.9302 47.7395 42.9302 45.0802 42.8843C44.6675 41.7381 45.9055 41.0962 45.9513 40.0875C45.5387 38.9412 45.9513 37.8408 46.043 36.6946C46.8683 36.3736 46.96 37.0614 47.0059 37.5199C47.1434 38.3452 47.6019 38.6203 48.3355 38.7578C48.9774 38.8954 49.6652 39.0329 50.3071 39.1246C51.4534 39.2622 52.6455 39.3997 53.1498 37.9325C53.1957 37.7491 53.4249 37.7033 53.6542 37.6574C54.5712 38.8037 54.5253 40.225 54.8004 41.5547H54.8463Z" fill="#E8AE23"/>
<path d="M46.2262 36.5567C46.0428 37.703 46.3637 38.8951 45.9969 40.0413C45.5843 40.133 45.2175 40.2247 44.8048 40.3164C45.5843 38.8492 45.7677 37.2903 45.6301 35.6397C45.2175 35.3646 45.0799 34.9519 45.1258 34.4934C45.2175 32.1551 44.1629 30.5503 42.2372 29.4041C42.008 29.2207 41.7787 28.9914 41.687 28.7163C41.5495 28.1661 41.687 27.6618 41.9621 27.2033C42.5582 26.1945 42.8791 25.0483 43.2918 23.9479C44.2546 23.4435 44.9882 23.9479 45.2175 24.7273C45.5384 25.6902 46.0886 26.3321 46.7764 26.974C46.8681 27.1574 46.8681 27.295 46.8681 27.4784C46.8222 29.8626 46.9139 32.2926 46.8681 34.6768C46.8681 35.3187 46.9139 36.0523 46.272 36.5108L46.2262 36.5567Z" fill="#771820"/>
<path d="M85.3365 41.5086C85.3365 42.1047 85.3365 42.6549 85.3365 43.2509C84.5111 44.8557 83.1356 45.4059 81.4392 45.1766C80.7056 45.0849 79.9261 45.2683 79.1925 44.9015C75.8913 43.5719 74.5616 41.0501 74.6533 37.6113C74.745 37.8864 74.8826 38.1157 74.9743 38.3908C76.3498 42.9758 80.7514 44.5347 84.7404 41.8754C84.9238 41.7379 85.153 41.6003 85.3365 41.4627V41.5086Z" fill="#992E08"/>
<path d="M75.2493 53.9339C75.5703 53.5671 75.9829 53.5671 76.4414 53.5671C77.5877 53.5671 78.1379 53.1086 77.9086 51.9165C78.3671 52.2833 78.0462 52.9711 78.413 53.3379C77.7711 54.1173 77.3584 55.0343 76.9916 55.9513C76.3039 56.5015 76.1205 57.2351 76.1205 58.1063C76.2122 61.7743 76.1663 65.3965 75.9829 69.0186C75.9829 69.4771 75.9829 69.8898 75.5244 70.1649C74.5157 69.8898 74.6533 69.0186 74.6533 68.285C74.5157 64.8921 74.9742 61.4992 74.8367 58.1063C74.8367 57.0059 74.8367 55.9513 74.8367 54.8509C74.9284 54.4841 75.0201 54.1632 75.2493 53.8881V53.9339Z" fill="#853515"/>
<path d="M43.0625 58.2437C41.9621 57.9686 40.8617 57.7394 39.5779 57.4184C40.6783 56.8682 41.5953 56.4097 42.4664 55.9512C43.1542 55.6761 43.521 54.7132 44.4839 55.0801C44.6214 56.4097 43.1542 57.0058 43.0625 58.2437Z" fill="#934624"/>
<path d="M79.1928 44.9469C81.4395 45.0386 83.6403 45.0845 85.3368 43.2505C85.1992 44.8094 84.1447 45.3596 82.7691 45.4513C81.4853 45.543 80.2015 45.3596 78.9177 44.9469C79.0094 44.9469 79.0553 44.9469 79.147 44.9469H79.1928Z" fill="#5C1919"/>
<path d="M44.4842 55.0799C43.8423 55.4008 43.2463 55.8593 42.4668 55.951C43.7048 54.8506 44.3467 53.4293 44.7593 51.8704C44.851 52.9708 44.8052 54.0253 44.4842 55.0799Z" fill="#AA623D"/>
<path d="M56.1299 22.9392C56.6342 23.2143 56.7718 22.8475 57.0469 22.5265C57.5054 21.8846 57.9639 21.2886 58.4682 20.7384C60.1189 18.8585 60.99 18.9502 62.5031 21.0135C62.7323 21.2886 62.9616 21.472 63.3284 21.5178C63.3284 22.6641 63.3284 23.8103 63.3284 24.9566C63.3284 25.2775 63.4659 25.6902 63.145 25.8736C62.7323 26.1487 62.4572 25.6443 62.1363 25.5068C61.907 25.4151 61.7695 25.2317 61.5861 25.0941C60.073 24.0396 58.5599 24.3605 57.5512 25.9194C57.1844 26.4696 57.1386 27.3408 56.2216 27.2949C56.2216 25.8277 56.2216 24.4064 56.2216 22.9392H56.1299Z" fill="#FAE32F"/>
<path d="M63.3286 33.1181C63.4661 33.8976 63.0994 34.4936 62.2282 34.8146C61.2195 35.2272 60.2108 35.6857 59.1562 36.0525C58.5602 36.2818 57.8724 36.511 57.5973 35.6857C57.3681 34.9521 57.4139 34.1727 58.2392 33.8059C59.4772 33.2557 60.4859 32.3387 61.7697 31.926C63.0994 31.5134 63.2827 31.6051 63.2827 33.1181H63.3286Z" fill="#F8E338"/>
<path d="M17.5241 16.5201C17.7992 15.8782 17.3407 15.9699 16.9281 15.9241C16.2862 15.8782 15.9193 16.3367 15.3691 16.6118C15.4608 16.1533 16.0569 15.4197 14.9106 15.7865C15.8276 15.0071 16.9739 14.9154 18.0743 14.6403C19.083 14.5944 19.8625 13.9067 20.7336 13.815C20.5044 13.7691 20.0917 14.0442 19.7708 13.6316C20.9629 12.7604 22.4759 12.7146 23.4846 13.5399C23.7597 13.7691 23.989 13.9525 24.3099 14.0442C25.1811 14.1359 24.5392 13.4023 24.7684 13.1731C25.502 11.7975 26.3732 11.8434 28.0238 13.2189C28.0238 14.0901 27.4278 14.3652 26.7859 14.5944C25.4562 16.3826 23.5305 16.3826 21.5589 16.3367C21.238 17.0703 20.5961 17.3454 19.8625 17.483C19.3123 17.5747 18.8538 17.7581 18.6704 18.3541C18.6704 18.5375 18.6704 18.7209 18.6245 18.9043C17.0198 18.7209 17.3407 17.6205 17.4783 16.6118L17.5241 16.5201Z" fill="#F5C065"/>
<path d="M24.7684 20.0505C23.8973 19.7296 23.4388 20.0047 23.3012 20.9217C21.7882 21.1968 21.0546 22.6181 19.8625 23.3517C19.7249 23.4434 19.6332 23.6727 19.6332 23.8102C19.8625 25.4608 19.083 24.8189 18.3953 24.4063C18.6704 23.3976 19.0372 22.5264 20.0459 22.0221C20.2751 21.8845 20.5961 21.5636 20.5502 21.3802C20.1834 18.996 22.2925 19.4086 23.4388 18.996C24.1724 18.7209 24.0348 17.5288 25.0435 17.8039C25.4104 18.3999 24.1724 18.996 25.0435 19.5462C24.9518 19.7296 24.8143 19.913 24.7226 20.0964L24.7684 20.0505Z" fill="#BB530E"/>
<path d="M26.8315 14.5485C27.1983 14.1359 27.5651 13.7232 27.9778 13.3106C28.207 13.0813 28.4363 13.0813 28.7114 13.2189C28.7114 13.2647 28.8031 13.3106 28.8489 13.4023C29.5826 13.5857 29.9494 14.6402 30.8664 14.2276C29.8577 15.328 28.7572 16.2908 27.1066 15.9699C26.3272 15.6031 27.29 14.9612 26.8315 14.5485Z" fill="#D27B2A"/>
<path d="M18.7162 18.3083C18.5787 17.483 18.8079 16.7952 19.7708 16.9328C20.5961 17.0703 20.8712 16.0158 21.6507 16.2909C22.2926 16.6118 22.9345 16.9328 22.476 17.8956C22.0633 18.7668 21.559 18.4458 20.8254 18.2624C20.1835 18.079 19.404 17.9415 18.7162 18.2624V18.3083Z" fill="#E49937"/>
<path d="M16.1028 28.7163C16.0569 29.4957 15.2774 29.8167 14.9565 30.4586C14.8189 30.6878 14.6355 31.0088 14.3146 30.6878C13.9936 30.4127 14.177 30.0918 14.4521 29.8625C14.9106 29.4499 15.3691 29.0831 15.8735 28.6704C15.9652 28.6704 16.0569 28.6704 16.1486 28.6704L16.1028 28.7163Z" fill="#983009"/>
<path d="M54.8461 41.5542C53.5164 40.5455 53.9291 39.0325 53.7457 37.7028C53.0579 37.2443 53.1496 36.5566 53.1496 35.8688C53.1496 32.9802 53.1496 30.0917 53.1955 27.2031C53.1038 26.7446 53.1955 26.1944 52.8745 25.7817C52.3702 25.1857 51.7741 25.4608 51.1781 25.6442C50.6279 25.7817 50.0777 26.2861 49.4358 25.9193C49.069 25.0481 49.8026 24.8647 50.2611 24.5438C51.5449 23.7185 52.1868 22.343 53.1038 21.1967C53.1955 21.0592 53.1038 20.8299 53.0121 20.6465C53.1955 20.7382 52.8287 20.5548 53.0121 20.509C53.0121 20.509 53.0121 20.4173 53.0579 20.3714C52.5536 20.6007 52.2326 21.3343 51.499 20.9216C51.3156 19.7754 52.5994 19.592 52.9204 18.8125C52.9662 18.2165 53.4247 18.0331 53.9291 17.9414C54.4793 18.0331 54.7544 17.5746 55.1212 17.2995C55.7631 16.7951 55.6255 17.437 55.7631 17.7121C55.7631 24.8189 55.7631 31.9257 55.8089 39.0325C55.8089 39.9495 55.7631 40.7748 55.1212 41.4625C55.0295 41.4625 54.8919 41.4625 54.8002 41.5084L54.8461 41.5542Z" fill="#71171D"/>
<path d="M44.4842 14.8237C44.4842 15.649 44.8051 16.3826 45.1261 17.1162C45.4929 17.6664 45.4929 18.3083 45.5846 18.8586C45.7221 19.5005 45.9972 19.1337 46.2723 19.0878C46.685 19.638 46.4558 20.2341 46.5016 20.8301C46.3182 21.3803 46.1348 21.9764 45.4012 21.9305C44.53 21.8388 44.3008 21.1511 44.2091 20.4175C44.5759 18.9961 43.934 17.6206 43.8423 16.2451C43.9798 15.7407 44.0715 15.2364 44.4842 14.8237Z" fill="#EAB824"/>
<path d="M43.842 16.2451C45.3092 17.3455 44.5756 18.9503 44.759 20.3258C43.6128 20.2799 43.9796 18.9961 43.3377 18.5376C43.3377 17.8499 43.246 17.208 43.5211 16.5661C43.6128 16.4744 43.7045 16.3368 43.7962 16.2451H43.842Z" fill="#D78910"/>
<path d="M73.186 22.3431C73.186 24.8649 73.186 27.3866 73.2318 29.9084C73.2318 30.3669 73.186 30.8254 73.1401 31.3297C70.8476 31.3297 68.6927 31.4673 66.8128 33.1179C66.0334 33.8057 65.9417 32.8428 65.9417 32.2926C65.9417 29.2665 65.9417 26.2404 65.9417 23.2143C66.5377 22.8933 66.446 22.3431 66.5377 21.8387C66.7211 20.1423 67.7757 19.1794 69.3346 18.7209C70.5725 18.3541 71.4895 18.9043 72.0397 20.1881C72.3607 20.9217 72.0397 22.0221 73.186 22.3889V22.3431Z" fill="#F8E232"/>
<path d="M53.1495 20.6011C54.5709 20.7845 53.7914 21.4722 53.4246 21.9307C52.2325 23.3979 51.178 24.9568 49.4357 25.828C48.9772 27.0201 47.7392 26.6992 46.9139 27.1577C46.7764 27.1577 46.6388 27.1118 46.5013 27.0201C45.6301 27.0201 45.2175 26.5616 45.0341 25.7363C44.8507 24.8651 44.438 24.0857 43.3376 24.0857C43.0166 23.9481 42.9249 23.673 42.8332 23.3979C42.604 23.077 42.6498 22.6643 42.604 22.2975C42.5123 21.8849 42.604 21.5181 42.8332 21.1513C43.9795 20.4635 44.0712 21.1513 43.9795 22.0683C44.438 23.3979 45.4467 22.7102 46.272 22.7102C46.4096 22.9853 46.3637 23.2145 46.272 23.4896C45.9052 25.2778 46.272 25.5988 48.0143 25.0485C49.5274 24.5442 50.3527 23.3062 51.3155 22.16C51.4072 21.9307 51.5906 21.7015 51.7282 21.4722C51.8199 21.3805 51.9116 21.2888 52.0033 21.1971C52.3701 20.9679 52.5993 20.4635 53.1495 20.6469V20.6011Z" fill="#540D13"/>
<path d="M57.2763 12.2102C57.7806 11.7975 58.285 11.3849 58.9727 10.7888C58.285 12.5311 56.9095 13.3106 56.0842 14.5027C54.8462 15.7406 53.4248 16.6576 51.6367 16.9328C51.0406 17.0245 50.4904 17.2079 50.0319 16.7035C49.4359 16.0616 50.2153 15.6948 50.307 15.1446C50.307 15.007 50.4446 14.9153 50.5821 14.9153C52.9663 15.6948 54.617 15.1446 55.8091 13.1272C56.1759 12.6687 56.7261 12.3936 57.2763 12.1643V12.2102Z" fill="#E7A91B"/>
<path d="M53.975 17.9873C53.654 18.2624 53.2872 18.5833 52.9663 18.8584C52.0034 19.2252 51.0405 19.6379 50.0318 19.9588C49.3441 20.1881 48.6563 20.2339 48.4729 19.2711C48.2895 18.3082 48.9773 18.079 49.665 18.079C51.0864 18.1248 52.5078 18.079 53.9291 17.9414L53.975 17.9873Z" fill="#FBF049"/>
<path d="M43.9798 22.0225C43.613 21.8391 43.8881 20.9221 43.1086 21.1972C42.7877 20.9221 42.8335 20.647 43.1086 20.326C43.613 19.8216 43.2462 19.1339 43.4296 18.5378C44.4841 18.6754 44.3924 19.6841 44.8509 20.326C44.9426 20.8304 44.8509 21.4723 45.4928 21.6557C46.0889 21.8391 46.2264 21.1972 46.5474 20.8762C46.4557 22.8936 45.0802 22.0683 44.0256 22.0225H43.9798Z" fill="#B55D0D"/>
<path d="M46.7767 22.5726C46.8684 22.4809 46.9601 22.435 47.0977 22.3433C48.0605 22.1599 49.1151 22.1599 50.0321 21.7931C50.5364 21.6097 50.9949 21.3805 51.4993 21.1971C51.8661 20.922 52.0953 21.0137 52.0953 21.518C50.8574 22.8477 49.5736 23.9939 47.5562 23.7188C46.8684 23.6271 46.4557 23.352 46.7767 22.5726Z" fill="#F8E43B"/>
<path d="M46.7766 22.5724C47.4185 23.9479 48.519 23.3518 49.3901 23.0309C50.353 22.6641 51.1783 22.0222 52.0953 21.5178C52.0036 21.7012 51.9119 21.8846 51.7743 22.068C50.9032 22.9392 50.2154 24.0396 48.8858 24.223C48.5648 24.223 48.2438 24.3147 47.877 24.3605C46.364 24.5898 45.9972 24.1313 46.5474 22.6641C46.5932 22.6182 46.6849 22.5724 46.7766 22.5724Z" fill="#EAB220"/>
<path d="M46.2721 19.1336C46.1804 19.5463 46.0887 19.9589 45.9511 20.3716C45.9511 20.5091 45.8136 20.6008 45.5843 20.8759C44.759 19.638 45.08 18.3542 45.08 17.1162C45.1717 17.1162 45.2634 17.1162 45.3551 17.1162C45.6302 17.804 45.9511 18.4459 46.2262 19.1336H46.2721Z" fill="#F8ED61"/>
<path d="M50.5819 15.1449C50.4902 15.1449 50.3985 15.1449 50.3068 15.1907C50.3068 15.0073 50.3068 14.7781 50.3068 14.5947C49.94 13.9528 50.1234 13.4026 50.6736 12.9441C51.2697 12.669 51.8657 12.9441 52.4159 13.0358C52.7369 13.4943 52.5993 13.9069 52.3242 14.3196C51.8657 14.8698 51.3614 15.3283 50.5361 15.099L50.5819 15.1449Z" fill="#83350B"/>
<path d="M46.5475 22.6643C46.3641 23.7189 46.6392 24.2691 47.8771 23.9023C48.2898 23.7647 48.7483 23.8106 49.1609 23.8106C48.9317 25.0944 47.8771 25.1861 46.9601 25.0485C45.9973 24.911 45.6305 24.1774 45.9514 23.2145C46.0431 23.0311 46.1807 22.8477 46.2724 22.6643C46.3641 22.6643 46.4558 22.6643 46.5475 22.6643Z" fill="#D17510"/>
<path d="M50.9028 13.1272C50.7194 13.6316 50.536 14.136 50.3526 14.6403C50.2609 14.732 50.1234 14.7779 50.0317 14.8696C49.4815 14.7779 49.4356 14.3652 49.4815 13.9526C49.8024 13.6316 49.9858 13.2189 50.0317 12.7604C50.0317 12.4395 50.2151 12.1185 50.6277 12.2561C50.9487 12.5312 51.0862 12.8063 50.857 13.2189L50.9028 13.1272Z" fill="#F4D330"/>
<path d="M52.0951 21.5178C51.9117 21.4261 51.6824 21.3344 51.499 21.1968C51.499 21.1051 51.499 21.0593 51.5449 20.9676C52.4619 20.6466 53.0579 19.913 54.1583 19.1335C53.6998 19.8213 53.4247 20.1881 53.1496 20.6008C52.7828 20.9217 52.416 21.1968 52.0951 21.5178Z" fill="#EAB220"/>
<path d="M50.0318 21.793C49.1148 22.4349 48.1061 22.2973 47.0974 22.3432C48.0144 21.8847 49.069 21.9305 50.0318 21.793Z" fill="#EAB220"/>
<path d="M27.9777 9.32173C28.1153 9.13833 28.3445 9.04663 28.5738 9.04663C30.1785 9.18418 31.1414 10.3763 32.2418 11.2933C32.4252 12.7147 32.1501 13.1273 30.8663 12.6688C29.7659 12.302 29.5366 13.3107 28.803 13.4024V13.3107C28.5738 13.0815 28.2528 12.8981 27.9319 12.8064C27.1066 12.5312 27.0149 11.8893 27.5651 11.385C28.207 10.7431 28.1611 10.0553 27.9319 9.32173H27.9777Z" fill="#F3BC65"/>
<path d="M32.2419 11.2933C31.8293 11.1099 31.4166 11.064 30.9581 11.064C30.1328 11.064 30.1328 11.064 30.1787 10.147C30.1787 9.78021 29.9494 9.78021 29.766 9.68851C29.3075 9.55096 28.8032 9.59681 28.5281 9.0466C28.7115 9.0466 28.8949 9.00075 29.0783 8.9549C29.4909 8.9549 29.8577 8.9549 30.2704 8.9549C31.0957 8.81735 31.8751 9.09245 32.7004 9.13831C33.1131 9.13831 33.4341 9.41341 33.5258 9.82606C33.6175 10.3304 33.2048 10.468 32.8838 10.6514C32.7004 10.8348 32.4712 11.0182 32.2878 11.2474L32.2419 11.2933Z" fill="#FBD378"/>
<path d="M32.884 10.6974C33.4801 10.0097 33.3884 9.59703 32.4255 9.59703C31.6461 9.59703 30.9125 9.50533 30.3164 9.00098C31.4627 8.35908 34.0303 8.77173 34.8556 9.73458C35.1765 10.1014 34.8556 10.3765 34.8556 10.6516C34.8556 11.0642 34.4888 11.0642 34.2137 11.0184C33.801 10.9725 33.3884 10.835 32.9299 10.7433L32.884 10.6974Z" fill="#F0B152"/>
<path d="M52.0034 14.2278C52.2327 13.861 52.3244 13.4484 52.3244 13.0357C52.2327 12.9899 52.1868 12.8982 52.1868 12.8523C52.1868 12.7606 52.2327 12.7606 52.2785 12.7606C52.5995 12.4397 52.8746 12.1187 52.9663 11.7061C53.1955 11.7061 53.4248 11.7519 53.5623 11.9812V12.1187L53.4706 12.1646C53.1955 12.4397 52.8287 12.7148 53.1038 13.1274C53.3331 13.4484 53.6999 13.3108 54.0208 13.265C55.0754 12.9899 56.1299 12.6231 57.0011 11.9353C57.0928 12.027 57.1845 12.1187 57.2762 12.2563C56.8635 12.6231 56.4509 12.9899 56.0841 13.3567C54.7544 14.6863 53.5623 14.9614 52.0034 14.2737V14.2278Z" fill="#BB5C0C"/>
<path d="M27.9778 9.32153C30.362 10.5136 27.8861 11.2014 27.6569 12.2101C27.932 12.6686 28.9865 12.4393 28.849 13.3564C28.5739 13.3564 28.2529 13.3564 27.9778 13.3564C27.3818 12.8062 26.373 13.4481 25.777 12.5769C25.6394 12.3935 25.3185 13.1271 25.1351 13.4939C25.1351 13.9524 25.1351 14.5026 24.4932 14.5485C24.0347 14.7777 23.5762 14.686 23.3469 14.3192C22.4299 12.8062 21.1003 13.4022 19.8623 13.6773C19.6789 13.9066 19.4497 13.9983 19.1746 13.9066C19.2663 13.5398 19.5872 13.3105 19.8623 13.0813C20.4584 12.9437 21.0544 12.7603 21.6505 12.6228C22.3841 11.8891 23.5303 12.1642 24.2639 11.4306C24.4473 11.4306 24.6307 11.3389 24.7683 11.3389C24.3098 11.3389 23.8971 11.6599 23.3928 11.7057C23.1635 11.7057 22.9801 11.614 22.8426 11.4765C23.1635 10.3761 24.3098 11.1555 24.86 10.6053C25.7311 9.68834 26.9691 9.73419 28.0237 9.41323L27.9778 9.32153Z" fill="#FBD378"/>
<path d="M19.1287 13.8608C19.358 13.7691 19.5872 13.7233 19.8165 13.6316C20.3208 13.6316 20.871 13.6316 21.3754 13.6316C20.1833 13.7233 19.4955 15.5573 18.0283 14.5944C18.2117 14.0901 18.6702 13.9525 19.0829 13.8608H19.1287Z" fill="#C7651C"/>
<path d="M50.5362 12.1648C50.0777 12.6691 50.4445 13.7237 49.4358 13.8612C49.4358 13.6778 49.4358 13.5403 49.4358 13.3569C49.8943 12.6233 49.4358 11.5229 50.3528 10.9727C50.7196 11.2478 50.5362 11.6146 50.6279 11.8897C50.7196 11.9814 50.6737 12.0731 50.582 12.1189L50.5362 12.1648Z" fill="#FAF578"/>
<path d="M22.7967 11.3848C22.9801 11.3848 23.1635 11.2931 23.3011 11.2472C23.7137 11.2472 24.2639 10.7887 24.4473 11.5682C23.7137 12.5769 22.6133 12.3477 21.6046 12.5311C21.3754 12.4394 21.1003 12.3477 21.4671 12.1184C21.8797 11.8433 22.3382 11.6141 22.7509 11.3848H22.7967Z" fill="#B74C0D"/>
<path d="M50.5361 12.1642C50.5361 12.0725 50.5361 11.9808 50.582 11.935C50.6737 11.7974 50.7195 11.7057 50.8112 11.5682C51.0405 11.1097 50.6278 10.1468 51.3614 10.2385C51.9575 10.2844 51.6365 11.2014 51.7282 11.7516C51.7741 12.1642 51.7282 12.6227 52.2784 12.7603C52.2784 12.852 52.2784 12.9437 52.2784 13.0354C51.8199 13.1271 51.3614 13.4481 50.8571 13.0813C50.7654 12.7603 50.6278 12.4393 50.5361 12.1184V12.1642Z" fill="#E8A917"/>
<path d="M52.5076 9.55103C52.691 10.6056 52.7369 11.2475 52.1408 12.0269C52.0032 11.1558 51.9115 10.5139 52.5076 9.55103Z" fill="#FBF78A"/>
<path d="M53.425 12.1643C53.425 12.1185 53.4709 12.0268 53.5168 11.9809C54.5713 11.2015 55.901 11.1098 57.0014 10.5596C57.5974 10.9264 57.0014 11.0639 56.8638 11.2015C55.901 12.2102 54.8006 12.577 53.425 12.1185V12.1643Z" fill="#F9EA58"/>
<path d="M54.3417 10.7888C53.8832 10.7277 53.6845 10.2386 53.7457 9.32158C53.9749 9.22988 54.1583 9.13818 54.3876 9.09233C54.7085 9.04648 55.0753 8.90892 55.2587 9.32158C55.3963 9.64253 55.0753 9.82593 54.8919 10.0552C54.7085 10.3303 54.4793 10.5595 54.2959 10.8346L54.3417 10.7888Z" fill="#FBF686"/>
<path d="M39.3487 66.1304C38.7985 67.8268 37.3772 68.3312 35.8641 68.7438C33.2965 69.3857 32.0127 68.4076 32.0127 65.8094C32.0127 64.6631 32.0127 63.5169 32.0127 62.3706C32.838 61.4078 35.2222 61.0868 36.7811 61.7287C38.9361 62.5999 39.4404 63.5169 39.3029 66.1304H39.3487Z" fill="#580914"/>
<path d="M35.2226 59.1607C35.2226 59.2524 35.2226 59.39 35.2226 59.4817C34.3514 60.2611 33.4344 60.2611 32.4257 59.8026C31.6004 60.0777 31.7379 60.7655 31.7379 61.3615C31.7379 62.9663 31.7379 64.5252 31.7379 66.13C31.7379 66.2217 31.6462 66.2675 31.6004 66.3592C31.5087 66.3592 31.3711 66.3592 31.3253 66.3134C30.7292 63.8833 28.7577 63.1956 26.6486 62.6912C25.4106 62.4161 24.7687 61.6367 24.8146 60.307C24.8146 58.8856 24.8146 57.4184 24.8146 55.9971C28.0241 57.8769 31.4628 59.1149 35.2226 59.2066V59.1607Z" fill="#EEDBBA"/>
<path d="M32.4253 59.8026C33.2965 59.2983 34.3052 59.5734 35.2222 59.4817C37.5147 59.9402 39.1194 61.0864 39.6238 63.5165C39.5321 64.3877 39.8531 65.3047 39.3945 66.13C39.257 63.6082 37.7898 62.0951 35.2222 62.0493C34.1676 62.0493 33.1131 61.7742 32.1044 62.3703C31.9668 61.4991 32.0127 60.6279 32.4712 59.8026H32.4253Z" fill="#964925"/>
<path d="M76.9915 59.665C77.8627 62.1868 79.4674 63.975 82.1268 64.7086C83.6857 65.5797 85.5197 65.9465 87.0327 67.0011C87.5371 67.3679 88.2248 67.643 88.2248 68.3307C88.2248 69.1102 87.4912 69.3394 86.8493 69.5687C84.6027 68.9268 82.3102 68.3307 80.4762 66.726C80.1094 66.4509 79.6967 66.1758 79.3299 65.9007C77.2208 64.9837 76.3496 63.2872 76.4413 61.0864C76.4413 60.5362 76.533 60.0318 77.0374 59.7109L76.9915 59.665Z" fill="#924420"/>
<path d="M76.992 59.6651C76.5793 62.1868 77.588 64.1584 79.2845 65.8548C76.9003 65.7631 76.2584 66.5426 76.3959 69.2478C76.2584 69.9355 76.671 70.715 76.1208 71.311C75.3414 71.2193 75.2038 70.8067 75.4789 70.1189C75.4789 65.8548 75.5248 61.6366 75.4789 57.3726C75.4789 56.2721 75.754 55.6761 76.9461 55.9053C76.9461 56.2721 76.9461 56.639 76.9461 57.0058C76.5793 57.8769 76.992 58.7022 76.9461 59.5734L76.992 59.6651Z" fill="#5C0F18"/>
<path d="M80.4307 66.6802C82.5856 67.5513 84.9698 67.9181 86.8038 69.5229C83.5485 70.4399 81.9896 69.7521 80.4307 66.6802Z" fill="#540D14"/>
<path d="M85.9328 58.6563C84.649 58.1978 83.2735 57.9686 82.1731 57.0974C82.7233 55.9053 83.8237 56.1346 84.6949 56.3638C85.6577 56.5931 86.2996 57.3725 86.7123 58.2895C86.7123 58.2895 86.4372 58.5188 86.2996 58.6105C86.2079 58.6105 86.0704 58.6105 85.9787 58.6105L85.9328 58.6563Z" fill="#530B13"/>
<path d="M75.4784 70.1653C75.4784 70.6696 75.7536 71.0364 76.1204 71.3574C76.2121 72.0451 75.7994 72.2744 75.2033 72.4119C72.4982 73.0997 69.9306 72.0451 68.4634 69.6151C68.0507 67.8728 68.1883 66.1305 68.28 64.3882C69.5179 63.517 70.8934 63.1502 72.4523 63.196C74.1488 63.2419 74.3322 63.0126 74.3322 61.2703C74.3322 60.6284 74.3322 60.0324 74.4697 59.4363C74.4239 58.932 74.4239 58.4735 74.7907 58.1067C74.9282 57.9691 75.0658 57.9691 75.2492 58.015C75.2492 61.4079 75.2492 64.8008 75.295 68.2396C75.295 68.8815 75.1575 69.5692 75.5243 70.2111L75.4784 70.1653Z" fill="#E6CEAD"/>
<path d="M81.5308 55.08C81.9893 53.8879 82.9521 53.6128 84.0525 53.7045C85.2905 53.7962 86.1616 54.4839 86.5284 55.7219C84.7861 56.1804 83.0897 56.0887 81.5308 55.08Z" fill="#A65B33"/>
<path d="M74.9283 58.0147C74.9283 58.4732 74.9283 58.9776 74.9283 59.4361C73.3235 60.4448 69.5638 60.3072 68.28 59.161C68.0507 57.327 68.3717 55.4929 68.0049 53.6589C68.876 54.0257 69.6096 54.6676 70.5725 54.8969C72.3148 55.2637 73.9196 55.2637 75.2492 53.934C75.2492 54.2091 75.2492 54.5301 75.2492 54.8052C74.8824 55.8597 75.3409 56.9602 74.9741 58.0147H74.9283Z" fill="#F7E8CC"/>
<path d="M68.2343 59.1606C70.4351 59.7108 72.6818 59.2523 74.8826 59.4357C74.8826 60.3069 74.8368 61.178 74.8826 62.0033C75.0202 63.2871 74.3324 63.6998 73.1861 63.7456C71.7648 63.8373 70.2059 63.333 69.0138 64.7085C68.7387 65.0294 68.4636 64.4792 68.1885 64.3417C68.1885 62.5994 68.1885 60.8571 68.1885 59.1147L68.2343 59.1606Z" fill="#EEDBBA"/>
<path d="M32.0585 51.6416C32.0585 50.7704 32.0585 49.8993 32.0127 49.0281C32.7921 47.8819 33.8926 47.836 35.0388 48.2028C36.3685 48.6155 37.0562 49.5783 37.1938 50.9538C37.2855 51.6416 37.1938 52.3752 37.1938 53.1088C37.1479 53.1088 37.0562 53.1088 37.0104 53.1088C36.7811 53.0171 36.5977 52.8337 36.4602 52.6503C35.1305 50.908 34.6262 50.7704 32.6087 51.6416C32.4253 51.7333 32.2419 51.7333 32.0585 51.6416Z" fill="#9D512C"/>
<path d="M25.9144 42.6548C26.5563 41.7378 27.5192 41.9212 28.2528 42.1504C29.5824 42.5631 30.5912 41.8753 31.6916 41.4627C32.1959 41.2793 32.4252 40.8666 31.8291 40.4998C30.6829 39.7662 30.2243 38.6199 29.8575 37.4278C29.5824 36.6025 29.1698 35.8689 28.2528 35.7772C27.2899 35.6855 26.648 36.3733 26.2354 37.1527C25.8686 37.8863 25.5935 38.6658 25.3642 39.4453C25.2267 39.9955 24.9516 40.4081 24.4014 40.6374C24.4014 39.8579 24.4472 39.1243 24.4931 38.3448C25.0433 37.7946 24.8599 37.061 24.9057 36.465C25.0891 34.9519 25.9144 34.0808 27.3816 33.6223C28.8488 33.1638 30.316 32.8887 31.4165 34.3559C31.7374 35.6855 31.3248 37.1069 31.7833 38.3907C31.8291 38.5283 31.875 38.6658 31.9208 38.8033C32.0584 39.2619 32.4252 39.3994 32.792 39.3077C33.8465 39.0785 34.9928 39.0785 35.8181 38.2531C36.3224 37.7488 36.9185 37.382 37.4228 36.8776C37.8355 36.5108 37.9272 36.0065 37.9272 35.4563C38.2481 34.5851 37.973 33.8057 37.6062 32.9804C37.2853 32.2926 36.7351 31.6507 37.1477 30.8254C37.973 29.9543 38.9359 29.8626 40.0363 30.1377C40.9075 30.3669 41.7786 30.6879 42.5581 31.1005C44.3462 31.9717 45.1715 33.6223 44.8047 35.5938C44.713 36.0523 44.6213 36.4191 44.9881 36.7859C44.6672 38.7575 43.2917 39.9038 41.6869 40.6832C39.4402 41.7378 37.056 42.2421 34.5801 42.3338C33.4339 42.7006 32.1959 42.1963 31.0497 42.6089C30.3619 42.6089 29.72 42.6089 29.0322 42.6089C28.0235 42.8382 27.0607 42.7923 26.052 42.6089H25.9144H25.7769L25.9144 42.6548Z" fill="#F5BE1B"/>
<path d="M43.0629 20.3257C43.0629 20.6008 43.0629 20.9217 43.0629 21.1968C43.0629 21.5636 43.017 21.9763 42.9712 22.3431C42.421 23.5352 41.183 23.8561 40.1743 24.4522C38.6612 25.3692 37.0565 26.0569 35.2683 26.2862C35.0391 26.1945 34.9015 26.0569 34.8098 25.8735C34.8098 24.8648 35.5893 24.1312 35.6351 23.1225C35.7727 22.6182 36.0019 22.1138 35.9561 21.5636C35.9561 20.2339 36.6897 19.4545 37.7901 18.9043C38.5695 18.5375 38.8905 18.079 37.8359 17.5746C37.4233 17.3912 36.9648 17.0703 37.194 16.4742C37.4233 16.3825 37.6067 16.3367 37.8359 16.245C39.4407 16.1991 40.8162 16.841 42.0083 17.8497C42.5127 18.2624 42.8795 18.7667 42.7878 19.4545C42.8795 19.7296 42.9712 20.0506 43.0629 20.3257Z" fill="#FCF643"/>
<path d="M37.1937 16.4746C37.423 16.979 37.8815 17.1165 38.34 17.2082C38.8902 17.2999 39.3487 17.6209 39.3946 18.2169C39.3946 18.8588 38.7526 19.0881 38.34 19.2715C37.2396 19.6841 36.3226 20.1885 36.3226 21.564C35.7724 21.6557 35.589 21.1972 35.3597 20.8762C34.7637 19.9592 33.9842 19.2256 32.8838 19.6841C31.7834 20.0968 31.921 21.1972 32.0585 22.16C32.0127 23.4438 32.2878 24.7277 31.7834 25.9198C31.0957 26.6075 30.9123 25.9656 30.7289 25.5071C30.1328 24.1316 29.7202 23.994 28.528 24.9569C27.6569 25.6447 26.9233 26.47 26.1897 27.2953C25.5478 28.0289 25.3644 28.0289 24.6308 27.6162C24.6766 26.7451 24.4932 25.8281 24.7683 24.9569C27.8403 21.4723 31.0957 18.3086 35.6348 16.7956C36.1392 16.6122 36.6435 16.5663 37.1937 16.4746Z" fill="#F9E62E"/>
<path d="M21.0086 29.6332C20.2292 29.1289 20.3209 28.3494 20.5043 27.7075C21.192 25.2316 22.2007 22.9391 24.2181 21.1968C24.6766 21.7928 24.5849 22.5264 24.4474 23.1225C24.1264 24.8189 24.2181 26.4696 24.2181 28.166C24.2181 29.9542 24.0347 30.0917 22.2924 29.9083C21.8798 29.9083 21.4671 29.7249 21.0086 29.6791V29.6332Z" fill="#5C0F03"/>
<path d="M24.7688 24.9565C24.7688 25.9194 24.7688 26.8823 24.7688 27.891C25.6399 28.6246 25.319 29.6333 25.2731 30.5503C25.2731 31.238 25.3648 31.8799 25.319 32.7052C26.4194 32.1092 27.4739 31.559 28.6202 31.3297C29.6747 31.0546 30.7293 31.0546 31.4629 32.1092C31.5546 32.8886 31.8297 33.6681 31.0961 34.31C30.3166 34.2183 29.6747 33.6222 28.7577 33.8515C25.9609 34.5392 25.7775 34.6768 25.2273 37.7029C25.2273 37.8863 25.6858 39.2618 24.4937 38.3907C24.4937 34.31 24.4937 30.2293 24.4937 26.1028C24.4937 25.736 24.4937 25.3233 24.7688 25.0024V24.9565Z" fill="#F8CA1E"/>
<path d="M42.7875 19.4543C41.6413 17.6203 39.7614 16.8409 37.8357 16.2448C39.3029 15.7405 42.1456 16.7492 42.8792 17.9871C43.1543 18.4915 43.2002 18.9958 42.7875 19.4543Z" fill="#591305"/>
<path d="M31.1418 31.9259C28.7117 31.1923 26.9236 32.4761 24.8145 33.8058V30.7796C26.5109 29.3583 28.3908 28.533 30.6374 28.8539C31.0042 28.8998 31.4627 29.0373 31.7837 28.8539C34.2138 27.2492 37.2857 27.2033 39.5782 25.3235C40.5411 24.4982 41.6873 23.8104 42.9253 23.4436C43.3379 24.5899 42.9711 25.6444 41.9624 26.6073C41.3664 27.1575 40.5869 27.4326 39.9909 27.9369C40.862 28.3037 41.5956 28.8539 42.5126 29.0832C44.5759 29.8626 45.4929 31.4215 45.6305 33.5307C45.6763 34.2184 45.6305 34.952 45.6305 35.6856C45.2637 36.0066 45.0344 36.3734 45.0803 36.8777C44.4384 36.5568 44.4842 35.9607 44.4842 35.3647C44.4842 33.439 43.7048 32.1093 41.8249 31.4215C40.3118 30.8255 38.8446 30.1836 37.194 31.0547C36.0936 31.4215 35.1766 30.6421 34.1679 30.5504C33.2967 30.5045 32.4714 30.367 31.8754 31.2381C31.6461 31.4674 31.4627 31.7883 31.0959 31.88L31.1418 31.9259Z" fill="#F9DB27"/>
<path d="M31.1416 42.655C32.2879 42.059 33.48 42.4716 34.6721 42.3799C33.5258 42.7926 32.3337 42.655 31.1416 42.655Z" fill="#EFA817"/>
<path d="M26.1899 42.655C27.1986 42.655 28.1615 42.655 29.1702 42.655C28.1615 42.9301 27.1986 42.9301 26.1899 42.655Z" fill="#EFA817"/>
<path d="M32.0587 51.6414C32.6547 50.4493 33.7551 50.22 34.8555 50.541C36.0935 50.8619 36.9646 51.6414 36.9646 53.1086C36.552 55.0343 34.2595 56.364 32.4713 55.7679C31.967 55.5845 32.0128 55.2177 32.0128 54.8509C32.0128 53.7964 32.0128 52.7418 32.0128 51.6872L32.0587 51.6414Z" fill="#600C17"/>
<path d="M59.8895 57.4644C59.431 59.9403 57.7345 61.4075 55.6713 62.5079C54.7543 63.0123 54.8918 62.3245 54.9377 61.7743C55.2128 60.6739 55.1669 59.5277 55.5337 58.4273C55.9464 57.2352 56.5883 56.4098 57.6887 55.9513C58.0096 55.8596 58.2847 55.8596 58.6057 55.9513C59.2018 56.1347 59.7061 56.5015 59.8895 57.0976C59.9812 57.2352 59.9354 57.3727 59.8895 57.5103V57.4644Z" fill="#5A0B15"/>
<path d="M58.6975 56.272C58.4224 56.272 58.1473 56.272 57.8722 56.272C57.0927 56.6388 56.5884 56.1803 56.1299 55.676C56.5425 54.438 57.322 53.6586 58.6516 53.8878C59.9355 54.1171 60.1189 55.2633 60.1647 56.3637C60.1647 56.6847 60.1647 57.0515 60.1647 57.3724C60.073 57.3724 60.0272 57.4183 59.9355 57.4641C59.9355 57.3724 59.8896 57.2807 59.8438 57.189C59.7521 56.593 59.3394 56.272 58.7433 56.272H58.6975Z" fill="#A45933"/>
<path d="M56.0841 55.676C56.8635 55.2634 57.1845 56.3179 57.8264 56.2721C56.2216 57.235 55.6256 58.8397 55.2129 60.5362C55.1212 60.9488 55.2129 61.4073 54.892 61.7741C54.7086 60.4903 55.0754 59.2524 55.1671 57.9686C55.1671 57.0515 55.6256 56.3638 56.0841 55.676Z" fill="#8D401F"/>
<path d="M53.7456 26.7446C53.8832 30.4126 53.929 34.0807 53.7456 37.7487C53.012 39.9953 53.012 39.9953 50.4444 39.7661C49.344 39.6744 48.2894 39.3534 47.189 39.2159C46.6388 39.1242 46.5471 38.7574 46.5013 38.2989C46.5013 37.7487 46.6388 37.1526 46.2262 36.6483C46.1803 33.5763 45.9052 30.5043 46.4554 27.4324C46.6847 27.4324 46.9598 27.7075 47.1432 27.6158C49.2523 26.4695 51.5448 27.1114 53.7456 26.8363V26.7446Z" fill="#F8CA1B"/>
<path d="M53.7455 26.7447C53.4246 27.6618 53.0578 27.9369 52.0032 27.4783C50.5818 26.8823 49.0688 27.1115 47.7391 27.9827C46.9138 28.5329 46.547 28.2578 46.4553 27.3408C46.4553 27.2491 46.4553 27.1115 46.5012 27.0198C46.547 27.0198 46.5929 27.0198 46.6846 27.0198C48.4269 26.4238 50.1692 25.9194 51.8656 25.3234C52.4159 25.14 52.9661 25.0024 53.5621 25.3234C54.0206 25.7819 53.8372 26.2862 53.7455 26.7906V26.7447Z" fill="#F8E642"/>
<path d="M39.2111 28.0286C39.0736 27.2491 39.853 27.3408 40.2198 27.1116C41.6412 26.2863 42.7875 25.2776 43.0167 23.4894C42.9709 23.2602 43.0167 23.1226 43.2918 23.1685C43.2918 23.4436 43.2918 23.7645 43.2918 24.0396C43.3835 25.7361 42.4206 27.1116 41.7787 28.5788C40.8159 28.7163 39.9906 28.3037 39.1653 27.9827L39.2111 28.0286Z" fill="#9F3B0C"/>
<path d="M39.2112 28.0283C40.0824 28.2117 40.9535 28.441 41.8247 28.6244C42.054 28.7619 42.2373 28.8995 42.4666 29.037C41.2286 29.2663 40.2199 28.441 39.0278 28.3493C39.0278 28.3493 39.0278 28.2576 39.0278 28.2117C39.0737 28.12 39.1654 28.0742 39.2112 28.0283Z" fill="#F9E284"/>
<path d="M74.9283 58.0149C75.02 56.9604 74.6532 55.86 75.2034 54.8054C75.2034 55.86 75.2034 56.9145 75.2034 57.9691C75.1117 57.9691 75.02 57.9691 74.9742 57.9691L74.9283 58.0149Z" fill="#EEDBBA"/>
<path d="M24.4472 14.5028C24.6765 14.136 24.9057 13.815 25.0891 13.4482C25.5018 13.8609 25.4559 14.3194 25.1808 14.732C24.814 15.2823 24.5389 15.1906 24.4014 14.5486L24.4472 14.5028Z" fill="#D17525"/>
<path d="M53.5163 25.2316C51.5447 25.415 49.8024 26.4237 47.9225 26.8364C47.5099 26.9281 47.0972 27.1115 46.6846 27.0198C47.4182 26.1945 48.6103 26.4696 49.4356 25.8276C50.1692 25.5525 50.8569 25.2774 51.5905 25.0482C52.2324 24.8648 52.9661 24.498 53.5621 25.2316H53.5163Z" fill="#F1E4B3"/>
<path d="M43.338 23.2142C43.2463 23.3059 43.1546 23.3976 43.0629 23.5352C40.587 25.2775 38.1569 26.9739 35.2225 28.0285C32.7466 28.9455 30.2707 29.3582 27.7489 29.6791C26.7402 29.8167 26.0066 30.9629 24.8604 30.7337C24.8604 29.7708 24.8604 28.8079 24.8604 27.8451C26.0066 27.1115 26.4651 25.8277 27.5197 25.0024C27.9323 24.6814 28.2991 24.2688 28.7576 23.9937C30.4541 22.985 31.096 23.3059 31.2335 25.2775C31.2335 25.5526 31.4169 25.8277 31.5086 26.1028C31.6462 26.1028 31.7837 26.1028 31.9213 26.1945C32.609 26.653 33.2968 26.1945 33.9845 26.1945C34.4431 26.1486 34.9016 25.9194 35.3601 26.1945C37.1024 25.0941 39.2115 24.7731 40.9079 23.5352C41.5498 23.0767 42.3293 22.7557 43.0629 22.3889C43.1546 22.664 43.2921 22.985 43.3838 23.2601L43.338 23.2142Z" fill="#FAE72D"/>
<path d="M45.951 23.2141C46.3636 24.9564 47.1431 25.094 49.1605 23.8102C50.2609 23.5351 50.9028 22.6181 51.7739 22.0679C50.8569 23.5351 49.7565 24.773 48.1518 25.4608C47.4182 25.7817 46.4553 26.1944 45.8593 25.5066C45.3549 24.9106 45.4925 23.9477 45.9051 23.1683L45.951 23.2141Z" fill="#A74C0C"/>
<path d="M52.0034 14.2276C53.3331 13.769 54.8003 14.09 56.0841 13.3105C55.6256 15.007 54.1125 15.5114 52.737 16.0616C51.82 16.4284 51.1781 15.7865 50.6279 15.1446C51.0864 14.8236 51.5449 14.5485 52.0034 14.2276Z" fill="#F7E144"/>
<path d="M24.4932 11.6141C24.2181 11.1098 23.7137 11.339 23.3469 11.2932C24.0347 10.8347 24.8141 11.1556 25.8687 11.0639C25.2268 11.339 24.86 11.4766 24.539 11.6141H24.4932Z" fill="#E29B4A"/>
<path d="M31.4625 39.1242C31.4625 39.0325 31.4625 38.9408 31.3708 38.8491C31.1874 37.2902 31.3708 35.7313 31.2791 34.1724C31.4166 33.5305 31.921 33.2554 32.4712 33.072C34.9929 32.155 38.019 34.4933 37.7898 37.1526C37.4688 37.9321 36.6435 38.0696 36.0933 38.5281C34.6261 39.2159 33.1131 39.9495 31.4625 39.1242Z" fill="#721420"/>
<path d="M31.4165 31.0547C31.4624 30.1377 32.196 30.046 32.8379 30.0001C34.3968 29.8626 35.864 30.1835 37.1936 31.0547C38.2023 32.4302 38.9818 33.8974 38.4316 35.6856C38.2482 35.6397 38.0648 35.5022 37.9731 35.3646C36.6434 33.2555 34.7636 32.476 32.2877 32.9804C31.9209 33.0721 31.5082 33.1638 31.279 32.6594C31.279 32.1092 31.1414 31.559 31.3707 31.0547H31.4165Z" fill="#A73F0A"/>
<path d="M31.4624 32.7969C34.3051 31.2839 37.9273 32.7969 38.4317 35.6855C38.3858 36.2357 38.2024 36.7401 37.7898 37.1069C37.3771 36.3733 37.2396 35.5021 36.5977 34.8602C35.0846 33.2554 33.3881 33.1179 31.4624 33.9432C31.1873 33.5764 31.1873 33.1637 31.4624 32.7969Z" fill="#500A11"/>
<path d="M31.4625 39.1246C33.0673 39.3539 34.5803 38.8037 36.0934 38.5286C35.3598 39.5373 32.3795 40.1333 31.4625 39.4914C31.4167 39.4914 31.4625 39.2622 31.4625 39.1246Z" fill="#EFD664"/>
<path d="M31.4625 32.7969C31.4625 33.1638 31.4625 33.5764 31.4625 33.9432C31.4625 35.5938 31.4167 37.1986 31.3708 38.8492C30.8665 37.3361 31.2791 35.7772 31.0957 34.2183C31.0957 33.4389 31.0957 32.6594 31.0957 31.8799C31.0957 31.559 31.0957 31.238 31.3708 31.0088C31.3708 31.6048 31.3708 32.155 31.4167 32.7511L31.4625 32.7969Z" fill="#EFA817"/>
<path d="M31.5087 26.2861C31.5087 26.1944 31.5087 26.1486 31.417 26.1027C31.417 24.6814 31.417 23.2142 31.417 21.7928C32.334 20.6007 33.2052 20.4173 34.7641 21.0134C35.8186 21.426 36.5064 21.9762 36.0937 23.26C36.1854 24.3146 35.6811 25.094 34.9933 25.7818C33.8929 26.4695 32.7925 27.1114 31.4628 26.2861H31.5087Z" fill="#741720"/>
<path d="M36.1392 23.2602C35.9099 21.9764 34.2593 20.9677 32.7921 21.2886C32.3336 21.3803 31.8751 21.6096 31.4625 21.793C31.3249 20.6009 31.3249 19.4546 32.7004 18.9503C33.9842 18.5376 35.4056 19.3171 36.0475 20.7384C36.185 21.0135 36.2767 21.2428 36.3684 21.5179C36.2309 22.1139 36.4601 22.71 36.1392 23.2602Z" fill="#A53D09"/>
<path d="M31.5083 26.2866C32.7462 26.4241 33.8925 26.1032 35.0387 25.7822C35.1304 25.9198 35.2221 26.0115 35.268 26.149C34.4885 26.6075 33.5715 26.7451 32.7004 26.8826C32.1502 26.9743 31.6458 26.9743 31.4624 26.2866H31.5083Z" fill="#F8F08F"/>
<path d="M31.0039 21.8387C30.4078 21.5636 30.2244 21.1968 30.4537 20.7383C30.5454 20.5549 30.7746 20.4174 30.9122 20.5549C31.279 20.9217 31.1873 21.3344 30.958 21.8387H31.0039Z" fill="#FAE72D"/>
<path d="M58.6978 56.2722C59.0187 56.1346 59.3397 55.6303 59.7065 55.9512C60.0274 56.2722 59.844 56.7765 59.7982 57.1892C59.4314 56.8682 59.0646 56.5931 58.6978 56.2722Z" fill="#8D401F"/>
</svg>
