<?xml version="1.0" encoding="UTF-8"?><svg xmlns="http://www.w3.org/2000/svg" viewBox="0 0 276.98 44.52"><g id="a"/><g id="b"/><g id="c"/><g id="d"/><g id="e"/><g id="f"/><g id="g"/><g id="h"/><g id="i"/><g id="j"/><g id="k"/><g id="l"/><g id="m"/><g id="n"/><g id="o"/><g id="p"/><g id="q"/><g id="r"/><g id="s"/><g id="t"/><g id="u"/><g id="v"/><g id="w"/><g id="x"/><g id="y"/><g id="a`"/><g id="aa"/><g id="ab"/><g id="ac"/><g id="ad"/><g id="ae"/><g id="af"/><g id="ag"/><g id="ah"/><g id="ai"/><g id="aj"/><g id="ak"/><g id="al"/><g id="am"/><g id="an"/><g id="ao"/><g id="ap"/><g id="aq"/><g id="ar"/><g id="as"/><g id="at"/><g id="au"/><g id="av"/><g id="aw"/><g id="ax"/><g id="ay"/><g id="b`"/><g id="ba"/><g id="bb"/><g id="bc"/><g id="bd"/><g id="be"/><g id="bf"/><g id="bg"/><g id="bh"/><g id="bi"/><g id="bj"/><g id="bk"/><g id="bl"/><g id="bm"/><g id="bn"/><g id="bo"/><g id="bp"/><g id="bq"/><g id="br"/><g id="bs"/><g id="bt"/><g id="bu"/><g id="bv"/><g id="bw"/><g id="bx"/><g id="by"/><g id="c`"/><g id="ca"/><g id="cb"/><g id="cc"/><g id="cd"/><g id="ce"/><g id="cf"/><g id="cg"/><g id="ch"/><g id="ci"/><g id="cj"/><g id="ck"/><g id="cl"/><g id="cm"/><g id="cn"/><g id="co"/><g id="cp"/><g id="cq"/><g id="cr"/><g id="cs"/><g id="ct"/><g id="cu"/><g id="cv"/><g id="cw"/><g id="cx"/><g id="cy"/><g id="d`"/><g id="da"/><g id="db"/><g id="dc"/><g id="dd"/><g id="de"/><g id="df"/><g id="dg"/><g id="dh"/><g id="di"/><g id="dj"><path d="M194.44,21.24l6.96-.05,14.56-17.87h-24.56l-6.21,25.15h7.5l1.75-7.23Zm3.64-14.72h7.81l-11.23,13.81,3.43-13.81Zm-19.85,10.22l10.97-13.43h-24.62l-6.1,25.15h7.5l5.41-21.94h7.71l-8.3,10.17,4.44,11.78h7.5l-4.51-11.72ZM276.49,3.31h-7.5l-10.22,11.5,2.89-11.5h-7.5l-6.2,25.15h7.5l2.73-10.97,6.43,10.97h7.5l-7.17-12.31,11.55-12.84Zm-140.81-.06h0l-22.21,.06-6.48,25.15h9.95l20.81-21.73-2.08-3.48Zm-19.37,17.92l3.8-14.66h10.17v.11l-13.97,14.56Zm-21.78,1.23l-3-19.1h-9.42l-6.26,25.15h7.5l4.34-17.34,2.3,17.34h10.49l6.2-25.15h-7.5l-4.65,19.1Zm-57.69-7.87h-7.17l2.84-11.24h-7.5l-6.26,25.15h7.5l2.35-9.63h7.17l-2.41,9.63h7.5L47.16,3.31h-7.5l-2.83,11.24ZM22.33,3.31H1.3L.49,5.99H7.83L2.32,28.47h7.49L15.31,5.99h6.2l.81-2.68Zm216.69,3.75h9.21l.91-3.75h-16.69l-6.15,25.16h16.7l.8-3.21h-9.2l4.44-18.19ZM62.63,24.18h-6.43L61.39,3.31h-7.5l-5.29,21.25,2.3,3.8,.21,.11h17.93v-.1l6.32-25.05h-7.5l-5.24,20.87ZM225.7,3.31h-7.59v-.06c-2.14,8.35-6.15,25.21-6.15,25.21h7.5l6.25-25.15Z" style="fill:#fff;"/><path id="dk" d="M156.45,17.82l.59-2.3h-13.16l16.22-12.2h-9.74l-19.15,16.16,.32,.65,12.15-.05-14.3,7.7,.27,.54,12.15,.05-20.5,12.26,.37,.65,32.33-13.59,1.02-4.01h-9.31l10.74-5.84Z" style="fill:#57baf2;"/></g><g id="dl"/></svg>