<?xml version="1.0" encoding="UTF-8"?><svg xmlns="http://www.w3.org/2000/svg" viewBox="0 0 211.91 37.77"><g id="a"/><g id="b"/><g id="c"/><g id="d"/><g id="e"/><g id="f"/><g id="g"/><g id="h"/><g id="i"/><g id="j"/><g id="k"/><g id="l"/><g id="m"/><g id="n"/><g id="o"/><g id="p"/><g id="q"/><g id="r"/><g id="s"/><g id="t"/><g id="u"/><g id="v"/><g id="w"/><g id="x"/><g id="y"/><g id="a`"/><g id="aa"/><g id="ab"/><g id="ac"/><g id="ad"/><g id="ae"/><g id="af"/><g id="ag"/><g id="ah"/><g id="ai"/><g id="aj"/><g id="ak"/><g id="al"/><g id="am"/><g id="an"/><g id="ao"/><g id="ap"/><g id="aq"/><g id="ar"/><g id="as"/><g id="at"/><g id="au"/><g id="av"/><g id="aw"/><g id="ax"/><g id="ay"/><g id="b`"/><g id="ba"/><g id="bb"/><g id="bc"/><g id="bd"/><g id="be"/><g id="bf"/><g id="bg"/><g id="bh"/><g id="bi"/><g id="bj"/><g id="bk"/><g id="bl"/><g id="bm"/><g id="bn"/><g id="bo"/><g id="bp"/><g id="bq"/><g id="br"/><g id="bs"/><g id="bt"/><g id="bu"/><g id="bv"/><g id="bw"/><g id="bx"/><g id="by"/><g id="c`"/><g id="ca"/><g id="cb"/><g id="cc"/><g id="cd"/><g id="ce"/><g id="cf"/><g id="cg"/><g id="ch"/><g id="ci"/><g id="cj"/><g id="ck"/><g id="cl"/><g id="cm"/><g id="cn"/><g id="co"/><g id="cp"/><g id="cq"/><g id="cr"/><g id="cs"/><g id="ct"/><g id="cu"/><g id="cv"/><g id="cw"/><g id="cx"/><g id="cy"/><g id="d`"/><g id="da"/><g id="db"/><g id="dc"/><g id="dd"/><g id="de"/><g id="df"/><g id="dg"/><g id="dh"/><g id="di"/><g id="dj"/><g id="dk"/><g id="dl"/><g id="dm"/><g id="dn"/><g id="do"/><g id="dp"/><g id="dq"/><g id="dr"/><g id="ds"/><g id="dt"/><g id="du"/><g id="dv"/><g id="dw"/><g id="dx"/><g id="dy"/><g id="e`"><path d="M169.22,34.85V2.92c0-.73,.6-1.33,1.33-1.33h9.31c.73,0,1.33,.6,1.33,1.33v31.92c0,.73-.6,1.33-1.33,1.33h-9.31c-.73,0-1.33-.6-1.33-1.33ZM15.45,1.59c9.79,0,14.98,3.55,15.3,11.97-.32,4.03-1.99,7.63-4.66,9.31l6.17,12.34c.16,.33,.03,.73-.3,.89-.09,.05-.19,.07-.3,.07h-11.28c-.56,0-1.07-.36-1.25-.89l-3.68-10.42h-2.66v11.31H2.81c-.73,0-1.33-.6-1.33-1.33V2.92c0-.73,.6-1.33,1.33-1.33H15.45Zm0,8.65h-2.66v6.65h2.66c1.96,0,2.66-.38,2.66-3.33,0-2.76-.61-3.33-2.66-3.33ZM153.26,1.59c8.73,0,12.86,3.78,12.64,9.31,.23,3.37-1.47,5.68-3.99,6.65v.67c3.48,.99,5.32,3.71,5.32,7.32,0,6.63-4.23,10.64-13.97,10.64h-13.97c-.73,0-1.33-.6-1.33-1.33V2.92c0-.73,.6-1.33,1.33-1.33h13.97Zm.67,21.28h-4.66v4.66h4.66c1.63,0,2-.42,2-2,0-2.06-.36-2.66-2-2.66Zm-.67-11.97h-3.99v3.99h3.99c1.64,0,2-.47,2-2s-.45-2-2-2Zm-29.09,15.64h10.44c.73,0,1.33,.6,1.33,1.33v.03l-.17,6.98c-.02,.72-.61,1.3-1.33,1.3h-20.42c-.73,0-1.33-.6-1.33-1.33V2.92c0-.73,.6-1.33,1.33-1.33h8.82c.73,0,1.33,.6,1.33,1.33V26.54h0Zm-25.27,0h10.44c.73,0,1.33,.6,1.33,1.33v.03l-.17,6.98c-.02,.72-.61,1.3-1.33,1.3h-20.42c-.73,0-1.33-.6-1.33-1.33V2.92c0-.73,.6-1.33,1.33-1.33h8.82c.73,0,1.33,.6,1.33,1.33V26.54h0Zm110.2-15.26h-6.5v23.57c0,.73-.6,1.33-1.33,1.33h-8.84c-.73,0-1.33-.6-1.33-1.33V11.28h-6.55c-.73,0-1.33-.6-1.33-1.33v-.03l.17-7.02c.02-.72,.61-1.3,1.33-1.3h24.22c.72,0,1.31,.58,1.33,1.3l.16,7.02c.02,.73-.56,1.34-1.3,1.36h-.03Z" style="fill:#fff;"/><path id="ea" d="M66.8,.26c10.28,0,18.62,8.34,18.62,18.62s-8.34,18.62-18.62,18.62c-.45,0-.9-.02-1.34-.05l-33.91-1.28,31.75-2.4-7.82-.1c-2.29-1.75-4.16-4.03-5.43-6.64l-12.51-.83,11.82-.79c-.76-2.03-1.18-4.23-1.18-6.53s.42-4.5,1.18-6.53l-11.82-.79,12.51-.83c1.28-2.62,3.15-4.89,5.43-6.64l7.81-.11L31.55,1.59,65.36,.32c.47-.04,.95-.05,1.43-.05Zm0,11.64c-3.86,0-6.98,3.13-6.98,6.98s3.13,6.98,6.98,6.98,6.98-3.13,6.98-6.98-3.13-6.98-6.98-6.98Z" style="fill:#fffdc7;"/></g></svg>