<svg width="200" height="34" viewBox="0 0 200 34" fill="none" xmlns="http://www.w3.org/2000/svg">
<path d="M162.9 0.700006C161.5 6.90001 157.4 8.20001 151.7 7.50001C148.6 7.10001 145.4 7.50001 142.2 7.50001C140.9 7.50001 140 7.80001 139.3 9.10001C137.2 13 137.5 13.7 142 13.7C144.3 13.7 146.7 13.5 149 13.7C150.3 13.9 153.1 12.4 152.7 15.1C152.4 17.1 152.1 20.3 148.6 20.3C144.7 20.3 140.9 20.5 137 20.3C133.4 20.1 133 22.8 132.5 25C132 26.9 133.9 26.1 134.8 26.2C137.6 26.3 140.3 26.2 143.1 26.2C145.7 26.2 148.3 26.2 151 26.2C149.6 32.9 149.6 32.9 143.4 32.9C136.9 32.9 130.4 32.9 124 32.9C122 32.9 120.1 32.5 121.2 29.9C125.1 20.8 129.2 11.8 133.3 2.80001C133.7 2.00001 134.4 1.30001 135 0.600006C144.4 0.600006 153.8 0.600006 163.2 0.600006L162.9 0.700006Z" fill="white"/>
<path d="M123.9 0.699997C123.6 1.7 122.7 2.1 121.9 2.6C108 11.9 93.9998 21.2 79.9998 30.5C78.9998 31.1 78.1998 32.3 76.2998 31.6C84.8998 23.8 93.3998 16.2 102.3 8.1C98.2998 6.8 94.9998 7.5 91.5998 7.4C86.7998 7.2 86.7998 7.4 88.7998 2.9C89.0998 2.1 89.4998 1.4 89.8998 0.699997C101.2 0.699997 112.5 0.699997 123.9 0.699997Z" fill="white"/>
<path d="M123.3 5.3C116.9 12.3 110.4 19.3 104 26.3C106.9 26.3 110.2 26.2 113.4 26.3C114.7 26.3 117.1 25.4 116.9 27.5C116.7 29.5 116.3 32.4 113.3 32.8C111.3 33.1 109.2 32.8 107.1 32.8C98.9998 32.8 90.8998 32.8 82.2998 31.9C95.8998 22.9 109.4 13.8 123 4.8C123.1 4.9 123.3 5.1 123.4 5.2L123.3 5.3Z" fill="white"/>
<path d="M45.2 0.699997H16.2C12.8 1.4 10.9 3.7 9.7 6.8C6.4 15.1 1.9 23.1 0.5 32.1V32.9C7.1 34.2 11.6 32.2 13 25.1C13 24.7 13.4 24.4 13.5 24C14.5 21.7 15.7 21.7 17 23.7C18.4 25.9 19.8 28.1 20.9 30.5C21.8 32.4 23 33.2 25.1 33C27.6 32.7 31.2 34.2 32.4 32.3C33.4 30.7 30.6 28.1 29.4 26C26.4 20.5 26.3 20.3 32.5 20.5C36.8 20.7 39.6 19.3 41 15.1C42.2 11.6 43.9 8.3 45.4 4.9C46.1 3.4 46.6 2.1 45.2 0.699997ZM31.1 13.6C29.2 13.9 27.3 13.6 25.3 13.6C24.5 13.6 23.6 13.8 22.8 13.6C21.4 13.3 18.7 14.6 18.8 12.3C18.9 10.1 19.6 7 23.4 7.3C25.9 7.5 28.4 7.3 30.8 7.3C32 7.3 34.2 6.4 34.1 8.3C34.1 10.2 33.7 13 30.9 13.4L31.1 13.6Z" fill="white"/>
<path d="M83.3001 0.700006H53.5001C52.8001 1.90001 51.5001 2.50001 50.9001 3.80001C47.0001 12.7 43.0001 21.6 39.1001 30.5C38.8001 31.3 38.0001 32.2 39.5001 32.8C42.5001 34.1 47.3001 32.4 48.7001 29.4C53.1001 19.9 53.1001 20 63.7001 20.2C66.9001 20.2 66.6001 21.2 65.6001 23.5C64.3001 26.4 62.5001 29.2 61.9001 32.7C63.1001 32.7 64.0001 32.7 65.0001 32.9C69.1001 33.6 71.4001 32 72.9001 28C75.8001 20.4 79.3001 13.1 82.6001 5.70001C83.3001 4.00001 84.0001 2.40001 83.3001 0.600006V0.700006ZM65.0001 13.7C63.4001 13.7 61.7001 13.9 60.1001 13.7C58.8001 13.5 56.3001 14.6 56.5001 12.7C56.7001 10.7 57.0001 7.50001 60.6001 7.50001C64.4001 7.50001 68.2001 7.50001 72.1001 7.50001C70.9001 13.6 70.7001 13.8 65.1001 13.8L65.0001 13.7Z" fill="white"/>
<path d="M196 0.600001C186.6 0.800001 177.2 0.600001 167.8 0.600001C163.1 11.2 158.3 21.8 153.4 32.9C161.5 32.9 168.8 32.6 176.1 32.9C183.1 33.2 187.4 30.5 190.1 23.9C192.8 17.1 195.3 10.1 199.3 3.9C199.9 1.1 198.8 0.400001 196 0.500001V0.600001ZM180.5 24.7C180 25.9 179.2 26.3 178 26.3C174.7 26.3 171.4 26.3 168.1 26.3C166.3 26.3 165.9 25.6 166.5 24.1C168.7 19.1 171 14.1 173.2 9C173.8 7.6 174.9 7.4 176.2 7.4C179.9 7.4 183.6 7.4 188.2 7.4C185.4 13.6 182.9 19.1 180.5 24.6V24.7Z" fill="white"/>
</svg>
