<svg width="174" height="90" viewBox="0 0 174 90" fill="none" xmlns="http://www.w3.org/2000/svg">
<path d="M95.9001 0.5H78.1001C75.8001 0.5 73.7001 1.4 72.1001 3C70.5001 4.6 69.6001 6.8 69.6001 9.1V11.7C69.6001 15.2 71.8001 18.3 75.4001 20L76.9001 20.6V11.8C76.9001 11.8 76.9001 11.8 76.9001 11.7V9.1C76.9001 8.7 77.1001 8.4 77.3001 8.2C77.4001 8.1 77.7001 7.8 78.2001 7.8H96.0001C96.4001 7.8 96.7001 8 96.9001 8.2C97.0001 8.3 97.3001 8.6 97.3001 9.1V14.9H104.6V9.1C104.6 6.8 103.7 4.6 102.1 3C100.5 1.4 98.4001 0.5 96.1001 0.5H95.9001Z" fill="white"/>
<path d="M98.5 21.6L97.1 21V29.8V32.4C97.1 32.8 96.9 33.1 96.7 33.3C96.6 33.4 96.3 33.7 95.8 33.7H78C77.3 33.7 76.8 33.1 76.8 32.5V26.7H69.5V32.5C69.5 37.3 73.3 41.1 78 41.1H95.8C98.1 41.1 100.2 40.2 101.8 38.6C103.4 37 104.3 34.8 104.3 32.5V29.9C104.3 26.3 102.1 23.2 98.4 21.6H98.5Z" fill="white"/>
<path d="M83.9001 24C86.4001 26.6 87.0001 29.9 87.0001 29.9C87.0001 29.9 87.4001 27.8 88.8001 25.6C89.2001 25.1 89.6001 24.5 90.1001 24C92.6001 21.4 95.9001 20.8 95.9001 20.8C95.9001 20.8 93.5001 20.3 91.1001 18.5C90.8001 18.2 90.4001 17.9 90.1001 17.6C87.6001 15 87.0001 11.7 87.0001 11.7C87.0001 11.7 86.6001 13.8 85.2001 16C84.8001 16.5 84.4001 17.1 83.9001 17.6C81.3001 20.2 78.1001 20.8 78.1001 20.8C78.1001 20.8 80.5001 21.3 82.9001 23.1C83.2001 23.4 83.6001 23.7 83.9001 24Z" fill="white"/>
<path d="M16.5 64.2L8.70001 63.6C6.40001 63.4 5.5 62.9 5.5 61C5.5 59.1 6.40001 58.3 9.10001 58.3H15.4C17.6 58.3 18.6 59.1 18.8 61.1C18.8 61.7 19.1 62 19.7 62H22.8C23.4 62 23.7 61.7 23.6 61.1C23.4 56.1 20.9 53.6 15.4 53.6H9C3 53.6 0.700004 56.2 0.700004 61C0.700004 65.8 2.8 67.4 8.20001 67.9L16 68.5C18.3 68.7 19.2 69.2 19.2 71.2C19.2 73.2 18.3 73.9 15.6 73.9H8.8C6.5 73.9 5.6 73.1 5.4 71.1C5.4 70.5 5.1 70.2 4.5 70.2H1.4C0.800004 70.2 0.500005 70.5 0.600005 71.1C0.800005 76.1 3.3 78.6 8.8 78.6H15.6C21.7 78.6 23.9 76 23.9 71.2C23.9 66.4 21.7 64.7 16.4 64.3L16.5 64.2Z" fill="white"/>
<path d="M45.7 63.8H32.5V53.6H27.7V78.5H32.5V68.2H45.7V78.5H50.5999V53.6H45.7V63.8Z" fill="white"/>
<path d="M74.5001 70.1C74.5001 73.1 73.5001 73.8 71.1001 73.8H63.3001C61.0001 73.8 59.9001 73.1 59.9001 70.1V53.6H55.1001V70C55.1001 75.3 57.6001 78.6 63.3001 78.6H71.1001C76.8001 78.6 79.3001 75.3 79.3001 70V53.6H74.4001V70.1H74.5001Z" fill="white"/>
<path d="M83.8999 78.5H88.6999V68H98.8999V63.7H88.6999V58.3H104.1V53.6H83.8999V78.5Z" fill="white"/>
<path d="M107 78.5H111.8V68H122V63.7H111.8V58.3H127.2V53.6H107V78.5Z" fill="white"/>
<path d="M134.9 53.6H130.1V78.5H150V73.8H134.9V53.6Z" fill="white"/>
<path d="M173.4 58.3V53.6H152.6V78.5H173.4V73.8H157.4V68H168V63.7H157.4V58.3H173.4Z" fill="white"/>
</svg>
