<svg width="210" height="166" viewBox="0 0 210 166" fill="none" xmlns="http://www.w3.org/2000/svg">
<path d="M141.9 145.7C143.7 145.7 145.2 144.2 145.2 142.4C145.2 140.6 143.7 139.1 141.9 139.1C140.1 139.1 138.6 140.6 138.6 142.4C138.6 144.2 140.1 145.7 141.9 145.7ZM155.4 107.1C156.7 107.1 157.9 106 157.9 104.6C157.9 103.2 156.7 102 155.4 102C154.1 102 152.9 103.2 152.9 104.6C152.9 106 154 107.1 155.4 107.1ZM154 145H156.8V116H154V145ZM163.9 130.5C163.9 139.3 170 145.7 178.3 145.7C186.6 145.7 192.7 139.2 192.7 130.5C192.7 121.8 186.6 115.3 178.3 115.3C170 115.3 163.9 121.8 163.9 130.5ZM166.7 130.5C166.7 123.1 171.5 117.8 178.3 117.8C185.1 117.8 189.9 123.1 189.9 130.5C189.9 137.9 185.1 143.2 178.3 143.2C171.5 143.2 166.7 137.9 166.7 130.5ZM27.4998 145H34.6998L38.7998 132.2C40.2998 127.3 40.8998 125.2 41.1998 123.8C41.3998 125.3 42.0998 128.2 43.2998 132.1L47.3998 145H54.2998L64.5998 115.1H56.7998L52.7998 127.9C52.2998 129.8 51.2998 133.3 50.7998 135.6C50.3998 133.6 49.1998 129.1 48.8998 127.9L44.8998 115.1H37.3998L33.2998 127.9C32.2998 130.9 31.7998 132.7 31.1998 135.6C30.6998 132.8 30.0998 130.2 29.3998 127.9L25.4998 115.1H17.7998L27.4998 145ZM72.7998 109.2C75.1998 109.2 77.1998 107.2 77.1998 104.7C77.1998 102.2 75.1998 100.3 72.7998 100.3C70.3998 100.3 68.2998 102.2 68.2998 104.7C68.2998 107.2 70.2998 109.2 72.7998 109.2ZM69.0998 145H76.4998V115.1H69.0998V145ZM91.4998 145V100H84.1998V145H91.4998ZM111.6 145.8C116.1 145.8 120 143.8 121.8 140.4L122.3 145.1H129.1V100.1H121.8V119C119.9 116 116.2 114.3 112.1 114.3C103.1 114.3 97.5998 121 97.5998 130.3C97.5998 139.6 103 145.9 111.6 145.9M113.2 139.1C108.1 139.1 104.9 135.3 104.9 130C104.9 124.7 108 120.9 113.2 120.9C118.4 120.9 121.7 124.7 121.7 130C121.7 135.3 118.4 139.1 113.2 139.1Z" fill="white"/>
<path fill-rule="evenodd" clip-rule="evenodd" d="M27.1998 145.4L17.2998 114.9H25.6998L29.6998 128C30.1998 129.9 30.6998 132 31.1998 134.2C31.6998 132.1 32.1998 130.4 32.8998 128L37.0998 114.9H45.0998L49.1998 128C49.4998 129 50.2998 132 50.7998 134.2C51.2998 132.1 51.9998 129.5 52.4998 128L56.5998 114.9H65.0998L54.4998 145.4H47.0998L42.8998 132.2C41.9998 129.3 41.3998 127 41.0998 125.4C40.6998 126.8 40.1998 128.9 39.0998 132.3L34.8998 145.4H27.1998ZM40.9998 124.6C40.9998 124.3 41.0998 124 41.1998 123.8C41.1998 124 41.1998 124.3 41.2998 124.6C41.5998 126.2 42.2998 128.8 43.2998 132.1L47.3998 145H54.2998L64.5998 115.1H56.7998L52.7998 127.9C52.2998 129.6 51.4998 132.6 50.9998 134.8C50.9998 135.1 50.8998 135.3 50.7998 135.6C50.7998 135.3 50.6998 135.1 50.5998 134.8C50.0998 132.6 49.0998 129 48.7998 127.9L44.7998 115.1H37.2998L33.1998 127.9C32.2998 130.6 31.7998 132.3 31.2998 134.8C31.2998 135.1 31.1998 135.4 31.0998 135.7C31.0998 135.4 30.9998 135.1 30.8998 134.8C30.3998 132.3 29.8998 130 29.2998 127.9L25.3998 115.1H17.6998L27.3998 145H34.5998L38.6998 132.2C39.8998 128.2 40.4998 126 40.8998 124.6M68.7998 145.4V114.9H76.7998V145.4H68.7998ZM77.4998 104.7C77.4998 107.4 75.3998 109.5 72.7998 109.5C70.1998 109.5 67.8998 107.4 67.8998 104.7C67.8998 102 70.0998 100 72.7998 100C75.4998 100 77.4998 102.1 77.4998 104.7ZM76.4998 145H69.0998V115.1H76.4998V145ZM91.8998 145.4H83.8998V99.7H91.8998V145.4ZM91.4998 100V145H84.1998V100H91.4998ZM122.3 145L121.8 140.3C121.8 140.5 121.6 140.6 121.5 140.8C119.6 143.9 115.9 145.7 111.6 145.7C102.9 145.7 97.5998 139.3 97.5998 130.1C97.5998 120.9 103 114.1 112.1 114.1C121.2 114.1 119.6 115.7 121.5 118.3C121.6 118.5 121.7 118.6 121.8 118.8V99.9H129.1V144.9H122.3V145ZM121.4 117.9C119.3 115.3 115.8 113.9 112 113.9C108.2 113.9 103.7 115.6 101.1 118.5C98.4998 121.4 97.1998 125.5 97.1998 130.2C97.1998 134.9 98.5998 138.9 101.1 141.7C103.6 144.5 107.2 146.1 111.6 146.1C116 146.1 119.6 144.4 121.6 141.3L122 145.3H129.4V99.6H121.4V117.8V117.9ZM107.4 136.3C108.8 137.8 110.7 138.7 113.2 138.7C115.7 138.7 117.7 137.8 119.1 136.3C120.5 134.8 121.3 132.6 121.3 130C121.3 127.4 120.5 125.2 119.1 123.6C117.7 122.1 115.7 121.2 113.2 121.2C110.7 121.2 108.7 122.1 107.4 123.7C106 125.2 105.3 127.4 105.3 130C105.3 132.6 106.1 134.8 107.4 136.3ZM77.1998 104.7C77.1998 107.2 75.1998 109.2 72.7998 109.2C70.3998 109.2 68.2998 107.2 68.2998 104.7C68.2998 102.2 70.2998 100.3 72.7998 100.3C75.2998 100.3 77.1998 102.2 77.1998 104.7ZM104.9 130C104.9 135.3 108 139.1 113.2 139.1C118.4 139.1 121.7 135.4 121.7 130C121.7 124.6 118.4 120.9 113.2 120.9C108 120.9 104.9 124.7 104.9 130Z" fill="white"/>
<path d="M89.7002 60.6C89.7002 60.1 89.8002 59.5 89.8002 59C89.8002 56.2 88.9002 53.7 87.3002 51.7C87.3002 51.7 87.3002 51.7 87.2002 51.6C86.5002 50.8 86.1002 49.8 86.1002 48.6C86.1002 47.4 86.4002 46.8 86.9002 46C83.6002 39 81.7002 31.1 81.7002 22.8C81.7002 14.5 83.5002 7.09999 86.6002 0.299988C79.2002 5.19999 74.4002 13.6 74.4002 23.1C74.4002 32.6 74.6002 26.5 74.9002 28.1C73.5002 27.4 71.9002 26.9 70.2002 26.9C73.0002 29.9 74.7002 34 74.7002 38.4C74.7002 42.8 74.1002 43.4 73.1002 45.6C73.8002 46 74.3002 46.7 74.3002 47.6C74.3002 48.5 74.1002 48.7 73.7002 49.1C71.8002 51.2 70.6002 54 70.6002 57.1C70.6002 61.7 73.3002 65.8 77.2002 67.7C77.9002 73.4 81.7002 78.1 86.9002 80.1C85.4002 77.7 84.5002 74.9 84.5002 71.9C84.5002 68.9 84.6002 69.6 84.9002 68.4C87.5002 66.5 89.2002 63.7 89.7002 60.4M83.8002 61.2C83.8002 61.4 83.7002 61.6 83.6002 61.8C82.6002 64.7 82.0002 67.8 82.0002 71C82.0002 74.2 82.0002 72.5 82.1002 73.2C79.7002 69.6 78.2002 65.5 77.7002 61.2C77.7002 60.9 77.7002 60.7 77.7002 60.4C77.7002 58.7 79.1002 57.3 80.9002 57.3C82.6002 57.3 84.1002 58.7 84.1002 60.5C84.1002 60.7 84.1002 61 84.0002 61.2" fill="url(#paint0_linear_726_420)"/>
<path d="M118.6 69.2C118.6 69 118.6 68.8 118.6 68.7C118.6 68.2 118.6 67.8 118.5 67.3C118.5 67.1 118.5 66.9 118.5 66.7C118.5 66.2 118.4 65.7 118.3 65.2C118.3 65.1 118.3 65 118.3 64.9C118.2 64.4 118.1 63.9 118 63.5C118 63.3 117.9 63.1 117.9 62.9C117.9 62.6 117.8 62.4 117.7 62.1C117.7 61.9 117.6 61.6 117.5 61.4C117.5 61.3 117.4 61.1 117.4 61C117.2 60.5 117 59.9 116.8 59.4C116.8 59.3 116.8 59.2 116.7 59.1C115.8 56.8 114.7 54.7 113.3 52.7C112.2 50.4 111.7 47.9 111.7 45.3C111.7 43.3 112 41.3 112.7 39.3C112.4 39.9 111.8 40.2 111 40.2C110 40.2 109.1 39.4 109.1 38.4C109.1 37.9 109 37.5 108.9 37C108.9 37 108.9 36.9 108.9 36.8C108.8 36.4 108.7 35.9 108.6 35.5C108.6 35.5 108.6 35.4 108.6 35.3C108.5 34.8 108.3 34.4 108.2 33.9C108 33.4 107.9 33 107.7 32.5C107.5 32.1 107.4 31.7 107.2 31.3V31.2C106.8 30.4 106.4 29.7 106 29C106 29 106 28.9 105.9 28.8C105.7 28.4 105.4 28.1 105.2 27.7C105 27.3 104.7 27 104.4 26.7C104.4 26.7 104.4 26.7 104.4 26.6C104.1 26.3 103.9 25.9 103.6 25.6C103.6 25.6 103.6 25.6 103.5 25.5C103.2 25.2 102.9 24.9 102.7 24.6C102.4 24.3 102.1 24 101.8 23.7C101.8 23.7 101.7 23.6 101.6 23.5C101 23 100.4 22.5 99.7 22C99.7 22 99.5 21.9 99.5 21.8C99.2 21.6 98.8 21.3 98.5 21.1C98.5 21.1 98.5 21.1 98.4 21.1C98.1 20.9 97.7 20.7 97.4 20.5C97.4 20.5 97.3 20.5 97.2 20.4L96.1 19.9C96.1 19.9 96 19.9 95.9 19.8C95.6 19.6 95.2 19.5 94.9 19.4C94.9 19.4 94.8 19.4 94.7 19.4L93.5 19C93.5 19 93.3 19 93.2 19C92.8 18.9 92.4 18.8 92 18.6C96.7 23 99.6 29.2 99.6 36.2C99.6 43.2 99.5 38.8 99.3 40.1C100.4 42.6 101.1 45.5 101.1 48.4C101.1 51.3 100.8 52.4 100.3 54.3C100.1 54.8 100 55.4 99.9 56C99.9 56.2 99.9 56.3 99.9 56.5C99.9 56.5 99.9 56.6 99.9 56.7C99.9 57.2 99.9 57.6 99.9 58.1C99.9 59.2 100 60.2 100.2 61.2C100.2 61.2 100.2 61.3 100.2 61.4C100.2 61.4 100.2 61.4 100.3 61.4C100.3 61.8 100.5 62.2 100.6 62.6C100.9 63.7 101.3 64.7 101.7 65.7C102.5 67.3 103.5 68.9 104.7 70.2C106.9 71 108.8 72.4 110.2 74.2C110.2 74.2 110.2 74.3 110.3 74.4C110.7 74.9 111.1 75.5 111.4 76.1C112.7 78.3 113.7 80.6 114.5 83C115 84.5 115.3 86.1 115.6 87.7V88.1C115.7 87.9 115.8 87.6 115.8 87.4C117.7 83.8 119 79.9 119.5 75.9C119.5 75.4 119.6 74.8 119.7 74.2C119.7 74 119.7 73.8 119.7 73.7C119.7 73.5 119.7 73.3 119.7 73.1C119.7 72.6 119.7 72.2 119.7 71.7C119.7 71 119.7 70.3 119.7 69.7M115.4 75.3C115.2 76.4 115 77.5 114.8 78.5C114.6 77.3 114.2 76.2 113.8 75.1C112.5 71.6 110.2 68.5 107.4 66.1C107.2 66 107 65.8 106.8 65.6C106.7 65.5 106.5 65.3 106.4 65.2C106.3 65 106.2 64.9 106.1 64.7C105.9 64.3 105.7 64 105.6 63.6C105.6 63.4 105.6 63.3 105.5 63.1V63C105.5 62.8 105.5 62.6 105.5 62.4C105.5 59.9 107.5 57.9 110 57.9C112.5 57.9 112.9 58.6 113.7 59.8C114 60.5 114.3 61.3 114.5 62C114.7 62.5 114.8 63 114.9 63.5C114.9 63.6 114.9 63.7 114.9 63.8C115 64.3 115.1 64.8 115.2 65.4C115.3 66 115.4 66.5 115.5 67.1C115.5 67.1 115.5 67.2 115.5 67.3C115.5 67.9 115.6 68.4 115.7 69C115.7 69.3 115.7 69.7 115.7 70.1C115.7 70.5 115.7 70.8 115.7 71.2C115.7 72.7 115.7 74.1 115.5 75.4" fill="url(#paint1_linear_726_420)"/>
<path fill-rule="evenodd" clip-rule="evenodd" d="M139.8 52.4C139.8 50.3 139.1 48.4 138 46.7C136.1 45.2 134.9 43 134.9 40.4C134.9 37.8 135.1 38.2 135.5 37.3C132.2 36.4 129.7 33.4 129.7 29.8V29.6C129 29.5 128.5 29 128.2 28.4C123.9 21.1 117.2 15.3 109.3 12.1C113.9 17.8 117.3 24.5 119 31.9C119.3 33.1 119.5 34.3 119.7 35.6C121.5 37.4 122.5 39.9 122.5 42.6C122.5 45.3 122.4 44.3 122.2 45C123.9 46.8 125 49.3 125 52C125 54.7 124.7 54.6 124.3 55.7C125.5 56.5 126.6 57.4 127.7 58.4C128 58.7 128.3 59 128.6 59.3C129.6 60.3 130.5 61.3 131.3 62.4C133.9 65.8 135.9 69.8 137.1 74.1C138.7 70.2 139.5 66.1 139.5 62C139.5 60 139.3 58.1 139 56.2C139.5 55 139.8 53.6 139.8 52.3M136.5 65.3C135.3 61.6 133 58.3 129.9 55.9C129.9 55.9 129.9 55.9 129.8 55.9C129.1 55.4 128.6 54.5 128.6 53.6C128.6 52 129.9 50.7 131.5 50.7C133.1 50.7 133.2 51.1 133.8 51.8C133.8 51.9 133.9 52 134 52.1C136.4 56 137.3 60.7 136.5 65.3Z" fill="url(#paint2_linear_726_420)"/>
<defs>
<linearGradient id="paint0_linear_726_420" x1="72.4002" y1="37.08" x2="38.8302" y2="25.5" gradientUnits="userSpaceOnUse">
<stop stop-color="#00C37A"/>
<stop offset="1" stop-color="#27D84A"/>
</linearGradient>
<linearGradient id="paint1_linear_726_420" x1="91.99" y1="52.29" x2="51.77" y2="29.86" gradientUnits="userSpaceOnUse">
<stop stop-color="#00C37A"/>
<stop offset="1" stop-color="#27D84A"/>
</linearGradient>
<linearGradient id="paint2_linear_726_420" x1="105.69" y1="47.13" x2="66.1903" y2="19.88" gradientUnits="userSpaceOnUse">
<stop stop-color="#00C37A"/>
<stop offset="1" stop-color="#27D84A"/>
</linearGradient>
</defs>
</svg>
