<svg width="196" height="113" viewBox="0 0 196 113" fill="none" xmlns="http://www.w3.org/2000/svg">
<path d="M132.3 26.6701C129.7 28.3701 127 29.9701 123.6 32.1701C129.1 33.1701 134.3 34.1701 133.9 41.0701C135.4 43.5701 134.4 46.1701 134.6 48.7701C134.6 49.7701 135 50.9701 136 51.0701C140.2 51.6701 143.7 54.4701 147.8 55.2701C149.8 55.8701 151.9 55.5701 154 55.5701C156.1 55.5701 156.5 56.5701 155.9 58.0701C155.4 59.3701 155.7 60.6701 155.3 61.8701C154.5 68.1701 154.5 74.5701 155 80.8701C156.2 83.4701 154.8 86.2701 155.8 88.9701C156.3 91.6701 155.3 92.8701 152.4 92.4701C150.5 92.1701 148.4 92.2701 146.5 92.4701C143.9 92.6701 143.2 91.6701 143.9 89.2701C144.1 88.5701 144.1 87.6701 144.2 86.9701C144.3 83.9701 143.7 80.9701 144.6 77.9701C145.1 73.6701 145.3 69.2701 144.6 64.9701C143.9 62.9701 144.4 60.8701 144.3 58.7701C144.2 58.0701 144.1 57.3701 143.9 56.7701C143.6 55.7701 143.1 55.1701 141.8 55.1701C140.5 55.1701 139.7 55.5701 139.3 56.7701C138.6 58.6701 138.2 60.5701 136.1 61.4701C132.8 62.9701 130.9 60.9701 129 58.8701C128.5 56.9701 128.3 55.1701 129.6 53.4701C129.6 51.7701 128.4 52.7701 127.7 52.5701C126.2 52.1701 124.4 53.1701 123 51.9701C123.3 50.6701 123.6 49.3701 123.9 48.0701C123.7 43.7701 124.3 39.4701 123.6 35.2701C120.9 32.8701 119.9 33.3701 118.2 37.7701C117.6 40.5701 118.2 43.4701 117.9 46.3701C118.4 48.2701 118.2 50.1701 118.2 52.1701C115 53.0701 111.8 52.6701 108.6 52.3701C107.6 50.7701 107.5 48.8701 106.5 47.2701C106.5 45.5701 106.4 43.7701 106.6 42.0701C107.5 35.8701 107.1 29.7701 106.8 23.5701C106.6 21.0701 106.4 18.5701 106.1 16.0701C106 15.0701 105.8 14.0701 104.4 14.0701C103.1 14.0701 102 13.8701 101.3 15.5701C100.3 17.7701 100.1 20.2701 96.7 20.8701C94.1 21.3701 92.6 20.3701 91.6 18.7701C90.4 16.9701 89.2 14.8701 91.6 12.8701C92.8 13.3701 92.2 14.5701 92.5 15.2701C92.5 14.3701 92.3 13.1701 93.2 12.2701C94.2 9.67011 96.5 9.87011 98.5 10.1701C101.2 10.6701 103.7 11.6701 106.2 12.8701C108.2 13.8701 110.2 14.9701 112.6 14.7701C113.7 15.2701 114.9 15.1701 116 14.7701C117.9 14.0701 118.6 14.7701 118.4 16.5701C118.3 17.5701 119 18.7701 117.8 19.4701C117.4 24.4701 116.8 29.4701 117.2 35.2701C120.1 31.3701 124.7 29.8701 125.3 24.9701C127.3 23.7701 129.5 24.2701 131.6 24.4701C132.8 24.5701 133.3 25.5701 132.2 26.6701H132.3Z" fill="black"/>
<path d="M105 83.0701C103.4 84.6701 102.4 86.7701 100.6 88.2701C97.3001 90.8701 94.3001 91.2701 90.8001 88.9701C89.2001 87.8701 88.8001 88.7701 88.7001 89.8701C88.7001 95.9701 84.1001 98.5701 79.8001 101.17C78.5001 101.97 76.5001 101.67 75.5001 103.37C75.5001 103.47 74.8001 103.57 74.7001 103.37C72.1001 100.87 68.1001 101.17 65.6001 98.3701C63.7001 96.3701 62.2001 94.3701 61.9001 91.4701C61.6001 88.1701 61.0001 87.8701 58.0001 89.1701C55.1001 90.4701 52.6001 89.4701 50.2001 87.7701C47.0001 85.3701 45.8001 81.7701 45.0001 78.0701C44.4001 76.2701 44.3001 74.7701 46.2001 73.6701C47.0001 71.9701 48.4001 70.9701 50.1001 70.4701C51.9001 69.8701 53.2001 68.6701 54.2001 67.0701C55.6001 66.3701 57.2001 65.6701 55.9001 63.5701C57.6001 60.7701 59.9001 58.6701 62.6001 56.9701C63.8001 58.1701 63.3001 59.5701 63.3001 60.9701C63.3001 61.7701 63.1001 62.5701 63.7001 63.2701C65.2001 65.1701 72.2001 65.2701 73.9001 63.4701C77.2001 59.8701 77.8001 59.8701 81.1001 63.2701C83.3001 65.4701 86.3001 65.2701 89.3001 65.9701C89.4001 64.2701 87.9001 63.2701 88.7001 61.9701C90.5001 61.0701 91.5001 62.5701 92.7001 63.2701C93.8001 63.8701 94.6001 64.8701 95.6001 65.6701C97.0001 67.1701 98.4001 68.3701 100.6 68.5701C102.2 68.6701 103.6 69.6701 104.6 71.0701C105 71.7701 105.6 72.2701 105.9 73.0701C106.7 76.4701 107.6 79.9701 104.9 83.0701H105Z" fill="#090707"/>
<path d="M46.2999 73.7701C45.8999 75.2701 45.4999 76.67 45.0999 78.17C35.3999 74.07 29.4999 66.87 27.4 56.57C26.7 54.67 27.4 52.7701 27 50.8701C26.4 48.8701 26.5 46.7701 26.6 44.7701C27.3 39.87 27.6 34.87 26.6 29.97C26.3 29.47 25.8 29.07 25.7 28.47L26.2999 25.87C26.9999 23.57 26.3 21.17 26.7 18.87L26.2999 16.87C27.7999 15.67 29.5 16.1701 31 16.4701C33.3 16.9701 35.5 16.9701 37.7 16.4701C39.7 17.3701 38.2 18.8701 38.4 20.0701C38.3 21.2701 38.1 22.4701 38 23.6701C37.7 25.8701 38.5 28.0701 37.5 30.1701C37 31.1701 37.2999 32.1701 37.2999 33.1701C37.2999 40.5701 37.6 47.87 37.2 55.2701C37.8 61.5701 40.6 66.7701 44.7 71.3701C45.3 72.0701 46.3 72.57 46.4 73.67L46.2999 73.7701Z" fill="black"/>
<path d="M22.7 38.0701C21.2 41.9701 21.7 46.4701 19.1 50.0701C18.4 50.9701 18.2 52.3701 16.6 52.1701C15 51.9701 13.4 52.0701 12.7 50.1701C10.7 44.8701 8.7 39.4701 6.7 34.1701C5.7 31.5701 4.8 29.0701 3.5 25.6701C2.8 28.9701 3.1 31.3701 3.3 33.8701C3.7 39.4701 4.4 45.0701 6 50.4701C6.2 51.0701 6 51.6701 6 52.2701C4 52.8701 2 53.1701 0 52.0701C0.3 48.9701 0.7 45.9701 1 42.8701C1 39.0701 0.5 35.2701 1.3 31.4701C1.8 27.0701 2.2 22.6701 0.6 18.3701C0.0999999 17.1701 0.3 16.4701 1.8 16.5701C4.9 16.7701 8 17.6701 11.2 16.9701C12.1 16.7701 12.4 17.8701 12.6 18.5701C14.4 25.0701 17.3 31.0701 19.4 37.4701C19.8 38.5701 20.3 39.9701 21.6 38.1701C22 37.7701 22.3 37.8701 22.7 38.1701V38.0701Z" fill="black"/>
<path d="M105 83.0701C105.8 79.5701 106.4 76.0701 105.2 72.5701C103.8 69.9701 104.5 67.1701 104.4 64.3701C104.4 62.8701 104.5 61.3701 104.2 59.9701C104.1 59.6701 103.9 59.3701 103.8 59.1701C103.3 58.0701 101.3 58.2701 101.6 56.5701C102 56.1701 102.5 56.0701 103 56.1701C109.8 56.2701 116.6 56.1701 123.5 56.1701C124.4 56.1701 125.5 55.5701 126.1 56.7701C126.6 59.8701 126.7 62.9701 126.1 66.1701C123.3 66.8701 122.1 65.2701 121.4 62.8701C120.8 60.7701 120.1 58.6701 117.6 58.0701C116.9 57.8701 116.2 57.8701 116 58.7701C115.3 62.2701 115.8 65.8701 115.7 69.4701C115.7 75.6701 115.5 81.9701 116.1 88.1701C116.1 88.7701 115.7 89.4701 116.4 90.0701C117 91.1701 117.6 92.5701 115.7 92.5701C111.8 92.5701 107.9 93.1701 104.1 92.2701C104.4 89.1701 105.4 86.1701 105.1 83.0701H105Z" fill="black"/>
<path d="M173.9 55.9701C178.1 58.8701 179.6 59.0701 182.8 56.7701C182.9 56.4701 183 56.2701 183.1 55.9701C183.4 54.6701 184.6 53.2701 184.1 52.1701C183.5 50.6701 181.6 51.8701 180.4 51.4701C180.1 51.4701 179.9 51.1701 179.8 50.8701C177.8 47.1701 175.8 43.3701 174.4 39.3701C174 38.6701 174.7 38.1701 174.6 37.5701C174.3 35.6701 173.3 34.0701 172.7 32.2701C172 30.7701 171.8 29.0701 170.5 27.8701C170 27.8701 169.7 28.7701 169.1 28.4701C168.3 27.3701 167.8 26.0701 167.5 24.6701C169.3 23.8701 171 24.6701 172.7 25.0701C173.5 25.2701 174.2 25.4701 175 25.5701C176.6 25.9701 178.5 24.3701 179.7 25.7701C180.6 26.8701 180.6 28.7701 181 30.2701C182.5 34.7701 184.4 38.9701 187.3 43.2701C189.5 38.0701 190.9 33.2701 190.1 28.0701C190 27.0701 190 26.0701 189.9 25.1701C191.9 24.4701 193.9 24.5701 196 25.1701C195.6 28.5701 193.3 31.2701 192.3 34.3701C190 41.6701 187.5 48.8701 185.1 56.1701C183.9 59.8701 181.8 62.3701 178 63.3701C172.4 63.9701 170.9 62.1701 172.4 56.7701C172.6 55.8701 173.1 55.6701 173.9 56.2701V55.9701Z" fill="black"/>
<path d="M173.2 65.7701C173.2 66.4701 172.5 66.6701 172 67.0701C170.7 67.4701 170.4 68.4701 170.4 69.7701C170.4 73.6701 170.7 77.5701 170.3 81.5701C169.9 84.6701 170.9 87.5701 171.4 90.5701C171.6 91.8701 171.7 92.6701 170 92.4701C169.8 92.4701 169.6 92.4701 169.4 92.4701C164.2 92.5368 161.1 90.1034 160.1 85.1701C159.2 80.9701 159.9 76.7701 159.7 72.5701C159.7 71.4701 159.6 70.3701 159.7 69.2701C159.9 67.9701 159 67.5701 158.2 67.0701C157.8 66.4701 157.2 65.5701 158.2 65.5701C163 65.5701 164.1 61.5701 166.2 58.7701C167.2 57.4701 168 56.0701 169.9 56.5701C170.8 58.0701 170.4 59.6701 170.2 61.1701C170 63.4701 170.4 65.1701 173 65.7701H173.2Z" fill="black"/>
<path d="M84.9001 25.2701C87.2001 24.8701 89.3001 23.6701 91.8001 23.6701C95.7001 23.6701 98.3001 25.4701 99.7001 29.2701C100.8 32.4701 101.2 35.7701 101 39.1701C101 40.7701 99.4001 41.6701 98.9001 43.0701C97.4001 45.0701 95.1001 45.8701 93.1001 47.0701C91.3001 47.7701 90.7001 46.6701 90.6001 45.1701C90.5001 42.4701 90.5001 39.7701 90.6001 37.1701C90.6001 36.3701 91.0001 35.6701 91.5001 34.9701C92.9667 32.9701 92.6667 31.2701 90.6001 29.8701C90.5001 29.7701 90.3001 29.5701 90.2001 29.4701C89.4001 28.5701 89.0001 26.9701 87.5001 27.2701C85.9001 27.5701 85.6001 29.0701 85.3001 30.3701C84.8001 32.9701 85.3001 35.6701 85.0001 38.3701C84.9001 38.9701 84.6001 39.5701 84.3001 40.0701C83.1001 41.1701 82.6001 43.4701 80.6001 43.0701C78.7001 42.6701 78.7001 40.4701 78.1001 38.9701C77.4001 37.2701 76.8001 35.5701 78.0001 33.8701C78.5001 33.0701 78.3001 32.3701 77.7001 31.6701C77.0001 30.9701 76.5001 30.0701 76.6001 28.9701C75.7001 31.3701 75.4001 31.5701 74.1001 30.1701C74.3001 29.3701 74.1001 28.5701 73.7001 27.8701C73.0001 24.3701 73.0001 24.3701 77.2001 24.7701C77.8001 24.9701 78.4001 25.0701 79.0001 25.2701C81.0001 25.2701 83.1001 25.1701 85.1001 25.2701H84.9001Z" fill="black"/>
<path d="M128.8 69.6701C128.333 66.4701 129.667 65.0701 132.8 65.4701C134.8 65.7701 136.8 66.3701 138.9 65.5701C140.2 65.0701 140.5 65.9701 140.1 67.0701C139.7 68.2701 139.7 69.3701 139.7 70.5701C139.1 75.4701 139.6 80.2701 139.4 85.1701C139.9 87.0701 139.4 89.0701 140.2 90.9701C140.5 91.6701 140.4 92.3701 139.3 92.3701C135.7 92.3701 132 92.3701 128.4 92.3701C128.2 92.3701 128 91.7701 127.7 91.5701C128.1 89.1701 128.8 86.7701 128.6 84.2701C128.6 79.3701 128.6 74.5701 128.6 69.6701H128.8Z" fill="black"/>
<path d="M89 61.7701C88.7 63.2701 89.8 64.0701 90.7 65.0701C91.5 65.9701 91.2 66.6701 90.1 66.5701C86.4 66.0701 82.3 66.8701 79.8 62.7701C78.6 60.7701 77 60.8701 75.3 62.9701C74.4 64.0701 73.8 65.9701 72.5 65.7701C69.3 65.2701 65.9 66.1701 63 64.0701C62.3 63.5701 61.9 62.8701 62.3 62.0701C63 60.4701 62.6 58.7701 62.7 57.0701C64.6 56.2701 63 53.8701 64.5 52.9701C64.8 52.6701 65.1 52.3701 65.4 52.2701C66.6 50.8701 67.9 49.8701 69.8 51.0701C70.7 51.6701 71.6 50.6701 72.6 50.8701C72.9 50.8701 73.1 51.0701 73.3 51.2701C74.4 52.7701 76.7 52.1701 77.7 53.8701C78 55.7701 79.5 56.3701 81 56.9701C82.9 57.7701 84.9 58.3701 86.7 59.4701C87.7 60.0701 89 60.3701 89 61.8701V61.7701Z" fill="#050807"/>
<path d="M72.8999 106.37C72.8999 108.87 68.1999 112.47 64.8999 111.97C61.7999 111.47 62.4999 108.27 62.4999 106.17C62.4999 104.17 61.6999 100.87 65.1999 100.77C69.0999 100.67 72.8999 103.77 72.8999 106.47V106.37Z" fill="#070607"/>
<path d="M88.3 106.77C87.5 108.27 89 111.47 85.8 111.87C82.4 112.27 77.7 108.47 77.7 105.97C77.7 103.47 82.3 100.27 85.8 100.37C87.4 100.37 88.4 102.57 88.3 106.77Z" fill="#09090B"/>
<path d="M65.8001 52.8701C65.4001 52.8701 65.0001 52.8701 64.6001 52.8701C64.7001 51.9701 64.8001 50.9701 64.9001 50.0701C65.9001 49.5701 66.3001 48.8701 66.4001 47.7701C66.4001 45.3701 66.6001 43.0701 66.9001 40.6701C67.1001 39.1701 66.3001 37.9701 65.8001 36.6701C66.7001 36.0701 68.3001 35.9701 68.0001 34.2701C68.4001 33.4701 69.3001 34.0701 69.9001 33.6701C70.6001 34.3701 70.5001 35.2701 70.5001 36.0701C70.3001 37.2701 70.2001 38.5701 71.0001 39.6701C71.0001 40.4701 71.0001 41.2701 72.0001 41.8701C72.9001 38.8701 75.0001 36.2701 73.7001 32.8701C73.4001 32.1701 73.2001 30.9701 73.8001 30.0701C75.3001 31.3701 75.5001 30.0701 75.7001 29.0701C75.8001 28.4701 75.4001 27.7701 75.3001 27.0701C75.3001 26.5701 75.4001 26.0701 76.0001 25.9701C76.6001 25.9701 76.9001 26.4701 76.9001 26.9701C76.9001 28.7701 76.9001 30.4701 78.7001 31.6701C79.1001 31.9701 79.3001 32.7701 78.9001 33.3701C76.4001 36.9701 79.8001 39.6701 80.0001 42.8701C82.0001 42.3701 81.9001 40.2701 83.5001 39.8701C83.9001 39.8701 84.2001 40.1701 84.3001 40.6701C84.3001 41.5701 83.6001 42.1701 83.1001 42.7701C81.7001 43.6701 81.5001 45.5701 80.4001 46.6701C78.7001 46.8701 78.9001 45.4701 78.7001 44.4701C78.2001 41.9701 77.5001 39.5701 76.0001 37.1701C74.2001 39.8701 74.1001 42.7701 72.9001 45.3701C72.5001 45.5701 72.1001 45.6701 71.7001 45.4701C70.3001 43.9701 70.1001 41.6701 68.1001 39.7701C69.4001 42.6701 70.3001 44.9701 68.8001 47.4701C68.4001 48.1701 68.8001 48.5701 69.6001 48.6701C70.4001 48.7701 71.2001 48.7701 71.7001 49.4701C71.7001 49.7701 71.7001 50.0701 71.5001 50.2701C70.9001 50.6701 70.2001 50.9701 69.6001 50.7701C67.4001 49.9701 66.4001 51.1701 65.7001 52.9701L65.8001 52.8701Z" fill="#311E0D"/>
<path d="M102.1 56.3701C101.9 56.5701 101.7 56.8701 101.5 57.0701C101.3 58.0701 100.7 58.5701 99.6 58.4701C98.9 58.0701 98.6 57.4701 98.8 56.6701C99.4 55.8701 100 54.8701 100.8 54.1701C101.3 53.8701 101.8 53.5701 102.1 52.9701C101.1 52.7701 100.4 53.4701 99.6 53.6701C98.3 53.7701 96.8 56.0701 95.8 53.2701C96.3 52.0701 97.1 51.1701 97.4 49.8701C97.6 49.3701 97.9 48.8701 98.4 48.5701C98.7 48.5701 98.9 48.5701 99.2 48.7701C99.7 49.4701 99.4 50.2701 99.4 50.9701C100.4 50.9701 101.1 50.0701 102 49.8701C102.8 50.4701 103.2 50.1701 103.4 49.2701C103.8 47.9701 104.7 47.3701 106 47.3701C106.2 47.1701 106.4 47.1701 106.6 47.3701C108.4 48.3701 109.3 49.6701 108.2 51.7701C108 52.6701 107.1 52.3701 106.6 52.7701C104.5 52.3701 103.5 53.8701 102.5 55.2701C102.2 55.5701 102.3 56.1701 101.8 56.3701H102.1Z" fill="#342315"/>
<path d="M169.1 28.3701C170 27.8701 169.1 26.4701 170.2 26.0701C171.3 28.0701 172.2 30.1701 173 32.2701C173.9 34.1701 174.3 36.2701 175.6 37.9701C175.2 38.3701 174.8 38.8701 174.3 39.2701C172.3 35.7701 170.6 32.0701 169.1 28.3701Z" fill="black"/>
<path d="M99.2 48.7701C99 48.7701 98.9 48.7701 98.7 48.7701C97.8 47.3701 98.9 45.9701 98.9 44.5701C98.9 43.9701 98.3 43.4701 98.6 42.7701C98.9 41.2701 99.3 39.7701 101 39.1701C102.5 39.6701 104.2 39.8701 104.1 42.0701C104.1 43.7701 103 44.4701 101.5 44.6701C100.6 45.8701 101.5 48.1701 99.3 48.7701H99.2Z" fill="#483417"/>
<path d="M22.7001 38.0701C22.3001 38.0701 22.0001 38.0701 21.6001 38.0701C22.5001 34.6701 24.0001 31.4701 25.7001 28.4701C26.1001 28.6701 26.4001 28.8701 26.8001 29.0701C27.3001 29.8701 26.8001 30.4701 26.2001 30.9701C25.0001 33.3701 23.9001 35.7701 22.7001 38.0701Z" fill="black"/>
<path d="M99.2001 48.7701C100.5 47.6701 99.9001 45.6701 101.4 44.6701C101.8 46.3701 101 48.2701 102.2 49.8701C102 51.9701 99.8001 51.0701 99.0001 52.3701C98.3001 50.8701 99.6001 49.8701 99.2001 48.6701V48.7701Z" fill="white"/>
<path d="M77.0999 105.97C77.2999 107.27 76.9999 107.97 75.3999 107.87C74.1999 107.87 73.3999 107.77 73.3999 106.17C73.3999 104.87 73.6999 104.37 75.0999 104.77C75.8999 104.97 77.4999 103.87 77.0999 105.97Z" fill="#0F0910"/>
<path d="M56 63.6701C57 63.8701 58.2 64.1701 57.3 65.3701C56.7 66.2701 56.4 68.4701 54.3 67.1701C54.5 65.7701 55.1 64.6701 56 63.6701Z" fill="#050807"/>
<path d="M45.9999 29.0701C45.7999 28.6701 45.5999 28.2701 45.3999 27.8701C46.1999 26.7701 47.1999 26.0701 48.3999 25.5701C50.4999 27.5701 47.6999 27.4701 47.1999 28.3701C46.7999 28.6701 46.5999 29.3701 45.8999 29.0701H45.9999Z" fill="black"/>
<path d="M93.3 12.1701C93.1 14.1701 93 16.0701 93.8 18.1701C91 16.9701 92.4 14.4701 91.7 12.7701C92.2 12.5701 92.7 12.3701 93.3 12.0701V12.1701Z" fill="white"/>
<path d="M151.7 23.6701C149.3 24.2701 146.9 24.9701 144.5 25.5701C146.5 23.5701 149.1 23.4701 151.7 23.6701Z" fill="black"/>
<path d="M71.1 39.7701C69.6 38.7701 68.8 37.6701 70.6 36.1701C71.5 37.2701 70.9 38.5701 71.1 39.7701Z" fill="#CDC1B8"/>
<path d="M131.9 53.5701C131.1 55.7701 131.2 57.8701 132.1 59.8701C129.5 57.3701 129.4 55.7701 131.9 53.5701Z" fill="white"/>
<path d="M82.0001 83.8701C84.8001 88.7701 84.7001 93.0701 81.7001 95.8701C81.3001 96.2701 80.4001 98.3701 79.9001 95.7701C79.8001 95.0701 79.2001 95.3701 78.9001 95.7701C78.7001 95.9701 78.6001 96.2701 78.4001 96.4701C75.4001 99.7701 74.8001 99.7701 72.1001 96.3701C71.8001 95.9701 71.5001 95.6701 71.0001 94.9701C70.3001 98.4701 69.1001 96.8701 68.1001 95.5701C65.9001 92.5701 66.8001 89.3701 67.5001 86.1701C67.9001 84.0701 68.8001 82.6701 71.0001 82.2701C71.3001 81.3701 71.9001 81.0701 72.7001 81.3701C72.9001 81.5701 73.1001 81.7701 73.1001 82.0701C73.1001 82.9701 72.3001 83.3701 72.0001 84.0701C71.7001 84.3701 72.6001 84.2701 72.2001 84.0701C72.0001 84.0701 72.0001 83.9701 72.2001 83.7701C74.7001 81.2701 76.0001 81.3701 79.6001 84.0701C80.4001 84.3701 81.2001 83.9701 82.0001 83.7701V83.8701Z" fill="#E6C1A4"/>
<path d="M72.8001 81.8701C72.1001 81.6701 71.6001 82.0701 71.1001 82.3701C70.1001 82.3701 69.1001 82.3701 68.2001 82.3701C65.2001 82.6701 62.2001 82.6701 59.2001 82.3701C58.6001 82.3701 58.0001 82.3701 57.4001 82.2701C53.5001 79.9701 53.0001 76.0701 52.6001 72.0701C52.3001 70.5701 52.7001 69.5701 54.3001 69.1701C56.6001 68.6701 58.8001 67.6701 61.2001 67.8701C62.3001 67.5701 62.7001 68.1701 62.8001 69.0701C61.9001 70.1701 60.5001 69.7701 59.4001 70.2701C56.0667 71.2034 55.0001 73.3034 56.2001 76.5701C56.4001 77.1701 56.5001 77.9701 57.4001 78.0701C58.1001 78.6701 58.3001 79.5701 59.0001 80.1701C59.2001 80.3701 59.4001 80.4701 59.6001 80.6701C61.7001 81.0701 63.8001 81.0701 65.8001 80.4701C68.3001 80.1701 70.7001 79.7701 72.5001 77.4701C73.6001 76.0701 75.6001 76.7701 77.2001 76.4701C77.6001 76.4701 78.0001 76.5701 78.4001 76.8701C79.0001 77.6701 79.2001 78.7701 80.3001 79.2701C80.8001 79.4701 81.3001 79.5701 81.8001 79.5701C84.1001 79.5701 86.3001 79.5701 88.6001 79.5701C92.2001 79.3701 95.2001 75.4701 94.7001 71.9701C94.6001 70.9701 94.0001 70.6701 93.2001 70.4701C92.2001 70.1701 91.1001 70.0701 90.1001 69.5701C89.3001 69.0701 88.3001 68.6701 89.0001 67.3701C90.8001 67.6701 92.6001 68.0701 94.4001 68.1701C96.9001 68.3701 97.8001 69.6701 97.2001 71.9701C97.4001 74.4701 96.6001 76.7701 95.5001 78.9701C94.9001 80.1701 93.8001 80.7701 92.5001 81.0701C88.8001 81.9701 85.0001 82.0701 81.2001 81.6701C79.6001 82.4701 78.4001 81.5701 77.4001 80.4701C75.8001 78.7701 74.6001 79.0701 73.8001 81.2701C73.5001 81.6701 73.2001 81.8701 72.7001 81.8701H72.8001Z" fill="#D2BD4C"/>
<path d="M97.8999 72.5701C99.8999 72.3701 102.9 75.7701 102.6 78.1701C102.4 79.7701 102.2 81.5701 100.3 82.3701C99.7999 82.6701 99.4999 80.4701 98.6999 82.3701C98.2999 83.3701 97.4999 84.4701 96.0999 84.4701C96.0999 84.4701 95.8999 84.4701 95.7999 84.4701C94.5999 85.0701 93.1999 85.7701 92.2999 84.6701C91.4999 83.7701 92.5999 82.5701 93.0999 81.4701C95.9999 79.1701 96.0999 75.3701 97.8999 72.4701V72.5701Z" fill="#D9BFA7"/>
<path d="M56.7999 82.5701C57.8999 83.4701 57.2999 84.0701 56.4999 84.6701C55.1999 85.5701 53.9999 85.1701 52.9999 84.1701C51.3999 82.6701 50.7999 80.4701 49.7999 78.5701C48.4999 79.7701 49.4999 81.1701 49.2999 82.4701C46.2999 79.4701 47.6999 74.1701 51.6999 72.7701C52.7999 73.3701 52.7999 74.5701 53.1999 75.5701C54.0999 78.0701 55.1999 80.4701 56.6999 82.5701H56.7999Z" fill="#DCC4A1"/>
<path d="M88.9999 61.7701C86.5999 59.7701 83.7999 58.6701 80.8999 57.6701C79.1999 57.0701 78.0999 55.8701 76.8999 54.7701C76.6999 54.6701 76.2999 54.3701 76.8999 54.1701C77.1999 54.0701 77.4999 54.1701 77.7999 54.1701C77.8999 54.1701 78.0999 54.1701 78.1999 54.1701C82.0999 54.9701 85.4999 56.7701 89.1999 58.2701C89.9999 58.5701 90.6999 59.1701 91.2999 59.6701C92.9999 61.1701 95.0999 62.2701 96.0999 64.4701C96.1999 65.0701 96.0999 65.6701 95.6999 66.0701C93.0999 65.3701 91.6999 62.6701 89.0999 61.8701L88.9999 61.7701Z" fill="#D9C42F"/>
<path d="M70.3999 66.8701C75.1999 66.5701 79.9999 66.2701 84.7999 67.1701C83.9999 69.8701 81.6999 68.2701 80.0999 68.7701C77.6999 68.8701 75.3999 68.8701 72.9999 68.7701C71.2999 68.3701 69.2999 69.1701 67.8999 67.6701C68.5999 66.5701 69.5999 67.1701 70.3999 66.8701Z" fill="#D2BD4C"/>
<path d="M72.8 81.8701L73.5 81.3701C74.6 78.3701 75.7 78.0701 77.6 80.4701C78.6 81.7701 80.1 81.4701 81.2 82.3701C81.5 82.8701 81.8 83.4701 82.1 83.9701C81.4 84.6701 80.6 85.0701 79.6 84.6701C78.1 81.6701 75.3 82.5701 72.9 82.2701C72.9 82.1701 72.9 81.9701 72.9 81.8701H72.8Z" fill="#D2BB99"/>
<path d="M70.4 66.8701C69.9 67.0701 69.3 67.2701 68.3 67.6701C70.2 67.7701 71.5999 67.8701 73.0999 67.9701C71.5999 70.1701 69.3 69.1701 67.3 69.2701C66.6 69.2701 66 69.2701 65.3 69.2701C64.4 69.0701 63.3999 69.6701 62.6999 68.7701C62.1999 68.4701 61.7 68.0701 61.2 67.7701C64.2 66.9701 67.3 66.7701 70.4 66.8701Z" fill="#D0BD2E"/>
<path d="M96.1001 84.3701C97.6001 82.8701 98.8001 81.0701 99.9001 79.1701C101.3 80.2701 99.3001 81.4701 100.4 82.3701C100.1 85.4701 98.6001 85.7701 96.2001 84.3701H96.1001Z" fill="#25140A"/>
<path d="M56.8 82.5701C53.6 80.0701 53.3 76.0701 51.8 72.7701C52.1 72.4701 52.3 72.2701 52.6 71.9701C53.9 75.4701 54.7001 79.2701 57.4001 82.1701C57.2001 82.3701 57.0001 82.4701 56.9001 82.6701L56.8 82.5701Z" fill="#483511"/>
<path d="M79.8 67.9701C81.4 67.3701 83.4 68.5701 84.9 67.0701C86.3 67.0701 87.7 67.1701 89.1 67.2701C89.1 68.1701 89.9 68.3701 90.3 68.8701C89.9 69.4701 89.2 69.5701 88.6 69.4701C86.8 69.0701 84.9 68.9701 83.1 69.4701C82.1 69.6701 81.1 69.6701 80.3 69.1701C79.9 68.7701 79.8 68.3701 80 67.7701L79.8 67.9701Z" fill="#D0BD2E"/>
<path d="M97.9001 72.5701C97.5001 74.9701 96.5001 77.2701 95.5001 79.4701C95.0001 80.4701 94.3001 81.2701 93.1001 81.4701C92.9001 81.2701 92.8001 81.0701 92.6001 80.9701C95.5001 79.3701 95.7001 76.1701 96.7001 73.5701C96.9001 73.0701 97.1001 72.4701 97.3001 71.9701C97.5001 72.1701 97.7001 72.3701 97.9001 72.5701Z" fill="#4B360B"/>
<path d="M81.2001 82.2701C79.8001 82.2701 78.3001 82.0701 77.6001 80.8701C75.8001 77.8701 74.7001 79.5701 73.6001 81.3701C73.6001 80.2701 73.1001 78.9701 74.8001 78.5701C76.1001 78.2701 77.4001 78.2701 78.0001 79.7701C78.6001 81.3701 80.3001 81.0701 81.4001 81.6701C81.4001 81.8701 81.4001 82.0701 81.3001 82.2701H81.2001Z" fill="#4D340B"/>
<path d="M59.1001 82.2701C62.1001 82.2701 65.1001 82.2701 68.1001 82.2701C65.1001 83.1701 62.1001 83.1701 59.1001 82.2701Z" fill="#4D340B"/>
<path d="M2.6999 22.4701C2.9999 20.6701 1.0999 19.1701 2.2999 17.0701C3.5999 18.9701 2.7999 20.7701 2.6999 22.4701Z" fill="white"/>
<path d="M153.9 47.5701C150.8 46.5701 148.9 44.3701 148.2 40.7701C150.2 41.5701 151.4 39.9701 153 40.0701C156.2 40.2701 159 39.1701 161.7 37.3701C164 35.7701 165.4 33.6701 165.2 30.9701C165 28.0701 163.2 26.0701 160.5 24.9701C157.7 23.7701 154.7 23.6701 151.7 23.6701C149.2 24.0701 146.7 24.1701 144.5 25.5701C138.5 28.5701 136.8 33.7701 137 39.8701C137.2 45.6701 143.5 52.2701 149.2 52.8701C151.6 53.4701 154.1 53.2701 156.5 52.9701C161.9 51.6701 165.8 47.9701 166.1 43.6701C162.8 47.8701 158.7 49.0701 153.9 47.5701ZM149.9 27.6701C150.9 26.2701 152.2 25.1701 154.1 25.5701C155.9 25.9701 156.8 27.3701 157.3 29.0701C158.2 32.3701 156.8 35.2701 153.3 37.3701C152.8 37.6701 152.2 37.6701 151.6 37.8701C148.1 38.8701 147.6 38.3701 148.1 34.6701C147.9 32.1701 148.4 29.7701 149.8 27.6701H149.9Z" fill="black"/>
<path d="M139.5 37.6701C139 33.1701 141 29.3701 144.6 27.9701C142.1 30.9701 140.5 34.0701 139.5 37.6701Z" fill="white"/>
<path d="M104.5 58.1701C101.7 57.7701 100.2 58.9701 99.6 61.8701C99.3 63.6701 99 66.1701 96.2 66.2701C96.4 63.1701 97.4 60.3701 99.8 58.2701C100.4 57.8701 101 57.4701 101.5 57.0701C102.5 57.4701 103.5 57.7701 104.5 58.1701Z" fill="black"/>
<path d="M68.6999 30.2701C66.5999 26.4701 62.9 25.1701 59.2 23.7701C57.2 23.1701 55.2 23.2701 53.2 23.7701C51.6 24.3701 50.1 25.0701 48.5 25.6701C48.3 26.8701 47.2 27.6701 46.7 28.6701C45.8 30.8701 44.4 32.7701 43.7 34.8701C43.7 34.6701 43.6999 34.5701 43.7999 34.3701C44.3999 32.4701 45.7 30.8701 46.4 29.0701C46.4 28.4701 46.3 27.8701 45.4 27.9701C43 29.6701 42.4 32.5701 41.2 35.0701C40.7 37.1701 40.7 39.2701 41.2 41.3701C44.2 52.1701 55.7 56.4701 64.8 50.2701C65.9 50.4701 66.5999 49.7701 66.6999 48.8701C67.2999 45.0701 68.5999 41.2701 66.6999 37.3701C66.1999 36.0701 66.2 34.9701 68 34.8701C68.7 34.6701 69.4 34.4701 69.8 33.8701C69.8 32.5701 69.1999 31.4701 68.5999 30.3701L68.6999 30.2701ZM60.4 45.2701C59.8 47.4701 60.0999 50.2701 56.5999 50.5701C53.4999 50.8701 52.3 49.3701 52 46.6701C52 45.9701 51.7999 45.2701 51.5999 44.6701C51.7999 40.2701 51.5999 35.8701 51.5999 31.3701C52.3999 26.1701 53.3999 25.3701 57.7999 25.9701C58.4999 26.0701 58.8999 26.3701 59.0999 26.9701C60.1999 28.6701 59.7 30.7701 60.4 32.5701C60.8 36.7701 60.8 40.9701 60.4 45.2701Z" fill="black"/>
<path d="M45.9999 29.0701C46.3999 28.8701 46.8999 28.6701 47.2999 28.3701C46.1999 31.8701 43.6999 34.7701 43.2999 38.5701C42.4999 34.8701 43.8999 31.8701 45.9999 28.9701V29.0701Z" fill="white"/>
<path d="M68.1001 34.3701C68.8001 34.8701 69.6001 35.3701 69.0001 36.3701C68.1001 37.7701 66.9001 36.8701 65.9001 36.7701C64.8001 34.2701 65.8001 33.6701 68.1001 34.3701Z" fill="#DCD156"/>
<path d="M172.7 32.5701C171.9 30.3701 170.2 28.4701 170.2 26.0701C172.5 27.3701 172.3 29.9701 173.3 31.9701C173.6 32.6701 173.3 32.7701 172.7 32.6701V32.5701Z" fill="white"/>
<path d="M172.7 32.5701C172.9 32.3701 173.1 32.1701 173.3 31.8701C174.4 33.7701 175.1 35.8701 175.6 37.9701C173.9 36.5701 173.5 34.3701 172.7 32.5701Z" fill="white"/>
<path d="M162.1 68.0701C162.6 70.3701 162.6 72.5701 161.4 75.4701C161.7 72.4701 161.1 70.1701 162.1 68.0701Z" fill="white"/>
<path d="M162.7 65.5701C165.1 63.6701 165.7 61.3701 167 59.4701C166.4 61.7701 167 64.7701 162.7 65.5701Z" fill="white"/>
<path d="M84.8999 37.9701C86.5999 36.2701 88.4999 34.8701 87.8999 31.8701C87.4999 30.0701 89.4999 29.6701 90.5999 28.8701C94.7999 30.6701 95.1999 32.0701 92.0999 35.2701C91.5999 35.7701 91.4999 36.2701 91.4999 36.8701C91.4999 39.7701 91.4999 42.6701 91.4999 45.5701C91.4999 47.6701 92.4999 46.5701 93.2999 46.2701C93.8999 46.0701 93.9999 46.4701 94.0999 46.9701C92.7999 48.1701 92.1999 50.3701 89.6999 50.0701C89.4999 49.8701 89.3999 49.5701 89.3999 49.2701C90.6999 45.6701 90.0999 41.8701 90.0999 38.1701C90.0999 37.6701 90.0999 37.0701 89.6999 36.8701C88.9999 36.5701 88.5999 37.1701 88.1999 37.4701C86.8999 38.4701 86.0999 40.1701 84.2999 40.3701C84.1999 40.1701 83.9999 40.0701 83.8999 39.8701C84.0999 39.4701 84.3999 39.0701 84.5999 38.6701C84.5999 38.3701 84.7999 38.1701 85.0999 38.0701L84.8999 37.9701Z" fill="#291105"/>
<path d="M93.7001 46.7701C93.5001 46.5701 93.3001 46.4701 93.1001 46.2701C94.9001 45.0701 96.7001 43.8701 98.5001 42.7701C98.9001 43.1701 99.3001 43.5701 99.6001 43.9701C97.8001 45.2701 96.2001 47.0701 93.6001 46.7701H93.7001Z" fill="#5B3C13"/>
<path d="M131.2 74.1701C130.9 71.7701 129.9 69.3701 130.6 66.7701C132.1 69.0701 131.3 71.6701 131.2 74.1701Z" fill="white"/>
<path d="M90.5 60.0701C90 59.6701 89.6 59.2701 89.1 58.8701C85.5 56.6701 81.6 55.2701 77.6 54.0701C76.4 52.6701 73.7 53.9701 73 51.6701C76.3 49.7701 79.4 51.8701 82.4 52.6701C87.2 53.9701 91.6 56.2701 95 60.0701C95.6 60.7701 96.4 61.2701 97.1 61.6701C97.8 62.2701 97.7 62.8701 96.9 63.3701C95.4 63.8701 94.5 62.8701 93.6 61.9701C92.7 61.0701 91.8 60.1701 90.4 59.9701L90.5 60.0701Z" fill="#E7B43C"/>
<path d="M97.0001 62.0701C95.7001 62.6701 95.2 61.4701 94.6 60.8701C90.6 56.5701 85.5001 54.3701 79.8001 52.7701C77.5001 52.1701 75.3001 51.7701 73.0001 51.7701C72.9001 51.5701 72.8 51.4701 72.7 51.2701C72.5 50.9701 72.5 50.6701 72.7 50.3701C74 49.4701 75.3 49.8701 76.7 50.0701C81.6 51.0701 86.1001 52.7701 90.4001 55.1701C91.1001 55.4701 91.7001 55.7701 92.4001 56.1701C92.6001 56.3701 92.9001 56.5701 93.0001 56.7701C94.0001 58.6701 96.7001 59.4701 96.8001 62.0701H97.0001Z" fill="#F6E497"/>
<path d="M72.9001 50.3701C72.9001 50.6701 72.9001 50.8701 72.8001 51.1701C71.2001 52.5701 69.9001 52.3701 68.2001 51.1701C66.5001 49.8701 67.3001 53.2701 65.8001 52.8701C65.5001 50.7701 66.5001 49.9701 68.4001 49.9701C69.5001 49.9701 70.6001 49.9701 71.6001 49.8701C72.3001 49.4701 72.7001 49.5701 72.9001 50.3701Z" fill="#BAAD7A"/>
<path d="M84.0001 40.3701C85.3001 38.9701 86.7001 37.4701 88.0001 36.0701C89.2001 34.6701 90.4001 35.2701 90.4001 36.5701C90.4001 40.8701 91.6001 45.1701 89.7001 49.3701C89.1001 49.8701 88.6001 49.3701 88.2001 48.9701C88.1001 48.6701 88.0001 48.4701 88.0001 48.1701C89.0001 46.2701 88.5001 44.9701 86.3001 44.4701C85.5001 44.1701 84.6001 44.1701 83.8001 44.0701C83.3001 43.9701 82.9001 43.7701 82.7001 43.3701C82.5001 42.8701 82.7001 42.4701 82.8001 42.0701L83.9001 40.4701L84.0001 40.3701Z" fill="#E1BA19"/>
<path d="M72.9 45.1701C72.4 41.9701 74.5 39.3701 75.3 36.4701C75.4 35.9701 75.8 35.6701 76.4 35.6701C77.1 35.6701 77.1 36.3701 77.2 36.7701C78.1 39.6701 79.9 42.1701 79.6 45.3701C79.6 46.0701 80.1 46.0701 80.6 46.0701C81.1 45.7701 81.7 45.6701 82.2 45.8701C83.1 46.4701 82.7 47.3701 82.9 48.1701C82.9 48.4701 82.9 48.7701 82.7 48.9701C81.9 50.5701 80.3 50.5701 78.8 50.5701C78.3 50.5701 78 50.1701 77.8 49.7701C77.5 49.0701 77.6 48.3701 77.7 47.5701C77.7 46.9701 77.8 46.3701 77.7 45.7701C77 43.4701 76.7 43.3701 74.6 44.7701C74.1 45.1701 73.6 45.3701 73 44.7701L72.9 45.1701Z" fill="#E7C221"/>
<path d="M78.1999 47.7701V50.0701C75.8999 50.8701 73.7999 49.8701 71.5999 49.4701C70.9999 49.4701 70.3999 49.4701 69.7999 49.4701C68.9999 49.3701 67.8999 49.9701 67.3999 48.9701C66.9999 48.0701 67.6999 47.2701 68.2999 46.6701C69.7999 45.2701 68.8999 43.7701 68.1999 42.5701C67.3999 41.1701 67.2999 39.8701 68.1999 38.1701C69.8999 40.4701 71.4999 42.4701 71.6999 45.2701C71.8999 45.4701 71.8999 45.7701 71.6999 45.9701C71.2999 46.5701 69.8999 46.8701 70.5999 47.6701C71.3999 48.6701 72.5999 47.6701 73.5999 47.2701C75.0999 47.7701 76.7999 46.5701 78.2999 47.8701L78.1999 47.7701Z" fill="#E4C033"/>
<path d="M71.5999 45.6701C71.5999 45.4701 71.6999 45.2701 71.6999 45.0701C72.0999 45.0701 72.4999 45.0701 72.8999 45.0701C73.9999 44.9701 74.5999 44.4701 74.8999 43.2701C75.0999 42.0701 76.6999 41.9701 76.8999 42.6701C77.5999 44.2701 79.4999 45.6701 78.1999 47.7701C76.5999 47.7701 74.9999 48.6701 73.4999 47.4701C72.4999 47.2701 71.4999 47.0701 71.5999 45.6701Z" fill="#533A12"/>
<path d="M71.7 49.3701C73.9 48.9701 76 50.0701 78.3 49.9701C78.5 50.0701 78.8 50.1701 79 50.2701C81.2 50.0701 83.2 50.7701 85.2 51.5701C85.5 51.5701 85.8 51.7701 86 51.8701C87.2 52.4701 88.4 52.9701 89.6 53.6701C90.5 54.2701 91.5 54.7701 91 56.1701C85.4 53.0701 79.5 50.6701 73 50.2701C72.6 50.0701 72.2 49.8701 71.7 49.7701C71.7 49.5701 71.7 49.4701 71.7 49.2701V49.3701Z" fill="#56400B"/>
<path d="M76.6 34.3701C75.5 34.3701 74.9 33.8701 74.8 32.7701C74.8 32.1701 75.2 31.3701 75.7 31.5701C76.5 31.8701 77.9 31.5701 77.8 33.0701C77.8 33.7701 77.4 34.3701 76.6 34.3701Z" fill="#C6AE5E"/>
<path d="M82.4 46.3701C81.8 46.3701 81.1 46.2701 80.5 46.1701C80.5 44.2701 81.7 43.1701 82.9 41.9701C82.9 42.4701 82.9 42.8701 83 43.3701C83.4 44.1701 83.1 44.9701 82.9 45.7701C82.8 46.0701 82.6 46.2701 82.4 46.3701Z" fill="#B59F56"/>
<path d="M93.7001 46.7701C95.7001 45.9701 97.4001 44.2701 99.7001 43.9701C99.4001 45.5701 99.0001 47.1701 98.7001 48.6701C98.4001 49.0701 98.2001 49.4701 97.9001 49.8701C97.3001 50.4701 96.6001 50.1701 95.9001 49.9701C94.5001 49.3701 93.2001 49.6701 92.1001 50.6701C91.6001 51.1701 91.1001 52.0701 90.1001 51.6701C89.4001 50.9701 88.7001 50.2701 89.8001 49.2701C92.0001 49.7701 92.0001 46.8701 93.8001 46.6701L93.7001 46.7701Z" fill="#E6C124"/>
<path d="M92.5001 56.9701V56.6701C91.9001 55.6701 92.4001 55.0701 93.1001 54.4701C94.0001 53.9701 94.7001 53.1701 95.7001 52.6701C95.8001 52.6701 96.0001 52.6701 96.1001 52.6701C96.1001 54.0701 96.7001 54.5701 97.7001 53.5701C98.3001 52.9701 98.9001 52.7701 99.7001 52.6701C100.4 52.9701 101.6 53.0701 100.9 54.3701C100.4 55.1701 100.4 56.3701 99.1001 56.2701C98.0001 57.0701 99.1001 58.5701 97.9001 59.3701C95.8001 60.0701 95.1001 57.7701 93.5001 57.3701C93.1001 57.1701 92.7001 57.0701 92.4001 56.6701L92.5001 56.9701Z" fill="#EDC818"/>
<path d="M92.5 56.9701C92.9 56.9701 93.2 57.0701 93.6 57.1701C95.4 57.2701 95.6 60.2701 97.9 59.4701C97.9 58.4701 97.9 57.5701 98.1 56.5701C98.3 55.5701 98.8 55.8701 99.1 56.5701C99.3 57.1701 99.5 57.7701 99.7 58.2701C98.5 60.9701 97.3 63.5701 96.1 66.2701C95.9 66.2701 95.7 66.0701 95.5 65.9701C95.5 65.3701 95.5 64.8701 95.5 64.2701C95.2 63.0701 96.2 63.4701 96.7 63.1701C97.1 62.8701 97.6 62.4701 97 61.9701C96 59.8701 93.6 59.0701 92.6 56.9701H92.5Z" fill="#3D2A0A"/>
<path d="M107.6 50.1701C107.5 51.0701 107.1 51.6701 106.1 51.5701C105.2 51.5701 104.6 50.9701 104.7 50.0701C104.7 49.1701 105.3 48.6701 106.2 48.6701C107.1 48.6701 107.6 49.2701 107.7 50.1701H107.6Z" fill="#E8D760"/>
<path d="M101 54.6701C101 53.7701 100.2 53.5701 99.8 52.9701C101 52.2701 102.2 51.7701 103.9 51.7701C103.4 53.4701 102.6 54.4701 101 54.6701Z" fill="#DBB745"/>
<path d="M96.1 49.4701C96.7 49.5701 97.3 49.7701 97.9 49.8701C97.7 51.0701 98.1 52.6701 96.2 52.8701C95.2 51.7701 95.2 50.5701 96.2 49.4701H96.1Z" fill="#E6BE63"/>
<path d="M101.8 43.3701C100.8 43.2701 99.9001 42.8701 100.1 41.9701C100.2 41.3701 100.6 40.4701 101.6 40.4701C102.5 40.4701 103.1 41.0701 103.1 41.9701C103.1 42.8701 102.5 43.2701 101.8 43.4701V43.3701Z" fill="#E1D894"/>
<path d="M81.5 88.4701C78.7 88.5701 76.4 89.7701 74.2 91.1701C72.5 92.2701 70.7 92.3701 68.8 92.2701C68.2 92.2701 67.7 92.1701 67.7 91.5701C67.7 91.0701 67.9 90.5701 68.1 90.1701C68.6 89.4701 68.9 90.1701 69.2 90.4701C71.2 91.5701 72.8 90.4701 74.4 89.5701C76.6 88.2701 78.9 87.5701 81.5 88.3701V88.4701Z" fill="#371E0F"/>
<path d="M72.8999 82.2701C75.4999 81.8701 78.3999 80.7701 79.5999 84.6701C79.2999 85.0701 78.9999 85.5701 78.5999 85.7701C78.1999 85.9701 77.9999 85.5701 78.0999 85.0701C78.6999 82.3701 76.5999 82.9701 75.3999 83.0701C73.6999 83.0701 72.0999 83.6701 72.9999 86.7701C70.9999 84.6701 71.6999 83.5701 72.9999 82.4701L72.8999 82.2701Z" fill="#523A28"/>
<path d="M79.8 67.9701C79.9 68.3701 80 68.6701 80.1 69.0701C79.8 71.4701 78.3 73.3701 77.3 75.4701C76.9 76.3701 76.9 76.5701 77.7 76.9701C76.8 77.7701 75.8 77.0701 74.9 77.3701C74.2 77.5701 73.2 77.2701 73 77.8701C71.6 81.5701 68.3 80.6701 65.6 81.1701C61.8 81.5034 60.7 79.9034 62.3 76.3701C63.1 73.3701 64.7 70.7701 66.9 68.6701C69 68.4701 71 68.2701 73.1 68.0701C75.3 68.0701 77.6 68.0701 79.8 68.0701V67.9701Z" fill="#050704"/>
<path d="M88.5001 68.9701C89.1001 68.9701 89.6001 68.9701 90.2001 68.9701C90.2001 68.9701 90.4001 68.9701 90.5001 68.9701C92.3001 69.7701 95.5001 68.3701 95.8001 71.1701C96.3001 75.8701 93.2001 79.8701 89.4001 80.2701C86.7001 80.4701 83.9001 80.2701 81.1001 80.2701C80.9001 75.9701 83.6001 72.8701 85.7001 69.5701C86.6001 69.0701 87.4001 68.3701 88.5001 68.8701V68.9701Z" fill="#030401"/>
<path d="M57.1 78.0701C56.7 77.8701 56.9 79.3701 56.3 78.4701C55.9 77.8701 55.7 76.9701 55.4 76.2701C54.1334 72.7368 55.3667 70.5368 59.1 69.6701C59.7 69.3701 60.3 69.3701 61 69.6701C61.3 73.2701 59.5 75.8701 57.1 78.1701V78.0701Z" fill="#0F0C07"/>
<path d="M77.7 76.8701C77.3 76.3701 75.5 77.4701 76.3 75.8701C77.4 73.5701 78.3 70.9701 80.1 69.0701C81.1 69.0701 82 69.0701 83 69.0701C84.5 69.2701 84 70.3701 83.7 71.0701C82.9 73.2701 81.6 75.3701 80.4 77.3701C79.8 78.3701 78.9 78.6701 78.1 77.3701C78.1 77.0701 78 76.8701 77.7 76.9701V76.8701Z" fill="#F6F6F6"/>
<path d="M57.1001 78.0701C58.4001 75.2701 59.8001 72.5701 61.1001 69.7701C62.1001 69.2701 63.2001 68.9701 64.1001 69.8701C63.2001 73.8701 61.9001 77.7701 58.5001 80.3701C57.4001 79.9701 57.4001 78.8701 57.1001 77.9701V78.0701Z" fill="#F2F3EA"/>
<path d="M58.5 80.3701C61 77.2701 62 73.4701 64 70.0701C64 69.3701 64.4 68.7701 65.1 68.4701C65.7 68.4701 66.3 68.4701 66.9 68.4701C67 68.8701 67.7 69.3701 67.1 69.7701C64.8 71.3701 63.8 73.7701 63.2 76.2701C62 77.0701 61.7 78.4701 61.1 79.5701C60.6 80.5701 60 81.3701 58.7 81.0701C58.7 80.7701 58.5 80.4701 58.5 80.2701V80.3701Z" fill="#181915"/>
<path d="M78.2 77.2701C78.5 77.4701 78.9 77.6701 79.2 77.8701C80.7 74.9701 82.9 72.4701 83.1 68.9701C84.9 67.7701 86.7 68.6701 88.6 68.9701C87.7 69.3701 86.9 69.7701 86 70.1701C83.7 71.9701 83.4 74.9701 81.8 77.1701C81.2 78.0701 81.3 79.2701 80.2 79.8701C78.7 79.6701 78.4 78.4701 78.2 77.1701V77.2701Z" fill="#1E1815"/>
<path d="M80.1001 79.8701C81.7001 76.4701 83.3001 73.1701 85.0001 69.7701C85.1001 69.4701 85.3001 68.6701 86.0001 69.2701C86.1001 69.3701 86.0001 69.8701 86.0001 70.0701C84.3001 73.3701 82.2001 76.5701 81.2001 80.1701C80.8001 80.1701 80.4001 80.1701 80.2001 79.7701L80.1001 79.8701Z" fill="#A9A4A7"/>
<path d="M58.8 81.2701C59.9 81.2701 60.2 80.3701 60.8 79.5701C61.6 78.4701 61.3001 76.5701 63.3001 76.4701C62.6001 77.9701 61.9 79.3701 61 81.1701C62.8 81.1701 64.2 81.1701 65.7 81.1701C63.4 81.7701 61.1001 81.7701 58.9001 81.2701H58.8Z" fill="#888682"/>
<path d="M65.1001 68.4701C64.7001 68.9701 64.3001 69.5701 64.0001 70.0701C63.1001 69.0701 62.0001 69.9701 61.1001 69.7701C60.4001 69.7701 59.8001 69.6701 59.1001 69.5701C60.2001 68.6701 61.6001 69.2701 62.7001 68.7701C63.5001 68.7701 64.3001 68.5701 65.1001 68.4701Z" fill="#6C6120"/>
<path d="M77.6001 54.0701C82.0001 54.3701 85.8001 56.0701 89.1001 58.8701C85.2001 57.3701 81.3001 56.0701 77.6001 54.0701Z" fill="#552B01"/>
<path d="M96.7 63.2701C96.3 63.6701 95.9 63.9701 95.5 64.3701C93.8 62.9701 92.2 61.5701 90.5 60.1701C92.1 59.3701 92.7 60.9701 93.7 61.5701C94.7 62.1701 95.4 63.2701 96.6 63.3701L96.7 63.2701Z" fill="#794F07"/>
<path d="M89.8001 49.3701C89.8001 50.2701 90.1001 51.0701 90.7001 51.6701C90.9001 51.8701 91.0001 52.1701 91.0001 52.5701C90.5001 53.9701 89.6001 54.0701 88.4001 53.5701C87.4001 53.1701 86.4001 52.6701 85.4001 52.4701C85.0001 51.1701 86.2001 50.5701 86.7001 49.6701C87.0001 49.1701 87.4001 48.7701 87.9001 48.5701C88.2001 48.5701 88.4001 48.5701 88.6001 48.7701C89.0001 48.9701 89.5001 49.1701 89.9001 49.3701H89.8001Z" fill="#F5C40C"/>
<path d="M92.7 31.4701C93.5 32.8701 92.7 33.7701 91.6 34.2701C90.7 34.6701 89.8 34.3701 89.2 33.5701C88.5 32.5701 88.5 31.5701 89.6 30.7701C90.7 30.7701 91.7 31.1701 92.7 31.4701Z" fill="#C4B836"/>
<path d="M92.7001 31.4701C91.4001 32.4701 90.6001 31.1701 89.6001 30.7701C91.0001 29.6701 91.9001 30.2701 92.7001 31.4701Z" fill="#EBE3B1"/>
<path d="M85.3 52.3701C87.2 51.7701 89.1 54.5701 90.9 52.1701C92.5 52.1701 92.8 53.5701 93.8 54.3701C93.4 55.1701 92.4 55.6701 92.4 56.6701C91.9 56.5701 91.4 56.3701 90.9 56.2701C89.9 53.6701 87 53.9701 85.3 52.3701Z" fill="#E1C437"/>
<path d="M88.5 48.7701H88.3H88.1C87.1 48.9701 86.6 50.0701 85.7 50.2701C84.1 50.5701 83.3 49.8701 83.2 48.3701C83.2 48.0701 83.4 47.8701 83.6 47.5701C84.4 47.1701 85.4 47.9701 86.1 47.1701C85.9 46.2701 85 46.5701 84.5 46.1701C84.2 45.9701 84.1 45.7701 83.9 45.5701C83.6 44.8701 83.7 44.1701 84.1 43.4701C85 43.4701 85.9 43.1701 86.7 43.9701C88.5 44.9701 90.3 46.0701 88.4 48.4701C88.4 48.5701 88.4 48.6701 88.4 48.8701L88.5 48.7701Z" fill="#CA4C35"/>
<path d="M88.3999 48.3701C89.4999 46.1701 88.1999 45.0701 86.3999 44.2701C86.3999 44.2701 86.3999 44.0701 86.3999 43.9701C86.3999 43.9701 86.4999 43.8701 86.5999 43.7701C89.8999 44.4701 90.2999 45.6701 88.2999 48.2701L88.3999 48.3701Z" fill="#863403"/>
<path d="M84.0999 43.4701C84.0999 44.1701 84.0999 44.9701 84.0999 45.6701C83.5999 46.2701 83.0999 46.2701 82.3999 45.9701C82.3999 45.0701 82.3999 44.1701 82.9999 43.4701C83.2999 43.4701 83.6999 43.4701 83.9999 43.4701H84.0999Z" fill="#F8DCC3"/>
<path d="M87.1999 49.7701C86.9999 50.9701 85.7999 51.4701 85.2999 52.4701C83.1999 51.7701 80.9999 51.0701 78.8999 50.3701C79.9999 49.5701 81.6999 50.2701 82.3999 48.6701C83.7999 49.9701 85.2999 50.3701 87.0999 49.6701L87.1999 49.7701Z" fill="#F1C540"/>
<path d="M87.2 49.7701C85.4 50.6701 83.6 51.1701 82.5 48.7701C82.5 48.5701 82.5 48.3701 82.5 48.1701C82.5 47.1701 83.1 47.1701 83.7 47.6701C83.7 49.3701 84.4 50.3701 86.3 49.3701C86.9 49.0701 87.6 48.9701 88.2 48.8701C87.9 49.1701 87.6 49.5701 87.3 49.8701L87.2 49.7701Z" fill="#963502"/>
<path d="M83.6 47.6701C83.1 47.6701 82.7 47.6701 82.4 48.1701C81.6 47.5701 82.4 46.9701 82.4 46.3701C82.4 46.2701 82.4 46.0701 82.4 45.8701C83 45.8701 83.5 45.6701 84.1 45.5701L84.3 45.7701C84.8 46.5701 84.3 47.0701 83.6 47.4701V47.6701Z" fill="#CA4C35"/>
<path d="M71.5999 45.6701C72.1999 46.2701 72.7999 46.8701 73.4999 47.4701C72.4999 49.6701 70.6999 48.5701 69.1999 48.4701C68.7999 48.4701 68.7999 47.7701 69.1999 47.4701C69.9999 46.7701 69.8999 44.8701 71.6999 45.6701H71.5999Z" fill="#F5CE05"/>
<path d="M93.8001 54.4701C92.0001 54.8701 91.4001 53.6701 90.9001 52.2701C90.9001 52.0701 90.7001 51.8701 90.6001 51.7701C91.8001 49.0701 93.3001 48.4701 96.0001 49.5701C96.0001 50.6701 96.0001 51.8701 96.0001 52.9701C95.3001 53.6701 94.9001 54.6701 93.7001 54.4701H93.8001Z" fill="#52381E"/>
<path d="M97.9 59.4701C97.7 60.2701 97.4 60.8701 96.6 60.0701C95.6 59.1701 94.6 58.1701 93.7 57.1701C95.7 56.8701 96.1 59.4701 98 59.4701H97.9Z" fill="#E1C437"/>
<path d="M83.6001 47.5701C83.8001 46.9701 84.0001 46.4701 84.3001 45.8701C84.3001 45.8701 84.5001 45.8701 84.6001 45.8701C85.6001 45.8701 86.9001 45.4701 87.4001 46.8701C87.6001 47.4701 87.3001 47.8701 86.8001 48.0701C85.7001 48.4701 84.5001 49.0701 83.7001 47.5701H83.6001Z" fill="#BD1A2D"/>
</svg>
