<svg xmlns="http://www.w3.org/2000/svg" viewBox="0 0 276.98 82.26"><g id="coin-poker"><path d="M65.6,45.34a7.73,7.73,0,0,1-7.31,5.39,7,7,0,0,1-5.06-1.88c-1.7-1.61-3.32-3.32-5-4.94-.67-.64-.62-1.1,0-1.72,1.69-1.63,3.28-3.37,5-4.95a7.66,7.66,0,0,1,9.21-.61A7.82,7.82,0,0,1,65.6,45.34Zm16.74-4.7A40.43,40.43,0,1,1,40.73.68,40.33,40.33,0,0,1,82.34,40.64ZM52.29,62.12c-1.32-1.76-3.49-2-5.58-.59-3.49,2.34-6.2,2.34-9.69,0-2.17-1.45-4.4-1.17-5.71.72s-.82,4,1.29,5.62a15.42,15.42,0,0,0,18.61-.09C53.25,66.17,53.67,64,52.29,62.12Zm17-29.73a15.33,15.33,0,0,0-22-.13c-4.1,4.07-8.16,8.19-12.26,12.27a67,67,0,0,1-5,4.73,7.39,7.39,0,0,1-8.41.38A7.53,7.53,0,0,1,18,42a7.42,7.42,0,0,1,5.58-6.34,7.68,7.68,0,0,1,7.56,2,3.63,3.63,0,0,0,4.73.4c1.63-1,1.93-2.59,1.55-4.34a5.94,5.94,0,0,0-1.48-2.2A7.69,7.69,0,0,1,45.64,20a9,9,0,0,1,3.07,3.05,3.74,3.74,0,0,0,3.83,1.62,3.66,3.66,0,0,0,2.93-2.45c.62-1.58,0-3-.9-4.26a15.44,15.44,0,0,0-16.81-6.1A15.24,15.24,0,0,0,26.63,25.79c-.09,1.41-.47,1.9-2,2-8.18.4-14.38,7.05-14.43,16.63.26,5.23,3.21,10.18,9.27,12.77s11.71,1.51,16.63-2.88c1.71-1.53,3.29-3.19,4.87-4.85.67-.71,1.13-.77,1.83,0,1.34,1.44,2.81,2.76,4.18,4.17a15.38,15.38,0,1,0,22.3-21.2ZM41.9,22.92A3.93,3.93,0,0,0,38,26.78a3.8,3.8,0,0,0,3.68,3.84,3.85,3.85,0,0,0,4-3.73A4,4,0,0,0,41.9,22.92Z" style="fill:#c43850"/><path d="M99.14,43.49c.2-4.83,2.09-8.69,6.35-10.89a13.36,13.36,0,0,1,13.64.48A2.74,2.74,0,0,1,120.34,37c-.86,1.32-2.33,1.49-4,.47-4.11-2.46-8.1-1.84-10.38,1.62a8.24,8.24,0,0,0,.91,10c2.51,2.52,6.27,2.69,9.6.44,1.69-1.14,3.13-1.09,4,.14s.54,2.63-1.18,3.85a12.6,12.6,0,0,1-13.52,1C101.2,52.34,99.3,48.34,99.14,43.49Zm129.28-.84c0-3.24,0-6.48,0-9.72a2.52,2.52,0,0,0-2.59-2.7,2.45,2.45,0,0,0-2.56,2.54q-.06,10.18,0,20.38a2.34,2.34,0,0,0,2.53,2.52,2.38,2.38,0,0,0,2.6-2.44,21.63,21.63,0,0,0,0-2.28c0-1.32,1-2,1.91-2.39.71-.36.95.79,1.35,1.29,1.17,1.5,2.23,3.08,3.39,4.6,1,1.34,2.75,1.71,3.8.77,1.3-1.14,1.09-2.44.14-3.72-1.29-1.73-2.52-3.5-3.87-5.19-.74-.93-.82-1.55.22-2.3a28.78,28.78,0,0,0,3-2.61c1.41-1.37,1.59-2.78.48-3.81-1.3-1.21-2.54-.75-3.69.33l-6.67,6.23C228.46,43.38,228.42,43,228.42,42.65ZM180,45.92c0,2.41,0,4.83,0,7.25a2.21,2.21,0,0,0,2.45,2.5c1.55,0,2.25-1,2.36-2.44s-.66-3.39.34-4.16,2.8-.2,4.25-.3a8.86,8.86,0,0,0-.52-17.7A8.63,8.63,0,0,0,180,39.43c-.09,2.16,0,4.33,0,6.49Zm4.83-5.58c0-2.82,2.12-4.79,4.53-4.38a3.94,3.94,0,0,1,3.39,4.15,3.84,3.84,0,0,1-3.8,3.73c-.5,0-1,0-2,0C184.37,43.74,184.81,44.71,184.82,40.34ZM133.64,56c5.74,0,10.08-4.16,10.12-9.68s-4.34-9.52-10-9.48-9.88,4.12-9.86,9.63A9.52,9.52,0,0,0,133.64,56Zm.23-4.53A4.87,4.87,0,0,1,129,46.25a4.79,4.79,0,0,1,4.62-5,4.9,4.9,0,0,1,5,5.14C138.59,49.38,136.71,51.41,133.87,51.43Zm65.66-5A9.55,9.55,0,0,0,209.46,56c5.62-.09,10-4.3,10-9.65s-4.29-9.52-10-9.51S199.52,40.93,199.53,46.39Zm5.05-.11a4.86,4.86,0,0,1,4.85-5.07,5.1,5.1,0,0,1,4.87,5.11,4.77,4.77,0,0,1-4.75,5.11A4.94,4.94,0,0,1,204.58,46.28Zm53,1.81c1.77,0,2.52-1,2.58-2.64a8.88,8.88,0,0,0-14.73-6.53,9.62,9.62,0,0,0-3,9.71c1.54,7.5,10.32,9.06,15.27,5.48a2.12,2.12,0,0,0,.74-3.13c-.76-1.17-1.91-.95-3-.34a9.7,9.7,0,0,1-2.44,1,4.56,4.56,0,0,1-5.26-2.44c-.3-.75-.28-1.19.72-1.17,1.52,0,3,0,4.58,0Zm-8.29-3.18c-.61,0-1.45.32-1.77-.22s.2-1.31.54-1.9A3.51,3.51,0,0,1,251.75,41,3.7,3.7,0,0,1,255,43.77c.33,1,0,1.22-.9,1.16s-1.9,0-2.84,0C250.58,44.92,250,45,249.32,44.91ZM158,46.22c0,2.29-.07,4.58,0,6.86a2.55,2.55,0,0,0,3.75,2.35,2.7,2.7,0,0,0,1.39-2.71c0-2.79,0-5.6.18-8.38a3.09,3.09,0,0,1,4.46-2.61c1.62.69,1.83,2.18,1.87,3.66.06,2.48,0,5,.05,7.43,0,1.93,1,2.88,2.57,2.86s2.53-1,2.54-2.91c0-3.24.05-6.48,0-9.72-.08-4-2.53-6.33-6.55-6.25a7.72,7.72,0,0,0-4.37,1.11c-.52.35-.9.48-1.41-.14a2.35,2.35,0,0,0-2.94-.64,2.71,2.71,0,0,0-1.57,2.8c.05,2.09,0,4.19,0,6.29Zm106.25-.07c0,2.29-.06,4.57,0,6.86a2.42,2.42,0,0,0,2.58,2.67c1.73,0,2.49-1.1,2.58-2.68.08-1.39.05-2.79,0-4.19-.1-3.4.75-6.13,4.53-7.12a2.25,2.25,0,0,0,1.52-2.75,2.21,2.21,0,0,0-2.36-2,4.28,4.28,0,0,0-3.24.78c-.47.42-.79.45-1.25,0a2.41,2.41,0,0,0-3-.49,2.66,2.66,0,0,0-1.43,2.69c0,2.09,0,4.19,0,6.28ZM153,40c0-1.94-1-3-2.64-3s-2.55,1-2.57,2.9q-.09,6.47,0,12.93c0,2,1.06,3,2.73,2.92s2.44-1.08,2.48-3c0-2.15,0-4.31,0-6.46S153.05,42.06,153,40Zm.3-7.28c0-1.42-1.13-2.38-2.83-2.41s-2.93.88-2.92,2.45,1,2.39,2.78,2.41S153.33,34.2,153.31,32.69ZM51.21,67.78c2-1.61,2.46-3.82,1.08-5.66s-3.49-2-5.58-.59c-3.49,2.34-6.2,2.34-9.69,0-2.17-1.45-4.4-1.17-5.71.72s-.82,4,1.29,5.62a15.42,15.42,0,0,0,18.61-.09ZM38,26.78a3.8,3.8,0,0,0,3.68,3.84,3.85,3.85,0,0,0,4-3.73A3.84,3.84,0,1,0,38,26.78ZM68.9,54.16A15.33,15.33,0,0,1,47,53.59c-1.37-1.41-2.84-2.73-4.18-4.17-.7-.76-1.16-.7-1.83,0-1.58,1.66-3.16,3.32-4.87,4.85-4.92,4.39-10.6,5.47-16.63,2.88s-9-7.54-9.27-12.77c0-9.58,6.25-16.23,14.43-16.63,1.5-.07,1.88-.56,2-2A15.24,15.24,0,0,1,37.76,11.86,15.44,15.44,0,0,1,54.57,18c.92,1.3,1.52,2.68.9,4.26a3.66,3.66,0,0,1-2.93,2.45,3.74,3.74,0,0,1-3.83-1.62A9,9,0,0,0,45.64,20a7.69,7.69,0,0,0-9.72,11.53,5.94,5.94,0,0,1,1.48,2.2c.38,1.75.08,3.31-1.55,4.34a3.63,3.63,0,0,1-4.73-.4,7.68,7.68,0,0,0-7.56-2A7.42,7.42,0,0,0,18,42a7.53,7.53,0,0,0,3.66,7.61,7.39,7.39,0,0,0,8.41-.38,67,67,0,0,0,5-4.73c4.1-4.08,8.16-8.2,12.26-12.27A15.39,15.39,0,1,1,68.9,54.16ZM62.46,36.63a7.66,7.66,0,0,0-9.21.61c-1.75,1.58-3.34,3.32-5,4.95-.64.62-.69,1.08,0,1.72,1.71,1.62,3.33,3.33,5,4.94a7,7,0,0,0,5.06,1.88,7.73,7.73,0,0,0,7.31-5.39A7.82,7.82,0,0,0,62.46,36.63Z" style="fill:#fff"/></g></svg>