<?xml version="1.0" encoding="UTF-8"?>
<svg xmlns="http://www.w3.org/2000/svg" width="200" height="35" version="1.1" viewBox="0 0 200 35">
  <defs>
    <style>
      .cls-1 {
        fill: #04c490;
      }

      .cls-1, .cls-2 {
        fill-rule: evenodd;
      }

      .cls-2 {
        fill: #fff;
      }
    </style>
  </defs>
  <!-- Generator: Adobe Illustrator 28.7.1, SVG Export Plug-In . SVG Version: 1.2.0 Build 142)  -->
  <g>
    <g id="Layer_1">
      <g>
        <path class="cls-1" d="M140.4,18.7c-1.3-1.1-3-1.8-4.7-2.1,2.1-.6,3.8-1.5,5.1-2.8,1.4-1.2,2.1-3,2.1-5.2s-1.2-4.7-3.6-5.8c-3.2-1.3-6.7-2-10.2-1.8h-10l-4.7,33h11.4c5.8,0,9.9-1,12.5-2.8,2.5-1.9,3.9-4.5,3.9-7.6s-.6-3.9-1.8-4.8h0ZM132.1,12.7c-.6.7-1.8,1.1-3.6,1.1h-1.7l.9-6.1h1.4c1.4,0,2.4.2,3,.6.6.3.9.9.9,1.7,0,1.1-.3,2.1-.9,2.8h0ZM131.2,26c-.8.8-2.2,1.2-4.3,1.2h-1.9l1-7.2h2.3c2.7,0,4,1,4,2.8s-.4,2.5-1.2,3.3ZM169.7,1l-1.9,6.8h-10.7l-.9,6.2h9.4l-.8,6.5h-9.4l-.9,6.7h11.4l-.9,6.8h-21.1L148.5,1h21.3,0ZM199.1,1l-2,7.3h-7.4l-3.6,25.7h-9.6l3.6-25.7h-8.9l2.1-7.3s25.7,0,25.7,0Z"/>
        <path class="cls-2" d="M26.5,3.5c-2.8-1.8-6.1-2.7-9.4-2.5H5.4L.9,34h9.6l1.4-10.3h3.2c3.4,0,6.2-.7,8.4-1.9,2-1.2,3.7-2.9,4.8-5,1-2.1,1.5-4.1,1.5-6.3,0-3.1-1.1-5.5-3.4-7.1ZM18.9,15c-.8,1.2-2.1,1.8-3.9,1.8h-2.1l1.2-8.9h2.1c2.5,0,3.9,1.1,3.9,3.3s-.4,2.8-1.2,3.9h0ZM44,1l-3.5,25.5h13.4l-3.1,7.5h-20.9L34.6,1h9.6-.2ZM74.6,27.6l.3,6.4h10.1L80.2,1h-11.4l-14,33h10l2.1-6.4h7.8,0ZM74.2,20.7h-5.2l4.4-13.6.8,13.7h0ZM102.8,34h12.1L119.3,1h-8.3l-1.5,10c-.7,4.9-.8,10-.3,14.9L105,1h-11.9l-4.6,33h8.4l1.4-9.7c.6-4.7.8-9.4.5-14v-1.2c0,0,3.9,25,3.9,25h0Z"/>
      </g>
    </g>
  </g>
</svg>