<svg width="150" height="36" viewBox="0 0 150 36" fill="none" xmlns="http://www.w3.org/2000/svg">
<path d="M150 27.1601C149.976 27.3578 149.948 27.555 149.929 27.7534C149.812 28.9549 149.537 30.1138 148.992 31.1981C148.086 33.0018 146.649 34.2045 144.77 34.9003C143.722 35.288 142.636 35.4774 141.523 35.5477C140.167 35.6334 138.83 35.5409 137.514 35.1962C136.148 34.8386 134.92 34.2238 133.876 33.2572C132.655 32.1252 131.933 30.7164 131.534 29.1052C131.594 29.1013 131.644 29.0955 131.695 29.0952C133.105 29.0948 134.516 29.0952 135.926 29.0941C136.017 29.0941 136.092 29.0902 136.142 29.1999C136.82 30.6845 138.04 31.3896 139.608 31.5779C140.649 31.7027 141.683 31.6704 142.687 31.3405C144.036 30.8964 144.831 29.9352 145.195 28.5873C145.36 27.9797 145.43 27.3589 145.441 26.7333C145.456 25.9274 145.445 25.1211 145.445 24.3148C145.445 24.2936 145.441 24.2721 145.44 24.2546C145.189 24.5892 144.956 24.9328 144.69 25.2477C143.933 26.1426 142.982 26.7717 141.847 27.0418C139.103 27.6946 136.577 27.2122 134.367 25.4109C133.143 24.4134 132.388 23.0914 131.918 21.5989C131.607 20.6108 131.448 19.5961 131.406 18.5624C131.397 18.3422 131.389 18.1213 131.389 17.901C131.388 14.748 131.389 11.5949 131.389 8.4418V8.23485H135.943V8.45436C135.943 11.691 135.934 14.9277 135.948 18.1643C135.952 19.1209 136.153 20.0477 136.614 20.897C137.221 22.0136 138.171 22.6778 139.407 22.9382C140.53 23.175 141.639 23.1344 142.708 22.6907C143.987 22.1603 144.756 21.175 145.156 19.8766C145.37 19.1819 145.444 18.4667 145.445 17.7429C145.446 14.6493 145.445 11.5561 145.445 8.4626V8.22265H145.663C147.032 8.22265 148.401 8.22265 149.769 8.22194C149.846 8.22194 149.923 8.21082 149.999 8.20508V27.1598L150 27.1601Z" fill="white"/>
<path d="M103.85 0V27.0395H99.3135C99.3135 26.9513 99.3135 26.8631 99.3135 26.7748C99.3135 17.9386 99.3135 9.10201 99.3128 0.265776C99.3128 0.177184 99.3016 0.0885919 99.2959 0C100.814 0 102.332 0 103.85 0Z" fill="white"/>
<path d="M80.0394 24.3939V35.069H75.5123C75.5094 35.0073 75.504 34.9445 75.504 34.8814C75.5037 29.024 75.4926 23.1665 75.5116 17.309C75.5166 15.8173 75.8606 14.3826 76.4976 13.0247C77.0001 11.953 77.6844 11.0122 78.5588 10.2174C79.7425 9.14136 81.1277 8.43155 82.6814 8.06678C84.9644 7.53092 87.2269 7.6084 89.446 8.39353C90.6568 8.82178 91.7375 9.47636 92.6765 10.3587C94.1976 11.788 95.0958 13.5512 95.4957 15.5842C95.6574 16.4059 95.7259 17.2366 95.7073 18.0719C95.6725 19.6257 95.3759 21.1242 94.6747 22.5234C93.8296 24.2099 92.5682 25.4993 90.909 26.3978C89.7404 27.0305 88.4897 27.3995 87.1666 27.5078C85.6057 27.6355 84.0953 27.4429 82.6807 26.7245C81.6269 26.189 80.7754 25.4236 80.1151 24.4448C80.1018 24.4254 80.0879 24.4064 80.0742 24.387C80.0628 24.3896 80.0513 24.3921 80.0398 24.3946L80.0394 24.3939ZM91.1206 17.6092C91.1091 16.8718 91.0019 16.1204 90.7261 15.3995C90.1924 14.0049 89.2526 12.9885 87.8664 12.4182C86.5594 11.8805 85.2093 11.8253 83.8568 12.2112C82.2894 12.6585 81.1693 13.6466 80.5362 15.1505C79.9283 16.5946 79.8852 18.0834 80.3328 19.5737C80.769 21.0259 81.6667 22.121 83.0544 22.7659C84.3622 23.3734 85.7326 23.4552 87.1225 23.1066C88.4374 22.777 89.4811 22.0428 90.2171 20.8983C90.8541 19.9076 91.1077 18.8054 91.1206 17.6089V17.6092Z" fill="white"/>
<path d="M8.06836 28.2709C9.81079 25.588 11.5299 22.941 13.249 20.294C13.2608 20.2965 13.2723 20.2987 13.2842 20.3012C13.3118 21.4464 13.3398 22.592 13.3677 23.7563H13.5542C16.656 23.7563 19.7578 23.7631 22.8593 23.7516C23.6508 23.7487 24.3965 23.5547 25.007 23.0081C25.5113 22.5565 25.7562 21.973 25.8405 21.3137C25.956 20.4074 25.7986 19.5666 25.2039 18.8453C24.7172 18.2553 24.0683 17.953 23.3223 17.8464C23.1283 17.8188 22.9303 17.8099 22.7341 17.8099C20.1703 17.8077 17.6065 17.8084 15.0427 17.8084H14.8153C14.976 17.5376 15.1191 17.2934 15.2655 17.0506C15.9484 15.9175 16.6345 14.787 17.3113 13.6503C17.3877 13.5219 17.4709 13.4875 17.6101 13.4875C18.4343 13.4875 19.2586 13.4854 20.0824 13.4707C20.8934 13.4559 21.7086 13.4692 22.5146 13.3921C23.8944 13.2605 24.7699 12.3147 24.8725 10.9334C24.9213 10.2785 24.8445 9.6447 24.5074 9.07083C24.0963 8.37142 23.426 8.073 22.6591 7.9593C22.3772 7.9177 22.0888 7.90443 21.8037 7.90371C19.7775 7.89905 17.7518 7.9012 15.7256 7.9012H15.4764C15.6406 7.59418 15.7891 7.31405 15.9401 7.03501C16.5635 5.88224 17.1912 4.73198 17.8066 3.5749C17.897 3.40489 17.9935 3.34356 18.1894 3.345C19.6832 3.35468 21.1774 3.3389 22.6717 3.3536C23.9708 3.36652 25.2358 3.57096 26.4151 4.15093C28.1558 5.00672 29.2088 6.40088 29.5886 8.29179C29.882 9.75051 29.7992 11.1866 29.1909 12.5654C28.6604 13.7673 27.782 14.6446 26.6328 15.2629C26.588 15.287 26.5446 15.3146 26.4664 15.3605C26.6608 15.434 26.8211 15.4907 26.9782 15.5545C28.749 16.2758 29.999 17.5132 30.5531 19.3518C31.1582 21.3596 31.0065 23.3269 29.9498 25.1712C29.2393 26.4115 28.154 27.2246 26.8276 27.7232C25.9273 28.0618 24.9912 28.2268 24.0303 28.2529C23.6544 28.263 23.2785 28.2702 22.9027 28.2705C18.0441 28.2716 13.1852 28.2712 8.3266 28.2712H8.06908L8.06836 28.2709Z" fill="white"/>
<path d="M54.2206 19.2427H38.8372C38.9423 19.7843 39.1241 20.2861 39.3834 20.7552C40.2489 22.319 41.6065 23.1479 43.3575 23.3603C44.4662 23.4948 45.5598 23.409 46.6218 23.0453C47.3825 22.7849 48.0314 22.356 48.5518 21.7369C48.5981 21.6817 48.6856 21.629 48.7541 21.6286C50.2899 21.6225 51.8258 21.6239 53.3616 21.6243C53.396 21.6243 53.4308 21.6311 53.5004 21.6386C53.3774 21.9123 53.2716 22.1745 53.1446 22.4259C52.6281 23.4474 51.9438 24.3434 51.0876 25.1038C50.1855 25.905 49.1562 26.494 48.0235 26.905C46.5952 27.4233 45.1157 27.599 43.6072 27.532C41.9404 27.4581 40.3565 27.0553 38.8928 26.2357C37.2956 25.3412 36.0618 24.0891 35.201 22.4715C34.5328 21.2161 34.1716 19.8718 34.0733 18.4604C33.9496 16.6843 34.1978 14.9612 34.9399 13.3314C35.7942 11.4549 37.1292 10.0123 38.9387 9.01519C40.3465 8.23938 41.8615 7.84485 43.4615 7.75554C45.4647 7.64363 47.3854 7.95747 49.1795 8.88607C50.8857 9.76912 52.1923 11.0621 53.0954 12.7604C53.7457 13.9831 54.1187 15.2909 54.2098 16.6649C54.2662 17.5128 54.2202 18.3672 54.2202 19.242L54.2206 19.2427ZM49.4155 15.5911C49.4062 15.548 49.4022 15.519 49.3932 15.4917C48.9259 14.0208 48.0181 12.9362 46.5845 12.325C45.6046 11.9072 44.5766 11.7881 43.5211 11.8964C41.4971 12.1044 40.0079 13.0721 39.1772 14.9659C39.0908 15.1632 39.0269 15.3701 38.9459 15.5911H49.4155Z" fill="white"/>
<path d="M127.66 27.0447H123.504V23.4407C123.34 23.7485 123.206 24.025 123.049 24.2872C122.098 25.8743 120.697 26.8646 118.914 27.2939C116.785 27.8061 114.724 27.5432 112.739 26.6383C111.662 26.1473 110.721 25.4629 109.918 24.596C108.906 23.5042 108.225 22.2273 107.836 20.7941C107.608 19.9516 107.496 19.0929 107.468 18.2192C107.41 16.3957 107.722 14.6497 108.527 13.0041C108.921 12.1967 109.425 11.4618 110.043 10.8058C111.766 8.97551 113.921 8.04691 116.39 7.79763C118.18 7.61686 119.936 7.78759 121.632 8.42388C122.848 8.88011 123.931 9.55082 124.853 10.4669C126.239 11.8452 127.067 13.5202 127.444 15.4277C127.595 16.1959 127.663 16.971 127.662 17.7544C127.657 20.7758 127.66 23.7969 127.66 26.8183V27.045V27.0447ZM117.613 23.3313C118.02 23.2818 118.433 23.2589 118.833 23.1782C120.497 22.8432 121.745 21.9379 122.499 20.4071C123.156 19.0753 123.264 17.669 122.966 16.2279C122.693 14.9069 122.053 13.7996 120.945 13.007C119.502 11.9747 117.886 11.7663 116.189 12.1401C114.567 12.4977 113.366 13.4345 112.642 14.9363C112.009 16.2497 111.902 17.6335 112.202 19.0499C112.484 20.3834 113.148 21.4845 114.265 22.288C115.262 23.0057 116.396 23.294 117.614 23.331L117.613 23.3313Z" fill="white"/>
<path d="M4.75921 17.1625H0C0.167141 16.6923 0.32675 16.2386 0.489228 15.7859C0.977739 14.4255 1.46768 13.065 1.95727 11.7049C2.65022 9.77924 3.34318 7.85353 4.03613 5.92782C4.32594 5.12153 4.61897 4.31631 4.90089 3.50751C4.94465 3.38162 5.00275 3.3479 5.129 3.3479C8.43954 3.35113 11.7501 3.35041 15.0606 3.35077C15.1184 3.35077 15.1761 3.35615 15.2665 3.36081C13.4351 6.75349 11.6159 10.1239 9.77846 13.5277H14.335C9.569 20.9454 4.82664 28.3276 0.0846465 35.7098C1.46661 29.4843 2.93573 23.2915 4.75921 17.1625Z" fill="#DC146E"/>
<path d="M57.2158 1.56812H61.7476V8.21681H71.4594V12.3537H61.7519V12.5625C61.7519 14.9211 61.7484 17.2797 61.7545 19.6383C61.7562 20.2402 61.7961 20.8395 61.9966 21.4177C62.3086 22.3173 62.9072 22.9134 63.8315 23.1626C64.5847 23.3657 65.3433 23.3606 66.0908 23.1415C67.1596 22.8277 67.7285 22.0576 67.9433 21.007C68.0226 20.619 68.0298 20.2154 68.061 19.8184C68.0735 19.6588 68.0631 19.4977 68.0631 19.3252H72.5989C72.5989 19.7434 72.6175 20.1599 72.5949 20.5741C72.5483 21.4281 72.3966 22.2642 72.1132 23.0744C71.7775 24.0349 71.2657 24.8875 70.5322 25.5948C69.6251 26.4692 68.5319 27.0108 67.3103 27.2806C65.5646 27.6665 63.8175 27.6654 62.0923 27.164C59.729 26.4771 58.224 24.9288 57.5566 22.5655C57.317 21.7172 57.2158 20.8492 57.2158 19.9687V1.56812Z" fill="white"/>
</svg>
