<?xml version="1.0" encoding="utf-8"?>
<!-- Generator: Adobe Illustrator 23.0.6, SVG Export Plug-In . SVG Version: 6.00 Build 0)  -->
<svg version="1.1" id="Layer_1" xmlns="http://www.w3.org/2000/svg" xmlns:xlink="http://www.w3.org/1999/xlink" x="0px" y="0px"
	 width="200px" height="101px" viewBox="0 0 200 101" style="enable-background:new 0 0 200 101;" xml:space="preserve">
<style type="text/css">
	.st0{fill:#FEFEFE;}
</style>
<g>
	<path class="st0" d="M36.8,1.2C43,0.9,48.8,2.1,54.2,5c8,4.3,10.7,14.2,6.2,22c-2.6,4.5-9.5,6.7-14.2,4.6c-2-0.9-2.8-1.9-0.6-3.6
		c0.8-0.6,1.6-1.4,2.3-2.2c5.7-6.4,3.7-14.2-4.6-16.3c-8.1-2-16.2-0.9-23.1,4.4c-5.4,4.2-6.8,10.2-6.4,16.6c0.3,3.9,3.3,6.2,6.2,8.4
		c4.7,3.4,9.9,5.9,15.1,8.4c5.6,2.8,11.3,5.5,16.3,9.4c8.2,6.5,10,13.9,5.6,23.5c-2.2,5-5.6,9-10.2,11.8
		c-10.2,6.3-21.3,9.4-33.4,7.5C3.7,97.9,0.2,89.8,1.3,81.1c0.4-3.5,1.4-7,3.2-10.2c3.2-5.8,8.3-8.4,14.7-8.9
		c1.7-0.1,3.1,0.4,4.4,1.5c2.4,2.1,2.2,3.4-0.6,4.9c-5.3,2.8-9.1,6.7-10.4,12.7c-1.7,7.5,3.5,10.7,8.9,10.6c7.7-0.2,14.6-2.9,20-8.6
		c3.4-3.5,4.9-7.8,4.8-12.7c-0.1-3.6-2.3-6-5-8c-5.5-4.1-12-6.6-18.1-9.6c-4.5-2.2-9-4.5-13.1-7.6C-1.5,36.4-2.1,19.5,8.8,9.8
		C14,5.1,20.4,3.2,27.1,1.9C30.3,1.3,33.6,1.3,36.8,1.2z"/>
	<path class="st0" d="M198.9,82.9c-1.3-1.1-2.2,1.2-3.5,1.8c-0.4,0.2-0.7,0.5-1,0.7c-8.8,5.5-23.8,6.7-31.4-4.5
		c-5.3-7.8-7.7-16.4-9.4-25.5c-0.2-1.2,0.5-1.9,1.4-2.6c3.4-2.7,6.8-5.4,10-8.2c2.5-2.2,5.1-4.4,7-7.3c1.1-1.6,1.5-3.5-0.6-4.7
		c-1.8-1-3.8-2.8-6,0c-2.9,3.8-6.3,7.1-9.9,10.2c-2.4,2.1-4.8,4.3-7.8,5.8c-0.5-0.9-0.3-1.6-0.1-2.3c1.5-4.8,3-9.6,4.4-14.4
		c1.1-3.7,2.3-7.5,2.3-11.4c0-2.2-0.8-3.9-3-4.7c-2.5-1-5-0.8-7.4,0.1c-0.3,0.1-0.4,0.9-0.5,1.4c-3.4,16.1-8.2,32-11.2,48.2
		c-0.6,3.5-2.7,5.9-5.2,8c-2.4,2-4.2,1.3-4.4-1.9c-0.2-2.8-0.2-5.7,0.3-8.5c0.8-4.3,2.1-8.4,2.3-12.8c0.1-3.3-0.8-4.2-4-4.2
		c-1.8,0-3.3-0.1-4.4-1.8c-0.8-1.2-2.3-1-3.5-0.9c-2.9,0.3-5.5,1.3-7.9,2.9C97.6,51.6,93.6,59,92.5,68c-0.1,1.1,0,2.1-1.2,2.7
		c-2.5,1.3-4.9,2.8-7.5,3.9c-2.7,1.1-4.8-0.4-4.9-3.4c-0.1-1.2,0.2-2.5,0.4-3.8c0.9-4.6,2.8-9.2,3.3-13.8c0.7-6,3.6-8.6,9.1-8.8
		c5.3-0.2,8.3-3.4,10.7-7.6c1.3-2.2,0.6-3.5-2-3.7c-3.3-0.2-6.4,0.7-9.6,1.4c-3.5,0.7-3.6,0.6-2.8-2.8c1.1-4.8,2.2-9.6,3.3-14.4
		c0.3-1.4,0.5-2.4-1.4-2.1c-6.1,1-10.5,2.5-12.2,9.9c-0.8,3.5-1.8,6.9-2.6,10.4c-0.4,1.9-1.5,2.7-3.3,3.3c-5.4,1.7-10.6,3.7-16,5.5
		C55,45,54,45,53.8,46c-0.6,3.3,4.5,8.1,7.7,7.2c2.5-0.7,5-1.5,7.5-2.4c2.1-0.7,2.8-0.5,2.2,2c-1.5,6.1-2.9,12.3-3.8,18.6
		c-1,6.9,2.4,11.1,9.3,10.9c5-0.1,9.5-1.8,13.6-4.5c1.8-1.2,3.1-1.8,4.2,0.7c0.5,1.1,1.7,1.8,2.9,2.4c6.1,2.9,11.1,0.4,15.7-3.2
		c1.6-1.2,2.1-1.6,3.3,0.5c2.7,4.7,7.1,5.1,11,1.4c0.9-0.8,1.4-2.1,2.7-2.5c1.5,4.6,2.8,5.6,6.9,5.1c1-0.1,2-0.5,3.1-0.7
		C142,81,143,80.2,143,78c0-4.2,0.3-8.4,0.6-12.6c0.2-2.5,0.5-5.1,1.7-8.1c1.1,6,2.2,11.4,4.2,16.5c7.4,19.6,23.5,25.7,42.1,19.7
		c3-1,5.8-2.7,7.1-5.8C199.4,86.2,200.1,84,198.9,82.9z M116.3,52.9c-0.6,5.2-0.7,10.5-3,15.3c-1.3,2.7-2.9,5.1-5.9,6.1
		c-3.4,1.1-5.6-0.4-5.5-5c1.5-6.7,4.8-13.4,11.4-18.1c0.8-0.6,1.8-1,2.7-0.5C116.8,51.1,116.3,52.2,116.3,52.9z"/>
	<path class="st0" d="M192.9,71c-3.6,2.8-7.4,4.4-11.9,3.3c-2.7-0.7-4.4-4-3.8-6.8c0.5-2.2,2.3-0.5,3-1c4.5-0.1,8.5-1.1,12-3.2
		c5.1-3.1,8.1-10.5,6.2-14.9c-1.7-3.8-8.3-5.9-14-4.4c-0.2,0.1-0.4,0.2-0.6,0.2c-6.5,2.2-11.3,6.4-14.6,12.3
		c-3.7,6.6-4.4,13.5,0.2,19.9c3.8,5.4,9.6,6.3,15.8,5.2c4.4-0.8,8.4-2.7,11.6-5.9c2-2,1.3-3.7-0.2-5.5
		C194.6,67.8,193.9,70.2,192.9,71z M178.6,61.7c1.8-5.2,4.4-10,9.3-13c1-0.6,2.1-1.1,3.2-0.4c1,0.6,0.5,1.7,0.6,2.6
		c-0.3,5.7-5.9,11.7-11.4,12.4C179.3,63.3,178,63.4,178.6,61.7z"/>
</g>
</svg>
