<svg width="301" height="44" viewBox="0 0 301 44" fill="none" xmlns="http://www.w3.org/2000/svg">
<path d="M67.8372 0.618667C72.9092 -0.108319 78.2589 0.722521 82.7344 3.27059C87.4537 5.91286 91.0524 10.4656 92.5209 15.6728C93.9676 20.7835 93.5691 26.44 91.2408 31.2318C88.8352 36.27 84.3091 40.2044 79.0294 41.9916C74.31 43.605 69.0786 43.6727 64.3037 42.2356C59.5143 40.8034 55.249 37.6394 52.5825 33.3982C48.0588 26.3192 48.2134 16.5544 53.0197 9.65406C56.3769 4.70766 61.9367 1.42536 67.8372 0.618667ZM68.5038 9.03576C65.5451 9.6444 62.8642 11.4413 61.1663 13.9387C57.4009 19.3971 58.268 27.6959 63.4632 31.9564C66.7503 34.7242 71.5107 35.4729 75.5442 34.0818C78.1864 33.1785 80.4664 31.3018 81.8987 28.9083C83.8429 25.7154 84.2728 21.7206 83.3406 18.1291C82.5484 15.0908 80.6331 12.3301 77.9643 10.6516C75.1892 8.87877 71.7064 8.35708 68.5038 9.03576Z" fill="#EEAF0E"/>
<path d="M67.8372 0.618667C72.9092 -0.108319 78.2589 0.722521 82.7344 3.27059C87.4537 5.91286 91.0524 10.4656 92.5209 15.6728C93.9676 20.7835 93.5691 26.44 91.2408 31.2318C88.8352 36.27 84.3091 40.2044 79.0294 41.9916C74.31 43.605 69.0786 43.6727 64.3037 42.2356C59.5143 40.8034 55.249 37.6394 52.5825 33.3982C48.0588 26.3192 48.2134 16.5544 53.0197 9.65406C56.3769 4.70766 61.9367 1.42536 67.8372 0.618667ZM68.5038 9.03576C65.5451 9.6444 62.8642 11.4413 61.1663 13.9387C57.4009 19.3971 58.268 27.6959 63.4632 31.9564C66.7503 34.7242 71.5107 35.4729 75.5442 34.0818C78.1864 33.1785 80.4664 31.3018 81.8987 28.9083C83.8429 25.7154 84.2728 21.7206 83.3406 18.1291C82.5484 15.0908 80.6331 12.3301 77.9643 10.6516C75.1892 8.87877 71.7064 8.35708 68.5038 9.03576Z" stroke="#EEAF0E"/>
<path d="M126.013 0.618622C130.795 -0.0624749 135.818 0.628282 140.132 2.85271C144.115 4.88151 147.419 8.22178 149.373 12.2431C152.909 19.4309 152.095 28.6088 147.119 34.9319C144.105 38.847 139.664 41.5883 134.852 42.663C129.693 43.8127 124.126 43.3152 119.347 41.0159C115.429 39.1416 112.115 36.0211 110.05 32.1978C107.555 27.6379 106.891 22.1674 107.976 17.105C108.942 12.5837 111.456 8.41259 115.014 5.45875C118.124 2.84547 121.996 1.18862 126.013 0.618622ZM126.715 9.01639C124.025 9.55499 121.54 11.0549 119.83 13.2044C115.784 18.2329 116.045 26.2225 120.487 30.9274C123.387 34.0914 128.005 35.3787 132.167 34.4995C135.635 33.8329 138.709 31.5022 140.347 28.3793C143.023 23.3387 142.306 16.5616 138.27 12.4364C135.362 9.36902 130.814 8.14932 126.715 9.01639Z" fill="#EEAF0E"/>
<path d="M126.013 0.618622C130.795 -0.0624749 135.818 0.628282 140.132 2.85271C144.115 4.88151 147.419 8.22178 149.373 12.2431C152.909 19.4309 152.095 28.6088 147.119 34.9319C144.105 38.847 139.664 41.5883 134.852 42.663C129.693 43.8127 124.126 43.3152 119.347 41.0159C115.429 39.1416 112.115 36.0211 110.05 32.1978C107.555 27.6379 106.891 22.1674 107.976 17.105C108.942 12.5837 111.456 8.41259 115.014 5.45875C118.124 2.84547 121.996 1.18862 126.013 0.618622ZM126.715 9.01639C124.025 9.55499 121.54 11.0549 119.83 13.2044C115.784 18.2329 116.045 26.2225 120.487 30.9274C123.387 34.0914 128.005 35.3787 132.167 34.4995C135.635 33.8329 138.709 31.5022 140.347 28.3793C143.023 23.3387 142.306 16.5616 138.27 12.4364C135.362 9.36902 130.814 8.14932 126.715 9.01639Z" stroke="#EEAF0E"/>
<path d="M0.514745 1.09685C2.84793 1.09771 5.18111 1.09704 7.51441 1.09636C11.7146 1.09514 15.9152 1.09392 20.1168 1.10168C24.0923 1.16448 28.2755 2.19337 31.2462 4.97813C33.9754 7.47307 35.1371 11.2795 35.0719 14.8999C35.1251 18.2982 34.0648 21.8147 31.6689 24.2976C30.1714 25.8965 28.2392 27.0317 26.2008 27.7973C28.1336 30.5936 30.0571 33.397 31.9806 36.2003C33.4412 38.3291 34.9018 40.4578 36.3665 42.5834C35.3966 42.5834 34.4266 42.5828 33.4567 42.5823C30.8714 42.5808 28.2861 42.5794 25.7008 42.5882C23.9804 40.061 22.2711 37.5258 20.5621 34.9908C19.2936 33.1094 18.0252 31.2281 16.7524 29.3503H9.62259V42.5834C7.59862 42.5817 5.57466 42.5823 3.55069 42.5828C2.53871 42.5831 1.52673 42.5834 0.514745 42.5834C0.513135 33.3637 0.513672 24.1451 0.514209 14.9261C0.514477 10.3165 0.514745 5.70682 0.514745 1.09685ZM9.62259 9.3159C9.62259 10.3057 9.62244 11.2954 9.62229 12.2852C9.62184 15.2564 9.62138 18.2276 9.62501 21.1989H18.658C20.211 21.2013 21.8147 20.9573 23.1672 20.1531C26.1645 18.4817 26.6355 13.9773 24.556 11.4196C23.2228 9.88348 21.095 9.37869 19.141 9.32073C17.0891 9.31135 15.0361 9.3131 12.9828 9.31485C11.8628 9.3158 10.7427 9.31675 9.62259 9.3159Z" fill="#EEAF0E"/>
<path d="M0.514745 1.09685C2.84793 1.09771 5.18111 1.09704 7.51441 1.09636C11.7146 1.09514 15.9152 1.09392 20.1168 1.10168C24.0923 1.16448 28.2755 2.19337 31.2462 4.97813C33.9754 7.47307 35.1371 11.2795 35.0719 14.8999C35.1251 18.2982 34.0648 21.8147 31.6689 24.2976C30.1714 25.8965 28.2392 27.0317 26.2008 27.7973C28.1336 30.5936 30.0571 33.397 31.9806 36.2003C33.4412 38.3291 34.9018 40.4578 36.3665 42.5834C35.3966 42.5834 34.4266 42.5828 33.4567 42.5823C30.8714 42.5808 28.2861 42.5794 25.7008 42.5882C23.9804 40.061 22.2711 37.5258 20.5621 34.9908C19.2936 33.1094 18.0252 31.2281 16.7524 29.3503H9.62259V42.5834C7.59862 42.5817 5.57466 42.5823 3.55069 42.5828C2.53871 42.5831 1.52673 42.5834 0.514745 42.5834C0.513135 33.3637 0.513672 24.1451 0.514209 14.9261C0.514477 10.3165 0.514745 5.70682 0.514745 1.09685ZM9.62259 9.3159C9.62259 10.3057 9.62244 11.2954 9.62229 12.2852C9.62184 15.2564 9.62138 18.2276 9.62501 21.1989H18.658C20.211 21.2013 21.8147 20.9573 23.1672 20.1531C26.1645 18.4817 26.6355 13.9773 24.556 11.4196C23.2228 9.88348 21.095 9.37869 19.141 9.32073C17.0891 9.31135 15.0361 9.3131 12.9828 9.31485C11.8628 9.3158 10.7427 9.31675 9.62259 9.3159Z" stroke="#EEAF0E"/>
<path d="M167.438 1.09697C169.842 1.09871 172.245 1.09763 174.648 1.09655C178.921 1.09463 183.192 1.09272 187.463 1.10663C191.361 1.21531 195.552 2.37946 198.129 5.48786C200.329 8.02869 200.774 11.6974 199.964 14.8735C199.291 17.5423 197.252 19.6122 194.941 20.9768C197.003 21.7835 199.044 22.8607 200.493 24.5803C201.754 26.0584 202.413 27.9761 202.563 29.8962C202.819 32.6665 202.298 35.6324 200.508 37.8375C198.414 40.4774 195.093 41.772 191.857 42.3202C189.597 42.722 187.305 42.7118 185.018 42.7017C184.391 42.6989 183.763 42.6961 183.138 42.7018C180.521 42.7006 177.904 42.7006 175.288 42.7006C172.672 42.7006 170.055 42.7006 167.438 42.6994C167.441 28.8335 167.441 14.9653 167.438 1.09697ZM176.385 8.97547C176.381 11.1676 176.381 13.3583 176.382 15.5498C176.382 16.2799 176.382 17.01 176.382 17.7404C177.626 17.7379 178.87 17.7379 180.114 17.7379C181.358 17.7379 182.601 17.7379 183.845 17.7355C185.811 17.8394 187.944 17.7573 189.649 16.6487C191.412 15.5038 191.721 12.9195 190.758 11.1637C189.789 9.5672 187.789 9.08657 186.05 8.99479C184.193 8.97113 182.336 8.97474 180.479 8.97835C179.114 8.981 177.749 8.98365 176.385 8.97547ZM176.385 25.387C176.381 27.6608 176.381 29.9359 176.382 32.2104C176.382 32.968 176.382 33.7254 176.382 34.4828C177.787 34.4801 179.192 34.4817 180.596 34.4834C182.973 34.4861 185.348 34.4889 187.724 34.4707C189.639 34.3958 191.881 33.9973 193.018 32.2777C194.04 30.5435 193.844 27.9327 192.146 26.6816C190.745 25.6527 188.939 25.4401 187.251 25.3942C185.288 25.3864 183.326 25.3878 181.364 25.3891C179.704 25.3903 178.044 25.3914 176.385 25.387Z" fill="#EEAF0E"/>
<path d="M167.438 1.09697C169.842 1.09871 172.245 1.09763 174.648 1.09655C178.921 1.09463 183.192 1.09272 187.463 1.10663C191.361 1.21531 195.552 2.37946 198.129 5.48786C200.329 8.02869 200.774 11.6974 199.964 14.8735C199.291 17.5423 197.252 19.6122 194.941 20.9768C197.003 21.7835 199.044 22.8607 200.493 24.5803C201.754 26.0584 202.413 27.9761 202.563 29.8962C202.819 32.6665 202.298 35.6324 200.508 37.8375C198.414 40.4774 195.093 41.772 191.857 42.3202C189.597 42.722 187.305 42.7118 185.018 42.7017C184.391 42.6989 183.763 42.6961 183.138 42.7018C180.521 42.7006 177.904 42.7006 175.288 42.7006C172.672 42.7006 170.055 42.7006 167.438 42.6994C167.441 28.8335 167.441 14.9653 167.438 1.09697ZM176.385 8.97547C176.381 11.1676 176.381 13.3583 176.382 15.5498C176.382 16.2799 176.382 17.01 176.382 17.7404C177.626 17.7379 178.87 17.7379 180.114 17.7379C181.358 17.7379 182.601 17.7379 183.845 17.7355C185.811 17.8394 187.944 17.7573 189.649 16.6487C191.412 15.5038 191.721 12.9195 190.758 11.1637C189.789 9.5672 187.789 9.08657 186.05 8.99479C184.193 8.97113 182.336 8.97474 180.479 8.97835C179.114 8.981 177.749 8.98365 176.385 8.97547ZM176.385 25.387C176.381 27.6608 176.381 29.9359 176.382 32.2104C176.382 32.968 176.382 33.7254 176.382 34.4828C177.787 34.4801 179.192 34.4817 180.596 34.4834C182.973 34.4861 185.348 34.4889 187.724 34.4707C189.639 34.3958 191.881 33.9973 193.018 32.2777C194.04 30.5435 193.844 27.9327 192.146 26.6816C190.745 25.6527 188.939 25.4401 187.251 25.3942C185.288 25.3864 183.326 25.3878 181.364 25.3891C179.704 25.3903 178.044 25.3914 176.385 25.387Z" stroke="#EEAF0E"/>
<path d="M219.777 42.4144C219.783 34.7632 219.796 27.1113 219.808 19.4595C219.819 13.3384 219.829 7.21744 219.835 1.09692C224.294 1.09796 228.752 1.09766 233.211 1.09737C239.156 1.09697 245.102 1.09658 251.047 1.09934C251.044 2.29958 251.045 3.5003 251.045 4.70107C251.046 6.20172 251.047 7.70246 251.04 9.20245C247.339 9.19883 243.637 9.19944 239.936 9.20004C236.235 9.20064 232.533 9.20125 228.832 9.19762C228.828 11.2902 228.829 13.3814 228.829 15.4723C228.829 16.1688 228.83 16.8652 228.83 17.5616C231.62 17.5637 234.411 17.5631 237.201 17.5625C240.922 17.5617 244.643 17.5609 248.364 17.5664C248.364 18.4675 248.364 19.3683 248.364 20.2689C248.363 22.0696 248.362 23.8696 248.364 25.6695C244.023 25.6679 239.682 25.6685 235.341 25.669C233.171 25.6693 231 25.6695 228.83 25.6695V34.3112C230.703 34.3112 232.576 34.3114 234.45 34.3115C240.076 34.312 245.702 34.3125 251.328 34.3088C251.328 35.2098 251.327 36.1108 251.327 37.0117C251.326 38.8132 251.326 40.6143 251.328 42.4144C244.317 42.4128 237.307 42.4133 230.296 42.4138C226.79 42.4141 223.284 42.4144 219.777 42.4144Z" fill="#EEAF0E"/>
<path d="M219.777 42.4144C219.783 34.7632 219.796 27.1113 219.808 19.4595C219.819 13.3384 219.829 7.21744 219.835 1.09692C224.294 1.09796 228.752 1.09766 233.211 1.09737C239.156 1.09697 245.102 1.09658 251.047 1.09934C251.044 2.29958 251.045 3.5003 251.045 4.70107C251.046 6.20172 251.047 7.70246 251.04 9.20245C247.339 9.19883 243.637 9.19944 239.936 9.20004C236.235 9.20064 232.533 9.20125 228.832 9.19762C228.828 11.2902 228.829 13.3814 228.829 15.4723C228.829 16.1688 228.83 16.8652 228.83 17.5616C231.62 17.5637 234.411 17.5631 237.201 17.5625C240.922 17.5617 244.643 17.5609 248.364 17.5664C248.364 18.4675 248.364 19.3683 248.364 20.2689C248.363 22.0696 248.362 23.8696 248.364 25.6695C244.023 25.6679 239.682 25.6685 235.341 25.669C233.171 25.6693 231 25.6695 228.83 25.6695V34.3112C230.703 34.3112 232.576 34.3114 234.45 34.3115C240.076 34.312 245.702 34.3125 251.328 34.3088C251.328 35.2098 251.327 36.1108 251.327 37.0117C251.326 38.8132 251.326 40.6143 251.328 42.4144C244.317 42.4128 237.307 42.4133 230.296 42.4138C226.79 42.4141 223.284 42.4144 219.777 42.4144Z" stroke="#EEAF0E"/>
<path d="M266.198 1.15489C277.637 1.15247 289.075 1.15247 300.514 1.15489V9.53576C298.722 9.53679 296.93 9.5365 295.138 9.5362C292.75 9.53581 290.361 9.53541 287.974 9.53817C287.974 13.2036 287.974 16.8693 287.974 20.5351C287.975 27.867 287.975 35.1992 287.974 42.5303C285.937 42.5319 283.9 42.5314 281.863 42.5308C280.846 42.5306 279.828 42.5303 278.81 42.5303V9.53817C276.408 9.53541 274.005 9.53581 271.603 9.5362C269.801 9.5365 267.999 9.53679 266.198 9.53576C266.196 6.74133 266.196 3.9469 266.198 1.15489Z" fill="#EEAF0E"/>
<path d="M266.198 1.15489C277.637 1.15247 289.075 1.15247 300.514 1.15489V9.53576C298.722 9.53679 296.93 9.5365 295.138 9.5362C292.75 9.53581 290.361 9.53541 287.974 9.53817C287.974 13.2036 287.974 16.8693 287.974 20.5351C287.975 27.867 287.975 35.1992 287.974 42.5303C285.937 42.5319 283.9 42.5314 281.863 42.5308C280.846 42.5306 279.828 42.5303 278.81 42.5303V9.53817C276.408 9.53541 274.005 9.53581 271.603 9.5362C269.801 9.5365 267.999 9.53679 266.198 9.53576C266.196 6.74133 266.196 3.9469 266.198 1.15489Z" stroke="#EEAF0E"/>
</svg>
