<?xml version="1.0" encoding="UTF-8"?><svg xmlns="http://www.w3.org/2000/svg" viewBox="0 0 300 56.67"><g id="a"/><g id="b"/><g id="c"/><g id="d"/><g id="e"/><g id="f"/><g id="g"/><g id="h"/><g id="i"/><g id="j"/><g id="k"/><g id="l"/><g id="m"/><g id="n"/><g id="o"/><g id="p"/><g id="q"/><g id="r"/><g id="s"/><g id="t"/><g id="u"/><g id="v"/><g id="w"/><g id="x"/><g id="y"/><g id="a`"/><g id="aa"/><g id="ab"/><g id="ac"/><g id="ad"/><g id="ae"/><g id="af"/><g id="ag"/><g id="ah"/><g id="ai"/><g id="aj"/><g id="ak"/><g id="al"/><g id="am"/><g id="an"/><g id="ao"/><g id="ap"/><g id="aq"/><g id="ar"/><g id="as"/><g id="at"/><g id="au"/><g id="av"/><g id="aw"/><g id="ax"/><g id="ay"/><g id="b`"/><g id="ba"/><g id="bb"/><g id="bc"/><g id="bd"/><g id="be"/><g id="bf"/><g id="bg"/><g id="bh"/><g id="bi"/><g id="bj"/><g id="bk"/><g id="bl"/><g id="bm"/><g id="bn"/><g id="bo"/><g id="bp"/><g id="bq"/><g id="br"/><g id="bs"/><g id="bt"/><g id="bu"/><g id="bv"/><g id="bw"/><g id="bx"/><g id="by"/><g id="c`"/><g id="ca"/><g id="cb"/><g id="cc"/><g id="cd"/><g id="ce"/><g id="cf"/><g id="cg"/><g id="ch"/><g id="ci"/><g id="cj"/><g id="ck"/><g id="cl"/><g id="cm"/><g id="cn"/><g id="co"/><g id="cp"/><g id="cq"/><g id="cr"/><g id="cs"/><g id="ct"/><g id="cu"/><g id="cv"/><g id="cw"/><g id="cx"/><g id="cy"/><g id="d`"/><g id="da"/><g id="db"/><g id="dc"/><g id="dd"/><g id="de"/><g id="df"/><g id="dg"/><g id="dh"/><g id="di"/><g id="dj"/><g id="dk"/><g id="dl"/><g id="dm"/><g id="dn"/><g id="do"/><g id="dp"/><g id="dq"/><g id="dr"/><g id="ds"/><g id="dt"/><g id="du"/><g id="dv"/><g id="dw"/><g id="dx"/><g id="dy"/><g id="e`"/><g id="ea"/><g id="eb"/><g id="ec"/><g id="ed"/><g id="ee"/><g id="ef"/><g id="eg"/><g id="eh"/><g id="ei"/><g id="ej"/><g id="ek"><path d="M166.39,55.26c10.09,0,18.26-8.18,18.26-18.26s-8.18-18.26-18.26-18.26-18.26,8.18-18.26,18.26,8.18,18.26,18.26,18.26h0Zm0-10.44c2.08,0,4.07-.82,5.53-2.29,1.47-1.47,2.29-3.46,2.29-5.53s-.82-4.07-2.29-5.53c-1.47-1.47-3.46-2.29-5.53-2.29s-4.07,.82-5.53,2.29c-1.47,1.47-2.29,3.46-2.29,5.53s.82,4.07,2.29,5.53c1.47,1.47,3.46,2.29,5.53,2.29h0Z" style="fill:#eefa53; fill-rule:evenodd;"/><path d="M29.19,33.94c2.79-1.79,4.78-4.07,5.99-6.83,1.25-2.81,1.87-5.81,1.87-9,0-5.57-1.78-9.95-5.34-13.14C28.16,1.73,23.13,.1,16.64,.1H.55V10.27h.43L11.02,26.39H.55v27.16H11.02v-16.92h6.38l10.53,16.92h11.73l-11.75-18.87c.44-.23,.87-.47,1.28-.73ZM18.51,10.27c3.17,0,5.31,.9,6.42,2.69,1.11,1.74,1.66,3.56,1.66,5.45,0,1.11-.26,2.27-.79,3.49-.53,1.21-1.39,2.27-2.6,3.2-.29,.21-.6,.39-.93,.54L12.72,10.27h5.8ZM69.34,.48l-23.44,53.97h10.1l4.24-10.16h17.23l4.02,10.16h11.86L69.9,.48h-.56Zm-5.51,35.21l5.22-12.63,5.01,12.63h-10.24ZM234.16,2.52h10.31V56.57h-.28l-36.37-32.81,.21,30.69h-10.38V.48h.42l36.3,33.3-.21-31.25ZM127.69,27.07c1.98-1.18,3.51-2.73,4.59-4.66,1.08-1.98,1.62-4.26,1.62-6.84,0-4.23-1.58-7.46-4.73-9.67-3.15-2.26-7.49-3.39-12.99-3.39h-15.25V54.45h17.3c5.18,0,9.49-1.22,12.92-3.67,3.48-2.49,5.23-6.37,5.23-11.64,0-2.68-.77-5.03-2.33-7.06-1.51-2.07-3.62-3.74-6.35-5.01Zm-16.52-14.68h5.51c2.07,0,3.7,.47,4.87,1.41,1.18,.89,1.77,2.21,1.77,3.95s-.52,3.13-1.55,4.3c-1.04,1.13-2.5,1.69-4.38,1.69h-6.21V12.4Zm12.36,31.11c-1.46,.94-3.39,1.41-5.79,1.41h-6.57v-11.29h5.86c5.84,0,8.76,1.83,8.76,5.5,0,1.93-.75,3.39-2.26,4.37ZM276,.48h-.56l-23.44,53.97h10.1l4.24-10.16h17.23l4.02,10.16h11.87L276,.48Zm-6.07,35.21l5.23-12.63,5.01,12.63h-10.24ZM148.13,4.39h36.52V14.83h-36.52V4.39Z" style="fill:#fff;"/></g><g id="el"/><g id="em"/><g id="en"/><g id="eo"/><g id="ep"/><g id="eq"/><g id="er"/><g id="es"/><g id="et"/></svg>