<svg width="1221" height="702" viewBox="0 0 1221 702" fill="none" xmlns="http://www.w3.org/2000/svg">
<mask id="mask0_322_141" style="mask-type:alpha" maskUnits="userSpaceOnUse" x="267" y="0" width="373" height="373">
<path d="M453.565 373C556.333 373 639.643 289.693 639.643 186.929C639.643 84.1648 556.333 0.857971 453.565 0.857971C350.797 0.857971 267.487 84.1648 267.487 186.929C267.487 289.693 350.797 373 453.565 373Z" fill="white"/>
</mask>
<g mask="url(#mask0_322_141)">
<path d="M453.684 372.17C555.993 372.17 638.931 289.235 638.931 186.929C638.931 84.6232 555.993 1.68799 453.684 1.68799C351.374 1.68799 268.437 84.6232 268.437 186.929C268.437 289.235 351.374 372.17 453.684 372.17Z" fill="url(#paint0_linear_322_141)"/>
<g filter="url(#filter0_d_322_141)">
<path d="M453.565 362.201C549.91 362.201 628.013 284.101 628.013 187.759C628.013 91.4173 549.91 13.317 453.565 13.317C357.22 13.317 279.117 91.4173 279.117 187.759C279.117 284.101 357.22 362.201 453.565 362.201Z" fill="url(#paint1_linear_322_141)"/>
</g>
<path d="M453.566 1.68796C350.798 1.68796 267.488 84.9948 267.488 187.759C267.488 290.523 350.798 373.83 453.566 373.83C556.334 373.83 639.644 290.523 639.644 187.759C639.644 84.9948 556.334 1.68796 453.566 1.68796Z" fill="url(#paint2_linear_322_141)"/>
<mask id="mask1_322_141" style="mask-type:alpha" maskUnits="userSpaceOnUse" x="261" y="-5" width="385" height="385">
<path fill-rule="evenodd" clip-rule="evenodd" d="M453.565 379.645C559.544 379.645 645.457 293.735 645.457 187.759C645.457 81.7834 559.544 -4.12695 453.565 -4.12695C347.585 -4.12695 261.672 81.7834 261.672 187.759C261.672 293.735 347.585 379.645 453.565 379.645ZM453.565 319.681C526.425 319.681 585.491 260.618 585.491 187.759C585.491 114.901 526.425 55.8375 453.565 55.8375C380.704 55.8375 321.638 114.901 321.638 187.759C321.638 260.618 380.704 319.681 453.565 319.681Z" fill="url(#paint3_linear_322_141)"/>
</mask>
<g mask="url(#mask1_322_141)">
<path d="M452.343 194.035L404.944 8.23141L426.453 -3.09045L513.731 2.94861L452.343 194.035L461.422 292.38L413.92 290.735L452.343 194.035Z" fill="url(#paint4_linear_322_141)"/>
<path d="M452.343 194.035L404.944 8.23141L426.453 -3.09045L513.731 2.94861L452.343 194.035L461.422 292.38L413.92 290.735L452.343 194.035Z" fill="black" fill-opacity="0.2"/>
<path d="M448.991 193.848L264.376 141.994L265.325 117.706L314.194 45.1429L448.991 193.848L549.781 230.049L519.064 258.708L448.991 193.848Z" fill="url(#paint5_linear_322_141)"/>
<path d="M448.991 193.848L264.376 141.994L265.325 117.706L314.194 45.1429L448.991 193.848L549.781 230.049L519.064 258.708L448.991 193.848Z" fill="black" fill-opacity="0.2"/>
<path d="M454.164 190.729L316.948 324.678L296.388 311.711L257.979 233.11L454.164 190.729L609.148 39.4363L646.995 149.073L454.164 190.729Z" fill="url(#paint6_linear_322_141)"/>
<path d="M454.164 190.729L316.948 324.678L296.388 311.711L257.979 233.11L454.164 190.729L609.148 39.4363L646.995 149.073L454.164 190.729Z" fill="black" fill-opacity="0.2"/>
<path d="M454.731 184.571L508.533 368.622L487.428 380.682L399.994 377.667L454.731 184.571L442.254 86.5986H489.784L454.731 184.571Z" fill="url(#paint7_linear_322_141)"/>
<path d="M454.731 184.571L508.533 368.622L487.428 380.682L399.994 377.667L454.731 184.571L442.254 86.5986H489.784L454.731 184.571Z" fill="black" fill-opacity="0.2"/>
<path d="M458.086 184.642L644.385 230.075L644.278 254.382L597.95 328.592L458.086 184.642L356.104 151.951L385.81 122.245L458.086 184.642Z" fill="url(#paint8_linear_322_141)"/>
<path d="M458.086 184.642L644.385 230.075L644.278 254.382L597.95 328.592L458.086 184.642L356.104 151.951L385.81 122.245L458.086 184.642Z" fill="black" fill-opacity="0.2"/>
<path d="M453.024 187.938L585.522 49.3203L606.519 61.5672L647.625 138.792L453.024 187.938L303.37 344.504L261.752 236.243L453.024 187.938Z" fill="url(#paint9_linear_322_141)"/>
<path d="M453.024 187.938L585.522 49.3203L606.519 61.5672L647.625 138.792L453.024 187.938L303.37 344.504L261.752 236.243L453.024 187.938Z" fill="black" fill-opacity="0.2"/>
</g>
<path d="M453.565 309.868C521.007 309.868 575.679 255.198 575.679 187.759C575.679 120.32 521.007 65.65 453.565 65.65C386.123 65.65 331.451 120.32 331.451 187.759C331.451 255.198 386.123 309.868 453.565 309.868Z" fill="url(#paint10_linear_322_141)"/>
<path fill-rule="evenodd" clip-rule="evenodd" d="M575.644 190.666C575.667 189.7 575.678 188.731 575.678 187.759C575.678 120.32 521.006 65.6498 453.565 65.6498C386.123 65.6498 331.451 120.32 331.451 187.759C331.451 188.731 331.462 189.7 331.485 190.667C333.029 124.571 387.095 71.4646 453.565 71.4646C520.034 71.4646 574.1 124.57 575.644 190.666Z" fill="white"/>
<g filter="url(#filter1_d_322_141)">
<mask id="mask2_322_141" style="mask-type:alpha" maskUnits="userSpaceOnUse" x="331" y="65" width="245" height="245">
<path d="M453.565 65.6499C386.124 65.6499 331.451 120.32 331.451 187.759C331.451 255.198 386.124 309.868 453.565 309.868C521.007 309.868 575.679 255.198 575.679 187.759C575.679 120.32 521.007 65.6499 453.565 65.6499Z" fill="white"/>
</mask>
<g mask="url(#mask2_322_141)">
<mask id="mask3_322_141" style="mask-type:alpha" maskUnits="userSpaceOnUse" x="376" y="100" width="243" height="285">
<path fill-rule="evenodd" clip-rule="evenodd" d="M617.288 253.648C614.551 252.855 610.938 249.543 610.938 249.543C610.938 249.543 602.043 251.774 597.773 250.104C596.596 249.71 595.515 249.07 594.602 248.228C593.689 247.386 592.965 246.361 592.477 245.219C592.477 245.219 590.383 247.573 582.158 244.576C573.933 241.579 560.495 233.956 560.495 233.956C561.386 236.436 562.127 238.968 562.712 241.538C564.08 246.847 558.757 250.843 556.608 251.24C554.459 251.637 540.87 251.596 531.112 252.513C525.577 252.894 520.276 254.893 515.867 258.26C515.867 258.26 516.606 260.518 524.078 270.645C531.55 280.772 550.217 286.834 552.571 288.545C554.925 290.255 557.744 300.013 566.639 316.599C575.535 333.185 596.364 351.276 596.364 351.276C596.439 352.732 596.753 354.165 597.294 355.518C598.02 356.654 602.248 357.872 606.573 364.331C610.898 370.791 607.504 382.902 605.861 383.613C604.219 384.325 602.659 381.041 601.496 374.855C600.332 368.669 593.832 365.714 591.464 363.907C589.097 362.101 584.882 360.924 580.598 355.272C576.315 349.62 568.569 335.525 562.602 325.658C556.635 315.791 549.382 307.594 545.071 304.159C540.76 300.724 538.516 298.261 532.919 292.281C527.321 286.3 517.865 281.47 508.504 278.226C503.215 276.449 498.114 274.157 493.272 271.384L491.753 270.344C491.439 277.884 496.05 299.082 496.598 306.267C497.214 314.19 491.863 316.681 481.229 317.434C470.596 318.186 434.398 327.492 427.747 330.503C421.096 333.513 420.097 335.73 420.343 340.834C420.59 345.939 417.812 346.555 411.544 346.787C405.276 347.02 399.706 349.524 395.45 350.455C391.194 351.385 386.527 350.893 385.87 348.854C385.213 346.815 394.574 342.737 400.116 339.617C405.659 336.496 411.489 330.037 412.529 325.576C413.569 321.115 464.533 310.961 474.113 307.485C483.693 304.009 480.066 293.594 480.066 293.594C480.066 293.594 479.56 286.971 475.687 274.436C471.814 261.9 464.93 261.599 454.57 263.406C444.211 265.212 438.654 269.495 424.613 261.791C413.405 255.646 412.214 240.799 412.187 235.037C409.506 229.373 405.279 224.582 399.993 221.215C390.893 215.44 375.36 202.317 380.834 177.096C386.308 151.874 399.159 140.147 400.24 134.358C401.321 128.569 401.389 119.031 393.397 117.936C385.405 116.841 377.796 115.801 377.796 115.801C377.796 115.801 375.182 114.255 378.384 113.064C381.587 111.874 382.654 112.311 384.83 110.902C387.006 109.492 393.041 100.885 396.983 100.707C400.924 100.529 413.692 99.8856 410.038 117.443C410.038 117.443 416.539 126.763 410.435 139.695C404.332 152.627 399.282 158.758 397.982 171.649C396.682 184.54 398.146 194.215 404.085 199.813C410.025 205.41 419.454 209.98 431.976 205.026C439.489 202.043 447.509 198.362 454.146 195.899C469.493 189.531 485.898 186.096 502.51 185.772C529.881 185.197 553.063 204.52 553.063 204.52C553.063 204.52 574.057 210.103 588.878 217.151C603.699 224.199 605.423 226.525 605.423 226.525C605.423 226.525 620.067 254.428 617.288 253.648Z" fill="url(#paint11_linear_322_141)" stroke="url(#paint12_linear_322_141)" stroke-width="0.882418"/>
</mask>
<g mask="url(#mask3_322_141)">
<path d="M456.997 356.744C531.325 356.744 591.578 289.189 591.578 205.855C591.578 122.521 531.325 54.9659 456.997 54.9659C382.67 54.9659 322.417 122.521 322.417 205.855C322.417 289.189 382.67 356.744 456.997 356.744Z" fill="url(#paint13_linear_322_141)"/>
<path d="M456.997 356.744C531.325 356.744 591.578 289.189 591.578 205.855C591.578 122.521 531.325 54.9659 456.997 54.9659C382.67 54.9659 322.417 122.521 322.417 205.855C322.417 289.189 382.67 356.744 456.997 356.744Z" fill="black" fill-opacity="0.2"/>
</g>
</g>
</g>
<path d="M433.3 245.361C423.036 240.366 426.381 225.028 432.993 218.348C435.103 239.169 486.072 233.216 504.182 231.381C518.67 229.914 555.177 233.52 547.448 237.056C539.719 240.592 515.966 234.101 499.154 241.948C482.341 249.795 446.13 251.604 433.3 245.361Z" fill="url(#paint14_linear_322_141)"/>
<path d="M525.808 204.048C506.642 201.874 500.906 205.732 493.612 207.309C473.007 219.186 554.257 218.352 553.228 213.842C550.964 211.557 544.975 206.222 525.808 204.048Z" fill="url(#paint15_linear_322_141)"/>
</g>
<path d="M116.7 259.682H249.34V329.511H0V281.314L130.742 118.508H1.89756V48.6803H247.443V96.8769L116.7 259.682Z" fill="url(#paint16_linear_322_141)"/>
<path d="M740.693 329.511V118.508H644.676V48.6803H927.034V118.508H831.017V329.511H740.693Z" fill="url(#paint17_linear_322_141)"/>
<path d="M1132.45 329.511L1111.57 266.134H1000.75L979.881 329.511H892.593L991.267 48.6803H1121.82L1220.49 329.511H1132.45ZM1022.58 199.721H1089.75L1056.16 97.4461L1022.58 199.721Z" fill="url(#paint18_linear_322_141)"/>
<path d="M398.18 552.846C413.11 556.135 425.13 563.092 434.24 573.718C443.34 584.344 447.9 598.449 447.9 616.033C447.9 634.249 442.9 649.618 432.91 662.142C422.91 674.665 406.09 684.343 382.43 691.174C358.78 698.005 327.09 701.42 287.37 701.42C274.59 701.42 259.09 700.788 240.87 699.523C222.66 698.384 207.03 696.993 194 695.348V425.903C209.31 422.235 227.15 419.199 247.52 416.795C268.01 414.265 286.73 413 303.68 413C351.38 413 386.1 419.894 407.86 433.683C429.75 447.471 440.69 467.775 440.69 494.592C440.69 503.827 438.85 512.429 435.19 520.398C431.52 528.368 426.46 535.136 420 540.702C413.68 546.268 406.41 550.316 398.18 552.846ZM313.93 473.72C304.06 473.72 293.44 474.859 282.05 477.135V523.434H317.35C331.64 523.434 341.76 521.347 347.71 517.173C353.78 512.998 356.82 506.736 356.82 498.387C356.82 489.912 353.59 483.713 347.14 479.792C340.81 475.744 329.74 473.72 313.93 473.72ZM312.41 640.7C326.45 640.7 337.4 639.688 345.24 637.664C353.21 635.514 358.78 632.478 361.94 628.556C365.1 624.635 366.68 619.575 366.68 613.376C366.68 606.672 365.42 601.295 362.89 597.247C360.36 593.199 356.06 590.227 349.98 588.329C343.91 586.305 335.56 585.293 324.94 585.293H282.05V639.562C289.9 640.321 300.02 640.7 312.41 640.7Z" fill="url(#paint19_linear_322_141)"/>
<path d="M571.9 631.213H725.98V697.625H482.72V416.795H724.09V483.207H571.9V521.157H703.97V587.57H571.9V631.213Z" fill="url(#paint20_linear_322_141)"/>
<path d="M839.54 697.625V486.623H743.52V416.795H1025.88V486.623H929.859V697.625H839.54Z" fill="url(#paint21_linear_322_141)"/>
<defs>
<filter id="filter0_d_322_141" x="278.28" y="13.317" width="350.569" height="350.557" filterUnits="userSpaceOnUse" color-interpolation-filters="sRGB">
<feFlood flood-opacity="0" result="BackgroundImageFix"/>
<feColorMatrix in="SourceAlpha" type="matrix" values="0 0 0 0 0 0 0 0 0 0 0 0 0 0 0 0 0 0 127 0" result="hardAlpha"/>
<feOffset dy="0.836735"/>
<feGaussianBlur stdDeviation="0.418367"/>
<feComposite in2="hardAlpha" operator="out"/>
<feColorMatrix type="matrix" values="0 0 0 0 0 0 0 0 0 0 0 0 0 0 0 0 0 0 0.14 0"/>
<feBlend mode="normal" in2="BackgroundImageFix" result="effect1_dropShadow_322_141"/>
<feBlend mode="normal" in="SourceGraphic" in2="effect1_dropShadow_322_141" result="shape"/>
</filter>
<filter id="filter1_d_322_141" x="375.513" y="100.213" width="201.003" height="211.328" filterUnits="userSpaceOnUse" color-interpolation-filters="sRGB">
<feFlood flood-opacity="0" result="BackgroundImageFix"/>
<feColorMatrix in="SourceAlpha" type="matrix" values="0 0 0 0 0 0 0 0 0 0 0 0 0 0 0 0 0 0 127 0" result="hardAlpha"/>
<feOffset dy="0.836735"/>
<feGaussianBlur stdDeviation="0.418367"/>
<feComposite in2="hardAlpha" operator="out"/>
<feColorMatrix type="matrix" values="0 0 0 0 0 0 0 0 0 0 0 0 0 0 0 0 0 0 0.14 0"/>
<feBlend mode="normal" in2="BackgroundImageFix" result="effect1_dropShadow_322_141"/>
<feBlend mode="normal" in="SourceGraphic" in2="effect1_dropShadow_322_141" result="shape"/>
</filter>
<linearGradient id="paint0_linear_322_141" x1="412.861" y1="-91.3479" x2="412.861" y2="373.831" gradientUnits="userSpaceOnUse">
<stop offset="0.43125" stop-color="white"/>
<stop offset="0.7875" stop-color="#FFDE59"/>
<stop offset="1" stop-color="#FD9B06"/>
</linearGradient>
<linearGradient id="paint1_linear_322_141" x1="453.565" y1="13.3173" x2="453.565" y2="362.201" gradientUnits="userSpaceOnUse">
<stop stop-color="#AB6E09"/>
<stop offset="0.34375" stop-color="#FEA10D"/>
<stop offset="0.947917" stop-color="#C47B07"/>
</linearGradient>
<linearGradient id="paint2_linear_322_141" x1="453.566" y1="373.83" x2="453.566" y2="1.68695" gradientUnits="userSpaceOnUse">
<stop stop-color="white"/>
<stop offset="0.114583" stop-color="#FFDE59"/>
<stop offset="1" stop-color="#FD9B06" stop-opacity="0"/>
</linearGradient>
<linearGradient id="paint3_linear_322_141" x1="536.886" y1="-34.4247" x2="420.748" y2="240.783" gradientUnits="userSpaceOnUse">
<stop offset="0.09375" stop-color="white"/>
<stop offset="0.432292" stop-color="#FFDE59"/>
<stop offset="1" stop-color="#FD9B06"/>
</linearGradient>
<linearGradient id="paint4_linear_322_141" x1="447.055" y1="404.248" x2="447.621" y2="-23.3112" gradientUnits="userSpaceOnUse">
<stop stop-color="#815204"/>
<stop offset="0.34375" stop-color="#D08309"/>
<stop offset="0.947917" stop-color="#754A05"/>
</linearGradient>
<linearGradient id="paint5_linear_322_141" x1="447.055" y1="404.248" x2="447.621" y2="-23.3113" gradientUnits="userSpaceOnUse">
<stop stop-color="#815204"/>
<stop offset="0.34375" stop-color="#D08309"/>
<stop offset="0.947917" stop-color="#754A05"/>
</linearGradient>
<linearGradient id="paint6_linear_322_141" x1="447.055" y1="404.248" x2="447.621" y2="-23.3112" gradientUnits="userSpaceOnUse">
<stop stop-color="#815204"/>
<stop offset="0.34375" stop-color="#D08309"/>
<stop offset="0.947917" stop-color="#754A05"/>
</linearGradient>
<linearGradient id="paint7_linear_322_141" x1="447.056" y1="404.248" x2="447.622" y2="-23.3113" gradientUnits="userSpaceOnUse">
<stop stop-color="#815204"/>
<stop offset="0.34375" stop-color="#D08309"/>
<stop offset="0.947917" stop-color="#754A05"/>
</linearGradient>
<linearGradient id="paint8_linear_322_141" x1="447.055" y1="404.248" x2="447.621" y2="-23.3112" gradientUnits="userSpaceOnUse">
<stop stop-color="#815204"/>
<stop offset="0.34375" stop-color="#D08309"/>
<stop offset="0.947917" stop-color="#754A05"/>
</linearGradient>
<linearGradient id="paint9_linear_322_141" x1="447.055" y1="404.248" x2="447.621" y2="-23.3112" gradientUnits="userSpaceOnUse">
<stop stop-color="#815204"/>
<stop offset="0.34375" stop-color="#D08309"/>
<stop offset="0.947917" stop-color="#754A05"/>
</linearGradient>
<linearGradient id="paint10_linear_322_141" x1="453.565" y1="65.6498" x2="453.565" y2="309.869" gradientUnits="userSpaceOnUse">
<stop stop-color="white"/>
<stop offset="0.114583" stop-color="#FFDE59"/>
<stop offset="1" stop-color="#FD9B06"/>
</linearGradient>
<linearGradient id="paint11_linear_322_141" x1="497.215" y1="100.655" x2="497.215" y2="383.709" gradientUnits="userSpaceOnUse">
<stop stop-color="#815204"/>
<stop offset="0.34375" stop-color="#D08309"/>
<stop offset="0.947917" stop-color="#754A05"/>
</linearGradient>
<linearGradient id="paint12_linear_322_141" x1="398.295" y1="100.655" x2="570.322" y2="332.899" gradientUnits="userSpaceOnUse">
<stop stop-color="#825305"/>
<stop offset="0.552083" stop-color="#D18409"/>
<stop offset="1" stop-color="#845306"/>
</linearGradient>
<linearGradient id="paint13_linear_322_141" x1="456.998" y1="54.9665" x2="456.998" y2="356.744" gradientUnits="userSpaceOnUse">
<stop stop-color="#815204"/>
<stop offset="0.34375" stop-color="#D08309"/>
<stop offset="0.947917" stop-color="#754A05"/>
</linearGradient>
<linearGradient id="paint14_linear_322_141" x1="444.057" y1="199.757" x2="500.054" y2="231.064" gradientUnits="userSpaceOnUse">
<stop offset="0.114583" stop-color="#FFDE59"/>
<stop offset="1" stop-color="#FD9B06"/>
</linearGradient>
<linearGradient id="paint15_linear_322_141" x1="444.057" y1="199.757" x2="500.054" y2="231.064" gradientUnits="userSpaceOnUse">
<stop offset="0.114583" stop-color="#FFDE59"/>
<stop offset="1" stop-color="#FD9B06"/>
</linearGradient>
<linearGradient id="paint16_linear_322_141" x1="1105.27" y1="-133.001" x2="1101.82" y2="593.957" gradientUnits="userSpaceOnUse">
<stop stop-color="white"/>
<stop offset="0.150077" stop-color="#FFDE59"/>
<stop offset="0.751006" stop-color="#FD9B06"/>
</linearGradient>
<linearGradient id="paint17_linear_322_141" x1="1105.27" y1="-133.001" x2="1101.82" y2="593.957" gradientUnits="userSpaceOnUse">
<stop stop-color="white"/>
<stop offset="0.150077" stop-color="#FFDE59"/>
<stop offset="0.751006" stop-color="#FD9B06"/>
</linearGradient>
<linearGradient id="paint18_linear_322_141" x1="1105.27" y1="-133.001" x2="1101.82" y2="593.957" gradientUnits="userSpaceOnUse">
<stop stop-color="white"/>
<stop offset="0.150077" stop-color="#FFDE59"/>
<stop offset="0.751006" stop-color="#FD9B06"/>
</linearGradient>
<linearGradient id="paint19_linear_322_141" x1="668.06" y1="402.913" x2="718.98" y2="722.832" gradientUnits="userSpaceOnUse">
<stop stop-color="#9BEE87"/>
<stop offset="0.348116" stop-color="#68C153"/>
<stop offset="1" stop-color="#429B32"/>
</linearGradient>
<linearGradient id="paint20_linear_322_141" x1="668.06" y1="402.913" x2="718.98" y2="722.832" gradientUnits="userSpaceOnUse">
<stop stop-color="#9BEE87"/>
<stop offset="0.348116" stop-color="#68C153"/>
<stop offset="1" stop-color="#429B32"/>
</linearGradient>
<linearGradient id="paint21_linear_322_141" x1="668.06" y1="402.913" x2="718.98" y2="722.832" gradientUnits="userSpaceOnUse">
<stop stop-color="#9BEE87"/>
<stop offset="0.348116" stop-color="#68C153"/>
<stop offset="1" stop-color="#429B32"/>
</linearGradient>
</defs>
</svg>
