<?xml version="1.0" encoding="UTF-8"?><svg id="_1xbit" xmlns="http://www.w3.org/2000/svg" viewBox="0 0 681.21 219.99"><path d="M264.04,198.6c-15.58-15.56-31.41-31.38-47.24-47.18-15.9,15.88-31.69,31.65-47.25,47.19-13.76-13.74-27.31-27.28-40.79-40.74,15.42-15.56,31.16-31.45,46.8-47.22-15.83-15.82-31.65-31.64-47.31-47.29,13.76-13.75,27.31-27.28,40.97-40.92,15.59,15.57,31.41,31.38,47.34,47.28,15.98-15.96,31.81-31.77,47.52-47.46,13.68,13.67,27.21,27.17,40.74,40.69-15.67,15.65-31.51,31.46-47.31,47.23,16.04,16.02,31.87,31.83,47.53,47.46-13.81,13.8-27.37,27.33-41,40.95Z" style="fill:#ec7018;"/><path d="M379.51,219.77c-.06-4.26-.14-8.52-.19-12.77-.03-2.59,0-5.18,0-8.02h-45.37V22.28h45.31V2.41h53.14V21.75c4.28,.59,8.4,.95,12.44,1.76,12.11,2.41,22.91,7.36,31.39,16.66,14.7,16.14,12.96,41.96-1.73,56.87-3.51,3.56-7.75,6.39-11.65,9.55,1.38,.7,3.2,1.56,4.96,2.53,11.53,6.41,20.4,15.26,24.5,28.04,6.45,20.13-.56,41.44-22.25,53.17-10.04,5.43-20.89,7.84-32.2,8.45-1.72,.09-3.45,.15-5.52,.24v20.76h-52.84Zm4.18-62.88c.42,.04,.74,.11,1.06,.11,13.74,0,27.48,.08,41.22-.04,4.48-.04,8.68-1.43,12.21-4.34,6.98-5.74,6.61-15.02-.79-20.21-3.73-2.61-7.97-3.7-12.45-3.71-13.14-.06-26.28-.02-39.42-.01-.58,0-1.16,.08-1.83,.12v28.08Zm0-66.22c.55,.06,1,.16,1.45,.16,10.79,0,21.59,.05,32.38-.02,4.62-.03,8.98-1.14,12.69-4.09,6.09-4.83,6.25-13.11,.34-18.15-3.78-3.22-8.3-4.39-13.16-4.4-10.59-.03-21.19-.01-31.78,0-.63,0-1.27,.08-1.91,.12v26.37Zm296.84,97.51c-.93-3.17-1.9-6.34-2.78-9.53-1.94-7.03-3.83-14.07-5.68-20.89-2.56,.91-4.93,2.09-7.43,2.58-5.29,1.04-10.31,.6-13.7-4.43-1.85-2.75-2.43-5.87-2.43-9.12,0-13.39,0-26.78,0-40.18,0-.51,.09-1.01,.16-1.69h26.08v-39.13h-26.3V29.56h-47.46v36.35h-16.45v39.12h16.55v2.68c0,17.26-.27,34.52,.08,51.77,.37,18.32,9.18,31.72,25.94,39.04,15.77,6.89,31.17,4.12,45.76-4.24,2.69-1.54,5.13-3.51,7.68-5.29v-.8ZM99.75,22.3c-.47-.04-.79-.09-1.11-.09-12.54,0-25.08-.02-37.62,.03-.85,0-1.81,.41-2.54,.9-14.2,9.44-28.39,18.92-42.57,28.4-5.03,3.36-10.05,6.75-15.22,10.22,6.55,11.54,13.05,22.97,19.62,34.54,9.83-5.96,19.52-11.85,29.65-18v120.48h49.79V22.3Zm415.97,176.47h49.46V65.94h-49.46V198.77Zm-1.31-172.84c-.08,14.38,11.4,26.21,25.54,26.32,14.7,.11,26.41-11.22,26.55-25.69,.14-14.47-11.45-26.24-25.94-26.34-14.28-.1-26.07,11.49-26.15,25.71Z" style="fill:#fff;"/></svg>