<svg width="54" height="14" viewBox="0 0 54 14" fill="none" xmlns="http://www.w3.org/2000/svg">
<path d="M9.7614 1.31485H12.6606L7.86956 13.5983H4.7984L0.00738525 1.31485H2.90656L6.34626 10.6503L9.7614 1.31485Z" fill="white"/>
<path d="M23.5905 1.31485H26.2439V13.5983H23.5905V11.8295C22.5913 13.2216 21.1581 13.9177 19.2908 13.9177C17.6037 13.9177 16.1623 13.2953 14.9666 12.0506C13.7709 10.7895 13.1731 9.25815 13.1731 7.45658C13.1731 5.63863 13.7709 4.10729 14.9666 2.86257C16.1623 1.61784 17.6037 0.995483 19.2908 0.995483C21.1581 0.995483 22.5913 1.68336 23.5905 3.0591V1.31485ZM16.9322 10.2818C17.6693 11.0188 18.5947 11.3873 19.7085 11.3873C20.8223 11.3873 21.7478 11.0188 22.4848 10.2818C23.2219 9.52839 23.5905 8.58666 23.5905 7.45658C23.5905 6.3265 23.2219 5.39296 22.4848 4.65595C21.7478 3.90257 20.8223 3.52587 19.7085 3.52587C18.5947 3.52587 17.6693 3.90257 16.9322 4.65595C16.1951 5.39296 15.8266 6.3265 15.8266 7.45658C15.8266 8.58666 16.1951 9.52839 16.9322 10.2818Z" fill="white"/>
<path d="M37.6658 1.31485H40.565L35.7739 13.5983H32.7028L27.9118 1.31485H30.8109L34.2506 10.6503L37.6658 1.31485Z" fill="white"/>
<path d="M43.8538 8.58666C44.0503 9.5202 44.5008 10.2408 45.2051 10.7485C45.9094 11.2399 46.7693 11.4855 47.7849 11.4855C49.1935 11.4855 50.25 10.9778 50.9543 9.9624L53.141 11.2399C51.9289 13.0251 50.1353 13.9177 47.7603 13.9177C45.762 13.9177 44.1486 13.3117 42.9202 12.0997C41.6917 10.8714 41.0775 9.32366 41.0775 7.45658C41.0775 5.62225 41.6835 4.09091 42.8956 2.86257C44.1077 1.61784 45.6637 0.995483 47.5638 0.995483C49.3655 0.995483 50.8397 1.62603 51.9862 2.88713C53.1492 4.14823 53.7306 5.67957 53.7306 7.48114C53.7306 7.75957 53.6979 8.12807 53.6324 8.58666H43.8538ZM43.8292 6.42477H51.0526C50.8724 5.42571 50.4547 4.67233 49.7996 4.16461C49.1608 3.6569 48.4073 3.40304 47.5392 3.40304C46.5564 3.40304 45.7374 3.67328 45.0823 4.21375C44.4271 4.75422 44.0094 5.49123 43.8292 6.42477Z" fill="white"/>
</svg>
