<?xml version="1.0" encoding="UTF-8"?><svg id="rocketpot-2" xmlns="http://www.w3.org/2000/svg" xmlns:xlink="http://www.w3.org/1999/xlink" viewBox="0 0 359.72 60.61"><defs><linearGradient id="linear-gradient" x1="-5797.04" y1="-83.26" x2="-5796.72" y2="-83.26" gradientTransform="translate(373321.46 -265324.15) rotate(-36) scale(79.01 56.87)" gradientUnits="userSpaceOnUse"><stop offset="0" stop-color="#f0d162"/><stop offset="1" stop-color="#d85b37"/></linearGradient><linearGradient id="linear-gradient-2" x1="-5801.99" y1="-170.27" x2="-5801.68" y2="-169.96" gradientTransform="translate(877073.92 266226.64) rotate(15) scale(157.89 177.08)" gradientUnits="userSpaceOnUse"><stop offset="0" stop-color="#f0d369"/><stop offset="1" stop-color="#de8c5b"/></linearGradient><linearGradient id="linear-gradient-3" x1="-5801.59" y1="-170.26" x2="-5801.94" y2="-169.84" gradientTransform="translate(877073.92 266226.64) rotate(15) scale(157.89 177.08)" gradientUnits="userSpaceOnUse"><stop offset="0" stop-color="#c0e2f7"/><stop offset=".4" stop-color="#71aef1"/><stop offset="1" stop-color="#6938bf"/></linearGradient><linearGradient id="linear-gradient-4" x1="-5801.57" y1="-170.28" x2="-5801.88" y2="-169.91" gradientTransform="translate(877073.92 266226.64) rotate(15) scale(157.89 177.08)" gradientUnits="userSpaceOnUse"><stop offset="0" stop-color="#8fcef4"/><stop offset="1" stop-color="#66a7da"/></linearGradient></defs><path id="Fire" d="M21.32,48.32c4.8-3.48,5.93-6.35,1.75-12.14-4.18-5.8-7.3-5.57-12.09-2.08S3.62,50.98,3.62,50.98c0,0,12.9,.83,17.7-2.65Z" style="fill:url(#linear-gradient); fill-rule:evenodd;"/><path id="Rectangle-3" d="M15.72,32.18l9.42,10.17h0c1.14,1.24,1.19,3.14,.12,4.44h0c-1.09,1.32-3.02,1.57-4.41,.56-2.13-1.47-4.03-3.24-5.66-5.25-1.64-2.2-3.15-4.5-4.5-6.88h0c-.72-1.27-.3-2.88,.95-3.64h0c1.33-.79,3.04-.55,4.08,.59Z" style="fill:#5572ae; fill-rule:evenodd;"/><path id="path-6" d="M10.15,23.77C21.18,14.37,29.42,8.14,34.87,5.09,43.04,.48,58.85-2.33,63.04,2.84c4.19,5.17-2.25,20.09-8.1,27.03-3.9,4.61-11.77,11.27-23.61,19.98-6.71-2.9-11.57-6.36-14.6-10.37-3.03-4.02-5.22-9.25-6.58-15.7Z" style="fill:url(#linear-gradient-2); fill-rule:evenodd;"/><path id="path-6-2" d="M10.15,23.77C21.18,14.37,29.42,8.14,34.87,5.09,43.04,.48,58.85-2.33,63.04,2.84c4.19,5.17-2.25,20.09-8.1,27.03-3.9,4.61-11.77,11.27-23.61,19.98-6.71-2.9-11.57-6.36-14.6-10.37-3.03-4.02-5.22-9.25-6.58-15.7Z" style="fill:url(#linear-gradient-3); fill-rule:evenodd;"/><path id="path-6-3" d="M10.15,23.77C21.18,14.37,29.42,8.14,34.87,5.09,43.04,.48,58.85-2.33,63.04,2.84c4.19,5.17-2.25,20.09-8.1,27.03-3.9,4.61-11.77,11.27-23.61,19.98-6.71-2.9-11.57-6.36-14.6-10.37-3.03-4.02-5.22-9.25-6.58-15.7Z" style="fill:url(#linear-gradient-4); fill-rule:evenodd;"/><path id="Path-3-Copy-2" d="M24.77,11.89c1.07-.66-11.34-2.05-14.32-.66-2.98,1.39-6.16,3.58-9.65,6.14-.67,.48-.42,1.46,.1,1.97,.79,.78,8.47,5.08,9.32,4.51,.11-.08,3.92-3.25,7.3-6.07s5.99-5.1,7.25-5.89Z" style="fill:#6786cb; fill-rule:evenodd;"/><path id="Path-3-Copy-3" d="M46.14,38.48c1-.27-.92,11.6-3.04,14.12-2.12,2.52-5.08,5.02-8.42,7.74-.64,.52-1.52,0-1.88-.61-.55-.97-2.08-9.03-1.47-9.93,.18-.25,2.97-2.05,5.93-4.37,3.95-3.04,8.29-6.78,8.89-6.94Z" style="fill:#6786cb; fill-rule:evenodd;"/><circle id="Oval-2-Copy" cx="44.67" cy="17.19" r="12.76" style="fill:#6786cb;"/><circle id="Oval-2" cx="44.69" cy="16.99" r="8.51" style="fill:#fff;"/><path d="M71.62,30.12V14.39c0-.9,.25-1.09,1.11-1.09h14.58c3.75-.12,7.32,1.6,9.56,4.61,3.14,4.08,2.37,9.93-1.7,13.07-.68,.52-1.43,.95-2.23,1.27-.8,.33-.98,.51-.49,1.35,2.46,4.1,4.83,8.38,7.29,12.55,.53,.92,.33,1.09-.63,1.06h-6.59c-.62,.07-1.21-.29-1.43-.88-2.05-3.85-4.1-7.68-6.14-11.55-.26-.7-.99-1.11-1.72-.98-1.02,.07-2.04,.07-3.05,0-.82,0-.96,.27-.96,1v11.39c0,.82-.23,1.04-1.04,1.02h-5.41c-.92,0-1.06-.31-1.06-1.13-.04-5.32-.06-10.65-.06-15.97Zm7.47-6.33v3.62c0,.45,0,.76,.61,.74,2.5,.08,5,0,7.49-.2,2.31-.15,4.06-2.14,3.93-4.44-.15-2.31-2.07-4.1-4.38-4.1h-6.92c-.57,0-.76,.18-.74,.74,.02,1.21,0,2.42,0,3.65Zm122.46,22.22c-3.97-6.14-7.92-12.12-11.92-18.14-.53-.48-.57-1.3-.09-1.82,.08-.09,.17-.16,.27-.23,2.48-2.56,4.87-5.2,7.29-7.8l4.38-4.77h-8.19c-.74-.03-1.45,.29-1.9,.88-3.75,4.22-7.52,8.4-11.3,12.57-.23,.27-.39,.68-.9,.7V14.17c0-.74-.16-1.02-.96-1h-5.41c-.92,0-1.15,.25-1.15,1.15v31.82c0,.7,.14,.96,.9,.94h5.75c.68,0,.88-.18,.86-.86,0-1.52,.14-3.07,0-4.57-.63-3.04,.59-6.17,3.11-7.99,.33-.27,.62-.59,.86-.94,.57-.8,.92-.76,1.43,.1,2.78,4.53,5.65,9.01,8.48,13.52,.23,.37,.37,.74,.92,.74h8.31c-.35-.43-.53-.76-.76-1.06Zm-97.29-15.81l.31-6.14c.14-3.69,2.19-7.05,5.41-8.87,5.7-3.28,12.82-2.83,18.06,1.15,2.38,1.97,3.8,4.86,3.93,7.95,.24,3.9,.24,7.81,0,11.71-.09,4.73-3.14,8.89-7.62,10.4-4.29,1.8-9.15,1.64-13.31-.45-4.23-1.89-6.86-6.19-6.61-10.81v-4.91l-.16-.02Zm20.48,.14c-.02-2.05-.15-4.11-.41-6.14-.38-3.05-3.08-5.28-6.14-5.08-3.04-.23-5.73,1.94-6.14,4.96-.54,3.93-.55,7.91-.02,11.84,.09,3.17,2.74,5.66,5.9,5.56,.08,0,.16,0,.24-.01,3.19,.19,5.94-2.24,6.13-5.44,0-.1,0-.2,.01-.3,.37-1.78,.39-3.58,.49-5.39h-.06Zm203.76,0c.06,2.38-.06,4.76-.35,7.13-.55,4.15-3.43,7.62-7.41,8.93-4.4,1.86-9.39,1.64-13.62-.57-3.96-1.85-6.46-5.87-6.37-10.24-.22-3.75-.17-7.52,.12-11.26,.24-5.41,4.26-9.9,9.6-10.73,5.27-1.53,10.95-.1,14.87,3.75,1.72,1.79,2.76,4.13,2.93,6.61,.23,2.11,.32,4.24,.29,6.37l-.06,.02Zm-7.45,0c0-1.99-.11-3.98-.33-5.96-.3-3.12-3.01-5.45-6.14-5.28-3.05-.24-5.75,1.95-6.14,4.98-.57,3.87-.63,7.8-.18,11.69-.05,3.43,2.69,6.25,6.11,6.3s6.25-2.69,6.3-6.11c.39-1.88,.39-3.77,.45-5.65l-.06,.04Zm-114.25,15.85c0,.49-.16,1.02,.7,1h23.49c.68,0,.76-.29,.76-.84v-4.1c0-1.02-.31-1.21-1.25-1.21h-15.15c-.78,0-1.11-.16-1.09-1.02v-5.98c0-.92,.31-1.11,1.15-1.09h12.8c.72,0,.96-.16,.92-.9-.08-1.36-.08-2.73,0-4.1,0-.92-.2-1.19-1.15-1.17h-12.45c-1.09,0-1.31-.31-1.27-1.31,.08-1.68,.08-3.36,0-5.04,0-1.04,.2-1.39,1.33-1.37h15.03c.86,0,1.19-.2,1.13-1.11v-3.97c0-.86-.29-1.04-1.06-1.04-7.59,0-15.19,0-22.79,0-.88,0-1.11,.2-1.11,1.09v15.85l.02,16.3Zm62.05-15.95V14.39c0-.9,.23-1.09,1.09-1.09h14.46c4.81-.19,9.21,2.68,11,7.15,1.91,5.38-.9,11.29-6.28,13.21-.69,.25-1.41,.42-2.14,.51-3.11,.43-6.25,.54-9.38,.33-1.09,0-1.29,.31-1.27,1.31v10.24c0,.84-.25,1.06-1.04,1.04h-5.41c-.94,0-1.06-.31-1.06-1.13,.06-5.16,.04-10.44,.04-15.73Zm7.47-6.33v3.65c0,.63,.14,.92,.84,.9,2.27,0,4.55,0,6.82-.12,2.41,.05,4.4-1.87,4.44-4.28,0-.07,0-.14,0-.21-.06-2.47-2.09-4.44-4.57-4.4h-6.7c-.7,0-.86,.25-.84,.88,.02,1.17,0,2.38,0,3.58Zm-138.45,11.08c.23,5.71,2.05,9.17,8.19,11.59,3.28,1.24,6.87,1.38,10.24,.39,4.56-1.02,8.13-4.58,9.17-9.13,.2-.8,.2-1.27-.9-1.21-1.76,.09-3.52,.09-5.28,0-.73-.14-1.44,.33-1.6,1.06-.96,2.65-3.69,4.23-6.47,3.75-2.85,.03-5.24-2.14-5.49-4.98-.52-3.8-.57-7.65-.16-11.47,.03-1.71,.77-3.33,2.05-4.46,2.76-2.29,6.85-1.91,9.14,.85,.41,.5,.75,1.05,1,1.65,.25,.63,.51,.9,1.23,.88h5.88c.7,0,.88-.16,.7-.86-.54-2.63-1.93-5.01-3.95-6.78-5.3-3.96-12.47-4.34-18.16-.96-2.94,1.7-4.89,4.7-5.24,8.07-.25,2.29-.18,4.61-.2,6.9-.14,1.58-.18,3.13-.12,4.71Zm107.88,11.04c0,1,.29,1.23,1.23,1.19h5.06c1,0,1.21-.29,1.21-1.25V20.49c0-.84,.18-1.13,1.09-1.11h7.76c.78,0,1.02-.2,1-.98v-4.24c0-.61-.12-.9-.82-.88h-25.52c-.72,0-.84,.27-.82,.9v4.22c0,.8,.25,.98,1,.98h7.86c.84,0,1.04,.23,1.04,1.04v12.8c0,4.26-.04,8.52-.1,12.8Zm96.25,.12c0,.8,.16,1.11,1.02,1.06,1.68-.09,3.36-.09,5.04,0,1.11,0,1.45-.18,1.43-1.37V20.49c0-.88,.2-1.13,1.11-1.11h7.74c.78,0,1.02-.23,1-.98v-4.24c0-.61-.1-.9-.82-.88h-25.49c-.72,0-.84,.27-.84,.88v4.24c0,.8,.25,1,1,.98h7.88c.84,0,1.02,.25,1.02,1.06v12.78c0,4.26-.16,8.62-.2,12.92h.1Z" style="fill:#fff;"/></svg>