<svg width="200" height="43" viewBox="0 0 200 43" fill="none" xmlns="http://www.w3.org/2000/svg">
<path d="M40.2423 0.020752C38.0389 2.92052 35.9602 5.63321 33.9023 8.37708C33.5282 8.87597 33.0605 8.81361 32.572 8.81361C28.5081 8.84479 24.4339 8.75125 20.3701 8.92794C14.3315 9.18777 9.39458 14.5196 9.25947 20.7037C9.13475 26.867 13.7702 32.2197 19.7465 32.9056C22.2721 33.1966 24.8081 33.1031 27.3337 33.0719C29.5475 33.0407 31.2208 31.2531 31.2 29.164C31.1792 27.0749 29.5059 25.3704 27.2713 25.3392C23.7479 25.2872 20.2142 25.3288 16.6908 25.3288C16.4725 24.8299 16.8986 24.622 17.0961 24.3622C18.8838 22.0237 20.7027 19.7059 22.4799 17.3674C22.8853 16.8373 23.3114 16.5671 24.0182 16.5775C27.053 16.6191 30.0775 16.6087 33.1124 16.5879C33.7984 16.5775 34.0894 16.6087 33.9647 17.5025C32.9461 24.5701 34.7546 30.8789 39.3277 36.3562C40.0968 37.2813 39.7954 38.1647 39.5771 39.0378C39.1302 40.7735 37.4153 42.0415 35.5965 42.0519C30.2438 42.0623 24.8808 42.2389 19.5282 41.9999C11.0264 41.6257 2.81553 35.4312 0.591332 25.9836C-2.31883 13.605 5.80884 1.89157 18.4577 0.0831126C18.7487 0.0415388 19.0397 0.0311451 19.3307 0.0311451C26.2216 0.0207517 33.1124 0.020752 40.2423 0.020752Z" fill="#FEFEFE"/>
<path d="M52.7873 25.1002C53.6084 24.0297 54.4295 22.9591 55.2506 21.899C56.3419 20.4855 57.4852 19.1239 58.5037 17.6585C59.065 16.8582 59.6678 16.5568 60.6552 16.5775C64.2201 16.6399 67.7955 16.5879 71.3604 16.6087C74.6551 16.6191 76.4428 18.3756 76.4532 21.6703C76.474 26.8151 76.4116 31.9495 76.474 37.0942C76.5156 40.3162 74.2394 42.2078 71.4851 42.1246C66.6314 41.9687 61.7777 42.1039 56.9239 42.0727C47.2996 42.0103 38.382 34.2152 36.9477 24.6948C36.584 22.2628 36.5943 19.8411 36.9373 17.3986C37.0413 16.6711 37.2803 16.432 38.0182 16.4424C40.5439 16.484 43.0799 16.4944 45.6159 16.4424C46.5721 16.4216 46.7799 16.536 46.4681 17.5649C44.7948 23.0735 47.0709 28.6651 52.0494 31.4921C53.7331 32.4483 55.5624 32.968 57.4852 33.0408C59.6782 33.1343 61.8816 33.1759 64.0746 33.0927C66.2261 33.0096 67.8474 31.2323 67.837 29.2056C67.8267 27.1165 66.1533 25.4016 63.9291 25.36C60.572 25.308 57.2045 25.3392 53.8475 25.3288C53.5357 25.308 53.1927 25.4328 52.7873 25.1002Z" fill="#FEFEFE"/>
<path d="M156.618 27.5738C161.95 27.5738 167.042 27.6154 172.135 27.5426C173.33 27.5218 173.777 27.8129 173.611 29.0289C173.466 30.0786 174.058 31.5025 173.362 32.1261C172.769 32.6458 171.397 32.3132 170.368 32.3132C165.93 32.3236 161.492 32.3236 157.054 32.3236C156.982 32.3236 156.909 32.3652 156.836 32.3964C157.418 34.1009 159.258 35.3377 161.368 35.3481C165.099 35.3689 168.84 35.3793 172.572 35.3377C173.362 35.3273 173.705 35.504 173.632 36.3563C173.528 37.5411 174.12 39.1001 173.414 39.8381C172.707 40.576 171.137 40.0356 169.953 40.0563C167.053 40.0875 164.143 40.0875 161.243 40.0667C155.807 40.0252 151.348 35.4832 151.348 30.0163C151.348 24.5597 155.817 19.9866 161.243 19.945C165.016 19.9138 168.799 19.9658 172.572 19.9138C173.476 19.9034 173.705 20.1945 173.642 21.0363C173.559 22.19 173.996 23.6867 173.414 24.4038C172.811 25.1521 171.241 24.6221 170.098 24.6325C167.281 24.6636 164.454 24.6221 161.638 24.6533C159.507 24.6533 157.896 25.5679 156.618 27.5738Z" fill="#FEFEFE"/>
<path d="M200 40.0668C197.558 40.0668 195.489 40.0564 193.431 40.0772C193.026 40.0772 192.725 39.8901 192.423 39.6822C189.669 37.7698 186.925 35.8366 184.14 33.9554C183.339 33.415 182.965 32.7602 183.225 31.8663C183.506 30.9101 184.306 30.7231 185.2 30.7231C187.195 30.7335 189.18 30.7439 191.176 30.7231C193.317 30.7023 194.689 29.3823 194.679 27.3972C194.668 25.4016 193.296 24.1128 191.155 24.1024C187.84 24.092 184.514 24.1232 181.198 24.0817C180.398 24.0713 180.159 24.2687 180.169 25.0898C180.211 29.7357 180.159 34.3816 180.211 39.017C180.221 39.9109 179.961 40.1811 179.109 40.0772C178.091 39.9524 176.739 40.5137 176.137 39.8589C175.627 39.3081 175.96 37.9777 175.96 36.9903C175.95 31.6377 175.97 26.2955 175.939 20.9428C175.939 20.1633 176.095 19.8931 176.937 19.9035C181.832 19.9451 186.728 19.9035 191.633 19.9347C195.406 19.9555 198.618 22.9592 198.846 26.6177C199.106 30.879 196.622 34.049 192.589 34.631C192.527 34.6414 192.465 34.6934 192.267 34.8077C194.782 36.5122 197.225 38.1752 200 40.0668Z" fill="#FEFEFE"/>
<path d="M40.7932 8.68895C40.9699 8.02377 41.4168 7.63922 41.791 7.22348C46.0315 2.51525 51.2698 -0.0103615 57.6722 3.19501e-05C63.9394 0.0104254 70.1963 3.19501e-05 76.4635 3.19501e-05C76.8689 3.19501e-05 77.2742 3.19501e-05 77.6588 3.19501e-05C77.7939 0.498917 77.4509 0.686 77.2742 0.935442C75.4761 3.31554 73.6573 5.67485 71.8696 8.06535C71.5162 8.54345 71.1421 8.76171 70.5289 8.76171C60.8214 8.74092 51.1139 8.75131 41.4064 8.75131C41.2193 8.74092 41.0323 8.70974 40.7932 8.68895Z" fill="white"/>
<path d="M82.3149 29.9851C82.3149 27.0022 82.3461 24.0193 82.2941 21.026C82.2837 20.2049 82.4292 19.8827 83.3542 19.8931C88.2495 19.945 93.1553 19.9035 98.0506 19.9242C102.052 19.945 105.212 23.167 105.295 27.2516C105.378 31.357 102.343 34.6518 98.2896 34.7557C95.3483 34.8284 92.3965 34.7557 89.4448 34.7869C88.738 34.7973 88.5406 34.579 88.5302 33.8722C88.4574 30.7022 88.4366 30.7022 91.5339 30.7022C93.571 30.7022 95.5977 30.723 97.6348 30.6919C99.7343 30.6607 101.221 29.2472 101.137 27.3244C101.054 25.3392 99.4745 23.9569 97.5413 24.0401C94.3089 24.1648 91.0662 24.1128 87.8338 24.0504C86.9296 24.0297 86.649 24.2271 86.6594 25.1833C86.7217 29.7461 86.6594 34.3088 86.7009 38.8611C86.7113 39.7342 86.5762 40.1811 85.5784 40.046C84.5287 39.9005 83.1048 40.5033 82.4916 39.7965C81.9719 39.1937 82.3149 37.8322 82.3149 36.8032C82.3045 34.5478 82.3149 32.2613 82.3149 29.9851Z" fill="#FEFEFE"/>
<path d="M153.624 39.994C151.733 39.994 149.841 39.994 147.95 39.994C147.482 39.994 147.201 39.6718 146.89 39.4119C143.938 37.0007 140.986 34.5998 138.034 32.1781C136.392 30.827 136.34 28.9977 137.972 27.6466C140.934 25.1833 143.938 22.772 146.921 20.34C147.212 20.1009 147.482 19.9034 147.908 19.9034C149.8 19.9242 151.702 19.9138 153.947 19.9138C151.899 21.5976 150.101 23.0734 148.303 24.5597C146.578 25.9836 144.832 27.3867 143.117 28.821C142.036 29.7252 142.057 30.141 143.158 31.0556C146.671 33.945 150.184 36.8344 153.697 39.7341C153.676 39.8173 153.645 39.9108 153.624 39.994Z" fill="#FEFEFE"/>
<path d="M131.611 29.9852C131.611 26.9607 131.642 23.9362 131.59 20.9117C131.58 20.0698 131.84 19.8412 132.63 19.9035C133.659 19.9867 135.03 19.571 135.633 20.0906C136.34 20.6934 135.862 22.107 135.862 23.1671C135.883 28.4262 135.841 33.6956 135.904 38.9547C135.914 39.9213 135.633 40.1915 134.729 40.0772C133.721 39.9421 132.359 40.5241 131.767 39.8382C131.268 39.2561 131.611 37.9466 131.611 36.9592C131.611 34.6311 131.611 32.3133 131.611 29.9852Z" fill="#FEFEFE"/>
<path d="M118.349 19.2174C112.186 19.1758 107.083 24.2375 107.083 30.4112C107.083 36.5745 112.04 41.5425 118.214 41.5529C124.471 41.5633 129.491 36.6057 129.501 30.4216C129.501 24.3206 124.471 19.259 118.349 19.2174ZM118.235 37.4683C114.369 37.4371 111.199 34.2983 111.157 30.4631C111.115 26.6072 114.348 23.3644 118.245 23.3644C122.164 23.354 125.375 26.5448 125.375 30.4216C125.375 34.2983 122.143 37.4995 118.235 37.4683Z" fill="#FEFEFE"/>
</svg>
