<?xml version="1.0" encoding="utf-8"?>
<!-- Generator: Adobe Illustrator 23.0.6, SVG Export Plug-In . SVG Version: 6.00 Build 0)  -->
<svg version="1.1" id="Layer_1" xmlns="http://www.w3.org/2000/svg" xmlns:xlink="http://www.w3.org/1999/xlink" x="0px" y="0px"
	 width="200px" height="56px" viewBox="0 0 200 56" style="enable-background:new 0 0 200 56;" xml:space="preserve">
<style type="text/css">
	.st0{fill:#FFFFFF;}
	.st1{fill:#40C4FF;}
</style>
<g>
	<title>Layer 1</title>
	<path id="svg_1" class="st0" d="M10.4,2H1.6v51.6h8.8V2z M25.9,20.7h-8.6v32.9h8.6V20.7z M25.1,9.2c-0.4-0.4-1-0.7-1.6-1
		c-0.6-0.2-1.3-0.4-1.9-0.4c-0.7,0-1.3,0.1-2,0.4c-0.6,0.3-1.1,0.6-1.6,1c-0.5,0.4-0.8,0.9-1.1,1.5c-0.2,0.6-0.4,1.2-0.4,1.8
		c0,1.3,0.5,2.4,1.4,3.3c0.9,0.9,2.1,1.4,3.5,1.4c0.7,0,1.3-0.1,1.9-0.4c0.6-0.2,1.1-0.6,1.6-1c0.4-0.4,0.8-0.9,1.1-1.5
		c0.3-0.6,0.4-1.2,0.4-1.8c0-0.6-0.1-1.3-0.4-1.8C25.9,10.1,25.6,9.6,25.1,9.2C25.1,9.2,25.1,9.2,25.1,9.2z M58.7,31.2
		c-1.1-1.2-2.4-2.2-3.9-2.9c-1.5-0.7-3.2-1.1-5.1-1.1c-1.9,0-3.6,0.4-4.9,1.1c-1.3,0.7-2.4,1.5-3.1,2.4h-0.1V14.5h-8.6v39.1h8v-3.4
		H41c0.8,1.3,2,2.3,3.6,3c1.6,0.7,3.2,1.1,5,1.1c2,0,3.7-0.4,5.3-1.1c1.5-0.8,2.9-1.8,3.9-3c1.1-1.3,1.9-2.7,2.4-4.4
		c0.6-1.7,0.8-3.4,0.8-5.2c0-1.8-0.3-3.5-0.9-5.1C60.6,33.9,59.7,32.4,58.7,31.2z M53.3,43.1c-0.3,0.8-0.7,1.5-1.2,2.1
		c-0.5,0.6-1.2,1.1-2,1.5c-0.8,0.4-1.7,0.6-2.7,0.6c-1,0-1.9-0.2-2.6-0.6c-0.7-0.4-1.4-0.9-2-1.5c-0.6-0.6-1-1.3-1.3-2.1
		c-0.3-0.8-0.4-1.6-0.4-2.4c0-0.8,0.2-1.6,0.4-2.4c0.3-0.8,0.7-1.5,1.3-2.1c0.6-0.6,1.2-1.1,2-1.5c0.8-0.4,1.7-0.6,2.6-0.6
		c1,0,1.9,0.2,2.7,0.6c0.8,0.4,1.4,0.9,2,1.5c0.5,0.6,0.9,1.3,1.2,2.1c0.3,0.8,0.4,1.6,0.4,2.4C53.7,41.5,53.6,42.3,53.3,43.1z
		 M83,27.1c-1.6,0-3,0.4-4.3,1.3c-1.2,0.8-2.2,1.9-2.8,3.2h-0.1V27h-8.3v26.6h8.6V40.4c0-0.5,0.1-1.1,0.3-1.8c0.2-0.7,0.6-1.3,1-1.9
		c0.5-0.6,1.1-1.1,1.9-1.5c0.8-0.4,1.8-0.6,2.9-0.6c0.4,0,0.7,0,1.1,0c0.4,0,0.8,0.1,1.1,0.2l0.4-7.5c-0.3-0.1-0.5-0.1-0.8-0.2
		C83.7,27.2,83.4,27.1,83,27.1L83,27.1z M108.2,30.3c-0.9-1.1-2.2-1.9-3.7-2.5c-1.5-0.5-3.4-0.8-5.6-0.8c-2.1,0-4.3,0.4-6.3,1.1
		c-2,0.7-3.8,1.8-5.4,3.3l4.4,4.6c0.8-0.7,1.8-1.3,2.9-1.9c1.1-0.5,2.3-0.8,3.5-0.8c1.3,0,2.5,0.3,3.4,0.9c0.9,0.6,1.4,1.5,1.4,2.8
		v0.4c-1.9,0-3.9,0.1-5.9,0.3c-2,0.2-3.8,0.6-5.5,1.2c-1.6,0.6-3,1.5-4,2.6c-1,1.1-1.6,2.6-1.6,4.5c0,1.5,0.3,2.8,0.9,3.8
		c0.6,1,1.4,1.9,2.3,2.5c0.9,0.6,2,1.1,3.1,1.3c1.1,0.3,2.2,0.4,3.3,0.4c1.6,0,3-0.3,4.4-0.9c1.3-0.6,2.4-1.4,3-2.5h0.2v2.7h7.9v-13
		c0-2.3-0.2-4.4-0.7-6.1C109.8,32.8,109.1,31.4,108.2,30.3L108.2,30.3L108.2,30.3z M103,43.3c0,1.6-0.5,2.9-1.4,3.8
		c-0.9,1-2.3,1.4-4,1.4c-0.4,0-0.9,0-1.3-0.1c-0.4-0.1-0.8-0.2-1.2-0.4c-0.4-0.2-0.6-0.5-0.9-0.8c-0.2-0.4-0.4-0.8-0.4-1.2
		c0-0.8,0.2-1.4,0.7-1.8c0.5-0.5,1.1-0.8,1.9-1.1c0.7-0.2,1.6-0.4,2.6-0.5c1-0.1,1.9-0.1,2.9-0.1h1.1L103,43.3L103,43.3z"/>
	<path id="svg_2" class="st1" d="M143.2,31.2c-1.1-1.2-2.4-2.2-3.9-2.9c-1.5-0.7-3.2-1.1-5.1-1.1c-1.9,0-3.6,0.4-4.9,1.1
		c-1.3,0.7-2.4,1.5-3.1,2.4h-0.1V14.5h-8.7v39.1h8v-3.4h0.1c0.8,1.3,2,2.3,3.6,3c1.6,0.7,3.2,1.1,5,1.1c2,0,3.7-0.4,5.3-1.1
		c1.5-0.8,2.9-1.8,3.9-3c1.1-1.3,1.9-2.7,2.4-4.4c0.6-1.7,0.8-3.4,0.8-5.2c0-1.8-0.3-3.5-0.9-5.1C145.1,33.9,144.3,32.4,143.2,31.2
		L143.2,31.2z M137.9,43.1c-0.3,0.8-0.7,1.5-1.2,2.1c-0.5,0.6-1.2,1.1-2,1.5c-0.8,0.4-1.7,0.6-2.7,0.6c-1,0-1.9-0.2-2.6-0.6
		c-0.7-0.4-1.4-0.9-2-1.5c-0.6-0.6-1-1.3-1.3-2.1c-0.3-0.8-0.4-1.6-0.4-2.4c0-0.8,0.2-1.6,0.4-2.4c0.3-0.8,0.7-1.5,1.3-2.1
		c0.6-0.6,1.2-1.1,2-1.5c0.8-0.4,1.7-0.6,2.6-0.6c1,0,1.9,0.2,2.7,0.6c0.8,0.4,1.4,0.9,2,1.5c0.5,0.6,0.9,1.3,1.2,2.1
		c0.3,0.8,0.4,1.6,0.4,2.4C138.3,41.5,138.1,42.3,137.9,43.1z M174.4,30.7c-1.2-1.2-2.6-2.1-4.2-2.8c-1.6-0.6-3.4-1-5.3-1
		c-2,0-3.9,0.3-5.6,1c-1.7,0.6-3.2,1.6-4.5,2.8c-1.3,1.2-2.3,2.6-3,4.3c-0.7,1.7-1.1,3.6-1.1,5.7c0,2.2,0.4,4.1,1.1,5.8
		c0.7,1.7,1.8,3.1,3.1,4.3c1.3,1.1,2.9,2,4.6,2.6c1.8,0.6,3.6,0.9,5.6,0.9c2.7,0,5-0.5,7-1.4c2-1,3.6-2.3,4.9-4.1l-6-3.7
		c-0.6,0.8-1.4,1.4-2.3,1.9c-0.9,0.5-2.1,0.8-3.5,0.8c-0.8,0-1.5-0.1-2.2-0.4c-0.7-0.2-1.4-0.6-2-1c-0.6-0.4-1.1-0.9-1.4-1.5
		c-0.4-0.6-0.6-1.2-0.7-2h19c0-0.3,0-0.6,0-1v-1c0-2.2-0.3-4.2-1-5.9C176.5,33.4,175.6,32,174.4,30.7L174.4,30.7z M159,37.8
		c0-0.7,0.2-1.3,0.5-1.9c0.3-0.6,0.7-1.1,1.3-1.6c0.5-0.5,1.1-0.8,1.9-1.1c0.7-0.3,1.5-0.4,2.3-0.4c1.7,0,3,0.5,3.9,1.4
		c0.9,1,1.3,2.1,1.3,3.5L159,37.8L159,37.8z M199,23v-6.3h-6.2V7.8h-8.5v8.8h-4.2V23h4.2v22.1c0,1.4,0.2,2.6,0.5,3.8
		c0.3,1.1,0.8,2.1,1.6,2.9c0.7,0.8,1.7,1.4,2.9,1.9c1.2,0.4,2.7,0.6,4.4,0.6c0.9,0,1.8-0.1,2.7-0.2c0.9-0.2,1.7-0.3,2.3-0.5
		l-0.1-6.2c-0.3,0.1-0.7,0.2-1.2,0.3c-0.5,0.1-0.9,0.1-1.3,0.1c-1.2,0-2.1-0.3-2.6-0.9c-0.5-0.6-0.7-1.5-0.7-2.7V23H199z"/>
</g>
</svg>
