<?xml version="1.0" encoding="utf-8"?>
<!-- Generator: Adobe Illustrator 23.0.6, SVG Export Plug-In . SVG Version: 6.00 Build 0)  -->
<svg version="1.1" id="Layer_1" xmlns="http://www.w3.org/2000/svg" xmlns:xlink="http://www.w3.org/1999/xlink" x="0px" y="0px"
	 width="200px" height="38px" viewBox="0 0 200 38" style="enable-background:new 0 0 200 38;" xml:space="preserve">
<style type="text/css">
	.st0{fill:#FEFEFE;}
	.st1{fill:#FEBB00;}
	.st2{fill:#706340;}
</style>
<g>
	<path class="st0" d="M36.9,1.3c2.7,0,5.4,0,8.1,0c0.2,0.4,0.1,0.8,0,1.3c-1.1,5.7-2.2,11.5-3.3,17.2c-1,5.2-2,10.3-3,15.5
		c-0.1,0.5,0,1.1-0.7,1.2c-2.5,0-5,0-7.5,0c-0.8-0.2-0.4-0.8-0.3-1.2c0.6-3.2,1.2-6.4,1.9-9.6c0.3-1.3,0.4-2.6,0.8-4
		c-1.5,2-2.8,3.9-4.2,5.8c-2,2.8-3.9,5.5-5.9,8.3c-0.3,0.4-0.5,0.8-1.1,0.7c-1.5,0-3,0-4.5,0c-0.7-0.1-0.7-0.7-0.8-1.2
		c-1.4-4.4-2.9-8.8-4.3-13.2c0-0.1,0-0.2-0.2-0.2c-0.9,4.5-1.8,9-2.6,13.5c-0.1,0.5,0,1.1-0.8,1.2c-2.2,0-4.5,0-6.7,0
		c-0.3,0-0.7,0.1-1-0.1c0-0.2,0-0.4,0-0.6C2.2,25.5,4.4,15.4,6.4,5.2c0.2-0.9,0.3-1.8,0.5-2.7C6.9,2,7,1.6,7.3,1.3
		c2.7,0,5.4,0,8.1,0c0.4,0.3,0.5,0.8,0.6,1.2c1.9,6.3,3.9,12.6,5.8,19c0.1,0.2,0.1,0.4,0.4,0.7c0.6-0.9,1.2-1.7,1.8-2.6
		C28,13.8,32,8,35.9,2.3C36.2,1.9,36.4,1.5,36.9,1.3z"/>
	<path class="st1" d="M134.5,1.3c10.1,0,20.1,0,30.2,0c0.3,0.4,0.1,0.8,0,1.2c-0.4,1.9-0.7,3.7-1.1,5.5c-0.3,1.5-0.5,1.6-2,1.6
		c-6.1,0-12.2,0-18.3,0c-0.4,0-0.7,0-1.1,0c-0.7,0-1,0.3-1.1,1c-0.2,0.9-0.4,1.8-0.5,2.7c-0.2,0.9-0.1,1,0.9,1c1.8,0,3.6,0,5.5,0
		c2.9,0,5.8,0,8.7,0c1.5,0,1.7,0.3,1.4,1.7c-0.3,1.8-0.7,3.6-1.1,5.4c-0.2,1.3-0.5,1.5-1.9,1.5c-4.6,0-9.3,0-13.9,0
		c-1.6,0-1.6,0-1.9,1.5c-0.2,0.8-0.3,1.6-0.5,2.4c-0.1,0.7,0.1,1,0.8,1c0.3,0,0.7,0,1,0c5.8,0,11.6,0,17.4,0c0.3,0,0.5,0,0.8,0
		c1.5,0,1.7,0.3,1.4,1.8c-0.4,1.8-0.7,3.6-1.1,5.4c-0.1,0.4-0.1,1-0.7,1.1c-9.9,0-19.8,0-29.7,0c-0.7-0.4-0.3-0.9-0.2-1.4
		c0.6-3.5,1.4-7.1,2-10.6c1.4-7.3,2.8-14.5,4.2-21.8C134,2.2,134.1,1.7,134.5,1.3z"/>
	<path class="st0" d="M47,1.3c10,0,20,0,30,0c0.3,0.4,0.2,0.9,0.1,1.3c-0.3,1.9-0.7,3.8-1.1,5.6c-0.3,1.3-0.5,1.5-1.8,1.5
		c-3.7,0-7.4,0-11.1,0c-2.6,0-5.3,0-7.9,0c-1.4,0-1.5,0.1-1.7,1.5c-0.1,0.7-0.3,1.4-0.4,2c-0.2,1.2-0.1,1.2,1.1,1.2
		c3.3,0,6.7,0,10,0c1.4,0,2.8,0,4.3,0c1.1,0,1.3,0.3,1.1,1.4c-0.4,2-0.7,4-1.1,5.9c-0.3,1.2-0.5,1.4-1.8,1.4c-4.6,0-9.3,0-13.9,0
		c-1.6,0-1.7,0-2,1.7c-0.1,0.7-0.3,1.5-0.4,2.2c-0.2,0.7,0.1,1.1,0.8,1c0.9,0,1.9,0,2.8,0c5.3,0,10.5,0,15.8,0c0.3,0,0.5,0,0.8,0
		c1.4,0,1.6,0.2,1.4,1.7c-0.3,1.9-0.8,3.8-1.1,5.7c-0.1,0.4-0.2,0.7-0.5,0.9c-9.7,0-19.5,0-29.2,0c-0.3,0-0.6,0.1-0.8-0.2
		c-0.2-0.7,0-1.4,0.2-2.1c1.1-5.3,2.1-10.7,3.1-16c1-5.2,2-10.4,3-15.7C46.5,2,46.5,1.5,47,1.3z"/>
	<path class="st1" d="M172.1,36c1.6-8.5,3.3-17,4.9-25.4c0.2-1.2,0.2-1.2-1-1.2c-3.4,0-6.8,0-10.2,0c-0.6,0-0.9,0-0.7-0.8
		c0.5-2.4,1-4.8,1.5-7.3c10.4,0,20.8,0,31.1,0c1,0,1.4,0.2,1.2,1.2c0,0.1,0,0.3,0,0.4c-0.2,1.8-0.4,3.7-0.9,5.5
		c-0.3,1.2-0.5,1.4-1.7,1.4c-3.1,0-6.2,0-9.3,0c-1.5,0-1.5,0-1.8,1.5c-1.5,7.8-3.1,15.7-4.6,23.5c-0.1,0.6-0.1,1.3-0.7,1.8
		c-2.4,0-4.7,0-7.1,0C172.6,36.5,172,36.7,172.1,36z"/>
	<path class="st0" d="M94.7,28.4c1.3,0,2.7,0,4,0c0.5,0,0.6,0.1,0.5,0.6c-0.5,2.4-1,4.9-1.4,7.3c-0.1,0-0.1,0.1-0.2,0.1
		c-1.5,0-3,0-4.5,0c-6.9,0-13.8,0-20.8,0c-0.6-0.3-0.3-0.8-0.2-1.2c0.4-2.8,1-5.5,1.6-8.3c1.6-8.2,3.2-16.4,4.8-24.6
		c0.1-0.4,0.2-0.8,0.4-1.1c2.7,0,5.4,0,8.1,0c0.3,0.5,0.1,1,0,1.4c-1.5,8-3.1,15.9-4.6,23.9c0,0.2-0.1,0.5-0.1,0.7
		c-0.1,0.5,0.1,0.8,0.7,0.8c0.3,0,0.6,0,0.9,0c3.2,0,6.3,0,9.5,0C93.8,28.2,94.3,28.1,94.7,28.4z"/>
	<path class="st2" d="M97.8,36.4c0,0.1,0,0.1,0,0.2c-1.5,0-3,0-4.6,0c0-0.1,0-0.1,0-0.2C94.7,36.4,96.3,36.4,97.8,36.4z"/>
	<path class="st1" d="M130.1,14c1.2-3,1.2-6-0.5-8.8c-1.4-2.3-3.4-3.7-6.2-3.9c-7.8,0-15.6,0-23.4,0c-0.4,0.4-0.4,0.9-0.5,1.3
		c-1.6,8.3-3.2,16.6-4.8,24.9c-0.1,0.3-0.2,0.6,0,1c1,0.4,2,0.2,3,0.2c1.3,0,1.3,0,1.1,1.3c-0.3,1.8-0.7,3.5-1,5.2
		c-0.1,0.4-0.4,0.9,0.2,1.2c5.8,0,11.6,0,17.4,0c2,0.1,3.8-0.4,5.5-1.3c1.7-0.9,3.1-2.1,4.3-3.6c2.9-3.6,4.1-7.5,1.8-11.9
		c-0.4-0.7-0.1-1.3,0.4-1.8C128.6,16.8,129.5,15.5,130.1,14z M122.1,13c-0.6,1.1-1.6,1.8-3,1.8c-2.8,0-5.6,0-8.3,0
		c-0.7,0-1,0.2-1.1,0.9c-0.4,2.1-0.8,4.1-1.3,6.2c-0.2,0.8-0.1,1,0.8,1c2.7-0.1,5.4,0,8.1,0c1,0,1.8,0.2,2.3,1.1
		c0.5,0.9,0.3,1.9-0.2,2.7c-0.7,1.1-1.7,1.7-3.1,1.7c-4.3,0-8.5,0-12.8,0c-0.6,0-0.8-0.1-0.6-0.8c1.2-5.9,2.3-11.8,3.4-17.7
		c0.1-0.6,0.4-0.7,0.9-0.7c2.2,0,4.4,0,6.5,0c2.1,0,4.2,0.1,6.2,0C122.2,9.3,123,11.3,122.1,13z"/>
</g>
</svg>
