<?xml version="1.0" encoding="utf-8"?>
<!-- Generator: Adobe Illustrator 16.0.0, SVG Export Plug-In . SVG Version: 6.00 Build 0)  -->
<!DOCTYPE svg PUBLIC "-//W3C//DTD SVG 1.1//EN" "http://www.w3.org/Graphics/SVG/1.1/DTD/svg11.dtd">
<svg version="1.1" id="Layer_1" xmlns="http://www.w3.org/2000/svg" xmlns:xlink="http://www.w3.org/1999/xlink" x="0px" y="0px"
	 width="200px" height="88.951px" viewBox="0 51.5 200 88.951" enable-background="new 0 51.5 200 88.951" xml:space="preserve">
<g>
	<path fill="#0CD564" d="M80.741,73.875c-0.656-2.545-0.955-5.102-0.239-7.688c2.341-8.451,12.063-11.894,19.227-6.812
		c0.248,0.176,0.489,0.357,0.735,0.537c1.847,0.994,2.69,2.804,3.669,4.506c3.407,7.773-1.67,17.389-11.243,17.913
		c-3.64,0.2-6.902-1.129-9.447-3.894C82.248,77.092,81.109,75.711,80.741,73.875z"/>
	<path fill="#FFFFFF" d="M5.436,122.807c0.568,1.237,1.254,2.284,2.097,3.215c2.248,2.479,6.332,1.85,7.725-1.178
		c0.914-1.984,0.391-3.722-1.491-4.841c-1.773-1.058-3.783-1.578-5.64-2.444c-2.931-1.365-5.03-3.354-4.995-6.887
		c0.031-3.193,1.805-5.787,4.826-7.029c3.324-1.369,7.291-0.629,9.697,1.811c2.105,2.131,1.758,3.418-1.113,4.438
		c-0.819,0.289-0.861-0.383-1.105-0.711c-1.098-1.479-2.476-2.336-4.37-2.215c-1.753,0.112-3.235,1.284-3.638,2.887
		c-0.394,1.563,0.171,2.873,1.94,3.772c1.72,0.875,3.579,1.474,5.334,2.285c2.399,1.108,4.451,2.593,5.056,5.403
		c1.205,5.596-3.589,10.698-9.56,10.233c-3.547-0.274-5.887-2.147-7.449-5.239c-0.477-0.94-0.403-1.516,0.542-2.035
		C4.035,123.861,4.701,123.316,5.436,122.807z"/>
	<path fill="#FFFFFF" d="M99.393,112.15c1.201,0.037,2.621,0.545,3.815,1.623c2.044,1.838,1.912,2.492-0.61,3.602
		c-0.57,0.251-0.902,0.295-1.285-0.247c-0.47-0.663-1.074-1.188-1.941-1.267c-1.165-0.104-2.236,0.076-2.615,1.369
		c-0.362,1.24,0.55,1.722,1.486,2.115c1.311,0.553,2.637,1.067,3.933,1.649c4.501,2.024,3.419,7.013,0.964,9.006
		c-3.7,3.004-9.389,1.46-11.016-3.024c-0.187-0.517-0.232-0.832,0.34-1.037c0.482-0.174,0.987-0.314,1.426-0.566
		c0.881-0.504,1.491-0.518,1.964,0.568c0.452,1.033,1.285,1.766,2.47,1.888c1.251,0.131,2.292-0.259,2.723-1.547
		c0.445-1.335-0.351-2.021-1.466-2.466c-0.95-0.383-1.911-0.74-2.856-1.135c-3.081-1.285-4.376-3.328-3.845-6.041
		C93.383,114.061,96.019,112.125,99.393,112.15z"/>
	<path fill="#FFFFFF" d="M81.832,121.844c0-1.086,0.021-2.173-0.006-3.258c-0.026-1.027,0.486-2.152-1.473-2.295
		c-1.049-0.074-0.295-1.76-0.486-2.697c-0.11-0.539,0.125-0.938,0.735-0.832c1.421,0.246,1.134-0.72,1.263-1.559
		c0.147-0.959-0.695-2.166,0.734-2.855c3.321-1.603,3.359-1.625,3.285,2.069c-0.031,1.506-0.091,2.785,2.028,2.341
		c0.699-0.146,0.886,0.264,0.838,0.893c-0.035,0.453-0.055,0.92,0.003,1.369c0.14,1.082-0.206,1.646-1.382,1.434
		c-1.215-0.223-1.537,0.297-1.491,1.482c0.096,2.514,0.041,5.029,0.04,7.545c-0.001,1.387,0.435,2.273,2.048,1.806
		c0.792-0.231,1.251-0.058,1.063,0.854c-0.196,0.941,0.633,2.254-0.446,2.795c-1.347,0.674-2.903,0.59-4.296-0.18
		c-1.745-0.962-2.312-2.615-2.416-4.453c-0.084-1.48-0.017-2.97-0.017-4.455C81.847,121.844,81.84,121.844,81.832,121.844z"/>
	<path fill="#FFFFFF" d="M156.67,107.252c0,1.389,0.079,2.76-0.023,4.116c-0.086,1.153,0.338,1.588,1.433,1.375
		c1.489-0.291,1.524,0.603,1.457,1.676c-0.065,1.019,0.379,2.362-1.491,2.031c-1.15-0.203-1.434,0.305-1.396,1.403
		c0.078,2.512,0.022,5.027,0.025,7.545c0.002,1.449,0.461,2.385,2.161,1.869c0.783-0.236,0.938,0.088,0.974,0.836
		c0.144,2.942-1.076,3.881-3.949,2.967c-1.771-0.563-2.701-1.836-3.014-3.596c-0.562-3.181-0.15-6.391-0.255-9.582
		c-0.024-0.824,0.109-1.658-1.172-1.453c-0.483,0.076-0.866-0.269-0.71-0.701c0.381-1.051-1.285-3.115,1.484-3.036
		c0.521,0.016,0.358-0.611,0.384-0.979C152.803,108.227,152.912,108.104,156.67,107.252z"/>
	<path fill="#FFFFFF" d="M66.835,121.813c0-2.571,0.046-5.146-0.022-7.719c-0.027-1.021,0.26-1.664,1.298-1.309
		c0.942,0.324,2.485-1.129,2.867,0.951c0.063,0.346,0.454,0.027,0.681-0.086c0.556-0.283,1.085-0.672,1.675-0.826
		c2.537-0.667,3.68,0.535,3.03,3.066c-0.121,0.469-0.354,0.445-0.705,0.487c-3.92,0.479-4.604,1.188-4.716,5.144
		c-0.076,2.688-0.077,5.377-0.004,8.062c0.03,1.093-0.239,1.61-1.389,1.399c-0.11-0.021-0.229-0.004-0.343-0.004
		c-2.371,0.006-2.371,0.006-2.372-2.308C66.835,126.387,66.835,124.1,66.835,121.813z"/>
	<path fill="#FFFFFF" d="M176.259,112.757c0,5.892-0.015,11.536,0.019,17.181c0.006,0.806-0.207,1.041-1.039,1.068
		c-3.063,0.102-3.063,0.139-3.063-2.994c0-3.879,0.073-7.759-0.035-11.633c-0.041-1.422,0.358-2.214,1.732-2.594
		C174.62,113.576,175.314,113.171,176.259,112.757z"/>
	<path fill="#0ED665" d="M174.292,109.303c-1.394,0.025-2.765-1.33-2.767-2.729c-0.002-1.328,1.252-2.614,2.615-2.687
		c1.479-0.078,2.729,1.109,2.767,2.619C176.943,108.034,175.779,109.275,174.292,109.303z"/>
	<path fill="#FFFFFF" d="M168.337,128.798c0.042,1.451-1.067,2.626-2.515,2.662c-1.469,0.035-2.612-1.043-2.662-2.511
		c-0.049-1.436,1.072-2.639,2.504-2.682C167.086,126.225,168.295,127.368,168.337,128.798z"/>
	<path fill="#FFFFFF" d="M116.798,73.017c-2.271-7.286-9.325-12.947-16.334-13.105c1.334,1.314,2.412,2.823,3.347,4.439
		c2.676,0.643,4.729,2.267,6.508,4.252c4.4,4.913,5.107,12.317,1.777,18.035c-3.357,5.763-9.884,8.689-16.43,7.37
		c-6.348-1.28-11.35-6.773-12.107-13.34c-0.094-0.812-0.019-1.643-0.022-2.466c-1.114-1.326-1.937-2.837-2.795-4.329
		c-0.158,0.852-0.339,1.7-0.469,2.557c-1.602,10.597,7.016,20.904,17.759,21.25C111.191,98.104,120.714,85.589,116.798,73.017z"/>
	<path fill="#FFFFFF" d="M40.413,115.605c-3.042-3.785-7.001-4.295-12.458-1.57c0.016-2.215-1.641-1.039-2.592-1.268
		c-1.219-0.295-1.619,0.187-1.608,1.514c0.071,8.285,0.033,16.57,0.044,24.857c0,0.411-0.149,0.881,0.22,1.313
		c0.77-0.328,1.479-0.697,2.229-0.938c1.25-0.396,1.747-1.089,1.66-2.488c-0.149-2.422-0.042-4.857-0.042-7.368
		c5.813,2.805,9.611,2.229,12.779-1.825C43.381,124.332,43.283,119.18,40.413,115.605z M33.052,127.844
		c-3.116-0.033-5.217-2.451-5.206-5.99c0.011-3.563,2.098-5.942,5.227-5.968c3.188-0.024,5.457,2.466,5.452,5.982
		C38.522,125.365,36.218,127.88,33.052,127.844z"/>
	<path fill="#FFFFFF" d="M123.021,113.508c-3.431-2.06-6.733-1.688-10.002,0.672c-0.117-0.298-0.152-0.345-0.152-0.392
		c-0.008-2.287-0.016-4.574-0.018-6.86c-0.002-3.707,0.008-3.691-3.25-1.969c-0.588,0.311-0.883,0.668-0.797,1.323
		c0.014,0.112,0.002,0.229,0.002,0.344c0,7.659,0.022,15.319-0.027,22.979c-0.008,1.135,0.311,1.533,1.418,1.388
		c0.563-0.073,1.144-0.013,1.715-0.015c0.449,0,0.964,0.092,0.938-0.625c-0.039-1.06,0.487-0.604,0.914-0.33
		c1.682,1.078,3.487,1.707,5.508,1.475c3.922-0.458,7.289-3.492,8.141-7.303C128.355,119.948,126.592,115.65,123.021,113.508z
		 M118.157,127.846c-3.151-0.005-5.38-2.552-5.331-6.097c0.047-3.495,2.23-5.886,5.357-5.864c3.133,0.022,5.324,2.448,5.325,5.897
		C123.514,125.355,121.309,127.852,118.157,127.846z"/>
	<path fill="#FFFFFF" d="M139.218,112.145c-5.622-0.123-9.677,4.873-9.041,11.061c0.397,3.88,3.281,7.281,6.853,8.087
		c4.115,0.926,8.156-0.688,10.262-4.119c0.159-0.26,0.604-0.659,0.266-0.85c-0.889-0.496-1.854-0.865-2.813-1.216
		c-0.8-0.287-0.851,0.574-1.214,0.932c-1.543,1.514-3.344,2.111-5.471,1.63c-2.146-0.485-3.201-1.979-3.795-4.235
		c0.766,0,1.334,0,1.903,0c3.539,0,7.08,0.008,10.622-0.008c0.516-0.002,1.193,0.233,1.215-0.719
		C148.122,116.898,144.82,112.268,139.218,112.145z M135.232,120.294c-1.034,0.017-0.918-0.41-0.654-1.14
		c0.831-2.305,2.686-3.529,5.128-3.313c2.133,0.191,3.606,1.78,4.032,4.438C140.895,120.282,138.063,120.256,135.232,120.294z"/>
	<path fill="#FFFFFF" d="M189.023,112.148c-5.446,0.05-9.646,4.324-9.586,9.766c0.06,5.414,4.217,9.618,9.539,9.646
		c5.373,0.027,9.575-4.271,9.549-9.771C198.5,116.391,194.273,112.102,189.023,112.148z M189.012,127.848
		c-3.16,0.012-5.434-2.477-5.457-5.978c-0.022-3.495,2.244-6.001,5.42-5.985c3.24,0.018,5.441,2.426,5.438,5.949
		C194.404,125.363,192.188,127.835,189.012,127.848z"/>
	<path fill="#FFFFFF" d="M54.704,112.148c-5.484-0.002-9.624,4.151-9.632,9.666c-0.008,5.521,4.168,9.781,9.555,9.748
		c5.333-0.035,9.421-4.217,9.45-9.672C64.104,116.457,59.961,112.15,54.704,112.148z M54.522,127.846
		c-3.17-0.029-5.342-2.492-5.335-6.049c0.006-3.537,2.238-5.963,5.438-5.913c3.238,0.052,5.365,2.448,5.339,6.019
		C59.938,125.438,57.703,127.878,54.522,127.846z"/>
</g>
</svg>
