<?xml version="1.0" encoding="UTF-8"?><svg xmlns="http://www.w3.org/2000/svg" viewBox="0 0 149.46 82.26"><g id="a"/><g id="b"/><g id="c"/><g id="d"/><g id="e"/><g id="f"/><g id="g"/><g id="h"/><g id="i"/><g id="j"/><g id="k"/><g id="l"/><g id="m"/><g id="n"/><g id="o"/><g id="p"/><g id="q"/><g id="r"/><g id="s"/><g id="t"/><g id="u"/><g id="v"/><g id="w"/><g id="x"/><g id="y"/><g id="a`"/><g id="aa"/><g id="ab"/><g id="ac"/><g id="ad"/><g id="ae"/><g id="af"/><g id="ag"/><g id="ah"/><g id="ai"/><g id="aj"/><g id="ak"/><g id="al"/><g id="am"/><g id="an"/><g id="ao"/><g id="ap"/><g id="aq"/><g id="ar"/><g id="as"/><g id="at"/><g id="au"/><g id="av"/><g id="aw"/><g id="ax"/><g id="ay"/><g id="b`"/><g id="ba"/><g id="bb"/><g id="bc"/><g id="bd"/><g id="be"/><g id="bf"/><g id="bg"/><g id="bh"/><g id="bi"/><g id="bj"/><g id="bk"/><g id="bl"/><g id="bm"/><g id="bn"/><g id="bo"/><g id="bp"/><g id="bq"/><g id="br"/><g id="bs"/><g id="bt"/><g id="bu"/><g id="bv"/><g id="bw"/><g id="bx"/><g id="by"/><g id="c`"/><g id="ca"/><g id="cb"/><g id="cc"/><g id="cd"/><g id="ce"/><g id="cf"/><g id="cg"/><g id="ch"/><g id="ci"/><g id="cj"/><g id="ck"/><g id="cl"/><g id="cm"/><g id="cn"/><g id="co"/><g id="cp"/><g id="cq"/><g id="cr"/><g id="cs"/><g id="ct"/><g id="cu"/><g id="cv"/><g id="cw"/><g id="cx"/><g id="cy"/><g id="d`"/><g id="da"/><g id="db"/><g id="dc"/><g id="dd"/><g id="de"/><g id="df"/><g id="dg"/><g id="dh"/><g id="di"><path d="M1.64,68.88c-.1-6.48,5.08-11.95,12.52-11.85,1.91,0,3.54,.23,4.91,.73,1.4,.47,2.44,.9,3.07,1.3v3.87c-.6-.5-1.57-1.03-2.94-1.6-1.37-.6-3.04-.9-5.04-.9-5.51,0-8.75,3.71-8.75,8.45s3.37,8.45,8.15,8.45c2.21,0,4.36-.72,6.14-2.04v-4.91h-6.78v-3.41h10.42v13.26h-3.64v-1.17c-1.34,.84-3.47,1.67-6.14,1.67-7.02,0-12.03-5.37-11.93-11.85h0Zm24.57,2.73c0-5.04,3.74-9.15,9.01-9.15,2.5,0,4.61,.97,5.81,2.17v-1.66h3.57v17.26h-3.64l.04-1.77c-1.14,1.17-2.97,2.27-5.78,2.27-5.28,0-9.01-4.07-9.01-9.12h0Zm15.02-.03c0-3.74-2.54-5.91-5.74-5.91s-5.68,2.64-5.68,5.91,2.44,5.94,5.68,5.94,5.74-2.17,5.74-5.94h0Zm34.15-1.97v10.62h-3.61v-10.25c0-2.77-1-4.34-3.37-4.34-2.17,0-4.34,1.64-4.34,4.88v9.71h-3.61v-10.25c0-2.77-1-4.34-3.37-4.34-2,0-4.04,1.4-4.31,4.21v10.38h-3.61v-17.26h3.61v2.07c.2-.47,1.37-2.61,4.84-2.61,2.44,0,4.34,.97,5.44,2.84,.8-1.5,2.6-2.84,5.88-2.84,3.88,0,6.45,2.44,6.45,7.19h0Zm2.67,2c0-5.04,3.74-9.15,9.02-9.15,2.5,0,4.61,.97,5.81,2.17v-7.08l3.61-.6v23.27h-3.68l.04-1.77c-1.14,1.17-2.97,2.27-5.78,2.27-5.28,0-9.02-4.07-9.02-9.11h0Zm15.03-.03c0-3.74-2.54-5.91-5.74-5.91s-5.78,2.64-5.78,5.91,2.54,5.94,5.78,5.94,5.74-2.17,5.74-5.94h0Zm6.41,.03c0-5.04,4.21-9.15,9.45-9.15s9.45,4.1,9.45,9.15-4.21,9.12-9.45,9.12-9.45-4.07-9.45-9.12h0Zm15.42,0c0-3.27-2.57-5.91-5.97-5.91s-5.97,2.64-5.97,5.91,2.57,5.88,5.97,5.88,5.97-2.63,5.97-5.88h0Zm32.89-2v10.62h-3.61v-10.25c0-2.77-1-4.34-3.37-4.34-2.17,0-4.34,1.64-4.34,4.88v9.71h-3.61v-10.25c0-2.77-1-4.34-3.37-4.34-2,0-4.04,1.4-4.31,4.21v10.38h-3.6v-17.26h3.61v2.07c.2-.47,1.37-2.61,4.84-2.61,2.44,0,4.34,.97,5.44,2.84,.8-1.5,2.61-2.84,5.88-2.84,3.87,0,6.44,2.44,6.44,7.19h0Z" style="fill:#fff;"/><path d="M73.08,24.11l-11.28,5.31c-.16,.08-.3,.21-.4,.36-.1,.16-.15,.34-.15,.52l-.02,10.35c0,.38,.21,.72,.55,.88l11.26,5.35c.29,.14,.6,.2,.91,.21l.04-23.19c-.31,0-.62,.08-.92,.21h0Zm.39-22.47l-5.29,2.62v7.03l-6.19,3.04V7.24l-5.55,2.75c-.18,.09-.33,.23-.44,.4s-.16,.37-.16,.57v13.55c0,.79,.84,1.32,1.55,.97l15.61-7.66c.31-.15,.63-.22,.96-.22V1.53c-.17,0-.35,.04-.5,.12h0Z" style="fill:#75f991;"/><path d="M86.16,29.44l-11.27-5.33c-.28-.14-.6-.21-.91-.2v23.19c.31,0,.63-.07,.92-.2l11.27-5.34c.17-.08,.3-.21,.4-.36,.1-.16,.15-.34,.15-.52v-10.35c0-.19-.05-.37-.15-.52-.1-.16-.24-.28-.4-.37h0Zm5.34-19.45l-5.55-2.75v7.1l-6.2-3.04V4.27l-5.29-2.62c-.16-.08-.33-.12-.5-.12V17.6c.33,0,.66,.08,.96,.22l15.61,7.66c.16,.08,.35,.12,.53,.11s.36-.07,.52-.16,.28-.23,.37-.39c.09-.16,.14-.34,.14-.52V10.97c0-.2-.05-.4-.16-.57-.11-.17-.26-.31-.44-.4h0Z" style="fill:#60ce7a;"/></g></svg>