<svg width="140" height="74" viewBox="0 0 140 74" fill="none" xmlns="http://www.w3.org/2000/svg">
<path fill-rule="evenodd" clip-rule="evenodd" d="M11.6 8.5C7.2 8.5 4.1 10.2 3.2 14.7L2.5 18.6C2.4 18.9 2.4 19.2 2.4 19.5C2.4 21.7 3.9 23.3 5.9 24.6L9 26.6C10 27.2 10.5 27.9 10.5 29C10.5 29.3 10.5 29.6 10.4 29.9L10 32.3C9.7 34.1 8.5 35 7 35C5.7 35 4.9 34.4 4.9 33C4.9 32.8 4.9 32.6 5 32.3L5.8 27.8H1L0.1 33C3.7998e-07 33.5 0 34 0 34.4C0 38 2.7 39.2 6.3 39.2H6.4C11.3 39.2 13.9 37.6 14.8 32.9L15.6 28.6C15.7 28.2 15.7 27.8 15.7 27.4C15.7 25.2 14.3 24 12.1 22.6L9 20.6C8 20 7.6 19.3 7.6 18.3C7.6 18 7.6 17.7 7.7 17.4L8.1 15.3C8.4 13.4 9.6 12.7 11 12.7C12.2 12.7 13.1 13.2 13.1 14.6C13.1 14.8 13.1 15 13 15.3L12.2 19.5H17L17.8 14.6C17.9 14.1 17.9 13.7 17.9 13.3C17.9 9.9 14.9 8.5 11.6 8.5ZM126 9.2L120.7 39.4H134.2L135 35H126.5L128.1 26.2H135L135.8 21.8H128.9L130.3 13.5H138.6L139.4 9.2H126ZM107.2 9.2L102 39.4H106.9L109 27.3H111.6L113.2 39.4H118.1L116.1 26.7C118.3 25.8 119.7 24 120.2 21L121.1 15.6C121.2 15.1 121.2 14.7 121.2 14.2C121.2 10.7 118.4 9.2 114.7 9.2H107.2ZM111.5 13.5H114C115.4 13.5 116.3 13.9 116.3 15.4C116.3 15.6 116.3 15.9 116.2 16.2L115.5 20.1C115.1 22.2 114 22.8 112.4 22.8H109.9L111.5 13.5ZM97.8 9.2L92.7 39.4H97.6L102.7 9.2H97.8ZM88.5 9.2L86.3 21.8H80.7L82.8 9.2H77.9L72.7 39.4H77.6L79.9 26.3H85.5L83.2 39.4H88.1L93.3 9.2H88.5ZM59.1 9.2L53.9 39.4H58.8L60.8 27.7H63.5C68.4 27.7 71.2 25.9 72.1 21.4L73.1 15.7C73.2 15.2 73.2 14.8 73.2 14.3C73.2 10.8 70.4 9.3 66.7 9.3C66.6 9.2 59.1 9.2 59.1 9.2ZM63.4 13.5H65.9C67.3 13.5 68.2 13.9 68.2 15.4C68.2 15.6 68.2 15.9 68.1 16.2L67.4 20.2C67 22.3 65.9 22.8 64.3 22.8H61.8L63.4 13.5ZM40.4 9.2L35.2 39.4H40.1L42.1 27.7H44.8C49.7 27.7 52.5 25.9 53.4 21.4L54.4 15.7C54.5 15.2 54.5 14.8 54.5 14.3C54.5 10.8 51.7 9.3 48 9.3C47.9 9.2 40.4 9.2 40.4 9.2ZM44.7 13.5H47.2C48.6 13.5 49.5 13.9 49.5 15.4C49.5 15.6 49.5 15.9 49.4 16.2L48.7 20.2C48.3 22.3 47.2 22.8 45.6 22.8H43.1L44.7 13.5ZM25.8 9.2L15 39.4H19.8L22 32.7H27.4L27.3 39.4H32.1L31.8 9.2H25.8ZM28 14.9L27.7 28.6H23.7L28 14.9Z" fill="#E2B168"/>
<path d="M31.6 44.5L31.9 43L32.2 44.5C32.3 44.9 32.6 45.1 32.9 45.2L34.4 45.5L32.9 45.8C32.5 45.9 32.3 46.2 32.2 46.5L31.9 48L31.6 46.5C31.5 46.1 31.2 45.9 30.9 45.8L29.4 45.5L30.9 45.2C31.3 45.1 31.5 44.8 31.6 44.5Z" fill="#E2B168"/>
<path d="M20.4 55.1C21.6 54.9 22.5 53.9 22.8 52.7L24 47.4L25.1 52.8C25.3 54 26.3 54.9 27.5 55.2L32.8 56.3L27.4 57.4C26.2 57.6 25.3 58.6 25 59.8L23.9 65.2L22.8 59.8C22.6 58.6 21.6 57.7 20.4 57.4L15 56.3L20.4 55.1Z" fill="#E2B168"/>
<path d="M35.3 63.7C35.9 63.6 36.3 63.1 36.4 62.6L36.9 60.2L37.4 62.6C37.5 63.2 38 63.6 38.5 63.7L40.9 64.2L38.5 64.7C37.9 64.8 37.5 65.3 37.4 65.8L36.9 68.2L36.4 65.8C36.3 65.2 35.8 64.8 35.3 64.7L32.9 64.2L35.3 63.7Z" fill="#E2B168"/>
<path fill-rule="evenodd" clip-rule="evenodd" d="M81.3 43.3999L81 44.9999H86.8L81.8 73.5999H83.5L88.5 44.9999H94.3L94.6 43.3999H81.3ZM67.6 43.3999L62.4 73.5999H73.9L74.2 71.9999H64.4L66.6 59.0999H74.9L75.2 57.4999H66.7L68.8 45.0999H78.5L78.8 43.3999H67.6ZM48.3 43.3999L43 73.5999H50C55 73.5999 57.1 70.9999 57.7 67.6999L58.6 62.7999C58.6 62.4999 58.7 62.1999 58.7 61.8999C58.7 60.1999 57.9 58.3999 55.9 58.0999C58.7 57.7999 59.8 55.5999 60.1 53.3999L60.7 49.5999C60.8 49.1999 60.8 48.7999 60.8 48.3999C60.8 45.6999 59 43.6999 55.3 43.6999H48.3V43.3999ZM49.7 44.7999H54.7C57.6 44.7999 58.7 45.8999 58.7 48.0999C58.7 48.5999 58.6 49.1999 58.5 49.7999L57.9 53.2999C57.5 55.7999 55.6 56.8999 52.5 56.8999H47.6L49.7 44.7999ZM47.3 58.4999H52.5C55.2 58.4999 56.5 59.3999 56.6 61.1999C56.6 61.3999 56.6 61.6999 56.5 61.9999L55.7 66.4999C55.2 69.6999 53.8 71.3999 50.3 71.3999H45.1L47.3 58.4999Z" fill="#E2B168"/>
</svg>
