<?xml version="1.0" encoding="UTF-8"?><svg xmlns="http://www.w3.org/2000/svg" viewBox="0 0 248.46 50.77"><g id="a"/><g id="b"/><g id="c"/><g id="d"/><g id="e"/><g id="f"/><g id="g"/><g id="h"/><g id="i"/><g id="j"/><g id="k"/><g id="l"/><g id="m"/><g id="n"/><g id="o"/><g id="p"/><g id="q"/><g id="r"/><g id="s"/><g id="t"/><g id="u"/><g id="v"/><g id="w"/><g id="x"/><g id="y"/><g id="a`"/><g id="aa"/><g id="ab"/><g id="ac"/><g id="ad"/><g id="ae"/><g id="af"/><g id="ag"/><g id="ah"/><g id="ai"/><g id="aj"/><g id="ak"/><g id="al"/><g id="am"/><g id="an"/><g id="ao"/><g id="ap"/><g id="aq"/><g id="ar"/><g id="as"/><g id="at"/><g id="au"/><g id="av"/><g id="aw"/><g id="ax"/><g id="ay"/><g id="b`"/><g id="ba"/><g id="bb"/><g id="bc"/><g id="bd"/><g id="be"/><g id="bf"/><g id="bg"/><g id="bh"/><g id="bi"/><g id="bj"/><g id="bk"/><g id="bl"/><g id="bm"/><g id="bn"/><g id="bo"/><g id="bp"/><g id="bq"/><g id="br"/><g id="bs"/><g id="bt"/><g id="bu"/><g id="bv"/><g id="bw"/><g id="bx"/><g id="by"/><g id="c`"/><g id="ca"/><g id="cb"/><g id="cc"/><g id="cd"/><g id="ce"/><g id="cf"/><g id="cg"/><g id="ch"/><g id="ci"/><g id="cj"/><g id="ck"/><g id="cl"/><g id="cm"/><g id="cn"/><g id="co"/><g id="cp"/><g id="cq"/><g id="cr"/><g id="cs"/><g id="ct"/><g id="cu"/><g id="cv"/><g id="cw"/><g id="cx"/><g id="cy"/><g id="d`"/><g id="da"/><g id="db"/><g id="dc"/><g id="dd"/><g id="de"/><g id="df"/><g id="dg"/><g id="dh"/><g id="di"/><g id="dj"/><g id="dk"/><g id="dl"/><g id="dm"/><g id="dn"/><g id="do"/><g id="dp"/><g id="dq"/><g id="dr"/><g id="ds"/><g id="dt"/><g id="du"/><g id="dv"/><g id="dw"/><g id="dx"/><g id="dy"/><g id="e`"/><g id="ea"/><g id="eb"/><g id="ec"/><g id="ed"/><g id="ee"/><g id="ef"/><g id="eg"/><g id="eh"/><g id="ei"/><g id="ej"/><g id="ek"/><g id="el"/><g id="em"><path d="M86.05,40.99c-.13,2.4-.1,4.82,0,7.23,.05,1.4-.45,1.85-1.86,1.84-12.83-.04-25.66-.05-38.48,0-1.82,0-1.77-.95-1.77-2.2,.02-7.59,.01-15.17,.01-22.76,0-7.32,.05-14.64-.04-21.95-.02-1.79,.36-2.48,2.35-2.46,12.19,.09,24.39,.07,36.59,.01,1.68,0,2.47,.33,2.33,2.18-.16,2.13-.16,4.29,0,6.42,.13,1.84-.64,2.21-2.33,2.19-6.95-.08-13.91,.05-20.87-.08-2.06-.04-2.59,.56-2.55,2.55,.1,4.98,0,4.98,4.91,4.98,5.69,0,11.38,.04,17.07-.03,1.52-.02,2.1,.43,2.01,1.96-.11,1.96-.15,3.93,0,5.89,.14,1.85-.45,2.46-2.39,2.42-6.32-.12-12.65,.02-18.97-.08-1.92-.03-2.86,.33-2.62,2.46,.26,2.28-.94,5.25,.47,6.71,1.43,1.48,4.45,.44,6.77,.47,5.69,.07,11.38,.09,17.07-.02,1.79-.03,2.39,.48,2.3,2.25Zm48.59-1.72c-8.56,.11-17.12,.05-26.34,.05,9.07-9.28,17.66-18.06,26.25-26.85,.74-.76,1.6-1.41,1.57-2.67-.06-2.5-.05-5,0-7.49,.02-1.13-.37-1.57-1.56-1.57-13.46,.03-26.92,.03-40.38,0-1.18,0-1.59,.4-1.56,1.55,.06,2.23,.15,4.47-.02,6.69-.15,1.96,.41,2.6,2.5,2.56,6.59-.14,13.19-.07,19.78-.03,.63,0,1.44-.4,2.01,.55-7.18,7.38-14.37,14.78-21.58,22.16q-5.73,5.87-5.4,13.97c.05,1.33,.32,1.88,1.8,1.88,14.54-.05,29.09-.05,43.63,0,1.45,0,1.88-.48,1.82-1.85-.09-2.14-.16-4.29,.02-6.42,.17-2.03-.53-2.54-2.55-2.52ZM36,.7c-5.14,.13-10.29,0-15.44,.06C13.89,.84,7.21,.48,.54,.95c-.18-.07-.36-.14-.54-.2V50.03l.54-.2c4.32,.46,8.66,0,12.97,.24,1.83,.1,2.27-.56,2.24-2.27-.1-5.17,.03-10.35-.07-15.52-.03-1.68,.52-2.15,2.16-2.08,3.07,.12,17.29-.09,17.29-.09l.11-10.09s-9.88,.01-13.59,.01c-5.98,0-5.9,0-5.98-6.04-.02-1.94,.4-2.62,2.51-2.57,6.05,.15,12.1,.01,18.15,.08,1.49,.02,2.13-.37,2.05-1.94-.11-2.14-.14-4.29,0-6.42,.12-1.83-.42-2.49-2.38-2.44Z" style="fill:#fff;"/><path d="M154.81,44.6l-.33,4.45h-8.33V.48h9.01V19.12c9-6.63,18.18-6.35,23.85,.46,6.06,7.28,5.46,19.59-1.27,25.83-6.4,5.93-15.92,5.71-22.93-.82Zm19.05-12.64c-.05-6.18-4.15-10.56-9.78-10.46-5.49,.1-9.2,4.49-9.09,10.73,.12,6.2,4.19,10.59,9.75,10.5,5.35-.08,9.16-4.59,9.11-10.77Zm48.09,3.02h-24.48c-.33,6.6,9.04,12.11,20.16,4.86l3.63,4.93c-5.51,4.72-11.82,6.16-18.67,5.27-7.76-1.01-12.79-5.44-14.43-12.18-1.95-7.98,.67-15.83,6.73-20.14,5.81-4.14,14.38-4.45,20.43-.72,5.79,3.56,8.63,11.11,6.62,17.98Zm-24.91-6.04h16.15c-.31-5.13-2.64-7.52-7.35-7.7-4.98-.2-8.15,2.53-8.79,7.7Zm33.37-.14c.12,4.7,.05,9.42,.51,14.09,.44,4.47,3.08,6.93,7.49,7.26,2.42,.18,4.9-.19,7.33-.51,.62-.08,1.62-.86,1.64-1.35,.08-1.99-.14-4-.26-6.03-5.36,.86-7.11,.19-7.28-3.26-.28-5.57-.07-11.16-.07-17.02h7.71v-7.15h-7.92V5.37h-9.22V14.97h-4.84v7.02h4.91c0,2.5-.05,4.66,0,6.81Z"/></g><g id="en"/><g id="eo"/><g id="ep"/><g id="eq"/><g id="er"/><g id="es"/><g id="et"/></svg>