<?xml version="1.0" encoding="UTF-8"?>
<svg id="Layer_1" data-name="Layer 1" xmlns="http://www.w3.org/2000/svg" width="200" height="36" version="1.1" viewBox="0 0 200 36">
  <defs>
    <style>
      .cls-1 {
        fill: #95dc00;
      }

      .cls-1, .cls-2 {
        stroke-width: 0px;
      }

      .cls-2 {
        fill: #fff;
      }
    </style>
  </defs>
  <path class="cls-1" d="M12.7,35.2c-.7,0-1.4-.5-1.6-1.2L1.1,3c-.3-1,.5-2.2,1.6-2.2h8.5c.7,0,1.4.5,1.6,1.2l5.6,18.5L24.5,2c.2-.7.8-1.2,1.6-1.2h8.3c.7,0,1.4.5,1.6,1.2l5.8,19.2,3.4-9.3c.2-.7.8-1,1.5-1h6.9c1.2,0,2,1,1.5,2.2l-7,21.1c-.2.7-.8,1.2-1.5,1.2h-10.1c-.7,0-1.4-.5-1.6-1.2l-5.2-15.4-5.5,15.4c-.2.7-.8,1.2-1.6,1.2h-9.8Z"/>
  <path class="cls-1" d="M58.4,35.2c-.9,0-1.6-.7-1.6-1.6V12.5c0-.9.7-1.6,1.6-1.6h6.8c.9,0,1.6.7,1.6,1.6v21.2c0,.9-.7,1.6-1.6,1.6h-6.8Z"/>
  <path class="cls-1" d="M88.1,10.7c1.9,0,3.6.3,5.1,1.2,1.5.7,2.7,2,3.6,3.6.9,1.6,1.3,3.1,1.3,5.7v12.3c0,.9-.7,1.6-1.6,1.6h-6.8c-.9,0-1.6-.7-1.6-1.6v-10.6c0-1.5-.2-2.6-.8-3.3-.6-.7-1.3-1-2.2-1s-1.3.1-1.9.5-1,.9-1.4,1.6c-.3.7-.5,1.7-.5,2.9v9.9c0,.9-.7,1.6-1.6,1.6h-6.8c-.9,0-1.6-.7-1.6-1.6V12.5c0-.9.7-1.6,1.6-1.6h6.8c.9,0,1.6.7,1.6,1.6v1.3c.6-.6,1.2-1,1.9-1.5,1.5-1,2.9-1.5,4.9-1.5Z"/>
  <path class="cls-2" d="M50.6.9c-.7,0-1.4.5-1.5,1.2l-.9,2.6c-.3,1,.5,2.2,1.5,2.2h15.5c.9,0,1.6-.7,1.6-1.6v-2.6c0-.9-.7-1.6-1.6-1.6h-14.6Z"/>
  <path class="cls-2" d="M113.6,35.2c-.7,0-1.4-.5-1.6-1.2l-9.9-31c-.3-1,.5-2.2,1.6-2.2h8.5c.7,0,1.4.5,1.6,1.2l5.6,18.4,5.9-18.5c.2-.7.8-1.2,1.6-1.2h8.3c.7,0,1.4.5,1.6,1.2l5.8,19.2,3.6-9.4c.2-.7.8-1,1.5-1h6.9c1.2,0,2,1,1.5,2.2l-7,21.1c-.2.7-.8,1.2-1.5,1.2h-10.1c-.7,0-1.4-.5-1.6-1.2l-5.2-15.4-5.5,15.4c-.2.7-.8,1.2-1.6,1.2h-10Z"/>
  <path class="cls-2" d="M159.3,35.2c-.9,0-1.6-.7-1.6-1.6V12.5c0-.9.7-1.6,1.6-1.6h6.8c.9,0,1.6.7,1.6,1.6v21.2c0,.9-.7,1.6-1.6,1.6h-6.8Z"/>
  <path class="cls-2" d="M189,10.7c1.9,0,3.6.3,5.1,1.2,1.5.7,2.7,2,3.6,3.6s1.3,3.1,1.3,5.7v12.3c0,.9-.7,1.6-1.6,1.6h-6.8c-.9,0-1.6-.7-1.6-1.6v-10.6c0-1.5-.2-2.6-.8-3.3-.6-.7-1.3-1-2.2-1s-1.3.1-1.9.5-1,.9-1.4,1.6-.5,1.7-.5,2.9v9.9c0,.9-.7,1.6-1.6,1.6h-6.8c-.9,0-1.6-.7-1.6-1.6V12.5c0-.9.7-1.6,1.6-1.6h6.8c.9,0,1.6.7,1.6,1.6v1.3c.6-.6,1.2-1,1.9-1.5,1.6-1,2.9-1.5,4.9-1.5Z"/>
  <path class="cls-1" d="M151.5.9c-.7,0-1.4.5-1.5,1.2l-1,2.6c-.3,1,.5,2.2,1.5,2.2h15.5c.9,0,1.6-.7,1.6-1.6v-2.6c0-.9-.7-1.6-1.6-1.6h-14.4Z"/>
</svg>